<svg id="Layer_1" data-name="Layer 1" xmlns="http://www.w3.org/2000/svg" viewBox="0 0 105.64 105.64"><defs><style>.cls-1{fill:none}</style><clipPath id="clip-path" transform="translate(6.12 25.9)"><path class="cls-1" d="M45.63 41.68c.51.15 1 .28 1.28.35-.43-.11-.85-.23-1.27-.36z"/></clipPath><clipPath id="clip-path-2" transform="translate(6.12 25.9)"><path class="cls-1" d="M47.23 42.11l-.23-.06z"/></clipPath><clipPath id="clip-path-3" transform="translate(6.12 25.9)"/><clipPath id="clip-path-4" transform="translate(6.12 25.9)"><path class="cls-1" d="M62.53 40a2 2 0 0 1-.25.14z"/></clipPath><clipPath id="clip-path-5" transform="translate(6.12 25.9)"><path class="cls-1" d="M46.34-3.46l-9.29 9.29a22.54 22.54 0 0 0-2.18 2.54c-.14.2-.27.4-.41.59a24.86 24.86 0 0 1 13.71.22l.76-.76 5.12-5.12a11.5 11.5 0 0 1 16.27 16.27l-5.84 5.84-1.2 1.2-1.17 1.17-2 1.94a11.46 11.46 0 0 1-7.27 3.34 12.28 12.28 0 0 1-1.44 0 7.26 7.26 0 0 1-1.4-.13 11.5 11.5 0 0 1-9.28-9.13v-.18a8.62 8.62 0 0 0-5.4 2.49l-3.09 3.09a21.76 21.76 0 0 0 12.19 12.22c.5.19 1 .37 1.5.52s.85.26 1.28.36h.09l.23.06a21.83 21.83 0 0 0 13.41-1.16 16.88 16.88 0 0 0 1.55-.73h.08l.26-.14c.21-.12.43-.23.64-.36a22.14 22.14 0 0 0 4.32-3.36l9.29-9.29A21.74 21.74 0 0 0 46.34-3.46z"/></clipPath><clipPath id="clip-path-6" transform="translate(6.12 25.9)"><path class="cls-1" d="M47.06 57.3l9.29-9.3a21.69 21.69 0 0 0 2.18-2.54c.14-.19.27-.39.4-.59a24.65 24.65 0 0 1-13.7-.22l-.76.76-5.12 5.13a11.51 11.51 0 0 1-16.27-16.27l5.84-5.84 1.2-1.2 1.17-1.17 2-1.95a11.47 11.47 0 0 1 7.27-3.33 10.6 10.6 0 0 1 1.45 0 7.26 7.26 0 0 1 1.42.18 11.5 11.5 0 0 1 9.29 9.13v.19a8.58 8.58 0 0 0 5.39-2.49l3.1-3.1A21.68 21.68 0 0 0 49 12.43c-.49-.19-1-.37-1.5-.53s-.84-.25-1.27-.36h-.32a21.79 21.79 0 0 0-13.42 1.18c-.52.22-1 .46-1.55.72l-.08.05-.25.14c-.22.11-.43.23-.64.36a21.8 21.8 0 0 0-4.32 3.35l-9.29 9.29a21.74 21.74 0 0 0 30.7 30.67z"/></clipPath><clipPath id="clip-path-7" transform="translate(6.12 25.9)"/><clipPath id="clip-path-8" transform="translate(6.12 25.9)"><path class="cls-1" d="M62.2 40.2l.08-.05z"/></clipPath><clipPath id="clip-path-9" transform="translate(6.12 25.9)"><path class="cls-1" d="M49.73 32.65a7.43 7.43 0 0 0 1.42.18 11.43 11.43 0 0 1-1.42-.16z"/></clipPath><clipPath id="clip-path-10" transform="translate(6.12 25.9)"><path class="cls-1" d="M47 42.05h-.09z"/></clipPath><clipPath id="clip-path-11" transform="translate(6.12 25.9)"><path class="cls-1" d="M51.15 32.81a10.43 10.43 0 0 0 1.45 0 10 10 0 0 1-1.45 0z"/></clipPath><clipPath id="clip-path-12" transform="translate(6.12 25.9)"/><clipPath id="clip-path-13" transform="translate(6.12 25.9)"><path class="cls-1" transform="rotate(-45 52.673 32.792)" d="M52.62 32.74h.1v.1h-.1z"/></clipPath></defs><g clip-path="url(#clip-path)"><path transform="rotate(-45 80.588 47.41)" d="M40.94 36.28H51.6v11.16H40.94z"/></g><g clip-path="url(#clip-path-2)"><path transform="rotate(-45 81.441 47.636)" d="M42.05 36.98h10.13v10.2H42.05z"/></g><g clip-path="url(#clip-path-3)"><path transform="rotate(-45 95.744 46.121)" d="M55.61 35.28h11.62v10.58H55.61z"/></g><g clip-path="url(#clip-path-4)"><path transform="rotate(-45 96.718 45.648)" d="M57.27 35.04h10.28v10.08H57.27z"/></g><g fill="#c4c4c4" clip-path="url(#clip-path-5)"><path transform="rotate(-45 91.373 22.122)" d="M23.76-10.18h66.61v53.47H23.76z"/></g><g fill="#c4c4c4" clip-path="url(#clip-path-6)"><path transform="rotate(-45 70.651 42.855)" d="M3.03 10.55h66.6v53.47H3.03z"/></g><g clip-path="url(#clip-path-7)"><path transform="rotate(-45 97.49 45.218)" d="M58.17 34.65h10.01v10H58.17z"/></g><g clip-path="url(#clip-path-8)"><path transform="rotate(-45 96.554 45.736)" d="M57.2 35.16h10.09v10.03H57.2z"/></g><g clip-path="url(#clip-path-9)"><path transform="rotate(-45 84.773 38.296)" d="M45 27.17h10.89V38.3H45z"/></g><g clip-path="url(#clip-path-10)"><path transform="rotate(-45 81.274 47.595)" d="M41.93 37h10.05v10.08H41.93z"/></g><g clip-path="url(#clip-path-11)"><path transform="rotate(-45 86.184 38.371)" d="M46.35 27.3H57.4v11.01H46.35z"/></g><g clip-path="url(#clip-path-12)"><path transform="rotate(-45 86.915 38.349)" d="M47.59 27.78H57.6v10.01H47.59z"/></g><g clip-path="url(#clip-path-13)"><path transform="rotate(-45 86.985 38.35)" d="M47.62 27.74h10.1v10.1h-10.1z"/></g></svg>