<?xml version="1.0" encoding="UTF-8"?>
<svg width="96px" height="96px" viewBox="0 0 96 96" version="1.1" xmlns="http://www.w3.org/2000/svg" xmlns:xlink="http://www.w3.org/1999/xlink">
    <!-- Generator: Sketch 52.1 (67048) - http://www.bohemiancoding.com/sketch -->
    <title>Path</title>
    <desc>Created with Sketch.</desc>
    <g id="Page-1" stroke="none" stroke-width="1" fill="none" fill-rule="evenodd">
        <g id="noun_Phone_1147910" transform="translate(-2.000000, 0.000000)" fill="#ffffff">
            <path d="M88.4,91.1 C86.5,94 83.2,95.7 79.7,95.5 C76.2,95.3 71.7,94.8 68.6,94 C54.8,90.4 40.5,81.8 28.4,69.7 C16.3,57.6 7.7,43.3 4.1,29.5 C3.3,26.4 2.9,22 2.6,18.5 C2.4,15.1 4,11.8 6.9,9.9 L19.2,1.7 C22.4,-0.4 26.7,0.7 28.4,4.1 L38.4,23.4 C39.8,26.1 39.1,29.5 36.7,31.4 L27.7,38.4 C31.3,45.1 34.7,50.5 41.3,57 C47.4,63.1 52.7,66.7 59.6,70.4 L66.7,61.3 C68.6,58.9 72,58.1 74.7,59.6 L94.1,69.6 C97.5,71.3 98.6,75.6 96.5,78.8 L88.4,91.1 Z" id="Path"></path>
        </g>
    </g>
</svg>