<svg xmlns="http://www.w3.org/2000/svg" width="76" height="77"><path d="M70.43 42.254l-1.03-1.408a4.426 4.426 0 0 1-.04-5.168l1-1.421a4.437 4.437 0 0 0-1.53-6.463l-1.53-.823a4.4 4.4 0 0 1-2.27-4.639l.29-1.713a4.431 4.431 0 0 0-4.18-5.156l-1.74-.069a4.438 4.438 0 0 1-4.06-3.19l-.49-1.674a4.412 4.412 0 0 0-6-2.826l-1.6.684a4.414 4.414 0 0 1-5.04-1.116l-1.15-1.3a4.416 4.416 0 0 0-6.63.055l-1.14 1.31a4.428 4.428 0 0 1-5.03 1.184l-1.61-.669a4.432 4.432 0 0 0-5.96 2.925l-.46 1.687a4.385 4.385 0 0 1-4.01 3.244l-1.74.1a4.419 4.419 0 0 0-4.09 5.224l.32 1.713a4.412 4.412 0 0 1-2.2 4.668l-1.52.85a4.427 4.427 0 0 0-1.42 6.477l1.03 1.408a4.426 4.426 0 0 1 .04 5.168l-1 1.422A4.436 4.436 0 0 0 7.17 49.2l1.53.823a4.4 4.4 0 0 1 2.27 4.637l-.29 1.715a4.429 4.429 0 0 0 4.18 5.154l1.74.071a4.435 4.435 0 0 1 4.06 3.19l.49 1.672a4.414 4.414 0 0 0 6 2.829l1.6-.684a4.413 4.413 0 0 1 5.04 1.115l1.15 1.3a4.415 4.415 0 0 0 6.63-.057l1.14-1.309a4.43 4.43 0 0 1 5.03-1.184l1.61.667a4.43 4.43 0 0 0 5.96-2.926l.46-1.684a4.4 4.4 0 0 1 4.01-3.246l1.74-.1a4.419 4.419 0 0 0 4.09-5.225l-.32-1.714a4.411 4.411 0 0 1 2.2-4.667l1.52-.849a4.424 4.424 0 0 0 1.42-6.474z" fill="none" stroke="#45b9bd" stroke-linejoin="round" stroke-width="3"/></svg>