<svg xmlns="http://www.w3.org/2000/svg" width="45" height="45"><path data-name="Forma 1" d="M38.41 6.59A22.5 22.5 0 1 0 45 22.5a22.464 22.464 0 0 0-6.59-15.91zm-1.24 30.58A20.705 20.705 0 0 1 1.82 22.5 20.69 20.69 0 0 1 22.5 1.82a20.711 20.711 0 0 1 14.67 35.35zm-2.25-27.09a17.467 17.467 0 1 0 5.16 12.37 17.557 17.557 0 0 0-5.16-12.37zm-1.29 23.55a15.7 15.7 0 0 1-10.22 4.59v-2.25a.91.91 0 0 0-1.82 0v2.25a15.509 15.509 0 0 1-10.22-4.59 15.7 15.7 0 0 1-4.59-10.22h2.25a.91.91 0 1 0 0-1.82H6.78a15.382 15.382 0 0 1 4.59-10.22 15.7 15.7 0 0 1 10.22-4.59v2.25a.91.91 0 0 0 1.82 0V6.78a15.509 15.509 0 0 1 10.22 4.59 15.7 15.7 0 0 1 4.59 10.22h-2.25a.91.91 0 0 0 0 1.82h2.25a15.509 15.509 0 0 1-4.59 10.22zM23.36 19.82v-7.3a.91.91 0 1 0-1.82 0v7.3a3.036 3.036 0 0 0-1.05.63l-.04.04a2.788 2.788 0 0 0-.67 1.1h-5.45a.907.907 0 0 0-.91.91.941.941 0 0 0 .91.91h5.45a2.788 2.788 0 0 0 .67 1.1 2.82 2.82 0 0 0 2 .81 3.076 3.076 0 0 0 2.01-.81 2.861 2.861 0 0 0 .81-2.01 2.753 2.753 0 0 0-1.91-2.68zm-.14 3.4a.972.972 0 0 1-.72.28.913.913 0 0 1-.72-.28 1.066 1.066 0 0 1 0-1.44l.05-.04a.943.943 0 0 1 .72-.29.866.866 0 0 1 .71.29.936.936 0 0 1 .29.71.978.978 0 0 1-.33.77z" fill="#45b9bd" fill-rule="evenodd"/></svg>