<svg xmlns="http://www.w3.org/2000/svg" width="45" height="45" viewBox="0 0 45 45">
  <metadata><?xpacket begin="﻿" id="W5M0MpCehiHzreSzNTczkc9d"?>
<x:xmpmeta xmlns:x="adobe:ns:meta/" x:xmptk="Adobe XMP Core 5.6-c138 79.159824, 2016/09/14-01:09:01        ">
   <rdf:RDF xmlns:rdf="http://www.w3.org/1999/02/22-rdf-syntax-ns#">
      <rdf:Description rdf:about=""/>
   </rdf:RDF>
</x:xmpmeta>
                                                                                                    
                                                                                                    
                                                                                                    
                                                                                                    
                                                                                                    
                                                                                                    
                                                                                                    
                                                                                                    
                                                                                                    
                                                                                                    
                                                                                                    
                                                                                                    
                                                                                                    
                                                                                                    
                                                                                                    
                                                                                                    
                                                                                                    
                                                                                                    
                                                                                                    
                                                                                                    
                           
<?xpacket end="w"?></metadata>
<defs>
    <style>
      .cls-1 {
        fill: #fff;
      }
    </style>
  </defs>
  <path id="Forma_1" data-name="Forma 1" class="cls-1" d="M1297.41,6139.59a22.5,22.5,0,1,0,6.59,15.91A22.464,22.464,0,0,0,1297.41,6139.59Zm-1.24,30.58a20.705,20.705,0,0,1-35.35-14.67,20.69,20.69,0,0,1,20.68-20.68A20.711,20.711,0,0,1,1296.17,6170.17Zm-2.25-27.09a17.467,17.467,0,1,0,5.16,12.37A17.557,17.557,0,0,0,1293.92,6143.08Zm-1.29,23.55a15.7,15.7,0,0,1-10.22,4.59v-2.25a0.91,0.91,0,0,0-1.82,0v2.25a15.509,15.509,0,0,1-10.22-4.59,15.7,15.7,0,0,1-4.59-10.22h2.25a0.91,0.91,0,1,0,0-1.82h-2.25a15.382,15.382,0,0,1,4.59-10.22,15.7,15.7,0,0,1,10.22-4.59v2.25a0.91,0.91,0,0,0,1.82,0v-2.25a15.509,15.509,0,0,1,10.22,4.59,15.7,15.7,0,0,1,4.59,10.22h-2.25a0.91,0.91,0,0,0,0,1.82h2.25A15.509,15.509,0,0,1,1292.63,6166.63Zm-10.27-13.81v-7.3a0.91,0.91,0,1,0-1.82,0v7.3a3.036,3.036,0,0,0-1.05.63l-0.04.04a2.788,2.788,0,0,0-.67,1.1h-5.45a0.907,0.907,0,0,0-.91.91,0.941,0.941,0,0,0,.91.91h5.45a2.788,2.788,0,0,0,.67,1.1,2.82,2.82,0,0,0,2,.81,3.076,3.076,0,0,0,2.01-.81,2.861,2.861,0,0,0,.81-2.01A2.753,2.753,0,0,0,1282.36,6152.82Zm-0.14,3.4a0.972,0.972,0,0,1-.72.28,0.913,0.913,0,0,1-.72-0.28,1.066,1.066,0,0,1,0-1.44l0.05-.04a0.943,0.943,0,0,1,.72-0.29,0.866,0.866,0,0,1,.71.29,0.936,0.936,0,0,1,.29.71A0.978,0.978,0,0,1,1282.22,6156.22Z" transform="translate(-1259 -6133)"/>
</svg>
