<svg xmlns="http://www.w3.org/2000/svg" width="32" height="32"><path data-name="Forma 1" d="M10.12 21.449v-8.687H8.11v-2.226h4.78v10.913h-2.77zm13.19-8.1a2.543 2.543 0 0 1-1.37 2.258 2.986 2.986 0 0 1 1.95 2.756c0 1.962-1.75 3.207-4.47 3.207s-4.47-1.23-4.47-3.161a3.047 3.047 0 0 1 2.07-2.8 2.74 2.74 0 0 1-1.51-2.335c0-1.744 1.53-2.849 3.89-2.849 2.4.001 3.91 1.138 3.91 2.928zm-5.75 4.781c0 .918.66 1.432 1.86 1.432s1.87-.5 1.87-1.432c0-.9-.67-1.417-1.87-1.417s-1.86.517-1.86 1.42zm.28-4.624c0 .779.57 1.214 1.58 1.214s1.57-.436 1.57-1.214a1.3 1.3 0 0 0-1.57-1.262c-1.01.003-1.58.456-1.58 1.265zm10.66-1.742A13.194 13.194 0 1 1 20.23 3.5V.568a16 16 0 1 0 11.2 11.2H28.5zm-.8-7.475V1.225h-2.21v3.068h-3.05V6.5h3.05v3.068h2.21V6.5h3.07V4.292H27.7z" fill="#45b9bd" fill-rule="evenodd"/></svg>