<svg id="Layer_1" data-name="Layer 1" xmlns="http://www.w3.org/2000/svg" width="84" height="46" viewBox="0 0 352 192"><defs><style>.cls-1{fill:#599368}.cls-2{fill:#467f52}</style></defs><title>circle2</title><path class="cls-1" d="M176 0A176 176 0 0 0 51.47 51.34v.07s-.05 0-.08.06L50 52.88a21.17 21.17 0 0 0 .49 29.46l38.12 38.13a21.14 21.14 0 0 0 30.15-.26c.24-.25.48-.5.73-.74A80.56 80.56 0 0 1 176 96h.7A31 31 0 0 0 208 65V31a31 31 0 0 0-30.73-31z"/><path class="cls-2" d="M51.47 51.34v.07s-.05 0-.08.06A176.13 176.13 0 0 0 0 176a16 16 0 0 0 16 16h64a16 16 0 0 0 16-16 80.56 80.56 0 0 1 23.47-56.53l.07-.06z"/><path class="cls-1" d="M232.53 119.47a22.55 22.55 0 0 0 31.88 0l36.14-36.15a22.6 22.6 0 0 0 .11-31.85s-.06 0-.08-.06l-.05-.07A176 176 0 0 0 176 0v96a80.54 80.54 0 0 1 56.53 23.47z"/><path class="cls-1" d="M232.53 119.47A80.56 80.56 0 0 1 256 176a16 16 0 0 0 16 16h64a16 16 0 0 0 16-16 176.13 176.13 0 0 0-51.34-124.53s-.06 0-.08-.06l-.05-.07-68.07 68.07s.05.03.07.06z"/></svg>