<svg id="design" xmlns="http://www.w3.org/2000/svg" width="16" height="22" viewBox="0 0 19.91 26.27"><defs><style>.cls-1{fill:url(#linear-gradient)}</style><linearGradient id="linear-gradient" y1="13.13" x2="19.91" y2="13.13" gradientUnits="userSpaceOnUse"><stop offset="0" stop-color="#f9ad81"/><stop offset=".5" stop-color="#88a8d8"/><stop offset="1" stop-color="#abd378"/></linearGradient></defs><title>2222</title><path class="cls-1" d="M10 0l1.32 1.3a47.5 47.5 0 0 1 4 4.54 28.51 28.51 0 0 1 3.57 5.82 13.4 13.4 0 0 1 1 3.39 9.29 9.29 0 0 1 0 2.58 9.62 9.62 0 0 1-1.75 4.43 9.77 9.77 0 0 1-6.36 4A9.93 9.93 0 0 1 0 17.18a10.17 10.17 0 0 1 .62-4.37 21.3 21.3 0 0 1 2.32-4.52 43.84 43.84 0 0 1 5.55-6.83C9 1 9.45.5 10 0zM8.29 20.44h3.33V18h2.46v-3.35h-2.47v-2.48H8.29v2.48H5.82V18h2.47z"/></svg>