<svg data-name="Ğ¡Ğ»Ğ¾Ğ¹ 1" xmlns="http://www.w3.org/2000/svg" width="80" height="73" viewBox="0 0 116.1 107.3" fill="#a7ce75"><title>list</title><path d="M4.1 107.3H112a4.06 4.06 0 0 0 4.1-4.1V11.7a4.06 4.06 0 0 0-4.1-4.1H91.7V4.1a4.1 4.1 0 0 0-8.2 0v3.5H33.3V4.1a4.1 4.1 0 1 0-8.2 0v3.5h-21A4.06 4.06 0 0 0 0 11.7v91.6a4.1 4.1 0 0 0 4.1 4zm4.1-91.5h16.9V18a4.1 4.1 0 0 0 8.2 0v-2.2h50.2V18a4.1 4.1 0 0 0 8.2 0v-2.2H108v10.6H8.2zm0 18.8h99.7v64.6H8.2z"/><path d="M87.6 53.4h-59a4.1 4.1 0 1 0 0 8.2h59a4.1 4.1 0 1 0 0-8.2zM58.1 73.2H28.6a4.1 4.1 0 1 0 0 8.2h29.5a4.1 4.1 0 1 0 0-8.2z"/></svg>