<svg id="design" xmlns="http://www.w3.org/2000/svg" width="94.42" height="57.53" viewBox="0 0 94.42 57.53"><defs><style>.cls-1{fill:#6993cd}.cls-2{fill:#97ca4a}.cls-3{fill:url(#linear-gradient)}</style><linearGradient id="linear-gradient" x1="37.23" y1="13.13" x2="57.14" y2="13.13" gradientUnits="userSpaceOnUse"><stop offset="0" stop-color="#f9ad81"/><stop offset=".5" stop-color="#88a8d8"/><stop offset="1" stop-color="#abd378"/></linearGradient></defs><title>1111</title><path class="cls-1" d="M0 57.24v-25h11.52a13.2 13.2 0 0 1 4.53.67 6.05 6.05 0 0 1 2.78 2 8.14 8.14 0 0 1 1.39 3.26 24.38 24.38 0 0 1 .39 4.74v2.37a31.25 31.25 0 0 1-.53 6.27 7.18 7.18 0 0 1-2.38 4.09 8.24 8.24 0 0 1-5.48 1.57zm2.72-2.44h8.16a17.63 17.63 0 0 0 3.35-.27 3.7 3.7 0 0 0 2.19-1.27c.95-1.26 1.42-3.58 1.42-7V45.1a42.86 42.86 0 0 0-.29-5.86c-.22-1.79-.82-3-1.81-3.56a8.48 8.48 0 0 0-4.29-.88H2.72zM26.6 32.27v2.9H24v-2.9zm0 25H24v-17.5h2.6zm6.85-12.45h-2.7c0-2.18.56-3.57 1.66-4.18a11.33 11.33 0 0 1 5.23-.91 16.88 16.88 0 0 1 4.28.43 4 4 0 0 1 2.45 1.75 7.54 7.54 0 0 1 .84 4v11.33h-2.48l.16-1.83a4.68 4.68 0 0 1-2.4 1.71 12.82 12.82 0 0 1-3.5.41 14.13 14.13 0 0 1-3.81-.42 3.83 3.83 0 0 1-2.25-1.62 6.46 6.46 0 0 1-.78-3.5 5.62 5.62 0 0 1 .85-3.34 3.93 3.93 0 0 1 2.28-1.54 15.1 15.1 0 0 1 3.72-.38 16 16 0 0 1 3.4.3 3.54 3.54 0 0 1 2.18 1.45v-2a9.78 9.78 0 0 0-.38-3.19 2.12 2.12 0 0 0-1.39-1.33 11.69 11.69 0 0 0-3.29-.33 5.64 5.64 0 0 0-3.34.7 2.17 2.17 0 0 0-.77 1.91 1.23 1.23 0 0 0 0 .29 1.39 1.39 0 0 1 .04.29zm-.58 6.88a3.83 3.83 0 0 0 .88 3 4.91 4.91 0 0 0 3.12.75 19.92 19.92 0 0 0 2.9-.17 4 4 0 0 0 2-.88 2.75 2.75 0 0 0 .87-2.25c0-1.42-.4-2.34-1.2-2.74a8.47 8.47 0 0 0-3.64-.6h-.65c-1.9 0-3.13.26-3.7.78a2.72 2.72 0 0 0-.58 2.11z"/><path class="cls-2" d="M51.32 32.27v25h-2.64v-25zm6.12 0v2.9h-2.65v-2.9zm0 25h-2.65v-17.5h2.65zm3.47-17.5h2.35v2.28a5.16 5.16 0 0 1 2.48-2.11A11.55 11.55 0 0 1 73 40a3.72 3.72 0 0 1 2 2 9.42 9.42 0 0 1 .61 3.76v11.48H73V45.88a8.38 8.38 0 0 0-.33-2.69 2.12 2.12 0 0 0-1.27-1.29 7.46 7.46 0 0 0-2.72-.38q-5.18 0-5.17 5v10.72h-2.6zM91.69 51.9h2.73a6.17 6.17 0 0 1-.88 3.66 4.08 4.08 0 0 1-2.43 1.54 19.7 19.7 0 0 1-4.14.34A14.57 14.57 0 0 1 83 57a4.68 4.68 0 0 1-2.35-1.41A5.65 5.65 0 0 1 79.47 53a21.9 21.9 0 0 1-.32-4.12 24 24 0 0 1 .46-5.37 4.68 4.68 0 0 1 2-3 9.18 9.18 0 0 1 4.9-1 13.73 13.73 0 0 1 4.94.68 3.88 3.88 0 0 1 2.26 2.36 16.31 16.31 0 0 1 .66 5.07V49H81.88a22.06 22.06 0 0 0 .22 3.65 3.08 3.08 0 0 0 1.23 2 5.48 5.48 0 0 0 3.23.74h.69a8.18 8.18 0 0 0 3.32-.52c.75-.35 1.12-1.13 1.12-2.37zm0-5a14.29 14.29 0 0 0-.3-3.45 2.23 2.23 0 0 0-1.3-1.45 9.22 9.22 0 0 0-3.32-.44 7.54 7.54 0 0 0-3 .48 2.73 2.73 0 0 0-1.45 1.63 10.8 10.8 0 0 0-.39 3.31z"/><path class="cls-3" d="M47.18 0l1.32 1.3a49.05 49.05 0 0 1 4 4.54 28.46 28.46 0 0 1 3.5 5.82 13.4 13.4 0 0 1 1 3.39 8.92 8.92 0 0 1 0 2.58 9.61 9.61 0 0 1-1.74 4.43 9.77 9.77 0 0 1-6.36 4 10 10 0 0 1-11.68-8.92 10.17 10.17 0 0 1 .62-4.37 20.88 20.88 0 0 1 2.29-4.52 44.36 44.36 0 0 1 5.54-6.83zm-1.66 20.44h3.33V18h2.47v-3.35h-2.47v-2.48h-3.33v2.48h-2.47V18h2.47z"/></svg>