<svg data-name="Capa 1" xmlns="http://www.w3.org/2000/svg" width="86" height="84" viewBox="0 0 505.6 497.15" fill="#a7ce75"><title>oreder3</title><path d="M445.63 165.84l52.45-67.6a17.31 17.31 0 0 0-7-26.81L321.5 1.49A17.2 17.2 0 0 0 301.1 7l-48.66 62.39-48.66-62.65a17.21 17.21 0 0 0-20.69-5.25L13.5 74.34a18.21 18.21 0 0 0-10.19 12 16.8 16.8 0 0 0 3.49 15.1l52.45 64.4-55.94 76.63a18.16 18.16 0 0 0-2.63 15.45 17.46 17.46 0 0 0 10.78 11.36l51 18.94v123.26a17.42 17.42 0 0 0 11.07 16.32L246.91 496a16.69 16.69 0 0 0 6.41 1.17 16.5 16.5 0 0 0 6.41-1.17l173.37-68.2a17.42 17.42 0 0 0 11.08-16.32V287.64L494 269.28a18.15 18.15 0 0 0 10.79-11.36 17.23 17.23 0 0 0-2.63-15.45zm-125.29-127l136.07 56-40.21 51.48L278.08 93zM253 213.92l-126.15-45.17 121.8-49.53L378 169zM184.26 39.08l40.5 52.16-136.37 55.37-39.92-49zM84.31 190.61L224.76 241l-41.09 54.8L45 244.51zm324.61 208.92L253 461 97.13 399.53V301L184 333.1a22.8 22.8 0 0 0 6.12 1.16 18.23 18.23 0 0 0 14-7l48.37-64.69 48.37 64.69a18.25 18.25 0 0 0 14 7 15.29 15.29 0 0 0 6.12-1.16l88-32.35zm-88-103.73l-40.8-54.2 140.45-50.7 39.05 53.61z"/></svg>