<svg data-name="Capa 1" xmlns="http://www.w3.org/2000/svg" width="79" height="81" viewBox="0 0 422.24 434.17" fill="#faad81"><title>order1</title><path d="M326.35 230.2V35H35v364.2h134a17.49 17.49 0 1 1 0 35H17.48A17.54 17.54 0 0 1 0 416.68V17.48A17.54 17.54 0 0 1 17.48 0h326.36a17.54 17.54 0 0 1 17.48 17.48V230.2a17.49 17.49 0 0 1-35 0zm90 42.54a17.51 17.51 0 0 0-24.76 1.46l-95.83 106.64-48.08-46.33a17.52 17.52 0 0 0-24.19 25.35l61.2 58.86a17.14 17.14 0 0 0 12.23 5h.59a17.49 17.49 0 0 0 12.24-5.83l107.81-120c6.7-7.67 6.12-18.74-1.17-25.15zM262.25 102H104.9a17.48 17.48 0 0 0 0 35h157.35a17.48 17.48 0 1 0 0-35zm17.48 113.64a17.53 17.53 0 0 0-17.48-17.49H104.9a17.49 17.49 0 0 0 0 35h157.35a17.53 17.53 0 0 0 17.48-17.52zM104.9 291.39a17.48 17.48 0 1 0 0 35h46.62a17.48 17.48 0 1 0 0-35z"/></svg>