<svg data-name="Capa 1" xmlns="http://www.w3.org/2000/svg" width="77" height="79" viewBox="0 0 414.35 431.54" fill="#8aa9d9"><title>order2</title><path d="M414.35 222.33C414.35 99.65 321.4 0 207.47 0 94.7 0 2.91 97.32.87 218A68.4 68.4 0 0 0 0 229v78.68a61.19 61.19 0 0 0 122.38 0V229c0-33.8-27.68-61.19-61.48-61.19a66 66 0 0 0-18.65 2.91C62.94 92.66 129.08 35.26 207.47 35.26c78.67 0 145.11 58 165.51 136.66a62.39 62.39 0 0 0-21-3.79 60.93 60.93 0 0 0-60.9 61.19V308A61 61 0 0 0 329 364.82c-7.58 13.69-24.77 31.76-59.16 31.76h-86.56a17.48 17.48 0 1 0 0 35h86.54c57.41 0 86.25-37.58 96.16-64.1a61.54 61.54 0 0 0 47.5-59.74v-75.8l.87-6.41zM60.61 202.51a26.56 26.56 0 0 1 26.52 26.23v78.68c0 14.56-11.95 27.38-26.52 27.38s-26.23-13.11-26.23-27.39v-79.84a16.7 16.7 0 0 0 .88-5.53v-.29a26.56 26.56 0 0 1 25.35-19.24zm291.68 131.42a26.31 26.31 0 0 1-26.23-26.22V229a26.23 26.23 0 0 1 52.45 0v78.7a26.3 26.3 0 0 1-26.22 26.23z"/></svg>