<svg data-name="Слой 1" xmlns="http://www.w3.org/2000/svg" width="81" height="82" viewBox="0 0 196.73 203.54" fill="#8aa9d9"><title>calendar</title><path d="M190.74 11.92h-39.32V6a6 6 0 0 0-12 0v5.92h-35V6a6 6 0 0 0-12 0v5.92H58.8V6a6 6 0 0 0-12 0v5.92H6a6 6 0 0 0-6 6v135.57a6 6 0 0 0 6 6h36.83a57 57 0 0 0 111.08 0h36.82a6 6 0 0 0 6-6V17.92a6 6 0 0 0-6-6zm-143.94 12v5.42a6 6 0 1 0 12 0v-5.42h33.57v5.42a6 6 0 1 0 12 0v-5.42h35v5.42a6 6 0 1 0 12 0v-5.42h33.32v24.53H12V23.92zm51.57 167.62a45 45 0 1 1 45-45 45.11 45.11 0 0 1-45 45zm57-44v-1a57.06 57.06 0 0 0-114.11 0v1H12v-87h172.73v87H155.4z"/><path d="M104.37 148v-29a6 6 0 0 0-12 0v31.51a6 6 0 0 0 1.75 4.24l13.79 13.79a6 6 0 0 0 8.49-8.54l-12-12z"/></svg>