<svg data-name="Capa 1" xmlns="http://www.w3.org/2000/svg" width="87" height="82" viewBox="0 0 297 281.41" fill="#faad81"><title>tube</title><path d="M252.38 97.41a21.71 21.71 0 0 0 21.68-21.69c0-9.55-12.19-27.95-15.93-33.36a7 7 0 0 0-11.52 0c-3.73 5.41-15.93 23.81-15.93 33.36a21.72 21.72 0 0 0 21.7 21.69zm0-38.13c4.44 7.42 7.66 14.14 7.69 16.44a7.69 7.69 0 0 1-15.38 0c.02-2.29 3.25-9.02 7.69-16.44zm-32.01-10.66a18.57 18.57 0 0 0 18.55-18.54c0-7.72-8.94-21.5-12.79-27.06a7 7 0 0 0-11.52 0c-3.84 5.56-12.78 19.34-12.78 27.06a18.56 18.56 0 0 0 18.54 18.54zm0-28.49c2.6 4.54 4.42 8.44 4.54 10a4.54 4.54 0 0 1-9.08 0c.17-1.58 1.96-5.47 4.54-10zm-91.81 147.22h-8.21v-8.21a7 7 0 0 0-14 0v8.21h-8.21a7 7 0 0 0 0 14h8.21v8.21a7 7 0 0 0 14 0v-8.21h8.21a7 7 0 0 0 0-14z"/><path d="M294.61 109.11a10 10 0 0 0-7.61-3.52H184.09a111.32 111.32 0 0 0-13.33-23.15L151 56.03a10 10 0 0 0 7.55-9.69V11.72a10 10 0 0 0-10-10h-69.3a10 10 0 0 0-10 10v34.62a10 10 0 0 0 7.55 9.69L57 82.44a111.32 111.32 0 0 0-13.33 23.15H10a10 10 0 1 0 0 20h27.27a111.29 111.29 0 0 0-2.64 23.94v97.39a34.52 34.52 0 0 0 34.48 34.48h89.53a34.52 34.52 0 0 0 34.48-34.48v-97.39a111.39 111.39 0 0 0-1.87-20.14c9.16 3.92 17.69 8.55 25.46 12.78 13.29 7.22 24.77 13.47 35.31 13.84h1.81c29 0 40.85-25.24 43-38.86a10 10 0 0 0-2.22-8.04zm-240 33.79h118.5c.16 2.21 0 66.57 0 66.57H54.63s-.17-64.36 0-66.57zM89.25 21.72h49.25v14.62H89.25zm12.31 34.62h24.63l28.57 38.1a92.14 92.14 0 0 1 14.37 28.47H58.62A92.14 92.14 0 0 1 73 94.44zm57.08 205.06H69.11a14.49 14.49 0 0 1-14.48-14.48v-17.45h118.5v17.45a14.5 14.5 0 0 1-14.49 14.48zm94.09-125.37c-5.5-.2-14.71-5.05-24.63-10.44h44.48c-3.52 5.52-9.58 10.83-19.85 10.44z"/></svg>