<svg data-name="Layer 1" xmlns="http://www.w3.org/2000/svg" viewBox="0 0 92.91 88.06"><defs><clipPath id="a" transform="translate(4.37 4.88)"><path d="M34.48 43.9A17.32 17.32 0 1 0 58 37.79a17.44 17.44 0 0 0-23.52 6.11zm9.71 18.78A11.43 11.43 0 0 0 55.5 42.81a11.43 11.43 0 1 0-11.31 19.87zm-6.83-46.12C45 21 52.75 25.29 60.29 29.89a32.26 32.26 0 0 1 8.38 6.69c3.58 4.43 5.88 9.59 11.86 12.16 2.1.91 3.25 6.54 3 9.84-.36 4.18-3.89 6.5-8.29 7.33-2.19.42-4.78 1.41-6.14 3a25.55 25.55 0 0 1-32.33 5.89c-10.93-6.21-15.99-19.25-11.1-30.7 2.16-5 1.47-7.88-2.58-11.27C16.33 27.16 10.14 20.82 3.53 15 .7 12.45-.63 10.17 2.2 6.86A15.14 15.14 0 0 0 4.34 3.1C5.89-.43 8-.55 11.15 1.33c8.67 5.19 17.47 10.15 26.22 15.2z" fill="none"/></clipPath></defs><g clip-path="url(#a)"><path fill="#fff" d="M0 0h92.91v88.06H0z"/></g></svg>