<svg data-name="Layer 1" xmlns="http://www.w3.org/2000/svg" viewBox="0 0 90 65.83"><path fill="#fff" d="M3.68 54.77l7.4 1.25a60.87 60.87 0 0 1 11.84-23.6 3.51 3.51 0 0 0 4.08.5l38.54-22.3a3.65 3.65 0 0 0 1.13-5 3.71 3.71 0 0 0-4.44-1.77c-6-5.07-16.68-5.18-26.17.3a28 28 0 0 0-12.31 13.61 69.54 69.54 0 0 0-3.48 3.59A69.58 69.58 0 0 0 3.68 54.77zm9.76 5.22a2 2 0 0 0-1.61-2.26l-9.54-1.6A2 2 0 0 0 1.64 60l9.54 1.6a2 2 0 0 0 2.26-1.61zm22.37 5.49a2.64 2.64 0 0 0 1-3.6 4.19 4.19 0 0 0-2.32-1.57 5.44 5.44 0 0 1-2.17-1.13.11.11 0 0 0-.15 0 .11.11 0 0 0 0 .14 5.35 5.35 0 0 1-.17 2.41 4.18 4.18 0 0 0 .21 2.8 2.63 2.63 0 0 0 3.6.95zm7.48-10.26a5.44 5.44 0 0 1-2.18-1.13.11.11 0 0 0-.14 0 .11.11 0 0 0 0 .14 5.4 5.4 0 0 1-.11 2.45 4.18 4.18 0 0 0 .21 2.8 2.65 2.65 0 0 0 4.59-2.65 4.2 4.2 0 0 0-2.37-1.61zm8.8-5.09a5.47 5.47 0 0 1-2.17-1.12.11.11 0 0 0-.14 0 .13.13 0 0 0-.05.15 5.35 5.35 0 0 1-.11 2.44 4.18 4.18 0 0 0 .21 2.8 2.65 2.65 0 0 0 4.59-2.65 4.24 4.24 0 0 0-2.33-1.62zm8.81-5.08a5.52 5.52 0 0 1-2.17-1.13.11.11 0 0 0-.19.11 5.35 5.35 0 0 1-.11 2.44 4.24 4.24 0 0 0 .2 2.8 2.654 2.654 0 0 0 4.6-2.65 4.18 4.18 0 0 0-2.33-1.57zm8.81-5.13a5.52 5.52 0 0 1-2.17-1.12.12.12 0 0 0-.15 0 .14.14 0 0 0 0 .15 5.5 5.5 0 0 1-.11 2.44 4.25 4.25 0 0 0 .2 2.8A2.65 2.65 0 0 0 72 41.54a4.13 4.13 0 0 0-2.29-1.62zm8.81-5a5.52 5.52 0 0 1-2.17-1.13.11.11 0 0 0-.15 0 .12.12 0 0 0 0 .14 5.5 5.5 0 0 1-.11 2.44 4.17 4.17 0 0 0 .2 2.8 2.65 2.65 0 0 0 4.59-2.65 4.12 4.12 0 0 0-2.36-1.6zm6.64-6.26a.12.12 0 0 0-.15 0 .11.11 0 0 0 0 .14 5.54 5.54 0 0 1-.11 2.45 4.19 4.19 0 0 0 .2 2.8 2.65 2.65 0 0 0 4.59-2.65 4.13 4.13 0 0 0-2.32-1.58 5.39 5.39 0 0 1-2.21-1.16zM34.31 52.7a2.62 2.62 0 0 0 1-3.59A4.25 4.25 0 0 0 33 47.53a5.45 5.45 0 0 1-2.18-1.12.11.11 0 0 0-.14 0 .13.13 0 0 0-.05.15 5.35 5.35 0 0 1-.13 2.36 4.18 4.18 0 0 0 .21 2.8 2.62 2.62 0 0 0 3.6.98zm9.8-8.68a4.18 4.18 0 0 0-2.33-1.57 5.59 5.59 0 0 1-2.17-1.13.11.11 0 0 0-.19.11 5.35 5.35 0 0 1-.11 2.49 4.17 4.17 0 0 0 .21 2.8 2.65 2.65 0 0 0 4.59-2.65zm4.01-5.23a4.25 4.25 0 0 0 .2 2.8 2.66 2.66 0 0 0 4.6-2.67 4.19 4.19 0 0 0-2.33-1.58 5.39 5.39 0 0 1-2.17-1.13.112.112 0 0 0-.19.12 5.35 5.35 0 0 1-.11 2.46zm8.81-5.09a4.24 4.24 0 0 0 .2 2.8 2.65 2.65 0 0 0 4.59-2.65 4.12 4.12 0 0 0-2.32-1.57 5.52 5.52 0 0 1-2.17-1.13.11.11 0 0 0-.15 0 .12.12 0 0 0 0 .14 5.5 5.5 0 0 1-.15 2.41zm8.81-5.08a4.19 4.19 0 0 0 .2 2.8 2.65 2.65 0 0 0 4.59-2.65 4.13 4.13 0 0 0-2.32-1.58A5.39 5.39 0 0 1 66 26.06a.12.12 0 0 0-.15 0 .12.12 0 0 0 0 .14 5.54 5.54 0 0 1-.11 2.42zm9.11-7.64a.11.11 0 1 0-.19.11 5.5 5.5 0 0 1-.11 2.44 4.18 4.18 0 0 0 .2 2.8 2.65 2.65 0 0 0 4.59-2.65A4.18 4.18 0 0 0 77 22.1a5.39 5.39 0 0 1-2.15-1.12z"/><path fill="#fff" d="M32.81 39.92a2.64 2.64 0 0 0 1-3.59 4.19 4.19 0 0 0-2.33-1.58 5.46 5.46 0 0 1-2.17-1.13.11.11 0 0 0-.14 0 .11.11 0 0 0-.05.14 5.4 5.4 0 0 1-.12 2.43 4.18 4.18 0 0 0 .21 2.8 2.62 2.62 0 0 0 3.6.93zm8.81-5.08a2.63 2.63 0 0 0 1-3.59 4.18 4.18 0 0 0-2.32-1.58 5.39 5.39 0 0 1-2.17-1.12.12.12 0 0 0-.15 0 .14.14 0 0 0 0 .15 5.35 5.35 0 0 1-.11 2.44 4.24 4.24 0 0 0 .13 2.78 2.64 2.64 0 0 0 3.62.92zm8.81-5.08a2.64 2.64 0 0 0 1-3.6 4.17 4.17 0 0 0-2.32-1.57 5.39 5.39 0 0 1-2.17-1.13.12.12 0 0 0-.15 0 .12.12 0 0 0 0 .14 5.54 5.54 0 0 1-.11 2.45 4.19 4.19 0 0 0 .2 2.8 2.65 2.65 0 0 0 3.55.91zm8.81-5.09a2.63 2.63 0 0 0 1-3.59 4.18 4.18 0 0 0-2.32-1.58 5.39 5.39 0 0 1-2.17-1.12.11.11 0 1 0-.19.11 5.5 5.5 0 0 1-.13 2.43 4.19 4.19 0 0 0 .2 2.8 2.63 2.63 0 0 0 3.61.95zm8.81-5.08a2.64 2.64 0 0 0 1-3.6 4.12 4.12 0 0 0-2.32-1.57 5.52 5.52 0 0 1-2.17-1.13.12.12 0 0 0-.15 0 .11.11 0 0 0 0 .14 5.5 5.5 0 0 1-.11 2.44 4.17 4.17 0 0 0 .2 2.8 2.64 2.64 0 0 0 3.55.92z"/></svg>