<svg data-name="Layer 1" xmlns="http://www.w3.org/2000/svg" viewBox="0 0 375 375"><path fill="#fff" d="M112.5 225a75 75 0 0 0 150 0c0-41.4-75-150-75-150s-75 108.6-75 150zM262.4 18.7v37.5a56.51 56.51 0 0 1 56.4 56.3H300l37.5 37.5 37.5-37.5h-18.8a93.81 93.81 0 0 0-93.8-93.8zM56.3 262.5h18.8L37.5 225 0 262.5h18.8a93.78 93.78 0 0 0 93.7 93.8v-37.5a56.33 56.33 0 0 1-56.2-56.3zm206.2 56.3V300L225 337.5l37.5 37.5v-18.8a93.81 93.81 0 0 0 93.8-93.8h-37.5a56.44 56.44 0 0 1-56.3 56.4zm-150-262.5v18.8L150 37.5 112.5 0v18.8a93.72 93.72 0 0 0-93.7 93.8h37.5a56.27 56.27 0 0 1 56.2-56.3z"/></svg>