<svg data-name="Layer 1" xmlns="http://www.w3.org/2000/svg" viewBox="0 0 56.13 56.13"><defs><clipPath id="a" transform="translate(4.07 4.07)"><path d="M46.41 7.09a2.25 2.25 0 0 0 0-3.18l-2.32-2.32a2.25 2.25 0 0 0-3.18 0L25.59 16.91a2.25 2.25 0 0 1-3.18 0L7.09 1.59a2.25 2.25 0 0 0-3.18 0L1.59 3.91a2.25 2.25 0 0 0 0 3.18l15.32 15.32a2.25 2.25 0 0 1 0 3.18L1.59 40.91a2.25 2.25 0 0 0 0 3.18l2.32 2.32a2.25 2.25 0 0 0 3.18 0l15.32-15.32a2.25 2.25 0 0 1 3.18 0l15.32 15.32a2.25 2.25 0 0 0 3.18 0l2.32-2.32a2.25 2.25 0 0 0 0-3.18L31.09 25.59a2.25 2.25 0 0 1 0-3.18z" fill="none"/></clipPath></defs><g clip-path="url(#a)"><path fill="#fff" d="M0 0h56.13v56.13H0z"/></g></svg>