<svg xmlns="http://www.w3.org/2000/svg" xmlns:xlink="http://www.w3.org/1999/xlink" viewBox="0 0 48 36"><defs><path id="a" d="M21.7.8H7.3l7.2 8.4z"/></defs><clipPath id="b"><use xlink:href="#a" overflow="visible"/></clipPath><path fill="#9e9f9e" clip-path="url(#b)" d="M2.3-4.2h24.4v18.4H2.3z"/><defs><path id="c" d="M5.1 1.5L0 9.8h12.2z"/></defs><clipPath id="d"><use xlink:href="#c" overflow="visible"/></clipPath><path fill="#9e9f9e" clip-path="url(#d)" d="M-5-3.5h22.2v18.3H-5z"/><defs><path id="e" d="M40.7.8H26.3l7.2 8.4z"/></defs><clipPath id="f"><use xlink:href="#e" overflow="visible"/></clipPath><path fill="#9e9f9e" clip-path="url(#f)" d="M21.3-4.2h24.4v18.4H21.3z"/><defs><path id="g" d="M.5 12l20.8 22.1L13.7 12z"/></defs><clipPath id="h"><use xlink:href="#g" overflow="visible"/></clipPath><path fill="#9e9f9e" clip-path="url(#h)" d="M-4.5 7h30.8v32.1H-4.5z"/><defs><path id="i" d="M31.2 9.8L24 1.3l-7.2 8.5z"/></defs><clipPath id="j"><use xlink:href="#i" overflow="visible"/></clipPath><path fill="#9e9f9e" clip-path="url(#j)" d="M11.8-3.7h24.4v18.5H11.8z"/><defs><path id="k" d="M48 9.8l-5.1-8.3-7.1 8.3z"/></defs><clipPath id="l"><use xlink:href="#k" overflow="visible"/></clipPath><path fill="#9e9f9e" clip-path="url(#l)" d="M30.8-3.5H53v18.3H30.8z"/><defs><path id="m" d="M26.7 34.1L47.5 12H34.3z"/></defs><clipPath id="n"><use xlink:href="#m" overflow="visible"/></clipPath><path fill="#9e9f9e" clip-path="url(#n)" d="M21.7 7h30.8v32.1H21.7z"/><defs><path id="o" d="M16 12l8 23.2L32 12z"/></defs><clipPath id="p"><use xlink:href="#o" overflow="visible"/></clipPath><path fill="#9e9f9e" clip-path="url(#p)" d="M11 7h26v33.2H11z"/></svg>