<svg xmlns="http://www.w3.org/2000/svg" xmlns:xlink="http://www.w3.org/1999/xlink" viewBox="0 0 76 96"><defs><path id="a" d="M50.9 30.9c-.2-2.7-1-4.9-2.6-6.7-1.6-1.9-3.8-3.1-6.5-3.6V16c0-.6-.5-1-1-1h-3.7c-.6 0-1 .5-1 1v4.5c-2.8.4-5.2 1.5-6.9 3.2-1.9 1.9-2.9 4.3-2.9 7.1 0 3.2.9 5.6 2.8 7.3 1.8 1.6 4.8 3.3 8.8 4.9 1.7.7 2.8 1.4 3.5 2.2.6.7 1 1.8 1 3.1 0 1.2-.3 2.1-.9 2.8-.6.7-1.6 1.1-2.8 1.1-1.5 0-2.7-.5-3.6-1.4-.8-.8-1.2-1.9-1.3-3.5-.1-.6-.6-1.1-1.2-1.1l-6.1.1c-.7 0-1.2.6-1.2 1.2.2 3.3 1.2 5.8 3.2 7.5 2.1 1.9 4.7 3.1 7.9 3.4v4.2c0 .6.5 1 1 1h3.7c.6 0 1-.5 1-1v-4.3c2.5-.5 4.6-1.5 6.2-3 1.9-1.8 2.8-4.2 2.8-7.2 0-3.1-.9-5.5-2.8-7.2-1.9-1.7-4.8-3.4-8.7-5.1-1.7-.8-2.9-1.5-3.5-2.2-.6-.7-.9-1.7-.9-2.9s.3-2.1.9-2.9c.6-.8 1.5-1.1 2.7-1.1s2.2.5 2.9 1.4c.6.7.9 1.8 1 3.1.1.6.6 1.1 1.2 1l6.1-.1c.4 0 1-.5.9-1.2zm22.4 20l-1.7 1c-1.9 1-2.9 3.2-2.5 5.3l.4 1.9c.5 3-1.6 5.8-4.7 5.9l-2 .1c-2.2.1-4 1.6-4.6 3.7l-.5 1.9c-.8 2.9-4 4.5-6.8 3.3l-1.8-.8c-2-.8-4.3-.3-5.7 1.4l-1.3 1.5c-2 2.3-5.5 2.3-7.5.1l-1.3-1.5c-1.4-1.6-3.8-2.1-5.7-1.3l-1.8.8c-2.8 1.2-6-.3-6.8-3.2l-.6-1.9c-.6-2.1-2.5-3.5-4.6-3.6l-2-.1c-3-.1-5.3-2.9-4.7-5.9l.3-2c.4-2.1-.7-4.3-2.6-5.3l-1.7-.9C.4 49.9-.4 46.4 1.4 44l1.1-1.6c1.2-1.8 1.2-4.1 0-5.9L1.1 35c-1.8-2.4-1-5.9 1.6-7.4l1.7-1c1.9-1 2.9-3.2 2.5-5.3l-.4-1.9c-.5-3 1.6-5.8 4.7-5.9l2-.1c2.2-.1 4-1.6 4.6-3.7l.5-1.9c.8-2.9 4-4.5 6.8-3.3l1.8.8c2 .8 4.3.3 5.7-1.4l1.3-1.5c2-2.3 5.5-2.3 7.5-.1l1.3 1.5c1.4 1.6 3.8 2.1 5.7 1.3l1.8-.8c2.8-1.2 6 .3 6.8 3.2l.6 1.9c.6 2.1 2.5 3.5 4.6 3.6l2 .1c3 .1 5.3 2.9 4.7 5.9l-.3 2c-.4 2.1.7 4.3 2.6 5.3l1.7.9c2.7 1.4 3.5 4.9 1.7 7.3l-.9 1.5c-1.2 1.8-1.2 4.1 0 5.9l1.2 1.6c1.8 2.5 1 5.9-1.6 7.4zM27.8 79.4c-1.3.6-2.7.9-4.2.9-4.7 0-8.9-3.1-10.2-7.7l-.4-1.5-1.5-.1L5 82.9c-.4.8-.5 1.7-.2 2.5l3.3 8.2c.5 1.3 1.9 2 3.2 1.8l8.7-1.6c.9-.2 1.6-.7 2-1.5l7.4-13.4-.1-.1-1.5.6zm43.3 3.5c.4.8.5 1.7.2 2.5L68 93.6c-.5 1.3-1.9 2-3.2 1.8l-8.7-1.6c-.9-.2-1.6-.7-2-1.5l-7.2-13.1.5-.5 1.5.6c1.3.5 2.7.8 4 .8 4.8 0 9-3.2 10.2-7.8l.4-1.5h.9l6.7 12.1z"/></defs><clipPath id="b"><use xlink:href="#a" overflow="visible"/></clipPath><path fill="#9e9f9e" clip-path="url(#b)" d="M-4.9-4.3h85.7v104.8H-4.9z"/></svg>