<svg id="Layer_1" data-name="Layer 1" xmlns="http://www.w3.org/2000/svg" viewBox="0 0 406.21 392"><defs><style>.cls-1{fill:none;clip-rule:evenodd}</style><clipPath id="clip-path" transform="translate(4.11 5)"><path class="cls-1" d="M367.11 52.62H348.7v21.57a10 10 0 0 1-10 10h-57.88a10 10 0 0 1-10-10V52.62H127.18v21.57a10 10 0 0 1-10 10H59.3a10 10 0 0 1-10-10V52.62H30.89a30 30 0 0 0-30 30v55.76h396.22V82.62a30 30 0 0 0-30-30z"/></clipPath><clipPath id="clip-path-2" transform="translate(4.11 5)"><path class="cls-1" d="M88.24 0A19 19 0 0 0 69.3 18.94v45.25h37.88V18.94A19 19 0 0 0 88.24 0z"/></clipPath><clipPath id="clip-path-3" transform="translate(4.11 5)"><path class="cls-1" d="M309.76 0a19 19 0 0 0-18.94 18.94v45.25h37.88V18.94A19 19 0 0 0 309.76 0z"/></clipPath><clipPath id="clip-path-4" transform="translate(4.11 5)"><path d="M129.24 258.69a10 10 0 0 1 14.14-.21l37.88 36.81 72.81-68.57a10 10 0 0 1 13.71 14.56L188 316.41a10 10 0 0 1-13.83-.11l-44.74-43.47a10 10 0 0 1-.19-14.14zM.89 352a30 30 0 0 0 30 30h336.22a30 30 0 0 0 30-30V158.38H.89z" fill="none"/></clipPath></defs><g clip-path="url(#clip-path)"><path fill="#9e9f9e" d="M0 52.62h406.21v95.76H0z"/></g><g clip-path="url(#clip-path-2)"><path fill="#9e9f9e" d="M68.4 0h47.88v74.19H68.4z"/></g><g clip-path="url(#clip-path-3)"><path fill="#9e9f9e" d="M289.93 0h47.88v74.19h-47.88z"/></g><g clip-path="url(#clip-path-4)"><path fill="#9e9f9e" d="M0 158.38h406.21V392H0z"/></g></svg>