<svg xmlns="http://www.w3.org/2000/svg" xmlns:xlink="http://www.w3.org/1999/xlink" viewBox="0 0 80 98"><defs><path id="a" d="M44.3 4.3c0 2.4-1.9 4.3-4.3 4.3s-4.3-1.9-4.3-4.3S37.6 0 40 0s4.3 1.9 4.3 4.3zM22.7 30.8c-2.4 0-4.3-1.9-4.3-4.3s1.9-4.3 4.3-4.3 4.3 1.9 4.3 4.3c0 1.1-.5 2.2-1.3 3.1-.8.7-1.9 1.2-3 1.2zM53 15.4c0 2.4-1.9 4.3-4.3 4.3s-4.3-1.9-4.3-4.3 1.9-4.3 4.3-4.3S53 13 53 15.4zm-17.3 0c0 2.4-1.9 4.3-4.3 4.3S27 17.8 27 15.4s1.9-4.3 4.3-4.3c1.1 0 2.2.5 3.1 1.3.8.7 1.3 1.8 1.3 3zm17.3 11c0-2.4 1.9-4.3 4.3-4.3s4.3 1.9 4.3 4.3-1.9 4.3-4.3 4.3c-1.1 0-2.2-.5-3.1-1.3-.7-.7-1.2-1.8-1.2-3zm-17.3 0c0-2.4 1.9-4.3 4.3-4.3s4.3 1.9 4.3 4.3-1.9 4.3-4.3 4.3c-1.1 0-2.2-.5-3.1-1.3-.8-.7-1.2-1.8-1.2-3zm30.8 46.4c0 1.8-1.5 3.2-3.2 3.2h-7.6c-1.6 0-3-1.2-3.2-2.8-.2-1.6.8-3.1 2.4-3.6l7.6-2c1-.3 2 0 2.8.6.8.6 1.3 1.6 1.3 2.6v2zM24.4 76h-7.6c-1.8 0-3.2-1.5-3.2-3.2v-2c0-1 .5-2 1.3-2.6.8-.6 1.8-.8 2.8-.6l7.6 2c1.6.4 2.6 1.9 2.4 3.6-.3 1.6-1.7 2.8-3.3 2.8zm51.5-24.3h-1.5c-1.8.1-3.4.8-4.7 2.1-2-4.9-4.5-10.6-6.1-12.8-2.8-4-6.8-5.1-9.7-5.6-4.6-.7-9.3-1-14-.9-4.7-.1-9.4.2-14 .9-2.8.5-6.9 1.6-9.6 5.6-1.6 2.2-4.1 7.9-6.1 12.8-1.2-1.3-2.9-2-4.7-2.1H4.1c-2.2 0-4.1 1.8-4.1 4.1v3C.1 61.1 1.9 63 4.2 63h2l-.6.9c-2 3-3 6.5-2.9 10.1v19.9c0 1.1.4 2.2 1.2 3 .8.8 1.9 1.2 3 1.2h5.4c1.1 0 2.2-.4 2.9-1.2.8-.8 1.2-1.8 1.2-2.9v-3.1h47V94c0 2.3 1.8 4.2 4.1 4.2h5.4c2.3 0 4.2-1.9 4.2-4.2V74c.1-3.6-.9-7.1-2.9-10.1-.2-.3-.4-.6-.6-.8h2c2.3 0 4.2-1.9 4.3-4.2v-3c.1-2.4-1.8-4.2-4-4.2z"/></defs><clipPath id="b"><use xlink:href="#a" overflow="visible"/></clipPath><path fill="#9e9f9e" clip-path="url(#b)" d="M-5-5h90v108H-5z"/></svg>