<svg xmlns="http://www.w3.org/2000/svg" xmlns:xlink="http://www.w3.org/1999/xlink" viewBox="0 0 46 72"><defs><path id="a" d="M39.5 1.3v5.4c0 .5-.4.8-.8.8h-5.8c-4.7 0-4.7 0-6.5 4.3-1 2.4-1.9 4.9-3 7.2-.2.5-.9 1.1-1.4 1.1-3.6.1-7.1.1-10.9.1-.4 0-.8-.3-.8-.7-.1-.8-.2-1.5-.2-2.3 0-1-.4-1.3-1.4-1.2-2 .1-4 .2-6 .1-.7 0-1.3-.4-2-.7-.4-.2-.6-.6-.4-1 .3-.7.5-1.4 1-1.8 3.4-3.5 7-6.9 10.5-10.2.9-.8 2.2-1.2 3.2-1.8.1-.1.2-.1.4-.1h23.2c.5 0 .9.4.9.8z"/></defs><clipPath id="b"><use xlink:href="#a" overflow="visible"/></clipPath><path fill="#9e9f9e" clip-path="url(#b)" d="M-4.8-4.5h49.3v29.7H-4.8z"/><defs><path id="c" d="M31.5 9.9H38c.3 0 .6.2.6.6.5 4.1 1.6 8 3.9 11.4.7 1 1.6 1.9 2.2 3 .3.4.4.9.5 1.4.1.4-.2.8-.6.8-.6 0-1.2 0-1.6-.2-3.9-2-7-5-9.1-8.9-1.2-2.2-2-4.6-3-7.2-.2-.5.1-.9.6-.9z"/></defs><clipPath id="d"><use xlink:href="#c" overflow="visible"/></clipPath><path fill="#9e9f9e" clip-path="url(#d)" d="M25.8 4.9h24.4v27.2H25.8z"/><defs><path id="e" d="M41.7 6.7V3.1c0-.4.4-.7.8-.6.9.3 1.8.5 2.5 1 .5.3.7 1.3.7 1.9 0 .4-.5 1.1-.9 1.3-.7.3-1.5.5-2.3.7-.4 0-.8-.3-.8-.7z"/></defs><clipPath id="f"><use xlink:href="#e" overflow="visible"/></clipPath><path fill="#9e9f9e" clip-path="url(#f)" d="M36.7-2.5h14v14.9h-14z"/><defs><path id="g" d="M25.9 33.6L23.2 29h.3c.4 0 .8-.4.8-.8v-3.7c0-.4-.4-.8-.8-.8H10.2c-.4 0-.8.4-.8.8v3.7c0 .4.4.8.8.8h.3l-2.7 4.6C3.2 41.3.8 50.1.8 59v11.2c0 .7.6 1.3 1.3 1.3h29.4c.7 0 1.3-.6 1.3-1.3V59c0-9-2.4-17.7-6.9-25.4z"/></defs><clipPath id="h"><use xlink:href="#g" overflow="visible"/></clipPath><path fill="#9e9f9e" clip-path="url(#h)" d="M-4.2 18.7h42v57.8h-42z"/></svg>