<svg version="1.1" id="Layer_1" xmlns="http://www.w3.org/2000/svg" x="0" y="0" viewBox="0 0 322 73" xml:space="preserve"><style>.st0{fill:none}.st1{fill:#383838}</style><path class="st0" d="M214.1 11.7c-3.4 0-4.4 2.7-4.5 4.2h8.8c-.5-2.7-1.7-4.2-4.3-4.2zm23.6 38c-3.5 0-4.4 2.7-4.5 4.2h8.8c-.5-2.8-1.7-4.2-4.3-4.2zm-8.8-39.1c1.9 0 3.4-1.5 3.4-3.6 0-2-1.5-3.5-3.4-3.5S225.5 5 225.5 7c0 2.1 1.5 3.6 3.4 3.6zm-1.8-6.1h1.9c1.3 0 2 .4 2 1.5 0 .9-.6 1.3-1.3 1.3l1.3 2.2h-1l-1.2-2.2h-.6v2.2h-1v-5zM12.4 44.1c0 7.4-1.1 12.2-3.6 16.6h11.1V43.6h-7.5v.5zm27.7 5.6c-3.5 0-4.4 2.7-4.5 4.2h8.8c-.5-2.8-1.7-4.2-4.3-4.2zm39.5 0c-3.5 0-4.4 2.7-4.5 4.2h8.8c-.5-2.8-1.7-4.2-4.3-4.2zm69.9-38c-3.4 0-4.4 2.7-4.5 4.2h8.8c-.4-2.7-1.6-4.2-4.3-4.2zM34.3 24.4c3.7 0 4.8-3.2 4.8-6.3 0-3.2-1.1-6.3-4.8-6.3-3.7 0-4.8 3.2-4.8 6.3 0 3.1 1.1 6.3 4.8 6.3zM302 49.7c-3.5 0-4.7 3.2-4.7 6.3s1.2 6.2 4.7 6.2 4.7-3 4.7-6.2-1.2-6.3-4.7-6.3z"/><path class="st0" d="M229 6.6c.6 0 1-.1 1-.7 0-.5-.6-.6-1-.6h-.8v1.3h.8z"/><path class="st1" d="M6 19.1l3.4-3.4 8.2 12.2h7.6L13.5 11.4 24.1.7h-7.5L6 12V.7H0v27.2h6z"/><path class="st1" d="M34.3 28.4c6.2 0 10.2-4.1 10.2-10.4 0-6.3-4-10.4-10.2-10.4-6.2 0-10.2 4.1-10.2 10.4 0 6.3 4 10.4 10.2 10.4zm0-16.7c3.7 0 4.8 3.2 4.8 6.3 0 3.1-1.1 6.3-4.8 6.3-3.7 0-4.8-3.2-4.8-6.3 0-3.1 1.1-6.3 4.8-6.3zm22.5 16.7c5.2 0 8.8-2.9 9.5-8.1h-5.2c-.3 2.4-1.8 4-4.3 4-3.4 0-4.5-3.4-4.5-6.2 0-2.9 1.1-6.4 4.6-6.4 2.2 0 3.7 1.2 4 3.4h5.3c-.3-5-4.6-7.5-9.3-7.5-6.4 0-10.1 4.5-10.1 10.7 0 5.9 4 10.1 10 10.1zm17.4-10.8c0-4 1.3-5.6 4.2-5.6 2.5 0 3.5 1.6 3.5 4.8V28h5.4V15.8c0-4.9-1.5-8.1-7.2-8.1-2 0-4.4 1.1-5.8 3.3h-.1V.7h-5.4V28h5.4V17.6zm35.6-.2c-.5 3.6-2.5 6.1-6.2 6.1-5.4 0-7.4-4.6-7.4-9.1 0-4.8 2-9.4 7.4-9.4 3 0 5.6 2.1 6 4.8h5.8c-.7-6.3-5.8-9.8-11.8-9.8-8.4 0-13.4 6.3-13.4 14.4 0 7.9 5 14.2 13.4 14.2 6.7 0 11.4-4.3 12-11.1h-5.8zm20-9.8c-2 0-4.4 1.1-5.8 3.3V.7h-5.4V28h5.4V17.6c0-4 1.3-5.6 4.2-5.6 2.5 0 3.5 1.6 3.5 4.8V28h5.4V15.8c0-4.9-1.5-8.2-7.3-8.2zm19.9 0c-6 0-10.1 4.5-10.1 10.4 0 6.1 3.9 10.4 10.1 10.4 4.5 0 7.7-2 9.2-6.6h-4.8c-.3 1.2-2.1 2.6-4.3 2.6-3 0-4.7-1.6-4.9-5h14.2c.6-6.1-2.7-11.8-9.4-11.8zm-4.7 8.3c.1-1.5 1.1-4.2 4.5-4.2 2.6 0 3.8 1.4 4.3 4.2H145zm41.8.8v11.2h5.4V14.7c0-5.1-3-7.1-7.2-7.1-2.8 0-4.8 1.6-6 3.3-1.1-2.4-3.3-3.3-5.8-3.3-2.6 0-4.6 1.2-6 3.2h-.1V8.2H162v19.7h5.4V16.5c0-3.9 2.6-4.5 3.7-4.5 3.4 0 3.3 2.6 3.3 4.9V28h5.4V17c0-2.5.6-5 3.6-5 3.1-.1 3.4 2.1 3.4 4.7zm9.2-16h5.4v4.5H196zm0 7.5h5.4v19.7H196zm18.2 20.2c4.5 0 7.7-2 9.2-6.6h-4.8c-.3 1.2-2.1 2.6-4.3 2.6-3 0-4.7-1.6-4.8-5h14.2c.4-6.1-2.9-11.7-9.6-11.7-6 0-10.1 4.5-10.1 10.4.2 6.1 4 10.3 10.2 10.3zm-.1-16.7c2.6 0 3.8 1.4 4.3 4.2h-8.8c.1-1.5 1-4.2 4.5-4.2zm14-4.3h.6l1.2 2.2h1l-1.3-2.2c.8-.1 1.3-.4 1.3-1.3 0-1.1-.7-1.5-2-1.5H227v5.1h1V7.4zm0-2.1h.8c.5 0 1 .1 1 .6 0 .6-.4.7-1 .7h-.9V5.3z"/><path class="st1" d="M228.9 11.6c2.5 0 4.6-1.8 4.6-4.5 0-2.8-2.2-4.5-4.6-4.5s-4.6 1.8-4.6 4.5 2.2 4.5 4.6 4.5zm0-8.1c1.9 0 3.4 1.5 3.4 3.5 0 2.1-1.5 3.6-3.4 3.6s-3.4-1.5-3.4-3.6c0-2 1.5-3.5 3.4-3.5zm-203 35.1H6.5v4.1c0 8-1.1 13.6-4.3 18H.1v12H6v-7h17v7h5.8v-12h-2.9V38.6zm-6 22.2H8.8c2.5-4.5 3.6-9.2 3.6-16.6v-.5h7.5v17.1zm20.4-15.2c-6 0-10 4.5-10 10.4 0 6.1 3.8 10.3 10 10.3 4.5 0 7.7-1.9 9.2-6.6h-4.8c-.3 1.2-2.1 2.5-4.3 2.5-3 0-4.7-1.5-4.8-5h14.2c.4-6-2.8-11.6-9.5-11.6zm-4.7 8.2c.1-1.5 1-4.2 4.5-4.2 2.6 0 3.8 1.4 4.3 4.2h-8.8zm15-3.6h6.5v15.6h5.4V50.2h6.4v-4.1H50.6zm29.1-4.6c-6 0-10 4.5-10 10.4 0 6.1 3.8 10.3 10 10.3 4.5 0 7.7-1.9 9.2-6.6h-4.8c-.3 1.2-2.1 2.5-4.3 2.5-3 0-4.7-1.5-4.8-5h14.2c.5-6-2.8-11.6-9.5-11.6zm-4.6 8.2c.1-1.5 1-4.2 4.5-4.2 2.6 0 3.8 1.4 4.3 4.2h-8.8zM108.2 38h-2.4c-.5 1.8-1.9 2.5-4.2 2.5-1.5 0-3.5-.7-3.8-2.5h-2.5c.3 3.5 2.4 5.4 6 5.4 3.9 0 6.4-1.7 6.9-5.4zM97.7 59.1v-13h-5.2v19.7h6l7.2-13v13h5.1V46.1h-6zm19.5-.7c-.1 2.5-.9 3.5-2.4 3.5-.6 0-1.1-.1-1.5-.2v4.2c.9.3 1.8.4 2.5.4 4.2 0 6.4-2.3 6.6-7.5l.3-8.6h5.2v15.6h5.4V46.1h-15.8l-.3 12.3zm25.6.7v-13h-5.2v19.7h6l7.2-13v13h5.1V46.1h-6zm30.3-5.8h-7.5v-7.2h-5.4v19.7h5.4v-8.3h7.5v8.3h5.4V46.1h-5.4zm9.6 12.5h5.4V50.2h9.5v-4.1h-14.9zm40.8-27.2h-6v22.2h-11V38.6h-6v27.2h20.1v6.9h5.8V60.8h-2.9zm14.3 7c-6 0-10 4.5-10 10.4 0 6.1 3.8 10.3 10 10.3 4.5 0 7.7-1.9 9.2-6.6h-4.8c-.3 1.2-2.1 2.5-4.3 2.5-3 0-4.7-1.5-4.8-5h14.2c.5-6-2.8-11.6-9.5-11.6zm-4.6 8.2c.1-1.5 1-4.2 4.5-4.2 2.6 0 3.8 1.4 4.3 4.2h-8.8zm30.3-.5H256v-7.2h-5.4v19.7h5.4v-8.3h7.5v8.3h5.4V46.1h-5.4zm7.9-3.1h6.5v15.6h5.4V50.2h6.4v-4.1h-18.3z"/><path fill="none" stroke="#383838" stroke-width="0" stroke-linecap="round" stroke-linejoin="round" d="M292.1 46.1h0"/><path class="st1" d="M303.2 45.6c-2.4 0-4.5.9-5.9 3h-.1v-2.5h-5.1v26.6h5.4v-9.3h.1c1.3 1.9 3.5 3 5.9 3 5.8 0 8.6-4.9 8.6-10.1 0-5.7-2.7-10.7-8.9-10.7zM302 62.2c-3.5 0-4.7-3-4.7-6.2s1.1-6.3 4.7-6.3c3.5 0 4.7 3.2 4.7 6.3 0 3.2-1.1 6.2-4.7 6.2zm13.6-2.3h6v5.9h-6z"/></svg>