<svg version="1.1" id="Layer_1" xmlns="http://www.w3.org/2000/svg" x="0" y="0" viewBox="0 0 322 73" xml:space="preserve"><style>.st0,.st1{fill-rule:evenodd;clip-rule:evenodd}.st1,.st2{fill:#a7a7a7}</style><g id="Page-1"><g id="KochChemie_Detailing_RU_vector_curves"><path id="Path" class="st0" d="M0 .7h6V12L16.6.7h7.5L13.5 11.4l11.7 16.5h-7.6L9.4 15.7 6 19.1v8.8H0z"/><g id="Group" transform="translate(24)"><path id="Shape" d="M10.3 7.6c6.2 0 10.2 4.1 10.2 10.4 0 6.3-4 10.4-10.2 10.4C4.1 28.4.1 24.3.1 18c0-6.2 4-10.4 10.2-10.4zm0 16.8c3.7 0 4.8-3.2 4.8-6.3 0-3.2-1.1-6.3-4.8-6.3-3.7 0-4.8 3.2-4.8 6.3 0 3.1 1.1 6.3 4.8 6.3z"/><path class="st0" d="M36.9 15.1c-.3-2.2-1.8-3.4-4-3.4-3.5 0-4.6 3.5-4.6 6.4 0 2.8 1.1 6.2 4.5 6.2 2.5 0 4-1.6 4.3-4h5.2c-.7 5.2-4.3 8.1-9.5 8.1-6 0-10-4.2-10-10.1 0-6.1 3.7-10.7 10.1-10.7 4.7 0 8.9 2.4 9.3 7.5h-5.3zM44.8.7h5.4V11h.1c1.4-2.2 3.7-3.3 5.8-3.3 5.8 0 7.2 3.3 7.2 8.1v12.1h-5.4V16.8c0-3.2-1-4.8-3.5-4.8-2.9 0-4.2 1.6-4.2 5.6V28h-5.4V.7z"/></g><path class="st1" d="M19.6 9.8c-.4-2.7-3-4.8-6-4.8-5.4 0-7.4 4.6-7.4 9.4 0 4.5 2 9.1 7.4 9.1 3.7 0 5.7-2.5 6.2-6.1h5.8c-.6 6.8-5.3 11.1-12 11.1C5.2 28.5.2 22.2.2 14.3.3 6.3 5.2 0 13.7 0c6 0 11 3.5 11.8 9.8h-5.9zM28.5.7H34V11h.1c1.4-2.2 3.7-3.3 5.8-3.3 5.8 0 7.2 3.3 7.2 8.1v12.1h-5.4V16.8c0-3.2-1-4.8-3.5-4.8-2.9 0-4.2 1.6-4.2 5.6V28h-5.4L28.5.7z" transform="translate(90)"/><path class="st2" d="M55 19.4c.1 3.4 1.8 5 4.8 5 2.2 0 3.9-1.3 4.3-2.6h4.8c-1.5 4.7-4.8 6.6-9.2 6.6-6.2 0-10.1-4.3-10.1-10.4 0-5.9 4.1-10.4 10.1-10.4 6.7 0 10 5.7 9.6 11.7H55zm8.9-3.5c-.5-2.8-1.7-4.2-4.3-4.2-3.4 0-4.4 2.7-4.5 4.2h8.8z" transform="translate(90)"/><path class="st1" d="M72 8.2h5.1v2.7h.1c1.4-2 3.5-3.2 6-3.2s4.7.9 5.8 3.3c1.2-1.7 3.2-3.3 6-3.3 4.2 0 7.2 2 7.2 7.1V28h-5.4V16.7c0-2.6-.2-4.8-3.3-4.8-3 0-3.6 2.5-3.6 5v11h-5.4V16.8c0-2.3.2-4.9-3.3-4.9-1.1 0-3.7.7-3.7 4.5v11.5H72V8.2z" transform="translate(90)"/><path class="st2" d="M111.4 5.1H106V.7h5.4v4.4zM106 8.2h5.4v19.7H106V8.2zm13.6 11.2c.2 3.4 1.8 5 4.8 5 2.2 0 3.9-1.3 4.3-2.6h4.8c-1.5 4.7-4.8 6.6-9.2 6.6-6.2 0-10.1-4.3-10.1-10.4 0-5.9 4.1-10.4 10.1-10.4 6.7 0 10 5.7 9.6 11.7h-14.3zm8.8-3.5c-.5-2.8-1.7-4.2-4.3-4.2-3.4 0-4.4 2.7-4.5 4.2h8.8z" transform="translate(90)"/><path class="st2" d="M228.9 2.5c2.5 0 4.6 1.8 4.6 4.5 0 2.8-2.2 4.5-4.6 4.5-2.4 0-4.6-1.8-4.6-4.5s2.1-4.5 4.6-4.5zm0 8.1c1.9 0 3.4-1.5 3.4-3.6s-1.5-3.5-3.4-3.5-3.4 1.5-3.4 3.5c0 2.1 1.5 3.6 3.4 3.6zm-1.8-6.1h1.9c1.3 0 2 .4 2 1.5 0 .9-.6 1.3-1.3 1.3l1.3 2.2h-1l-1.2-2.2h-.6v2.2h-1v-5zm1 2.1h.9c.6 0 1-.1 1-.7 0-.5-.6-.6-1-.6h-.8l-.1 1.3z"/><path d="M.1 35.7v-12h2.1c3.3-4.5 4.3-10 4.3-18V1.6h19.3v22.1h2.9v12H23v-7H6v7H.1zM19.9 6.6h-7.5v.5c0 7.4-1.1 12.2-3.6 16.6h11.1V6.6zm15.7 13.7c.2 3.5 1.8 5 4.8 5 2.2 0 3.9-1.3 4.3-2.5h4.8c-1.5 4.7-4.8 6.6-9.2 6.6-6.2 0-10-4.3-10-10.3 0-5.9 4.1-10.4 10-10.4 6.7 0 10 5.6 9.5 11.7H35.6zm8.8-3.5c-.5-2.7-1.7-4.2-4.3-4.2-3.5 0-4.4 2.7-4.5 4.2h8.8z" transform="translate(0 37)"/><path class="st0" d="M62.5 13.2v15.6h-5.4V13.2h-6.5V9.1h18.3v4.1z" transform="translate(0 37)"/><path d="M75.1 20.3c.2 3.5 1.8 5 4.8 5 2.2 0 3.9-1.3 4.3-2.5H89c-1.5 4.7-4.8 6.6-9.2 6.6-6.2 0-10-4.3-10-10.3 0-5.9 4.1-10.4 10-10.4 6.7 0 10 5.6 9.5 11.7H75.1zm8.8-3.5c-.5-2.7-1.7-4.2-4.3-4.2-3.5 0-4.4 2.7-4.5 4.2h8.8zm21.8 12v-13l-7.1 13h-6V9.1h5.2v13l7.1-13h6v19.7h-5.2zM97.8 1c.3 1.9 2.2 2.5 3.8 2.5 2.3 0 3.7-.8 4.2-2.5h2.4c-.5 3.8-3 5.4-6.8 5.4-3.7 0-5.7-1.9-6.1-5.4h2.5z" transform="translate(0 37)"/><path class="st0" d="M128 28.8V13.2h-5.2l-.3 8.6c-.2 5.2-2.4 7.5-6.6 7.5-.8 0-1.6-.1-2.5-.4v-4.2c.4.1.9.2 1.5.2 1.6 0 2.4-1 2.4-3.5l.3-12.3h15.8v19.7H128zm22.8 0v-13l-7.2 13h-6V9.1h5.2v13l7.1-13h6v19.7zm22.3 0v-8.3h-7.5v8.3h-5.4V9.1h5.4v7.2h7.5V9.1h5.4v19.7zm15-15.6v15.6h-5.4V9.1h14.9v4.1zm32.5 22.5v-6.9h-20.1V1.6h6v22.2h11V1.6h5.9v22.2h3v11.9z" transform="translate(0 37)"/><path d="M233.2 20.3c.2 3.5 1.8 5 4.8 5 2.2 0 3.9-1.3 4.3-2.5h4.8c-1.5 4.7-4.8 6.6-9.2 6.6-6.2 0-10-4.3-10-10.3 0-5.9 4.1-10.4 10-10.4 6.7 0 10 5.6 9.5 11.7h-14.2zm8.8-3.5c-.5-2.7-1.7-4.2-4.3-4.2-3.5 0-4.4 2.7-4.5 4.2h8.8z" transform="translate(0 37)"/><path class="st0" d="M263.5 28.8v-8.3H256v8.3h-5.4V9.1h5.4v7.2h7.5V9.1h5.4v19.7zm19.8-15.6v15.6h-5.4V13.2h-6.5V9.1h18.3v4.1z" transform="translate(0 37)"/><path d="M292.1 9.1h5.1v2.5h.1c1.3-2.1 3.4-3 5.9-3 6.2 0 8.9 5 8.9 10.6 0 5.2-2.9 10.1-8.6 10.1-2.4 0-4.6-1-5.9-3h-.1v9.4h-5.4V9.1zm14.6 9.9c0-3.2-1.2-6.3-4.7-6.3s-4.7 3.2-4.7 6.3 1.2 6.2 4.7 6.2c3.6 0 4.7-3 4.7-6.2z" transform="translate(0 37)"/><path class="st0" d="M315.6 22.9h5.9v5.9h-5.9z" transform="translate(0 37)"/></g></g></svg>