<svg xmlns="http://www.w3.org/2000/svg" xmlns:xlink="http://www.w3.org/1999/xlink" viewBox="0 0 64 64"><defs><path id="a" d="M40 28c0 1.1-.9 2-2 2h-8v8c0 1.1-.9 2-2 2h-4c-1.1 0-2-.9-2-2v-8h-8c-1.1 0-2-.9-2-2v-4c0-1.1.9-2 2-2h8v-8c0-1.1.9-2 2-2h4c1.1 0 2 .9 2 2v8h8c1.1 0 2 .9 2 2v4zm7.6 12.5c7.5-11.1 5.3-26.1-5.1-34.6C32.2-2.6 17.1-1.8 7.6 7.6S-2.6 32.2 5.9 42.5 29.4 55 40.5 47.6l15 15c2 1.9 5.1 1.9 7-.1 1.9-1.9 2-5 .1-7l-15-15z"/></defs><clipPath id="b"><use xlink:href="#a" overflow="visible"/></clipPath><path fill="#fff" clip-path="url(#b)" d="M-5-5h74v74H-5z"/></svg>