<svg xmlns="http://www.w3.org/2000/svg" xmlns:xlink="http://www.w3.org/1999/xlink" width="105" height="59" viewBox="0 0 105 59"><defs><path id="mykza" d="M972.5 3708.56s1.67-3.54 2.5 0c0 49.74-82.19 50.05-91.5 50.51l-.03 5.84c0 .84-.91 1.37-1.62.94l-11.34-6.94a1.1 1.1 0 0 1 0-1.86l11.41-7.04c.71-.44 1.61.08 1.6.92l-.02 5.81c95.38-3.24 89-48.18 89-48.18zM881.35 3763l.05-10.14-8.28 5.1zm-5.13-5.54l3.65-2.35c.65-.43 1.27.58.6.99l-3.65 2.34c-.5.34-1.1-.25-.8-.78a.58.58 0 0 1 .2-.2z"/></defs><g><g transform="translate(-870 -3707)"><use fill="#87ba54" xlink:href="#mykza"/></g></g></svg>