<svg xmlns="http://www.w3.org/2000/svg" xmlns:xlink="http://www.w3.org/1999/xlink" width="104" height="67" viewBox="0 0 104 67"><defs><path id="cxyza" d="M1518.39 8469.37s1.69-3.62 2.55.03c-6.28 80.61-80.52 57.13-90.05 57.5v6c0 .87-.92 1.4-1.65.95l-11.64-7.29c-.5-.32-.67-1-.37-1.53.09-.16.22-.3.37-.39l11.64-7.1c.72-.45 1.64.1 1.64.97v5.98c95.31 17.51 87.5-55.12 87.5-55.12zm-89.68 61.54v-10.44l-8.44 5.15zm-5.27-5.77l3.72-2.37c.67-.44 1.3.6.62 1.02l-3.72 2.37c-.52.34-1.13-.27-.82-.81a.6.6 0 0 1 .2-.21z"/></defs><g><g transform="translate(-1417 -8467)"><use fill="#87ba54" xlink:href="#cxyza"/></g></g></svg>