<svg xmlns="http://www.w3.org/2000/svg" xmlns:xlink="http://www.w3.org/1999/xlink" width="39" height="15" viewBox="0 0 39 15">
	<defs>
		<path id="1swya" d="M1149.71 9335.6a.91.91 0 0 1-1.28 0l-5.13-5.06a.89.89 0 0 1 0-1.27.92.92 0 0 1 1.28 0l5.13 5.06c.35.35.35.92 0 1.27zm-19.23 8.4a.9.9 0 0 1-.9-.9v-5.9c0-.5.4-.9.9-.9s.9.4.9.9v5.9c0 .5-.4.9-.9.9zm-12.82-13.46l-5.12 5.05a.92.92 0 0 1-1.28 0 .89.89 0 0 1 0-1.26l5.12-5.06a.91.91 0 0 1 1.28 0c.36.35.36.91 0 1.27z"/>
	</defs>
	<g>
		<g transform="translate(-1111 -9329)">
			<use fill="#b2cf5c" xlink:href="#1swya"/>
		</g>
	</g>
</svg>