<svg xmlns="http://www.w3.org/2000/svg" xmlns:xlink="http://www.w3.org/1999/xlink" width="50" height="38" viewBox="0 0 50 38"><defs><path id="mxy3a" d="M1462.5 8403.16a2.5 2.5 0 1 1-5.01 0 2.5 2.5 0 0 1 5.01 0zm-1.46 0c0-.58-.47-1.05-1.04-1.05a1.04 1.04 0 0 0 0 2.09c.57 0 1.04-.47 1.04-1.04zm10.03 0a2.5 2.5 0 1 1-5.02 0 2.5 2.5 0 0 1 5.02 0zm-1.46 0c0-.58-.47-1.05-1.04-1.05a1.04 1.04 0 0 0 0 2.09c.57 0 1.04-.47 1.04-1.04zm-15.67 0a2.5 2.5 0 1 1-5.02 0 2.5 2.5 0 0 1 5.02 0zm-1.46 0a1.04 1.04 0 1 0-1.04 1.04c.57 0 1.04-.47 1.04-1.04zm10.27-12.96c0 2.14-1.2 3.8-2.75 3.8-1.54 0-2.75-1.66-2.75-3.8 0-2.13 1.2-3.8 2.75-3.8 1.54 0 2.75 1.67 2.75 3.8zm-1.46 0c0-1.38-.68-2.34-1.29-2.34-.6 0-1.29.96-1.29 2.34s.68 2.34 1.29 2.34c.6 0 1.29-.96 1.29-2.34zm23.71-11.13a2.65 2.65 0 0 1-2.43 2.63l-1.32 5.3c.34.3.62.72.79 1.24.26.79.27 1.74.03 2.67a4.73 4.73 0 0 1-1.35 2.3c-.37.34-.78.56-1.2.67l-.55 2.25v13.65c0 .67-.55 1.22-1.22 1.22h-35.5c-.67 0-1.22-.55-1.22-1.22v-13.65l-.57-2.3c-1.05-.34-2-1.43-2.39-2.92a4.74 4.74 0 0 1 .03-2.67c.15-.46.38-.85.68-1.14l-1.35-5.4a2.64 2.64 0 1 1 2.8-2.16l4.03 1.84a.73.73 0 0 1-.6 1.33l-4.07-1.86c-.2.23-.45.42-.73.56l1.26 5.05a2.6 2.6 0 0 1 1.92.73c.62.56 1.1 1.38 1.34 2.3.52 1.95-.1 3.77-1.42 4.3l.38 1.52h21.5a.73.73 0 0 1 0 1.47h-21.34v1.57h35v-1.57h-9.27a.73.73 0 0 1 0-1.47h9.43l.4-1.57a2.61 2.61 0 0 1-1.28-1.57 4.74 4.74 0 0 1-.02-2.68c.24-.92.72-1.74 1.34-2.3a2.64 2.64 0 0 1 1.78-.73l1.26-5.05a2.66 2.66 0 0 1-.73-.56l-9.98 4.58a3.04 3.04 0 0 1-3.54-.77l-5.77-6.62a2.63 2.63 0 0 1-2.24 0l-5.77 6.62a3.04 3.04 0 0 1-3.54.77l-1.77-.82a.73.73 0 0 1 .6-1.33l1.78.82c.63.28 1.38.12 1.83-.4l5.77-6.63a2.64 2.64 0 1 1 4.43 0l5.78 6.63c.45.52 1.2.68 1.83.4l9.94-4.56a2.64 2.64 0 1 1 5.24-.47zm-23.82-3.43a1.18 1.18 0 1 0-2.36 0 1.18 1.18 0 0 0 2.36 0zm-22.36 3.43a1.18 1.18 0 1 0-2.36 0 1.18 1.18 0 0 0 2.36 0zm3.15 10.8a3.3 3.3 0 0 0-.9-1.59c-.17-.15-.47-.36-.78-.36a.6.6 0 0 0-.16.02c-.38.1-.57.52-.65.76a3.31 3.31 0 0 0 0 1.83c.35 1.34 1.26 2.1 1.85 1.94.58-.16 1-1.27.64-2.6zm35.53 19.66v-1.57h-35v1.57zm0-3.03v-6.69h-35v6.69zm3.15-17.8c-.08-.24-.27-.66-.64-.76a.6.6 0 0 0-.16-.02c-.32 0-.61.21-.77.36-.41.36-.74.94-.91 1.6a3.31 3.31 0 0 0 0 1.82c.08.25.27.67.64.77.37.1.75-.18.94-.35.4-.36.73-.94.9-1.59.18-.65.18-1.31 0-1.83zm2.89-9.63a1.18 1.18 0 1 0-2.36 0 1.18 1.18 0 0 0 2.36 0z"/></defs><g><g transform="translate(-1435 -8373)"><use fill="#87ba54" xlink:href="#mxy3a"/></g></g></svg>