<svg xmlns="http://www.w3.org/2000/svg" xmlns:xlink="http://www.w3.org/1999/xlink" width="59" height="91" viewBox="0 0 59 91"><defs><path id="vwoba" d="M1140 9594.77c0-16.42 13.23-29.77 29.5-29.77 16.22 0 29.43 13.29 29.5 29.64v49.89c0 .74-.6 1.34-1.32 1.34-.73 0-1.32-.6-1.32-1.34v-7.11a7.53 7.53 0 0 0-7.49-7.55h-5.79a13.72 13.72 0 0 1-13.58 12.44 13.72 13.72 0 0 1-13.59-12.44h-5.78a7.53 7.53 0 0 0-7.49 7.55v15.91h9.69v-6.4c0-.73.59-1.33 1.32-1.33.73 0 1.32.6 1.32 1.33v6.4h29.06v-6.4c0-.73.6-1.33 1.32-1.33.73 0 1.32.6 1.32 1.33v6.4h9.69v-3.47c0-.73.6-1.33 1.32-1.33.73 0 1.32.6 1.32 1.33v4.8c0 .74-.6 1.34-1.32 1.34h-56.36c-.73 0-1.32-.6-1.32-1.33v-17.24-.01zm29.5 44.88c5.62 0 10.27-4.28 10.92-9.78h-5.64c-.73 0-1.32-.6-1.32-1.33v-2.67a22.36 22.36 0 0 1-7.92 0v2.67c0 .73-.6 1.33-1.32 1.33h-5.65c.66 5.5 5.3 9.78 10.93 9.78zm-1.76-26.66c2.71 0 4.84 1.75 4.84 4 0 2.24-2.13 4-4.84 4-2.5 0-4.48-1.48-4.8-3.45a29.44 29.44 0 0 1-8.1-.52 19.69 19.69 0 0 0 14.66 6.54 19.93 19.93 0 0 0 19.81-20v-7.46h-39.62v7.47a20 20 0 0 0 2.63 9.95 26.17 26.17 0 0 0 11.33 1.29 5.11 5.11 0 0 1 4.09-1.82zm-2.2 4c0 .62.94 1.33 2.2 1.33 1.26 0 2.2-.7 2.2-1.33 0-.63-.94-1.34-2.2-1.34-1.26 0-2.2.7-2.2 1.34zm-22.9-22.22v35.78a10.06 10.06 0 0 1 7.49-3.35h12.77v-1.97a22.58 22.58 0 0 1-12.37-9.54c-2.91-1.24-5.04-2.94-6.23-4.73-1.09-1.64-1.31-3.34-.61-4.66.71-1.35 2.12-1.9 3.36-2.1v-12.99c0-.73.59-1.33 1.32-1.33.73 0 1.32.6 1.32 1.33v2.23h2.64v-2.23c0-.73.59-1.33 1.32-1.33.73 0 1.32.6 1.32 1.33v2.23h2.64v-2.23c0-.73.6-1.33 1.32-1.33.73 0 1.32.6 1.32 1.33v2.23h2.65v-2.23c0-.73.59-1.33 1.32-1.33.73 0 1.32.6 1.32 1.33v2.23h2.64v-2.23c0-.73.59-1.33 1.32-1.33.73 0 1.32.6 1.32 1.33v2.23h2.64v-2.23c0-.73.6-1.33 1.32-1.33.73 0 1.32.6 1.32 1.33v2.23h2.65v-2.23c0-.73.59-1.33 1.32-1.33.73 0 1.32.6 1.32 1.33v2.23h2.64v-2.23c0-.73.6-1.33 1.32-1.33.73 0 1.32.6 1.32 1.33v2.23h2.64v-2.23c0-.73.6-1.33 1.32-1.33.73 0 1.32.6 1.32 1.33v12.36c0 10.17-6.68 18.8-15.85 21.66v1.97h12.77c2.97 0 5.63 1.3 7.49 3.35v-35.69-.1c0-14.94-12.05-27.1-26.86-27.1-14.81 0-26.86 12.16-26.86 27.1zm5.81 16.7c-.54-1.47-.93-3.01-1.17-4.6-.64.12-1.1.36-1.26.69-.23.41-.05 1.13.47 1.92a8.3 8.3 0 0 0 1.96 1.99z"/></defs><g><g transform="translate(-1140 -9565)"><use fill="#fff" xlink:href="#vwoba"/></g></g></svg>