<svg xmlns="http://www.w3.org/2000/svg" xmlns:xlink="http://www.w3.org/1999/xlink" width="83" height="89" viewBox="0 0 83 89"><defs><path id="erwda" d="M1531.73 9586.61l40.2-19.51a1.3 1.3 0 0 1 1.13 0l40.2 19.51c.46.22.74.68.74 1.18v47.39c0 .5-.28.96-.73 1.17l-40.2 19.52a1.3 1.3 0 0 1-1.13 0l-40.2-19.52a1.3 1.3 0 0 1-.74-1.17v-47.4c0-.5.28-.95.73-1.17zm40.77-16.89l-37.22 18.07 10.79 5.23.22-.14 36.97-17.94zm13.69 6.7l-37.17 18.04 7.61 3.69 37.15-18.03zm-38.04 20.51v13.66l7.11 3.45v-13.66zm23.05 55.69v-44.5l-8.97-4.36a1.3 1.3 0 0 1-.6-1.74 1.3 1.3 0 0 1 1.73-.6l9.14 4.43 3.6-1.74a1.3 1.3 0 0 1 1.73.6 1.3 1.3 0 0 1-.6 1.75l-3.43 1.66v44.5l37.6-18.26v-44.5l-28.63 13.9c-.18.1-.38.14-.57.14a1.3 1.3 0 0 1-.56-2.48l28.08-13.63-12.89-6.26-38.96 18.91-.02.03v15.65a1.3 1.3 0 0 1-1.3 1.3c-.19 0-.38-.04-.56-.13l-9.7-4.7a1.3 1.3 0 0 1-.73-1.18v-15.74l-11.97-5.8v44.5zm29.5-23.32l5.9-2.86a1.3 1.3 0 0 1 1.73.6 1.3 1.3 0 0 1-.6 1.75l-5.9 2.86a1.29 1.29 0 0 1-1.73-.6 1.3 1.3 0 0 1 .6-1.75zm-5.43-3.55l11.32-5.5a1.3 1.3 0 0 1 1.74.61 1.3 1.3 0 0 1-.6 1.74l-11.33 5.5a1.29 1.29 0 0 1-1.73-.6 1.3 1.3 0 0 1 .6-1.75z"/></defs><g><g transform="translate(-1531 -9567)"><use fill="#fff" xlink:href="#erwda"/></g></g></svg>