<svg xmlns="http://www.w3.org/2000/svg" width="18" height="24" viewBox="0 0 18 24">
  <metadata><?xpacket begin="﻿" id="W5M0MpCehiHzreSzNTczkc9d"?>
<x:xmpmeta xmlns:x="adobe:ns:meta/" x:xmptk="Adobe XMP Core 5.6-c138 79.159824, 2016/09/14-01:09:01        ">
   <rdf:RDF xmlns:rdf="http://www.w3.org/1999/02/22-rdf-syntax-ns#">
      <rdf:Description rdf:about=""/>
   </rdf:RDF>
</x:xmpmeta>
                                                                                                    
                                                                                                    
                                                                                                    
                                                                                                    
                                                                                                    
                                                                                                    
                                                                                                    
                                                                                                    
                                                                                                    
                                                                                                    
                                                                                                    
                                                                                                    
                                                                                                    
                                                                                                    
                                                                                                    
                                                                                                    
                                                                                                    
                                                                                                    
                                                                                                    
                                                                                                    
                           
<?xpacket end="w"?></metadata>
<defs>
    <style>
      .cls-1 {
        fill: #87ba54;
        fill-rule: evenodd;
      }
    </style>
  </defs>
  <path class="cls-1" d="M1355.47,554.583a3.135,3.135,0,0,1-3.15-2.882,5.253,5.253,0,0,0,1.23-1.233,7.652,7.652,0,0,0,1.34-3.525,0.593,0.593,0,0,0,.13-0.19,5.986,5.986,0,0,0,.44-2.264,5.276,5.276,0,0,0-5.01-5.492,4.581,4.581,0,0,0-2.09.5,3.782,3.782,0,0,0-.74.135,4.147,4.147,0,0,0-2.6,2.408,6.026,6.026,0,0,0-.29,3.923,5.844,5.844,0,0,0,.27.831,0.58,0.58,0,0,0,.12.185,6.729,6.729,0,0,0,2.56,4.714,3.135,3.135,0,0,1-3.15,2.886,3.686,3.686,0,0,0-3.53,3.706v4.169a0.537,0.537,0,0,0,.53.54h16.94a0.537,0.537,0,0,0,.53-0.54v-4.169A3.686,3.686,0,0,0,1355.47,554.583Zm-7.55-13.908a2.526,2.526,0,0,1,.61-0.1,0.569,0.569,0,0,0,.22-0.061,3.575,3.575,0,0,1,1.7-.434,4.2,4.2,0,0,1,3.95,4.41,1.6,1.6,0,0,1-.01.218,2.3,2.3,0,0,0-1.65-.707h-3.63a1,1,0,0,1-.6-0.2,0.988,0.988,0,0,1-.32-0.432,0.652,0.652,0,0,0-1.24.082,4.993,4.993,0,0,1-1.21,2.189C1345.21,543.405,1346.17,541.184,1347.92,540.675Zm-0.47,9.344a6.476,6.476,0,0,1-1.29-3.287,6.083,6.083,0,0,0,1.55-2.2,1.377,1.377,0,0,0,.17.14,2.01,2.01,0,0,0,1.23.413h3.63a1.265,1.265,0,0,1,1.15.76v0.011c0,3.051-1.75,5.534-3.89,5.534A3.322,3.322,0,0,1,1347.45,550.019Zm1.23,2.209a3.794,3.794,0,0,0,2.64,0,4.262,4.262,0,0,0,1.55,2.549l-2.79,4.04a0.1,0.1,0,0,1-.08.041,0.074,0.074,0,0,1-.07-0.039l-2.8-4.044A4.265,4.265,0,0,0,1348.68,552.228Zm9.25,9.689h-15.87v-3.628a2.617,2.617,0,0,1,2.59-2.628,4.541,4.541,0,0,0,1.56-.335l2.84,4.114a1.157,1.157,0,0,0,.95.5h0a1.157,1.157,0,0,0,.95-0.5l2.84-4.113a4.367,4.367,0,0,0,1.56.334,2.608,2.608,0,0,1,2.58,2.628v3.628h0Z" transform="translate(-1341 -539)"/>
</svg>
