<svg xmlns="http://www.w3.org/2000/svg" xmlns:xlink="http://www.w3.org/1999/xlink" width="219" height="125" viewBox="0 0 219 125"><defs><path id="njpqa" d="M809.73 3245.05l3.97-5.79 4.36-12.34c.05-.14.1-.27.18-.39l10.48-17.56a2.12 2.12 0 0 1 1.94-1.03l8.55.5a2.12 2.12 0 0 1 1.97 2.41v.18l-.87 14.61 5.32 6.63a38.56 38.56 0 0 0 9.78 8.67 2.15 2.15 0 0 1-1.24 3.96 2.1 2.1 0 0 1-.98-.32 42.8 42.8 0 0 1-10.86-9.61l-5.86-7.3-1.52-.1-.44 7.35 4.5 8.62a44.24 44.24 0 0 0 43.28 23.66l7.77-.73c.71-.07 1.43-.1 2.14-.1a37.58 37.58 0 0 0 11.32-9.29l-2.2-3.25c-.65-.98-.4-2.3.57-2.97a2.11 2.11 0 0 1 2.95.56l1.4 2.08a90.69 90.69 0 0 0 3.43-5.4l-2.34-2.5-4.52 1.35c-.36.1-.73.12-1.09.04-2.4-.57-4.93-.49-7.3.22l-6.57 1.97a42.25 42.25 0 0 1-18.12 1.39 2.13 2.13 0 0 1-1.81-2.42 2.13 2.13 0 0 1 2.4-1.82c5.5.77 11 .35 16.32-1.25l6.57-1.97c2.89-.86 5.96-1 8.9-.41l5.27-1.58c.76-.23 1.6 0 2.14.58l4.35 4.63c.66.7.77 1.76.27 2.58l-.63 1.05c-2.78 4.66-7.14 11.96-14.93 17.5.49.16.97.34 1.45.54l6.3-.59c.8-.07 1.56.31 1.99 1l3.83 6.14c.51.82.42 1.88-.23 2.59a49.53 49.53 0 0 1-14.52 10.95l2.4 5.55c.37.89.12 1.92-.63 2.52a49.23 49.23 0 0 1-20.1 9.73l-1.96.44a65.68 65.68 0 0 1-44.46-5.75 58.38 58.38 0 0 1-23.56-22.3l-.49-.85a30.33 30.33 0 0 1 1.13-32.38zm8.78-6.65l5.85.62.53-8.96-3.36-.2zm13.18-26.11l-8 13.41 2.38.15 9.13-13.35zm-2.47 16.48l-.18 3.03 1.4.09.32-5.37zm6.18-8.77l-.2 3.3 1 .06.3-5.24-1.1 1.62v.26zm62.51 62.97l-1.08-2.54a2.15 2.15 0 0 1 1.12-2.8 2.12 2.12 0 0 1 2.79 1.12l.8 1.9c2.2-1.56 4.26-3.3 6.14-5.23l-2.26-3.63-5.54.53a2.1 2.1 0 0 1-1.07-.19 16.48 16.48 0 0 0-8.36-1.4l-7.78.73a48.48 48.48 0 0 1-30.06-7.13 48.73 48.73 0 0 1-17.37-18.8l-4.87-9.36-1.58-.1-.3 5.01 3.66 10.74a44.32 44.32 0 0 0 39.22 30l7.8.46c3.4.2 6.72 1.25 9.62 3.04l3.87.23c1.8-.74 3.56-1.6 5.25-2.58zm-85.65-7.72l.49.84a54.14 54.14 0 0 0 21.85 20.69 61.45 61.45 0 0 0 41.6 5.37l1.95-.43a44.57 44.57 0 0 0 7.47-2.4l-.82-2.96a2.14 2.14 0 0 1 1.47-2.64c1.13-.32 2.3.35 2.62 1.48l.63 2.27c1.99-1.07 3.9-2.29 5.72-3.65l-1.7-3.93-.64-.04h-.01-.01l-4.89-.3a2.11 2.11 0 0 1-1.03-.33 16.5 16.5 0 0 0-8.05-2.67l-7.8-.47a48.56 48.56 0 0 1-42.97-32.87l-3.37-9.85-8.13-.86-3.41 4.98a26.01 26.01 0 0 0-.97 27.77zm47.07-29.77a2.14 2.14 0 0 1 2.74-1.26h.01a2.14 2.14 0 1 1-1.49 4.01 2.16 2.16 0 0 1-1.26-2.75zm-42.18 25.5a2.11 2.11 0 0 1 2.91.75l.1.17a2.15 2.15 0 0 1-1.95 3.23 2.12 2.12 0 0 1-1.7-1.03l-.1-.19a2.15 2.15 0 0 1 .74-2.93zm4.96 7.55c.88-.78 2.22-.7 3 .18a45.58 45.58 0 0 0 13.37 10.45 52.7 52.7 0 0 0 19.69 5.7 2.13 2.13 0 0 1 1.93 2.33 2.13 2.13 0 0 1-2.3 1.94 56.92 56.92 0 0 1-21.26-6.16 49.8 49.8 0 0 1-14.61-11.42c-.78-.89-.7-2.24.18-3.02z"/><path id="njpqb" d="M750.56 3207.34c0-3.05 3.15-5.29 9.64-6.83 5.18-1.24 12.04-1.92 19.3-1.92 7.27 0 14.13.68 19.32 1.92 6.48 1.54 9.63 3.78 9.63 6.83v10.4c0 1.54-.8 2.87-2.43 4.01l-3.48 20.83a2.45 2.45 0 0 1-2.82 2 2.43 2.43 0 0 1-2.02-2.8l2.96-17.7c-.58.17-1.2.34-1.84.49-5.2 1.24-12.05 1.92-19.31 1.92-8.73 0-16.77-.98-22.06-2.68a2.43 2.43 0 0 1-1.58-3.06 2.46 2.46 0 0 1 3.1-1.57c4.74 1.53 12.42 2.45 20.54 2.45 6.2 0 12.19-.53 16.84-1.5 4.86-1 6.76-2.16 7.2-2.64v-4.81a30.32 30.32 0 0 1-4.73 1.49c-5.2 1.24-12.05 1.92-19.31 1.92-7.27 0-14.13-.68-19.31-1.92-6.5-1.55-9.64-3.78-9.64-6.83zm5.19 0c.76.56 2.75 1.54 6.91 2.4a86.94 86.94 0 0 0 16.85 1.48c6.2 0 12.19-.52 16.84-1.49 4.16-.85 6.15-1.83 6.92-2.4-.77-.55-2.76-1.53-6.92-2.39a86.94 86.94 0 0 0-16.84-1.49c-6.22 0-12.2.53-16.85 1.5-4.16.85-6.15 1.83-6.91 2.39zM809 3259.4v33.52c0 9.9-21.73 15.08-43.2 15.08-21.48 0-43.21-5.18-43.21-15.08v-33.52c0-9.9 21.73-15.08 43.2-15.08 2.88 0 5.74.09 8.53.27a2.42 2.42 0 1 1 1.09 4.52c-.68.4-.96.73-1.04.87.36.77 3.62 2.63 9.45 2.63 4.6 0 8.14-1.21 9.28-2.41.17-.18.26-.31.36-.45 1.4-1.94 3.15-1.26 3.98-.94l.46.18c4.15 1.55 11.1 4.97 11.1 10.4zm-4.9 33.52v-26.14c-7.62 5.07-23.03 7.7-38.3 7.7-15.28 0-30.69-2.63-38.31-7.7v26.14c0 1.6 2.68 4.28 10.22 6.62 7.46 2.32 17.44 3.6 28.08 3.6 10.65 0 20.62-1.28 28.1-3.6 7.53-2.34 10.21-5.03 10.21-6.62zm-54.71-24.4c3-.44 4.5-1.4 4.91-1.85-.6-.7-3.42-2.08-8.1-2.08-3.92 0-6.53.96-7.64 1.69 3.23.94 6.88 1.7 10.83 2.25zm54.71-9.12c0-1.64-3.16-4.01-7.57-5.73-2.36 2.35-7.2 3.8-12.7 3.8-7.15 0-14.37-2.57-14.37-7.5 0-.2.01-.46.06-.74-1.24-.03-2.48-.05-3.73-.05-10.64 0-20.61 1.28-28.08 3.6l-.28.08c.4.43.63 1 .63 1.62 0 1.34-1.1 2.43-2.45 2.43h-.62c-1.26 0-2.3-.95-2.44-2.16-3.65 1.76-5.06 3.49-5.06 4.65 0 1.26 1.69 3.22 6.16 5.14 1.7-3.17 7.15-4.81 12.54-4.81 6.5 0 13.08 2.38 13.08 6.95 0 .98-.31 1.9-.9 2.72 2.42.14 4.9.21 7.42.21 10.65 0 20.62-1.27 28.1-3.6 1-.3 1.91-.62 2.74-.94a2.42 2.42 0 0 1 1.4-4.43h.62c1.3 0 2.36 1 2.44 2.28 2.14-1.35 3.01-2.62 3.01-3.52zm-43-5.37c0 1.34-1.1 2.43-2.45 2.43h-.62a2.44 2.44 0 0 1-2.45-2.43c0-1.34 1.1-2.43 2.45-2.43h.62a2.44 2.44 0 0 1 2.45 2.43zm13.76 9.71c0 1.35-1.1 2.44-2.45 2.44h-.61a2.44 2.44 0 0 1-2.45-2.44c0-1.34 1.1-2.43 2.45-2.43h.61a2.44 2.44 0 0 1 2.45 2.43zm-38.85-24.23v-10.1c0-4.07-.54-7.08-1.87-10.39a2.43 2.43 0 0 1 1.36-3.16c1.26-.5 2.69.11 3.19 1.36a30.8 30.8 0 0 1 2.22 12.18v10.1c0 1.35-1.1 2.44-2.45 2.44a2.44 2.44 0 0 1-2.45-2.43zm-17.52 58.31c0 1.35-1.1 2.43-2.45 2.43-8.22 0-14.9-6.38-14.9-14.23v-57.47c0-8.22 2.14-12.45 5.12-18.32l1.12-2.24.04-.07c.7-1.41 1.44-2.95 2.22-4.67l-9.91 6.1a2.46 2.46 0 0 1-3.38-.77 2.42 2.42 0 0 1 .8-3.35l11.08-6.84-7.17-2.93a2.43 2.43 0 0 1-1.33-3.17 2.46 2.46 0 0 1 3.2-1.33l6.45 2.64v-3.81a6.82 6.82 0 0 1 6.84-6.79h19.69a6.82 6.82 0 0 1 6.84 6.79v4.67c0 1.75-.67 3.34-1.76 4.54v.72a114.1 114.1 0 0 0 3.75 8.27l1.13 2.25c2.98 5.86 5.12 10.1 5.12 18.3v8.68c0 1.34-1.1 2.43-2.45 2.43a2.44 2.44 0 0 1-2.45-2.43v-8.67c0-7.06-1.73-10.48-4.6-16.13l-.48-.96h-29.9l-.48.96c-2.87 5.65-4.6 9.07-4.6 16.13v57.47c0 5.17 4.5 9.37 10.01 9.37a2.44 2.44 0 0 1 2.45 2.43zm-4.2-103.36a1.91 1.91 0 0 0 .85 1.6c.3.2.68.33 1.08.33h19.69a1.93 1.93 0 0 0 1.94-1.93v-4.67c0-1.06-.87-1.93-1.94-1.93h-19.7c-1.06 0-1.93.87-1.93 1.93zm-.8 12.14h25.15c-.74-1.6-1.52-3.38-2.32-5.36l-.41.01h-19.7l-.4-.01c-.8 1.98-1.58 3.76-2.32 5.36z"/></defs><g><g transform="translate(-696 -3183)"><use fill="#f4f4f4" xlink:href="#njpqa"/></g><g transform="translate(-696 -3183)"><use fill="#f4f4f4" xlink:href="#njpqb"/></g></g></svg>