<svg xmlns="http://www.w3.org/2000/svg" xmlns:xlink="http://www.w3.org/1999/xlink" width="22" height="24" viewBox="0 0 22 24"><defs><path id="hm9ia" d="M1634.3 562.94a.92.92 0 0 1-.6 0c-10.7-3.47-10.53-11.7-10.4-17.7l.02-1.86c0-.46.4-.83.9-.83 3.82 0 6.73-1.03 9.16-3.24a.94.94 0 0 1 1.24 0c2.43 2.21 5.34 3.24 9.17 3.24.5 0 .9.37.9.83 0 .6 0 1.2.02 1.85.12 6.01.29 14.24-10.42 17.71zm8.62-17.68l-.02-1.06c-3.58-.14-6.45-1.16-8.9-3.15-2.45 2-5.32 3.01-8.9 3.15l-.02 1.06c-.12 6.04-.26 12.88 8.92 16 9.18-3.12 9.04-9.96 8.92-16zm-4.57 2.86a.8.8 0 0 1 0 1.18l-4.95 4.64a.93.93 0 0 1-1.27 0l-2.47-2.32a.8.8 0 0 1 0-1.18.94.94 0 0 1 1.26 0l1.84 1.72 4.32-4.04a.94.94 0 0 1 1.27 0z"/><path id="hm9ib" d="M1619 567v-32h30v32zm15.3-4.06c10.7-3.47 10.53-11.7 10.41-17.7l-.03-1.86c0-.46-.4-.83-.9-.83-3.82 0-6.73-1.03-9.16-3.24a.94.94 0 0 0-1.24 0c-2.43 2.21-5.34 3.24-9.17 3.24-.5 0-.9.37-.9.83 0 .6 0 1.2-.02 1.85-.12 6.01-.29 14.24 10.42 17.71a.92.92 0 0 0 .58 0zm-.3-1.67c-9.18-3.13-9.04-9.97-8.92-16.01l.02-1.06c3.58-.14 6.45-1.16 8.9-3.15 2.45 2 5.32 3.01 8.9 3.15l.02 1.06c.12 6.04.26 12.88-8.92 16zm3.08-13.15l-4.32 4.04-1.84-1.72a.94.94 0 0 0-1.26 0 .8.8 0 0 0 0 1.18l2.47 2.32a.93.93 0 0 0 1.27 0l4.95-4.64a.8.8 0 0 0 0-1.18.94.94 0 0 0-1.27 0z"/><linearGradient id="hm9ie" x1="1623.26" x2="1644.26" y1="550.99" y2="551.07" gradientUnits="userSpaceOnUse"><stop offset="0" stop-color="#e12a2c"/><stop offset=".5" stop-color="#f0441f"/><stop offset="1" stop-color="#e52f31"/></linearGradient><filter id="hm9ic" width="200%" height="200%" x="-50%" y="-50%"><feGaussianBlur in="SourceGraphic" result="FeGaussianBlur1053Out" stdDeviation="2 2"/></filter><mask id="hm9id"><use fill="#898988" xlink:href="#hm9ia"/></mask></defs><g><g transform="translate(-1623 -539)"><use fill="#777777" fill-opacity=".48" stroke="#fd8f25" stroke-opacity=".48" stroke-width="0" filter="url(#hm9ic)" mask="url(&quot;#hm9id&quot;)" xlink:href="#hm9ib"/><use fill="#777777" xlink:href="#hm9ia"/><use fill="url(#777777)" xlink:href="#hm9ia"/><use fill="#777777" fill-opacity=".48" stroke="#fd8f25" stroke-opacity=".48" stroke-width="0" filter="url(#hm9ic)" mask="url(&quot;#hm9id&quot;)" xlink:href="#hm9ib"/></g></g></svg>