<svg xmlns="http://www.w3.org/2000/svg" xmlns:xlink="http://www.w3.org/1999/xlink" width="55" height="53" viewBox="0 0 55 53"><defs><path id="tdgra" d="M1475.34 2321.73c.5 0 .92.4.92.91a.91.91 0 1 1-.92-.91zm1.83 15.54a.92.92 0 1 1 0 1.83.92.92 0 0 1 0-1.83zm-22.92-7.32a.92.92 0 1 1 0 1.83.92.92 0 0 1 0-1.83zm14.67-5.48a.92.92 0 1 1 0 1.83.92.92 0 0 1 0-1.83zm13.75 4.57a.92.92 0 1 1 0 1.83.92.92 0 0 1 0-1.83zm-33.92 8.23a.91.91 0 1 1 0 1.83.91.91 0 0 1 0-1.83zm16.16-25.18l-12.97 12.93-14.26-14.22a9.06 9.06 0 0 1-2.69-6.46c0-2.45.96-4.74 2.69-6.47a9.2 9.2 0 0 1 12.97 0zm-12.97 10.34l10.38-10.34-12.97-12.92a7.33 7.33 0 0 0-10.38 0 7.25 7.25 0 0 0-2.14 5.17c0 1.95.76 3.78 2.14 5.17zm38.07-26.3c0 2.45-.95 4.74-2.69 6.47l-14.26 14.22-12.97-12.93 14.27-14.21a9.12 9.12 0 0 1 6.48-2.68 9.12 9.12 0 0 1 9.17 9.14zm-1.83 0a7.3 7.3 0 0 0-7.34-7.31 7.3 7.3 0 0 0-5.19 2.15l-12.96 12.92 10.37 10.34 12.97-12.92a7.25 7.25 0 0 0 2.15-5.17zm-20.18 26.51a3.67 3.67 0 0 1-3.67-3.65 3.67 3.67 0 0 1 7.34 0 3.67 3.67 0 0 1-3.67 3.65zm0-1.83c1.01 0 1.84-.82 1.84-1.82a1.83 1.83 0 0 0-3.67 0c0 1 .82 1.82 1.83 1.82zm-2.75 5.49a3.66 3.66 0 1 1-7.33-.02 3.66 3.66 0 0 1 7.33.02zm-1.83 0a1.83 1.83 0 0 0-3.67 0 1.83 1.83 0 0 0 3.67 0zm11 5.48a3.66 3.66 0 0 1-7.33 0 3.67 3.67 0 0 1 7.33 0zm-1.83 0a1.83 1.83 0 1 0-3.67.01 1.83 1.83 0 0 0 3.67 0zm-7.34 4.57a3.67 3.67 0 0 1-7.33 0 3.66 3.66 0 0 1 7.33 0zm-1.83 0a1.83 1.83 0 0 0-3.67 0 1.83 1.83 0 0 0 3.67 0z"/></defs><g><g transform="translate(-1435 -2287)"><use xlink:href="#tdgra"/></g></g></svg>