<svg xmlns="http://www.w3.org/2000/svg" viewBox="0 0 616 556"><linearGradient id="a" gradientUnits="userSpaceOnUse" x1="586.367" y1="561.691" x2="71.325" y2="46.649"><stop offset="0" stop-color="#1656fd"/><stop offset="1" stop-color="#d102ff"/></linearGradient><path d="M165.3 495.5c-3.2 0-5.8-2.6-5.8-5.8v-11.5c0-3.2 2.6-5.8 5.8-5.8h76.6c3.2 0 5.8 2.6 5.8 5.8v11.5c0 3.2-2.6 5.8-5.8 5.8h-76.6zm106.8 0c-3.2 0-5.8-2.6-5.8-5.8v-11.5c0-3.2 2.6-5.8 5.8-5.8h76.6c3.2 0 5.8 2.6 5.8 5.8v11.5c0 3.2-2.6 5.8-5.8 5.8h-76.6zm106.7 0c-3.2 0-5.8-2.6-5.8-5.8v-11.5c0-3.2 2.6-5.8 5.8-5.8h76.6c3.2 0 5.8 2.6 5.8 5.8v11.5c0 3.2-2.6 5.8-5.8 5.8h-76.6zm106.9 0c-3.2 0-5.9-2.6-5.9-5.8v-11.6c0-3.2 2.6-5.8 5.9-5.8h76.5c3.2 0 5.8 2.6 5.8 5.8v11.6c0 3.2-2.6 5.8-5.8 5.8h-76.5zm82.4-151.6v-50c0-3.2-2.6-5.8-5.8-5.8H450.5c-3.2 0-5.8 2.6-5.8 5.8v50c0 3.2 2.6 5.8 5.8 5.8h111.8c3.1 0 5.8-2.5 5.8-5.8zM140.3 234c-20.8 0-37.8 17-37.8 37.8v245.6c0 20.8 16.9 37.8 37.8 37.8h437c20.8 0 37.8-17 37.8-37.8V271.8c0-20.8-17-37.8-37.8-37.8h-437zM29.7 96.8L455.9.9c20.3-4.6 40.6 8.2 45.1 28.6l44.7 197.4H519l-20.3-89.4-449 101.8 27.8 122.6 2.5 10.9c1 4.4 5.3 7.2 9.7 6.2l3.3-.8v26.1l-.5.1c-16.9 3.8-33.7-6.9-37.5-23.7L1 142c-2.3-10.2-.6-19.7 4.9-28.6 5.5-8.8 13.6-14.3 23.8-16.6zm3.7 70.4L482.5 65.4 476.3 38c-1.7-7.8-9.6-12.7-17.4-11L38.1 121.7c-7.8 1.7-12.7 9.5-11 17.4 2.1 9.3 4.2 18.8 6.3 28.1z" fill-rule="evenodd" clip-rule="evenodd" fill="url(#a)"/></svg>