<svg xmlns="http://www.w3.org/2000/svg" xmlns:xlink="http://www.w3.org/1999/xlink" viewBox="0 0 407 509"><defs><path id="a" d="M152.3 101.5c0-28 22.8-50.8 50.8-50.8s50.8 22.8 50.8 50.8v25.9H152.3v-25.9zm228.3 25.9h-76.1v-25.9C304.5 45.5 259 0 203 0S101.5 45.5 101.5 101.5v25.9H25.4c-14 0-25.4 11.4-25.4 25.4v329.9c0 14 11.4 25.4 25.4 25.4h355.3c14 0 25.4-11.4 25.4-25.4v-330c-.1-14-11.5-25.3-25.5-25.3z"/></defs><use xlink:href="#a" overflow="visible" fill="#7e14d6"/><path fill="#05d8f4" d="M316.5 244l-29-29-122.1 122.1-46.8-46.3-29 29 46.3 46.7 29.5 29.1 29-29.1z"/></svg>