<svg xmlns="http://www.w3.org/2000/svg" xmlns:xlink="http://www.w3.org/1999/xlink" viewBox="0 0 407 509"><defs><path id="a" d="M152.3 101.5c0-28 22.8-50.8 50.8-50.8s50.8 22.8 50.8 50.8v25.9H152.3v-25.9zm228.3 25.9h-76.1v-25.9C304.5 45.5 259 0 203 0S101.5 45.5 101.5 101.5v25.9H25.4c-14 0-25.4 11.4-25.4 25.4v329.9c0 14 11.4 25.4 25.4 25.4h355.3c14 0 25.4-11.4 25.4-25.4v-330c-.1-14-11.5-25.3-25.5-25.3z"/></defs><clipPath id="b"><use xlink:href="#a" overflow="visible"/></clipPath><path fill="#7E14D6" clip-path="url(#b)" d="M-5-5h416.1v518.1H-5z"/></svg>