<svg xmlns="http://www.w3.org/2000/svg" xmlns:xlink="http://www.w3.org/1999/xlink" viewBox="0 0 74 68"><defs><path id="a" d="M68.4 9.8L74 36.4c-12.1-.5-23.4 4.8-31.8 11.2-3.6 2.8-6.7 5.8-9.2 8.8.9-5.5 3.1-10.2 6.3-14.3 5.3-7 13.4-12.5 22.4-16.8 1.6-.8 2.2-3 1.2-4.5L57 12.3c4.3-1.2 8.3-2.1 11.4-2.5zM18.8 2.2l19.8 18.2c-8 5.8-14.1 12.7-17.6 20.9-3.2 7.5-4.2 16.1-3.2 25.7L1.3 55.4c-2-12.5-1.6-22.8 1.3-31.5 2.8-8.2 8.1-15.2 16.2-21.7zM40.1-1l15.8 22.5c-8.3 4.3-16 9.7-21.5 17-5.1 6.7-8 15.1-7.8 24.9l-3.1-2.2c-.1-6.6 1-12.3 3.2-17.4 3.4-8 9.6-14.7 18.5-20.5 1.5-1 1.7-3.5.4-4.8L31.2 5.3C34 3 37 .9 40.1-1z"/></defs><linearGradient id="b" gradientUnits="userSpaceOnUse" x1="56.289" y1="54.1" x2="11.316" y2="9.127"><stop offset="0" stop-color="#1656fd"/><stop offset="1" stop-color="#d102ff"/></linearGradient><use xlink:href="#a" overflow="visible" fill="url(#b)"/></svg>