<svg xmlns="http://www.w3.org/2000/svg" xmlns:xlink="http://www.w3.org/1999/xlink" viewBox="0 0 345 359"><defs><path id="a" d="M88.9 202.3h86.5c5.5 0 10 4.5 10 10s-4.5 10-10 10H88.9c-5.5 0-10-4.5-10-10s4.4-10 10-10zm0-47.9h149.6c5.5 0 10 4.5 10 10s-4.5 10-10 10H88.9c-5.5 0-10-4.5-10-10s4.4-10 10-10zm0-48.8h149.6c5.5 0 10 4.5 10 10s-4.5 10-10 10H88.9c-5.5 0-10-4.5-10-10s4.4-10 10-10zM52.1 20.2l-1.4 242.1H206c5.5 0 10 4.5 10 10v53.3c0 18 14.6 32.6 32.6 32.6s32.6-14.6 32.6-32.6V22.1c0-7.9 2.2-15.3 6.1-21.7h-215C61.2.4 52.1 9.3 52.1 20.2z"/></defs><linearGradient id="b" gradientUnits="userSpaceOnUse" x1="328.975" y1="291.325" x2="50.949" y2="13.299"><stop offset="0" stop-color="#1656fd"/><stop offset="1" stop-color="#d102ff"/></linearGradient><use xlink:href="#a" overflow="visible" fill="url(#b)"/><defs><path id="c" d="M196 282.2H.5v43.3c0 18 14.6 32.6 32.6 32.6h174.3c-7.1-9-11.4-20.3-11.4-32.6v-43.3z"/></defs><linearGradient id="d" gradientUnits="userSpaceOnUse" x1="176.575" y1="388.925" x2="35.175" y2="247.525"><stop offset="0" stop-color="#1656fd"/><stop offset="1" stop-color="#d102ff"/></linearGradient><use xlink:href="#c" overflow="visible" fill="url(#d)"/><defs><path id="e" d="M322.8.4c-11.9 0-21.7 9.7-21.7 21.7v86.5h43.3V22.1c.1-12-9.6-21.7-21.6-21.7z"/></defs><linearGradient id="f" gradientUnits="userSpaceOnUse" x1="357.472" y1="95.528" x2="288.091" y2="26.147"><stop offset="0" stop-color="#1656fd"/><stop offset="1" stop-color="#d102ff"/></linearGradient><use xlink:href="#e" overflow="visible" fill="url(#f)"/></svg>