<svg data-name="Layer 1" xmlns="http://www.w3.org/2000/svg" viewBox="0 0 90.04 90.04"><path d="M45.02 9.02a36 36 0 1 0 36 36 36.06 36.06 0 0 0-36-36zm17.15 52.14a4.5 4.5 0 0 1-6.36.35L41.88 49.02c-1.41-1.27-1.36-5.63-1.36-6V23.39a4.5 4.5 0 0 1 9 0v19.63a4.05 4.05 0 0 1-.07.7l12.37 11.09a4.5 4.5 0 0 1 .35 6.35z" fill="none"/><path fill="#57585c" d="M45.02.02a45 45 0 1 0 45 45 45.08 45.08 0 0 0-45-45zm0 81a36 36 0 1 1 36-36 36.06 36.06 0 0 1-36 36z"/><path fill="#57585c" d="M49.45 43.72a4.05 4.05 0 0 0 .07-.7V23.39a4.5 4.5 0 0 0-9 0v19.63c0 .38 0 4.74 1.36 6l13.93 12.49a4.5 4.5 0 1 0 6-6.7z"/></svg>