<svg xmlns="http://www.w3.org/2000/svg" xmlns:xlink="http://www.w3.org/1999/xlink" viewBox="0 0 43 64"><defs><path id="a" d="M4.7 34.6v-1c0-.5.1-.8.3-1 .3-.4.8-.5 1.3-.3s.8.5.9 1v4c-.2 1.4-.1 3 .3 4.8.3 1.4.8 2.5 1.4 3.2.6.7.9 1.2.9 1.5s-.2.6-.5 1c-.4.4-.8.5-1.1.5-.9 0-1.7-.7-2.3-2-.4-.9-.7-1.8-.8-2.8-.4-2.2-.6-3.8-.6-4.9l.2-4zm33.2 2.9c.4.4.7.9.7 1.3-.2 1.1-1.1 1.8-2.8 2.2l-2.3.2-.2-4.8c2.2-.2 3.7.2 4.6 1.1zm-.2-4.5l-4.6-.7-.3-5.3-31 .2L1.6 44c1.5 5.2 4.4 8.6 8.9 10.3 2.2.8 4.3 1.2 6.2 1 5.4-.2 9.7-2 12.9-5.5 1.6-1.7 2.6-3.4 3.1-5 4.3-.1 7.1-1.1 8.5-3 .7-1 1-1.9.8-2.9.1-2.9-1.3-4.9-4.3-5.9zM.7 59.5c-.4.5-.6 1-.6 1.7 0 2 1.5 2.9 4.7 2.6h27.5c.9-.1 1.6-.5 2-1 .3-.4.5-.9.5-1.5 0-.5-.2-1-.5-1.4-.5-.7-1.1-1-2-1.1H4.1c-1.6-.2-2.7 0-3.4.7zm19.2-49.2c.7-.7 1.3-2 1.6-3.8C22 4 21.3 2 19.4.7l.1 2.3c-.5 2.2-2 4.5-4.6 7.1-.2.2-.4.6-.7 1-.4.8-.7 1.6-.8 2.5-.3 2.8 1.2 5.3 4.6 7.8-.6-.9-1-2-1.1-3.3-.4-2.9.6-5.4 3-7.8zm4.5-1.1v1.5c-.3 1.4-1.1 2.9-2.5 4.5-.1.1-.2.3-.4.6-.2.5-.4 1-.5 1.5-.2 1.7.7 3.4 2.6 4.9-.3-.6-.6-1.3-.6-2.2-.2-1.7.4-3.3 1.6-4.8.5-.6.9-1.4 1-2.3.3-1.5-.1-2.7-1.2-3.7z"/></defs><clipPath id="b"><use xlink:href="#a" overflow="visible"/></clipPath><path fill="#155efb" clip-path="url(#b)" d="M-4.9-4.3h52v73.2h-52z"/><path d="M33.3 36.4l.1 4.8 2.4-.2c1.6-.3 2.5-1 2.8-2.2 0-.4-.3-.9-.7-1.3-.9-.9-2.4-1.3-4.6-1.1zM1.8 27.3l31-.2.4 5.2 4.5.7c3 1.1 4.5 3 4.5 5.9.2.9-.1 1.9-.8 2.8-1.4 1.9-4.2 3-8.5 3-.5 1.7-1.5 3.4-3.1 5.1-3.2 3.4-7.5 5.2-12.9 5.4-1.9.2-4-.1-6.2-.9C6 52.6 3.1 49.2 1.6 44l.2-16.7zm21.8-5.1c-.3-.5-.5-1.2-.6-2.1-.2-1.7.4-3.3 1.6-4.8.5-.6.9-1.4 1-2.4.3-1.5-.2-2.7-1.3-3.7v1.4c-.3 1.4-1.1 2.9-2.5 4.5-.1.1-.2.3-.4.6-.2.5-.4 1-.4 1.5-.1 1.8.7 3.5 2.6 5zm-5.6-.9c-.6-.9-1-2-1.1-3.4-.3-2.7.7-5.2 3-7.6.7-.7 1.3-2 1.6-3.8C22 4 21.3 2 19.4.6V3c-.5 2.2-2 4.5-4.6 7.1-.2.2-.4.5-.6 1-.4.8-.7 1.6-.8 2.5-.3 2.7 1.3 5.3 4.6 7.7z" fill="none" stroke="#155efb" stroke-linecap="round" stroke-linejoin="round" stroke-miterlimit="10"/></svg>