<svg xmlns="http://www.w3.org/2000/svg" xmlns:xlink="http://www.w3.org/1999/xlink" viewBox="0 0 88 68"><defs><path id="a" d="M57.5 62.3c0 2.8-2.2 5-5 5h-17c-2.8 0-5-2.2-5-5v-4.7c0-2.8 2.2-5 5-5h17c2.8 0 5 2.2 5 5v4.7zm15-26c0 2.8-2.2 5-5 5h-47c-2.8 0-5-2.2-5-5v-4.7c0-2.8 2.2-5 5-5h47c2.8 0 5 2.2 5 5v4.7zm15-25.9c0 2.8-2.2 5-5 5h-77c-2.8 0-5-2.2-5-5V5.7c0-2.8 2.2-5 5-5h77c2.8 0 5 2.2 5 5v4.7z"/></defs><clipPath id="b"><use xlink:href="#a" overflow="visible"/></clipPath><path fill="#fff" clip-path="url(#b)" d="M-4.5-4.3h97v76.6h-97z"/></svg>