<svg xmlns="http://www.w3.org/2000/svg" xmlns:xlink="http://www.w3.org/1999/xlink" viewBox="0 0 76 76"><defs><path id="a" d="M38 26c6.1 0 11 4.9 11 11s-4.9 11-11 11-11-4.9-11-11 4.9-11 11-11zm0-8c-10.4 0-19 8.6-19 19s8.6 19 19 19 19-8.6 19-19-8.6-19-19-19zm20-5c-2.2 0-4 1.8-4 4s1.8 4 4 4 4-1.8 4-4-1.8-4-4-4zM20 7h36c6.7 0 12 5.3 12 12v36c0 6.7-5.3 12-12 12H20c-6.7 0-12-5.3-12-12V19c0-6.7 5.3-12 12-12zm0-8C9-1 0 8 0 19v36c0 11 9 20 20 20h36c11 0 20-9 20-20V19C76 8 67-1 56-1H20z"/></defs><clipPath id="b"><use xlink:href="#a" overflow="visible"/></clipPath><path fill="#b9b9bb" clip-path="url(#b)" d="M-5-6h86v86H-5z"/></svg>