<svg xmlns="http://www.w3.org/2000/svg" xmlns:xlink="http://www.w3.org/1999/xlink" viewBox="0 0 78 52"><defs><path id="a" d="M50 29.1l-5.2 4.6c-3.3 2.9-8.3 2.9-11.6 0L28 29.1 5.3 51h67.4L50 29.1zM77.9 4.2L54.5 25.1l23.1 22.2c.3-.7.4-1.5.4-2.3V5c0-.3 0-.6-.1-.8zM.1 4.2c-.1.2-.1.5-.1.8v40c0 .8.2 1.6.5 2.3l23.1-22.2L.1 4.2zM6-1c-.8 0-1.6.2-2.3.4l33.5 29.8c1.2 1 2.5 1 3.6 0L74.2-.6C73.6-.8 72.8-1 72-1H6z"/></defs><clipPath id="b"><use xlink:href="#a" overflow="visible"/></clipPath><path fill="#fff" clip-path="url(#b)" d="M-5-6h88v62H-5z"/></svg>