<svg xmlns="http://www.w3.org/2000/svg" xmlns:xlink="http://www.w3.org/1999/xlink" viewBox="0 0 211 141"><defs><path id="a" d="M124.9 26.6c4.9-1.7 10.1-2.7 15.6-2.7 25.7 0 46.6 20.9 46.6 46.6s-20.9 46.6-46.6 46.6c-5.5 0-10.7-1-15.6-2.7 9.7-12 15.6-27.3 15.6-44s-5.9-31.8-15.6-43.8zM70.7 140.3c12.7 0 24.6-3.4 34.9-9.3 10.3 5.9 22.2 9.3 34.9 9.3 38.5 0 69.7-31.2 69.7-69.7S179 .9 140.5.9c-12.7 0-24.6 3.4-34.9 9.3C95.3 4.2 83.4.8 70.7.8 32.2.8 1 32.1 1 70.6s31.2 69.7 69.7 69.7z"/></defs><clipPath id="b"><use xlink:href="#a" overflow="visible"/></clipPath><path fill="#b9b9bb" clip-path="url(#b)" d="M-4-4.2h219.2v149.5H-4z"/></svg>