<svg xmlns="http://www.w3.org/2000/svg" xmlns:xlink="http://www.w3.org/1999/xlink" viewBox="0 0 40 29"><defs><path id="a" d="M.5 26c0-.8.7-1.5 1.5-1.5h36c.8 0 1.5.7 1.5 1.5v1.5c0 .8-.7 1.5-1.5 1.5H2c-.8 0-1.5-.7-1.5-1.5V26zm0-12c0-.8.7-1.5 1.5-1.5h36c.8 0 1.5.7 1.5 1.5v1.5c0 .8-.7 1.5-1.5 1.5H2c-.8 0-1.5-.7-1.5-1.5V14zm0-12C.5 1.2 1.2.5 2 .5h36c.8 0 1.5.7 1.5 1.5v1.5c0 .8-.7 1.5-1.5 1.5H2C1.2 5 .5 4.3.5 3.5V2z"/></defs><clipPath id="b"><use xlink:href="#a" overflow="visible"/></clipPath><path fill="#fff" clip-path="url(#b)" d="M-4.5-4.5h49V34h-49z"/></svg>