<svg xmlns="http://www.w3.org/2000/svg" xmlns:xlink="http://www.w3.org/1999/xlink" viewBox="0 0 60 90"><defs><path id="a" d="M14.1 53.3v13.9C14.1 79.8 24.3 90 36.9 90c12.6 0 22.8-10.2 22.8-22.8V53.3H14.1z"/></defs><clipPath id="b"><use xlink:href="#a" overflow="visible"/></clipPath><path fill="#155efb" clip-path="url(#b)" d="M9.1 48.3h55.6V95H9.1z"/><defs><path id="c" d="M34.1 20.6C23.2 22.6 14 34.1 14 45.4v5.3h21.7v-5.4c-1-.2-1.7-.9-1.7-1.6v-9.8c0-.8.7-1.4 1.7-1.6v-7.1h2.2v7.1c1 .2 1.7.9 1.7 1.6v9.8c0 .8-.7 1.4-1.7 1.6v5.4h21.7v-5.3c0-11.2-9-22.6-19.8-24.7C43.3 8.2 32-5.3 19.2 2.1c-4.7 2.7-6.4 7.5-7.1 12.6-1.2 7.9-3.7 13.6-10.4 18.5-2.8 2-.1 6.8 2.7 4.7 5-3.6 9-7.8 11.2-13.6 1.6-4.1 1.4-8.5 2.6-12.6 1.3-4.7 7.2-7.8 11.7-5.6 5 2.5 6 9.3 4.4 14-.2.1-.2.3-.2.5z"/></defs><clipPath id="d"><use xlink:href="#c" overflow="visible"/></clipPath><path fill="#155efb" clip-path="url(#d)" d="M-4.6-5h69.1v60.7H-4.6z"/></svg>