<svg id="Layer_1" xmlns="http://www.w3.org/2000/svg" viewBox="0 0 59 60"><style>.st0{fill:none}</style><path class="st0" d="M16.6 40.2c.2.2.4.3.7.3.2 0 .5-.1.7-.3l4.2-4.2c.4-.4.4-1 0-1.4-.4-.4-1-.4-1.4 0l-4.2 4.2c-.4.4-.4 1 0 1.4zm-5-4.9c.2.2.4.3.7.3.2 0 .5-.1.7-.3l4.3-4.3c.4-.4.4-1 0-1.4-.4-.4-1-.4-1.5.1l-4.2 4.2c-.4.4-.4 1 0 1.4zm3.6-7.8c-.4-.4-1-.4-1.4 0L5.3 36c-.4.4-.4 1 0 1.4.2.2.4.3.7.3.2 0 .5-.1.7-.3l8.5-8.5c.4-.4.4-1 0-1.4zM24.4 48c.2.2.4.3.7.3.2 0 .5-.1.7-.3l4.2-4.3c.4-.4.4-1 0-1.4-.4-.3-1-.3-1.4.1l-4.2 4.2c-.4.4-.4 1 0 1.4zM13 39.5c-.4-.4-1-.4-1.4 0l-.7.7c-.4.4-.4 1 0 1.4.2.2.4.3.7.3.3 0 .5-.1.7-.3l.7-.7c.4-.4.4-1 0-1.4zm9.3 6.3c.2.2.4.3.7.3.2 0 .5-.1.7-.3l4.2-4.2c.4-.4.4-1 0-1.4-.4-.4-1-.4-1.4 0l-4.2 4.2c-.4.4-.4 1 0 1.4zm-2.1-2.1c.2.2.4.3.7.3.2 0 .5-.1.7-.3l4.2-4.2c.4-.4.4-1 0-1.4-.4-.4-1.1-.4-1.4 0l-4.2 4.2c-.4.4-.4 1 0 1.4zm-11.4-7l-.7.7c-.4.4-.4 1 0 1.4.2.2.4.3.7.3.2 0 .5-.1.7-.3l.7-.7c.4-.4.4-1 0-1.4-.4-.4-1-.4-1.4 0z"/><circle class="st0" cx="44" cy="15" r="5"/><path class="st0" d="M30.7 44.5L22.2 53c-.4.4-.4 1 0 1.4.2.2.4.3.7.3.2 0 .5-.1.7-.3l8.5-8.5c.4-.4.4-1 0-1.4-.4-.4-1-.4-1.4 0zm-16.9-2.8l-.7.7c-.4.4-.4 1 0 1.4.2.2.4.3.7.3.2 0 .5-.1.7-.3l.7-.7c.4-.4.4-1.1 0-1.4-.4-.4-1-.4-1.4 0zm6.3-9.2c-.4-.4-1-.4-1.4 0l-4.2 4.2c-.4.4-.4 1 0 1.4.2.2.4.3.7.3.2 0 .5-.1.7-.3l4.2-4.2c.4-.4.4-1 0-1.4zm2.8 18.3c.4-.4.4-1 0-1.4-.4-.4-1-.4-1.4 0l-.7.7c-.4.4-.4 1 0 1.4.2.2.5.3.7.3s.5-.1.7-.3l.7-.7zm-4.2-5.6c-.4-.4-1-.4-1.4 0l-.7.7c-.4.4-.4 1 0 1.4.2.2.4.3.7.3.2 0 .5-.1.7-.3l.7-.7c.4-.4.4-1 0-1.4zm2.1 2.1c-.4-.4-1-.4-1.4 0l-.7.7c-.4.4-.4 1 0 1.4.2.2.4.3.7.3.3 0 .5-.1.7-.3l.7-.7c.4-.4.4-1 0-1.4z"/><linearGradient id="SVGID_1_" gradientUnits="userSpaceOnUse" x1="-1920.773" y1="710.616" x2="-1921.773" y2="711.616" gradientTransform="matrix(59 0 0 -60 113389.992 42691.488)"><stop offset="0" stop-color="#1656fd"/><stop offset="1" stop-color="#d102ff"/></linearGradient><path d="M58.7.3c-.4-.4-1-.4-1.4 0L53.6 4H30.3L1 33.5c-.7.7-1 1.6-1 2.5 0 .9.4 1.8 1 2.5L21.5 59c.7.7 1.6 1 2.5 1s1.8-.4 2.5-1L55 29.7V5.4l3.7-3.7c.4-.4.4-1 0-1.4zM30 42.3c.4.4.4 1 0 1.4L25.8 48c-.2.2-.5.3-.7.3-.3 0-.5-.1-.7-.3-.4-.4-.4-1 0-1.4l4.2-4.2c.4-.4 1-.4 1.4-.1zm-2.1-2.1c.4.4.4 1 0 1.4l-4.2 4.2c-.2.2-.5.3-.7.3-.3 0-.5-.1-.7-.3-.4-.4-.4-1 0-1.4l4.2-4.2c.4-.4 1-.4 1.4 0zm-2.1-2.1c.4.4.4 1 0 1.4l-4.2 4.2c-.2.2-.5.3-.7.3-.3 0-.5-.1-.7-.3-.4-.4-.4-1 0-1.4l4.2-4.2c.3-.4 1-.4 1.4 0zm-3.6-3.5c.4.4.4 1 0 1.4L18 40.2c-.2.2-.5.3-.7.3-.3 0-.5-.1-.7-.3-.4-.4-.4-1 0-1.4l4.2-4.2c.4-.4 1-.4 1.4 0zm-4.9-5c.4.4.4 1 0 1.4L13 35.3c-.2.2-.5.3-.7.3-.3 0-.5-.1-.7-.3-.4-.4-.4-1 0-1.4l4.2-4.2c.5-.5 1.1-.5 1.5-.1zM6 37.7c-.3 0-.5-.1-.7-.3-.4-.4-.4-1 0-1.4l8.5-8.5c.4-.4 1-.4 1.4 0 .4.4.4 1 0 1.4l-8.5 8.5c-.2.2-.5.3-.7.3zm4.2.4l-.7.7c-.2.2-.5.3-.7.3-.3 0-.5-.1-.7-.3-.4-.4-.4-1 0-1.4l.7-.7c.4-.4 1-.4 1.4 0 .4.4.4 1 0 1.4zm1.4 3.8c-.3 0-.5-.1-.7-.3-.4-.4-.4-1 0-1.4l.7-.7c.4-.4 1-.4 1.4 0 .4.4.4 1 0 1.4l-.7.7c-.2.2-.4.3-.7.3zm3.6 1.2l-.7.7c-.2.2-.5.3-.7.3-.3 0-.5-.1-.7-.3-.4-.4-.4-1 0-1.4l.7-.7c.4-.4 1-.4 1.4 0 .4.3.4 1 0 1.4zm0-4.7c-.3 0-.5-.1-.7-.3-.4-.4-.4-1 0-1.4l4.2-4.2c.4-.4 1-.4 1.4 0 .4.4.4 1 0 1.4l-4.2 4.2c-.2.2-.5.3-.7.3zm2.1 9.2c-.3 0-.5-.1-.7-.3-.4-.4-.4-1 0-1.4l.7-.7c.4-.4 1-.4 1.4 0 .4.4.4 1 0 1.4l-.7.7c-.2.2-.5.3-.7.3zm2.1 2.1c-.3 0-.5-.1-.7-.3-.4-.4-.4-1 0-1.4l.7-.7c.4-.4 1-.4 1.4 0 .4.4.4 1 0 1.4l-.7.7c-.2.2-.4.3-.7.3zm1.4 1.8c-.4-.4-.4-1 0-1.4l.7-.7c.4-.4 1-.4 1.4 0 .4.4.4 1 0 1.4l-.7.7c-.2.2-.5.3-.7.3s-.5-.1-.7-.3zm11.3-5.6l-8.5 8.5c-.2.2-.5.3-.7.3-.3 0-.5-.1-.7-.3-.4-.4-.4-1 0-1.4l8.5-8.5c.4-.4 1-.4 1.4 0 .4.4.4 1 0 1.4zM44 20c-2.8 0-5-2.2-5-5s2.2-5 5-5 5 2.2 5 5-2.2 5-5 5z" fill="url(#SVGID_1_)"/></svg>