<svg xmlns="http://www.w3.org/2000/svg" xmlns:xlink="http://www.w3.org/1999/xlink" viewBox="0 0 32 30"><defs><path id="a" d="M7 8.2H3.6C1.9 8.2.5 9.6.5 11.3v2.6c0 1.7 1.4 3.1 3.1 3.1H7V8.2z"/></defs><clipPath id="b"><use xlink:href="#a" overflow="visible"/></clipPath><path fill="#155efb" clip-path="url(#b)" d="M-4.5 3.2H12V22H-4.5z"/><defs><path id="c" d="M7.8 18.6h-4l2.4 8.8c.3 1 1.2 1.7 2.2 1.7.7 0 1.4-.3 1.8-.9.4-.6.6-1.3.3-2l-2.3-7.4-.4-.2z"/></defs><clipPath id="d"><use xlink:href="#c" overflow="visible"/></clipPath><path fill="#155efb" clip-path="url(#d)" d="M-1.2 13.6h16.8v20.5H-1.2z"/><defs><path id="e" d="M29.1 10.1c-.3 0-.5 0-.8.1v4.6c.3.1.5.1.8.1 1.3 0 2.4-1.1 2.4-2.4s-1.1-2.4-2.4-2.4z"/></defs><clipPath id="f"><use xlink:href="#e" overflow="visible"/></clipPath><path fill="#155efb" clip-path="url(#f)" d="M23.3 5.1h13.2v14.8H23.3z"/><defs><path id="g" d="M26.3.8L8.7 7.9v9.3l17.7 7.1c.1 0 .1 0 .2-.1s.1-.1.1-.2V1.1c-.1-.2-.2-.3-.4-.3z"/></defs><clipPath id="h"><use xlink:href="#g" overflow="visible"/></clipPath><path fill="#155efb" clip-path="url(#h)" d="M3.7-4.2h28v33.5h-28z"/></svg>