<svg id="Layer_1" xmlns="http://www.w3.org/2000/svg" viewBox="0 0 22 15"><style>.st0{fill:none}</style><path class="st0" d="M8 6.5H6.5V5c0-.3-.2-.5-.5-.5s-.5.2-.5.5v1.5H4c-.3 0-.5.2-.5.5s.2.5.5.5h1.5V9c0 .3.2.5.5.5s.5-.2.5-.5V7.5H8c.3 0 .5-.2.5-.5s-.2-.5-.5-.5z"/><circle class="st0" cx="12.5" cy="7.5" r="1"/><circle class="st0" cx="14.5" cy="5.5" r="1"/><circle class="st0" cx="15.5" cy="8.5" r="1"/><circle class="st0" cx="17.5" cy="6.5" r="1"/><linearGradient id="SVGID_1_" gradientUnits="userSpaceOnUse" x1="-1878.076" y1="651.03" x2="-1879.076" y2="652.03" gradientTransform="matrix(21 0 0 -14.119 39460.5 9206.362)"><stop offset="0" stop-color="#1656fd"/><stop offset="1" stop-color="#d102ff"/></linearGradient><path d="M15.7 0c-1.1-.1-2.2.2-3.1.8-.5.4-1.1.6-1.6.5-.6.1-1.2-.1-1.7-.5-.8-.6-1.9-.9-3-.8C2.5 0 .5 6.8.5 9.2c0 3.2 1.1 4.8 3.4 4.8 1.4-.1 2.7-.6 3.8-1.3 1-.6 2.1-1 3.3-1.1 1.2.1 2.3.5 3.3 1.2 1.2.7 2.5 1.2 3.8 1.3 2.2 0 3.4-1.6 3.4-4.8 0-2.5-2-9.3-5.8-9.3zM8 7.5H6.5V9c0 .3-.2.5-.5.5s-.5-.2-.5-.5V7.5H4c-.3 0-.5-.2-.5-.5s.2-.5.5-.5h1.5V5c0-.3.2-.5.5-.5s.5.2.5.5v1.5H8c.3 0 .5.2.5.5s-.2.5-.5.5zm4.5 1c-.6 0-1-.4-1-1s.4-1 1-1 1 .4 1 1-.4 1-1 1zm1-3c0-.6.4-1 1-1s1 .4 1 1-.4 1-1 1-1-.4-1-1zm2 4c-.6 0-1-.4-1-1s.4-1 1-1 1 .4 1 1-.4 1-1 1zm2-2c-.6 0-1-.4-1-1s.4-1 1-1 1 .4 1 1-.4 1-1 1z" fill="url(#SVGID_1_)"/></svg>