<svg xmlns="http://www.w3.org/2000/svg" viewBox="0 0 54 60"><linearGradient id="a" gradientUnits="userSpaceOnUse" x1="-1919.874" y1="710.409" x2="-1920.874" y2="711.409" gradientTransform="matrix(54 0 0 -60 103721 42691.488)"><stop offset="0" stop-color="#1656fd"/><stop offset="1" stop-color="#d102ff"/></linearGradient><path d="M24.2 39.3L21 38l1.8 9 3.2 6 3.2-6 1.8-9-3.1 1.3c-1.2.5-2.5.5-3.7 0z" fill="url(#a)"/><linearGradient id="b" gradientUnits="userSpaceOnUse" x1="-1919.68" y1="710.604" x2="-1920.68" y2="711.604" gradientTransform="matrix(54 0 0 -60 103721 42691.488)"><stop offset="0" stop-color="#1656fd"/><stop offset="1" stop-color="#d102ff"/></linearGradient><path d="M14 21v-2h.1c-.1.7-.1 1.3-.1 2 0 9.4 7.8 16 12 16s12-6.6 12-16c0-1.6-.2-3.1-.5-4.4.3-.9.5-1.6.5-1.6l-1-5-9-9-2-1-2 4-3 1-2 1-2 2-1 2-1 1-1 2v5s-1 .7-1 3 1 4 1 4v-4z" fill="url(#b)"/><linearGradient id="c" gradientUnits="userSpaceOnUse" x1="-1919.978" y1="710.306" x2="-1920.978" y2="711.306" gradientTransform="matrix(54 0 0 -60 103721 42691.488)"><stop offset="0" stop-color="#1656fd"/><stop offset="1" stop-color="#d102ff"/></linearGradient><path d="M50 48.8c-.6-1.8-2.1-3.2-3.9-3.9L33 40l-1 8-6 8-6-8-1-8-12.4 5.8c-1.7.8-2.9 2.2-3.5 4L0 60h54l-4-11.2z" fill="url(#c)"/><linearGradient id="d" gradientUnits="userSpaceOnUse" x1="-1919.586" y1="710.698" x2="-1920.586" y2="711.698" gradientTransform="matrix(54 0 0 -60 103721 42691.488)"><stop offset="0" stop-color="#1656fd"/><stop offset="1" stop-color="#d102ff"/></linearGradient><path d="M39 21c0-2.3-1-3-1-3v7s1-1.7 1-4z" fill="url(#d)"/></svg>