<svg data-name="Layer 1" xmlns="http://www.w3.org/2000/svg" viewBox="0 0 97.05 97.28"><defs><clipPath id="a" transform="translate(4.32 4.66)"><path d="M84.5 63.6l-17.8-9.2a5.86 5.86 0 0 0-7.3 1.6l-6.5 8.4a64.68 64.68 0 0 1-16.8-12.3A62.66 62.66 0 0 1 23.7 35l8.3-6.5a5.86 5.86 0 0 0 1.6-7.3L24.4 3.5a5.94 5.94 0 0 0-8.5-2.2L4.6 8.9a9 9 0 0 0-3.9 7.9 53.47 53.47 0 0 0 1.4 10.1c3.3 12.7 11.2 25.8 22.4 36.9s24.2 19 36.9 22.4a76.11 76.11 0 0 0 10.2 1.4 8.78 8.78 0 0 0 8-4L87 72.1a6.34 6.34 0 0 0-2.5-8.5z" fill="none"/></clipPath></defs><g clip-path="url(#a)"><path fill="#57585c" d="M0 0h97.05v97.28H0z"/></g></svg>