<svg xmlns="http://www.w3.org/2000/svg" xmlns:xlink="http://www.w3.org/1999/xlink" viewBox="0 0 87 86"><defs><path id="a" d="M35.5 14C47.3 14 57 23.6 57 35.5 57 47.3 47.3 57 35.5 57 23.6 57 14 47.3 14 35.5 14 23.6 23.6 14 35.5 14zm0 57c7.3 0 14-2.2 19.6-5.9L74 83.9c1.4 1.4 3.2 2.1 5 2.1s3.6-.7 5-2.1c2.7-2.7 2.7-7.2 0-9.9L65 55.1c3.8-5.6 5.9-12.4 5.9-19.6C71 15.9 55.1 0 35.5 0S0 15.9 0 35.5 15.9 71 35.5 71z"/></defs><clipPath id="b"><use xlink:href="#a" overflow="visible"/></clipPath><path fill="#57585c" clip-path="url(#b)" d="M-5-5h96v96H-5z"/></svg>