<svg xmlns="http://www.w3.org/2000/svg" xmlns:xlink="http://www.w3.org/1999/xlink" viewBox="0 0 69 101"><defs><path id="a" d="M34.5 56.3c-4.5 0-8.1 3.6-8.1 8.1s3.6 8.1 8.1 8.1 8.1-3.6 8.1-8.1c0-4.4-3.6-8.1-8.1-8.1z"/></defs><clipPath id="b"><use xlink:href="#a" overflow="visible"/></clipPath><path fill="#155efb" clip-path="url(#b)" d="M21.4 51.3h26.3v26.3H21.4z"/><defs><path id="c" d="M34.5 91.2c-14.8 0-26.7-12-26.7-26.7 0-14.8 12-26.7 26.7-26.7 14.8 0 26.7 12 26.7 26.7S49.3 91.2 34.5 91.2zm0-81.8c5.1 0 9.3 4.2 9.3 9.3 0 5.1-4.2 9.3-9.3 9.3-5.1 0-9.3-4.2-9.3-9.3 0-5.1 4.2-9.3 9.3-9.3zM63.9.9H5C2.5.9.4 3 .4 5.5v89.9C.4 98 2.5 100 5 100h58.9c2.6 0 4.7-2.1 4.7-4.6V5.5C68.6 3 66.5.9 63.9.9z"/></defs><clipPath id="d"><use xlink:href="#c" overflow="visible"/></clipPath><path fill="#155efb" clip-path="url(#d)" d="M-4.6-4.1h78.2v109.2H-4.6z"/></svg>