<svg xmlns="http://www.w3.org/2000/svg" viewBox="0 0 24 24"><path fill="#b9b9bb" d="M11.7 18.8h1.4s.4 0 .7-.3c.2-.2.2-.6.2-.6s0-1.9.9-2.2c.9-.3 2 1.9 3.2 2.7.9.6 1.6.5 1.6.5h3.2s1.7-.1.9-1.4c-.1-.1-.5-1-2.4-2.8-2-1.9-1.7-1.6.7-4.8 1.5-2 2.1-3.2 1.9-3.7-.2-.5-1.3-.4-1.3-.4h-3.6s-.3 0-.5.1-.3.4-.3.4-.5 1.5-1.3 2.8c-1.6 2.7-2.3 2.9-2.5 2.7-.6-.4-.4-1.6-.4-2.4 0-2.6.4-3.8-.8-4-.4-.1-.7-.2-1.7-.2-1.3 0-2.4 0-3 .3-.4.2-.8.6-.6.7.2 0 .8.1 1.1.5.4.5.4 1.6.4 1.6s.2 3.1-.5 3.5c-.5.3-1.2-.3-2.6-2.8-.8-1.2-1.3-2.6-1.3-2.6S5 6.1 4.8 6c-.3-.2-.6-.2-.6-.2H.8s-.5 0-.7.2c-.2.2 0 .6 0 .6s2.7 6.3 5.7 9.5c2.8 2.9 6 2.7 5.9 2.7.1 0 0 0 0 0z"/></svg>