<svg xmlns="http://www.w3.org/2000/svg" viewBox="0 0 16.506 16.486">
  <defs>
    <style>
      .cls-1 {
        fill: #4d94f4;
      }
    </style>
  </defs>
  <g id="Symbol_109_1" data-name="Symbol 109 – 1" transform="translate(-667.998 -622)">
    <path id="Path_24919" data-name="Path 24919" class="cls-1" d="M14.393,0H1.981A2.031,2.031,0,0,0,0,1.981v9.375a2.031,2.031,0,0,0,1.981,1.981H3.961v2.377a.762.762,0,0,0,1.32.528l2.9-2.9h6.338a2.031,2.031,0,0,0,1.981-1.981V1.981A2.152,2.152,0,0,0,14.393,0ZM8.187,5.678A1.02,1.02,0,0,1,9.243,6.6a.9.9,0,0,1-.924.924A.879.879,0,0,1,7.262,6.6.9.9,0,0,1,8.187,5.678Zm-3.3,0a.924.924,0,1,1-.924.924A.9.9,0,0,1,4.886,5.678Zm6.6,1.981A1.02,1.02,0,0,1,10.564,6.6a.924.924,0,1,1,1.849,0A.936.936,0,0,1,11.488,7.659Z" transform="translate(667.997 622)"/>
  </g>
</svg>
