<svg xmlns="http://www.w3.org/2000/svg" viewBox="0 0 17.005 12.813">
  <defs>
    <style>
      .cls-1 {
        fill: #9e9e9e;
      }
    </style>
  </defs>
  <path id="Path_24979" data-name="Path 24979" class="cls-1" d="M15.209,0H1.8A1.842,1.842,0,0,0,0,1.8v9.221a1.842,1.842,0,0,0,1.8,1.8H15.209a1.842,1.842,0,0,0,1.8-1.8V1.8A1.842,1.842,0,0,0,15.209,0Zm-.6,3.473L9.94,6.586a2.4,2.4,0,0,1-2.874,0L2.4,3.473A.892.892,0,0,1,2.275,2.4a.782.782,0,0,1,.958-.24L7.9,5.389a1.088,1.088,0,0,0,1.2,0l4.67-3.233a.647.647,0,0,1,.958.24A.892.892,0,0,1,14.61,3.473Z"/>
</svg>
