<svg xmlns="http://www.w3.org/2000/svg" viewBox="0 0 67.135 50.587">
  <defs>
    <style>
      .cls-1 {
        fill: #9e9e9e;
      }
    </style>
  </defs>
  <path id="Path_24977" data-name="Path 24977" class="cls-1" d="M60.043,7.092H28.367a4.292,4.292,0,0,1-3.309-1.418L22.221,1.418A4.292,4.292,0,0,0,18.911,0H7.092A7.271,7.271,0,0,0,0,7.092V43.5a7.271,7.271,0,0,0,7.092,7.092H60.043A7.271,7.271,0,0,0,67.135,43.5V14.183A6.963,6.963,0,0,0,60.043,7.092ZM41.132,31.676H36.4V36.4a3.051,3.051,0,0,1-2.837,2.837A3.051,3.051,0,0,1,30.731,36.4V31.676H26a3.051,3.051,0,0,1-2.837-2.837A3.051,3.051,0,0,1,26,26h4.728V21.275a3.051,3.051,0,0,1,2.837-2.837A3.051,3.051,0,0,1,36.4,21.275V26h4.728a3.051,3.051,0,0,1,2.837,2.837A2.725,2.725,0,0,1,41.132,31.676Z"/>
</svg>
