<svg xmlns="http://www.w3.org/2000/svg" viewBox="0 0 19.867 14.97">
  <defs>
    <style>
      .cls-1 {
        fill: #fff;
      }
    </style>
  </defs>
  <path id="Path_25094" data-name="Path 25094" class="cls-1" d="M17.768,0H2.1A2.152,2.152,0,0,0,0,2.1V12.871a2.152,2.152,0,0,0,2.1,2.1H17.768a2.152,2.152,0,0,0,2.1-2.1V2.1A2.152,2.152,0,0,0,17.768,0Zm-.7,4.057L11.612,7.695a2.8,2.8,0,0,1-3.358,0L2.8,4.057A1.042,1.042,0,0,1,2.658,2.8a.914.914,0,0,1,1.119-.28L9.234,6.3a1.271,1.271,0,0,0,1.4,0l5.456-3.777a.756.756,0,0,1,1.119.28A1.042,1.042,0,0,1,17.068,4.057Z"/>
</svg>
