<svg xmlns="http://www.w3.org/2000/svg" xmlns:xlink="http://www.w3.org/1999/xlink" viewBox="0 0 177.412 63.382">
  <defs>
    <style>
      .cls-1 {
        fill: none;
      }

      .cls-2 {
        clip-path: url(#clip-path);
      }

      .cls-3 {
        fill: #4d93f4;
      }

      .cls-4 {
        fill: #6f6f6f;
      }

      .cls-5 {
        fill: #fff;
      }
    </style>
    <clipPath id="clip-path">
      <path id="Path_24949" data-name="Path 24949" class="cls-1" d="M0-108.74H177.412v-63.382H0Z" transform="translate(0 172.122)"/>
    </clipPath>
  </defs>
  <g id="Group_4025" data-name="Group 4025" transform="translate(0 172.122)">
    <g id="Group_4031" data-name="Group 4031" class="cls-2" transform="translate(0 -172.122)">
      <g id="Group_4025-2" data-name="Group 4025" transform="translate(0 55.301)">
        <path id="Path_24943" data-name="Path 24943" class="cls-3" d="M-6.932,0a4.041,4.041,0,0,0-4.04,4.04,4.041,4.041,0,0,0,4.04,4.041A4.04,4.04,0,0,0-2.891,4.04,4.04,4.04,0,0,0-6.932,0" transform="translate(10.972)"/>
      </g>
      <g id="Group_4026" data-name="Group 4026" transform="translate(7.59 8.491)">
        <path id="Path_24944" data-name="Path 24944" class="cls-3" d="M-47.906-.659a24.115,24.115,0,0,0-7.37-.187A23.14,23.14,0,0,0-61.823,1h0A23.683,23.683,0,0,0-75.553,19a23.686,23.686,0,0,0,1.485,12.572,4.42,4.42,0,0,1-.553,4.168,6.669,6.669,0,0,0-1.122,4.908,6.571,6.571,0,0,0,1.332,3.032q.83.809,1.714,1.551a6.531,6.531,0,0,0,2.476.938,6.69,6.69,0,0,0,3.329-.305h0a6.611,6.611,0,0,0,1.579-.815,4.407,4.407,0,0,1,4.165-.556,23.434,23.434,0,0,0,8.8,1.755,24.183,24.183,0,0,0,3.774-.27,23.625,23.625,0,0,0,19.84-20.263A23.654,23.654,0,0,0-47.906-.659" transform="translate(75.829 1.043)"/>
      </g>
      <g id="Group_4027" data-name="Group 4027" transform="translate(143.781 15.787)">
        <path id="Path_24945" data-name="Path 24945" class="cls-4" d="M-55.3-57.7a1.4,1.4,0,0,1-1.4-1.4V-74.514A14.035,14.035,0,0,0-70.716-88.533,14.035,14.035,0,0,0-84.736-74.514,14.035,14.035,0,0,0-70.716-60.494a14.034,14.034,0,0,0,6.681-1.691,1.4,1.4,0,0,1,1.9.561,1.4,1.4,0,0,1-.561,1.9,16.839,16.839,0,0,1-8.016,2.03A16.835,16.835,0,0,1-87.532-74.514,16.835,16.835,0,0,1-70.716-91.329,16.834,16.834,0,0,1-53.9-74.514V-59.1a1.4,1.4,0,0,1-1.4,1.4" transform="translate(87.532 91.329)"/>
      </g>
      <g id="Group_4028" data-name="Group 4028" transform="translate(60.123 0)">
        <path id="Path_24946" data-name="Path 24946" class="cls-4" d="M-28.849-84.783A16.835,16.835,0,0,1-45.665-101.6a16.835,16.835,0,0,1,16.816-16.815,16.772,16.772,0,0,1,8.887,2.538,1.4,1.4,0,0,1,.447,1.926,1.4,1.4,0,0,1-1.926.446,13.982,13.982,0,0,0-7.407-2.114A14.035,14.035,0,0,0-42.869-101.6,14.035,14.035,0,0,0-28.849-87.579,14.035,14.035,0,0,0-14.83-101.6v-31.2a1.4,1.4,0,0,1,1.4-1.4,1.4,1.4,0,0,1,1.4,1.4v31.2A16.835,16.835,0,0,1-28.849-84.783" transform="translate(45.665 134.201)"/>
      </g>
      <g id="Group_4029" data-name="Group 4029" transform="translate(101.936 15.787)">
        <path id="Path_24947" data-name="Path 24947" class="cls-4" d="M-28.849-57.7A16.835,16.835,0,0,1-45.664-74.514,16.834,16.834,0,0,1-28.849-91.329,16.834,16.834,0,0,1-12.033-74.514a1.4,1.4,0,0,1-1.4,1.4H-28.849a1.4,1.4,0,0,1-1.4-1.4,1.4,1.4,0,0,1,1.4-1.4H-14.9a14.038,14.038,0,0,0-13.95-12.621A14.035,14.035,0,0,0-42.868-74.514,14.035,14.035,0,0,0-28.849-60.494a13.891,13.891,0,0,0,10.186-4.387,1.4,1.4,0,0,1,1.977-.055,1.4,1.4,0,0,1,.055,1.977A16.663,16.663,0,0,1-28.849-57.7" transform="translate(45.664 91.329)"/>
      </g>
      <g id="Group_4030" data-name="Group 4030" transform="translate(14.423 15.322)">
        <path id="Path_24948" data-name="Path 24948" class="cls-5" d="M-28.849-57.7A16.835,16.835,0,0,1-45.665-74.514,16.835,16.835,0,0,1-28.849-91.329,16.834,16.834,0,0,1-12.034-74.514a1.4,1.4,0,0,1-1.4,1.4H-28.849a1.4,1.4,0,0,1-1.4-1.4,1.4,1.4,0,0,1,1.4-1.4H-14.9a14.039,14.039,0,0,0-13.95-12.621A14.035,14.035,0,0,0-42.869-74.514,14.035,14.035,0,0,0-28.849-60.494a13.891,13.891,0,0,0,10.186-4.387,1.4,1.4,0,0,1,1.977-.055,1.4,1.4,0,0,1,.055,1.977A16.663,16.663,0,0,1-28.849-57.7" transform="translate(45.665 91.329)"/>
      </g>
    </g>
  </g>
</svg>
