<svg xmlns="http://www.w3.org/2000/svg" viewBox="0 0 19.799 19.8">
  <defs>
    <style>
      .cls-1 {
        fill: #4d94f4;
      }
    </style>
  </defs>
  <path id="Path_24954" data-name="Path 24954" class="cls-1" d="M9.9,0a9.9,9.9,0,1,0,9.9,9.9A9.938,9.938,0,0,0,9.9,0Zm4.462,7.948-4.88,5.02a1.057,1.057,0,0,1-.558.279.724.724,0,0,1-.558-.279L5.438,10.039a.653.653,0,0,1,0-1.115.848.848,0,0,1,1.115,0l2.37,2.231,4.322-4.322a.848.848,0,0,1,1.115,0A.653.653,0,0,1,14.362,7.948Z" transform="translate(0.001)"/>
</svg>
