<svg xmlns="http://www.w3.org/2000/svg" viewBox="0 0 15.626 15.604">
  <defs>
    <style>
      .cls-1 {
        fill: #9e9e9e;
      }
    </style>
  </defs>
  <path id="Path_24978" data-name="Path 24978" class="cls-1" d="M1.378.506h0a1.544,1.544,0,0,1,2.4.126l2.02,2.9a1.7,1.7,0,0,1-.126,2.02l-.126.126a1.152,1.152,0,0,0-.252,1.388,9.088,9.088,0,0,0,3.282,3.282,1.342,1.342,0,0,0,1.515-.252l.126-.126a1.38,1.38,0,0,1,1.893-.126l2.9,2.02a1.511,1.511,0,0,1,.252,2.272l-.126.126a4.588,4.588,0,0,1-5.68.631A24.672,24.672,0,0,1,.747,6.312,4.75,4.75,0,0,1,1.378.506Z" transform="translate(-0.041 0.003)"/>
</svg>
