<svg xmlns="http://www.w3.org/2000/svg" viewBox="0 0 33.059 33.06">
  <defs>
    <style>
      .cls-1 {
        fill: #4d94f4;
      }
    </style>
  </defs>
  <path id="Path_24952" data-name="Path 24952" class="cls-1" d="M35.352,24.834H24.833V35.353a3.232,3.232,0,0,1-3.005,3.005,3.232,3.232,0,0,1-3.005-3.005V24.834H8.3A3.232,3.232,0,0,1,5.3,21.828,3.232,3.232,0,0,1,8.3,18.823H18.822V8.3A3.232,3.232,0,0,1,21.828,5.3,3.232,3.232,0,0,1,24.833,8.3V18.823H35.352a3.232,3.232,0,0,1,3.005,3.005A3.232,3.232,0,0,1,35.352,24.834Z" transform="translate(-5.298 -5.298)"/>
</svg>
