<svg xmlns="http://www.w3.org/2000/svg" viewBox="0 0 18.711 14.1">
  <defs>
    <style>
      .cls-1 {
        fill: #9e9e9e;
      }
    </style>
  </defs>
  <g id="Symbol_114_1" data-name="Symbol 114 – 1" transform="translate(-605.744 -326.3)">
    <circle id="Ellipse_553" data-name="Ellipse 553" class="cls-1" cx="2.504" cy="2.504" r="2.504" transform="translate(612.596 331.835)"/>
    <path id="Path_24912" data-name="Path 24912" class="cls-1" d="M16.735,1.977H13.573l-.4-1.186A1.236,1.236,0,0,0,12.123,0H6.589A1.1,1.1,0,0,0,5.535.791L5.007,1.977H1.977A1.941,1.941,0,0,0,0,3.953v8.17A2.027,2.027,0,0,0,1.977,14.1H16.735a2.027,2.027,0,0,0,1.977-1.977V3.953A1.941,1.941,0,0,0,16.735,1.977ZM9.356,12.123a4.085,4.085,0,1,1,4.085-4.085A4.106,4.106,0,0,1,9.356,12.123Z" transform="translate(605.744 326.3)"/>
  </g>
</svg>
