<svg xmlns="http://www.w3.org/2000/svg" viewBox="0 0 19.799 19.8">
  <defs>
    <style>
      .cls-1 {
        fill: #4d94f4;
      }
    </style>
  </defs>
  <path id="Path_24952" data-name="Path 24952" class="cls-1" d="M9.9,0a9.9,9.9,0,1,0,9.9,9.9A9.938,9.938,0,0,0,9.9,0Zm3.765,10.737H10.736v2.928A.9.9,0,0,1,9.9,14.5a.9.9,0,0,1-.837-.837V10.737H6.135A.9.9,0,0,1,5.3,9.9a.9.9,0,0,1,.837-.837H9.063V6.135A.9.9,0,0,1,9.9,5.3a.9.9,0,0,1,.837.837V9.063h2.928A.9.9,0,0,1,14.5,9.9.9.9,0,0,1,13.664,10.737Z" transform="translate(0)"/>
</svg>
