<svg id="Group_4344" data-name="Group 4344" xmlns="http://www.w3.org/2000/svg" viewBox="0 0 21.254 21.082">
  <defs>
    <style>
      .cls-1 {
        fill: #fff;
      }
    </style>
  </defs>
  <path id="Path_24925" data-name="Path 24925" class="cls-1" d="M20.485,16.9l-3.414-3.414a9.548,9.548,0,0,0,1.195-4.438A9.256,9.256,0,0,0,9.048,0,9,9,0,0,0,0,9.048,9.107,9.107,0,0,0,9.048,18.1,8.27,8.27,0,0,0,13.486,16.9L16.9,20.314a2.475,2.475,0,0,0,3.585,0A2.281,2.281,0,0,0,20.485,16.9ZM2.561,9.048a6.487,6.487,0,0,1,12.974,0,6.632,6.632,0,0,1-6.487,6.658A6.632,6.632,0,0,1,2.561,9.048Z" transform="translate(0)"/>
</svg>
