<svg xmlns="http://www.w3.org/2000/svg" viewBox="0 0 21.591 20.365">
  <defs>
    <style>
      .cls-1 {
        fill: #9e9e9e;
        opacity: 0.58;
      }
    </style>
  </defs>
  <g id="Symbol_67_1" data-name="Symbol 67 – 1" transform="translate(-264 -92.558)">
    <path id="Path_24706" data-name="Path 24706" class="cls-1" d="M21.591,18.572,17.11,14.345a8.449,8.449,0,0,0,1.9-5.379A9.19,9.19,0,0,0,9.505,0,9.19,9.19,0,0,0,0,8.966a9.19,9.19,0,0,0,9.505,8.966,9.669,9.669,0,0,0,5.7-1.793l4.481,4.227ZM2.716,8.966a6.541,6.541,0,0,1,6.79-6.4,6.541,6.541,0,0,1,6.79,6.4,6.541,6.541,0,0,1-6.79,6.4A6.541,6.541,0,0,1,2.716,8.966Z" transform="translate(264 92.558)"/>
  </g>
</svg>
