<svg xmlns="http://www.w3.org/2000/svg" viewBox="0 0 8.603 6.479">
  <defs>
    <style>
      .cls-1 {
        fill: #9e9e9e;
      }
    </style>
  </defs>
  <g id="Symbol_98_4" data-name="Symbol 98 – 4" transform="translate(-347 -171)">
    <path id="Path_24894" data-name="Path 24894" class="cls-1" d="M4.359,6.479A.929.929,0,0,1,3.543,6L.183,1.44a1.121,1.121,0,0,1,0-.96A.99.99,0,0,1,1,0h6.72a.929.929,0,0,1,.816.48.872.872,0,0,1,0,.96l-.048.048-3.36,4.56A.769.769,0,0,1,4.359,6.479ZM1,.96l3.36,4.56.048-.048L7.718.96Z" transform="translate(346.925 171)"/>
    <path id="Path_24895" data-name="Path 24895" class="cls-1" d="M-20749.152-11141.328l3.854-5.364h-7.65Z" transform="translate(21100.451 11318.32)"/>
  </g>
</svg>
