<svg xmlns="http://www.w3.org/2000/svg" viewBox="0 0 16.054 10.74">
  <defs>
    <style>
      .cls-1 {
        fill: #9e9e9e;
      }
    </style>
  </defs>
  <path id="Path_25076" data-name="Path 25076" class="cls-1" d="M14.358,0H1.7A1.739,1.739,0,0,0,0,1.7V9.044a1.739,1.739,0,0,0,1.7,1.7H14.358a1.739,1.739,0,0,0,1.7-1.7V1.7A1.739,1.739,0,0,0,14.358,0ZM10.74,2.035a.729.729,0,0,1,.678.678.729.729,0,0,1-.678.678.652.652,0,0,1-.678-.678A.652.652,0,0,1,10.74,2.035Zm-1.357,2.6a.729.729,0,0,1,.678.678.729.729,0,0,1-.678.678.652.652,0,0,1-.678-.678A.729.729,0,0,1,9.384,4.635Zm-1.357-2.6a.729.729,0,0,1,.678.678.729.729,0,0,1-.678.678.729.729,0,0,1-.678-.678A.729.729,0,0,1,8.027,2.035ZM6.67,4.635a.729.729,0,0,1,.678.678.729.729,0,0,1-.678.678.652.652,0,0,1-.678-.678A.729.729,0,0,1,6.67,4.635Zm-1.357-2.6a.729.729,0,0,1,.678.678.652.652,0,0,1-.678.678.652.652,0,0,1-.678-.678A.729.729,0,0,1,5.314,2.035Zm-2.6,1.357a.652.652,0,0,1-.678-.678.652.652,0,0,1,.678-.678.6.6,0,0,1,.678.678A.652.652,0,0,1,2.713,3.392Zm1.244,2.6c-.339,0-.565-.226-.565-.678a.729.729,0,0,1,.678-.678.729.729,0,0,1,.678.678A.747.747,0,0,1,3.957,5.992ZM10.74,8.705H5.314a.729.729,0,0,1-.678-.678.729.729,0,0,1,.678-.678h5.314a.729.729,0,0,1,.678.678A.566.566,0,0,1,10.74,8.705Zm1.244-2.713a.729.729,0,0,1-.678-.678.678.678,0,0,1,1.357,0A.6.6,0,0,1,11.984,5.992Zm1.357-2.6a.729.729,0,0,1-.678-.678.678.678,0,1,1,1.357,0A.652.652,0,0,1,13.341,3.392Z" transform="translate(0)"/>
</svg>
