<?xml version="1.0" encoding="utf-8"?>
<!-- Generator: Adobe Illustrator 22.1.0, SVG Export Plug-In . SVG Version: 6.00 Build 0)  -->
<svg version="1.1" id="Layer_1" xmlns="http://www.w3.org/2000/svg" xmlns:xlink="http://www.w3.org/1999/xlink" x="0px" y="0px"
	 viewBox="0 0 30 30" style="enable-background:new 0 0 30 30;" xml:space="preserve">
<style type="text/css">
	.st0{fill:none;}
</style>
<title>Group</title>
<desc>Created with Sketch.</desc>
<g>
	<path class="st0" d="M19.9,9.4l-12,4.8c-0.2,0.1-0.4,0.3-0.4,0.6c0,0.2,0.2,0.5,0.4,0.5l5,1.9l1.9,5c0.1,0.2,0.3,0.4,0.5,0.4
		c0,0,0,0,0,0c0.2,0,0.5-0.1,0.5-0.4l4.8-12c0.1-0.2,0-0.5-0.1-0.6C20.4,9.4,20.1,9.4,19.9,9.4z"/>
	<path fill="#ffffff" d="M26.5,15.6c-0.3,0-0.6-0.3-0.6-0.6c0-0.3,0.3-0.6,0.6-0.6H30c-0.1-3.8-1.7-7.3-4.4-10c-2.7-2.7-6.2-4.2-10-4.4v3.5
		c0,0.3-0.3,0.6-0.6,0.6s-0.6-0.3-0.6-0.6V0c-3.8,0.1-7.3,1.7-10,4.4c-2.7,2.7-4.2,6.2-4.4,10h3.5c0.3,0,0.6,0.3,0.6,0.6
		c0,0.3-0.3,0.6-0.6,0.6H0c0.1,3.8,1.7,7.3,4.4,10c2.7,2.7,6.2,4.2,10,4.4v-3.5c0-0.3,0.3-0.6,0.6-0.6s0.6,0.3,0.6,0.6V30
		c3.8-0.1,7.3-1.7,10-4.4c2.7-2.7,4.2-6.2,4.4-10H26.5z M20.7,10.2l-4.8,12c-0.1,0.2-0.3,0.4-0.5,0.4c0,0,0,0,0,0
		c-0.2,0-0.5-0.2-0.5-0.4l-1.9-5l-5-1.9c-0.2-0.1-0.4-0.3-0.4-0.5c0-0.2,0.1-0.5,0.4-0.6l12-4.8c0.2-0.1,0.5,0,0.6,0.1
		C20.7,9.7,20.8,10,20.7,10.2z"/>
</g>
</svg>
