<?xml version="1.0" encoding="utf-8"?>
<!-- Generator: Adobe Illustrator 22.1.0, SVG Export Plug-In . SVG Version: 6.00 Build 0)  -->
<svg version="1.1" id="Layer_1" xmlns="http://www.w3.org/2000/svg" xmlns:xlink="http://www.w3.org/1999/xlink" x="0px" y="0px"
	 viewBox="0 0 32 30" style="enable-background:new 0 0 32 30;" xml:space="preserve">
<desc>Created with Sketch.</desc>
<g id="Page-1">
	<path fill="#ffffff" id="Combined-Shape" d="M27.6,15.3c0.5,0.4,0.8,1.1,0.8,1.7V29c0,0.5-0.4,1-1,1H4.6c-0.5,0-1-0.4-1-1V17.1
		c0-0.7,0.3-1.3,0.8-1.7l10.4-8.6c0.7-0.6,1.8-0.6,2.5,0L27.6,15.3z M15.3,24.6v-2.9c0-0.5-0.4-0.9-0.9-0.9h-2.9
		c-0.5,0-0.9,0.4-0.9,0.9v2.9c0,0.5,0.4,0.9,0.9,0.9h2.9C14.9,25.5,15.3,25.1,15.3,24.6z M15.3,18.7v-2.9c0-0.5-0.4-0.9-0.9-0.9
		h-2.9c-0.5,0-0.9,0.4-0.9,0.9v2.9c0,0.5,0.4,0.9,0.9,0.9h2.9C14.9,19.6,15.3,19.2,15.3,18.7z M21.2,24.6v-2.9
		c0-0.5-0.4-0.9-0.9-0.9h-2.9c-0.5,0-0.9,0.4-0.9,0.9v2.9c0,0.5,0.4,0.9,0.9,0.9h2.9C20.8,25.5,21.2,25.1,21.2,24.6z M21.2,18.7
		v-2.9c0-0.5-0.4-0.9-0.9-0.9h-2.9c-0.5,0-0.9,0.4-0.9,0.9v2.9c0,0.5,0.4,0.9,0.9,0.9h2.9C20.8,19.6,21.2,19.2,21.2,18.7z
		 M31.5,12.5c0.5,0.4,0.7,1.2,0.3,1.8c-0.4,0.7-1.4,0.8-1.9,0.3L17.1,3.9c-0.6-0.5-1.5-0.5-2.2,0L2.2,14.5c-0.6,0.5-1.5,0.4-1.9-0.3
		c-0.4-0.6-0.2-1.3,0.3-1.8l3.7-3.1C4.4,9.2,4.5,9,4.5,8.7V2.2c0-0.5,0.4-1,1-1h2.6c0.5,0,1,0.4,1,1v2.2c0,0.3,0.4,0.5,0.6,0.3
		l5.4-4.5C15.4,0.1,15.7,0,16,0c0.3,0,0.6,0.1,0.9,0.3L31.5,12.5z"/>
</g>
</svg>
