<?xml version="1.0" encoding="utf-8"?>
<!-- Generator: Adobe Illustrator 22.1.0, SVG Export Plug-In . SVG Version: 6.00 Build 0)  -->
<svg version="1.1" id="Layer_1" xmlns="http://www.w3.org/2000/svg" xmlns:xlink="http://www.w3.org/1999/xlink" x="0px" y="0px"
	 viewBox="0 0 30 30" style="enable-background:new 0 0 30 30;" xml:space="preserve">
<desc>Created with Sketch.</desc>
<g id="Page-1">
	<path fill="#ffffff" id="Shape" d="M1.1,13.7c-1.4,1.4-1.4,3.7,0,5.2c2.8,2.8,7.2,7.2,10,10c1.4,1.4,3.7,1.4,5.2,0c3.4-3.4,9.4-9.4,11.7-11.7
		c0.6-0.6,1-1.4,1.1-2.3c0.2-2.3,0.7-7.4,1-11c0.1-1.1-0.3-2.1-1.1-2.9C28.2,0.3,27.1-0.1,26,0c-3.7,0.3-8.7,0.8-11,1
		c-0.9,0.1-1.6,0.5-2.3,1.1C10.5,4.4,4.5,10.3,1.1,13.7z M24.7,5.3c1,1,1,2.7,0,3.8c-1,1-2.7,1-3.8,0c-1-1-1-2.7,0-3.8
		C21.9,4.3,23.6,4.3,24.7,5.3z"/>
</g>
</svg>
