<?xml version="1.0" encoding="utf-8"?>
<!-- Generator: Adobe Illustrator 22.1.0, SVG Export Plug-In . SVG Version: 6.00 Build 0)  -->
<svg version="1.1" id="Layer_1" xmlns="http://www.w3.org/2000/svg" xmlns:xlink="http://www.w3.org/1999/xlink" x="0px" y="0px"
	 viewBox="0 0 30 30" style="enable-background:new 0 0 30 30;" xml:space="preserve">
<desc>Created with Sketch.</desc>
<g id="Page-1">
	<path fill="#ffffff" id="Shape" d="M6.1,21.2c-1.8,2.1-3.6,4.3-5.4,6.4c-0.5,0.6-0.5,1.2,0,1.7c0.5,0.5,1.1,0.4,1.7,0c1.6-1.3,3.1-2.6,4.7-3.9
		c0.7-0.6,1.4-1.2,2.2-1.8c-0.9-0.9-1.8-1.8-2.7-2.7C6.3,21,6.2,21.1,6.1,21.2z M18.8,29.6c1.3-1.5,1.2-4,0.1-6.8
		c0,0,0.1-0.1,0.1-0.1c2.6-3.5,5.3-7.1,7.9-10.6l0.4,0.4c0.6,0.6,1.5,0.6,2.1,0l0.2-0.2c0.6-0.6,0.6-1.5,0-2.1l-9.7-9.7
		c-0.6-0.6-1.5-0.6-2.1,0l-0.2,0.2c-0.6,0.6-0.6,1.5,0,2.1L18,3.3c-3.6,2.6-7.2,5.2-10.8,7.9c0,0,0,0,0,0c-2.9-1.2-5.5-1.3-6.9,0.1
		c-0.2,0.2-0.6,0.7-0.1,1.2l17.3,17.3C18.2,30.3,18.6,29.8,18.8,29.6z M12.2,14.2c-0.7-0.6-1.5-1.1-2.2-1.6c3.2-2.6,6.4-5.2,9.6-7.8
		l1.7,1.7C18.2,9,15.2,11.6,12.2,14.2z"/>
</g>
</svg>
