<?xml version="1.0" encoding="utf-8"?>
<!-- Generator: Adobe Illustrator 22.1.0, SVG Export Plug-In . SVG Version: 6.00 Build 0)  -->
<svg version="1.1" id="Layer_1" xmlns="http://www.w3.org/2000/svg" xmlns:xlink="http://www.w3.org/1999/xlink" x="0px" y="0px"
	 viewBox="0 0 30 30" style="enable-background:new 0 0 30 30;" xml:space="preserve">
<style type="text/css">
	.st0{fill:none;}
</style>
<title>Group</title>
<desc>Created with Sketch.</desc>
<g>
	<path  class="st0" d="M21.2,7.8c-0.5-0.6-1.2-1.1-2-1.4c-0.8-0.4-1.7-0.6-2.8-0.6H8.6v18.8h4.1v-6.3h3.7c1,0,1.9-0.2,2.7-0.5
		c0.8-0.4,1.5-0.8,2.1-1.4c0.6-0.6,1-1.2,1.3-2s0.4-1.5,0.4-2.3c0-0.8-0.2-1.5-0.4-2.2C22.1,9.1,21.7,8.4,21.2,7.8z M18.5,12.9
		c-0.1,0.3-0.3,0.6-0.5,0.8c-0.2,0.2-0.5,0.4-0.8,0.5c-0.3,0.1-0.6,0.2-0.9,0.2h-3.7V9.8h3.7c0.7,0,1.3,0.2,1.7,0.6
		c0.5,0.4,0.7,1,0.7,1.6C18.7,12.3,18.6,12.6,18.5,12.9z"/>
	<path fill="#ffffff" d="M24,0.3H6c-3.1,0-5.7,2.6-5.7,5.8v18.2C0.4,27.4,2.9,30,6,30H24c3.1,0,5.7-2.6,5.7-5.8V6.1C29.7,2.9,27.1,0.3,24,0.3z
		 M22.4,14.4c-0.3,0.8-0.7,1.4-1.3,2c-0.6,0.6-1.2,1-2.1,1.4c-0.8,0.4-1.7,0.5-2.7,0.5h-3.7v6.3H8.6V5.8h7.8c1,0,2,0.2,2.8,0.6
		c0.8,0.4,1.5,0.8,2,1.4c0.6,0.6,0.9,1.3,1.2,2c0.3,0.7,0.4,1.5,0.4,2.2C22.8,12.8,22.7,13.6,22.4,14.4z"/>
	<path fill="#ffffff" d="M16.3,9.8h-3.7v4.6h3.7c0.3,0,0.6-0.1,0.9-0.2c0.3-0.1,0.6-0.3,0.8-0.5c0.2-0.2,0.4-0.5,0.5-0.8c0.1-0.3,0.2-0.6,0.2-0.9
		c0-0.6-0.2-1.2-0.7-1.6C17.6,10,17.1,9.8,16.3,9.8z"/>
</g>
</svg>
