<?xml version="1.0" encoding="utf-8"?>
<!-- Generator: Adobe Illustrator 22.1.0, SVG Export Plug-In . SVG Version: 6.00 Build 0)  -->
<svg version="1.1" id="Layer_1" xmlns="http://www.w3.org/2000/svg" xmlns:xlink="http://www.w3.org/1999/xlink" x="0px" y="0px"
	 viewBox="0 0 33 30" style="enable-background:new 0 0 33 30;" xml:space="preserve">
<title>Group</title>
<desc>Created with Sketch.</desc>
<g>
	<path fill="#ffffff" d="M15.7,5.4c-3.1,4.8-4.6,10.1-3.8,15.8c0.3,2.1,1.1,4,3.1,5.2c1,0.6,0.5,1.5,0.6,2.3c0.1,0.6-0.1,1.3,0.9,1.3
		c1.1,0,1-0.7,0.9-1.3c-0.2-1.3,0.3-2.1,1.4-2.9c1.7-1.2,2.2-3.2,2.4-5.2c0.1-0.8,0.1-1.7,0.1-2.3c-0.1-4.9-1.4-9.1-4-12.9
		C16.7,4.4,16.3,4.4,15.7,5.4z"/>
	<path fill="#ffffff" d="M32.9,18.1c0-4.6-1.3-8.8-3.9-12.7c-0.6-1-1.1-1.1-1.8,0c-3.2,4.9-4.7,10.3-3.7,16.1c0.3,1.9,1.1,3.7,2.9,4.8
		c1.1,0.6,0.5,1.5,0.7,2.3c0.1,0.6-0.3,1.3,0.8,1.4c1.1,0,1.1-0.7,1-1.4c-0.1-1.2,0.2-2,1.4-2.7c1.9-1.3,2.3-3.4,2.6-5.5
		C33,19.6,32.9,18.9,32.9,18.1z"/>
	<path fill="#ffffff" d="M4,5.4c-2.5,3.8-3.8,7.8-4,13c0,1.2,0.1,3,0.7,4.7c0.4,1.1,0.9,2.2,1.9,2.7c1.2,0.7,1.6,1.6,1.4,2.9C4,29.4,3.9,30,5,30
		c1,0,0.8-0.7,0.8-1.2c-0.1-1.3,0.2-2.1,1.4-2.9c1.6-1.1,2.2-2.9,2.4-4.7C10.3,15.4,9,10.2,5.8,5.4C5.1,4.4,4.7,4.3,4,5.4z"/>
	<path fill="#ffffff" d="M24.6,2.5c-2.6-3.5-2-3-4.4-0.2c-0.8,0.9-0.9,1.7-0.1,2.8c0.9,1.2,1.5,2.6,2.2,4c0.8-1.5,1.4-2.9,2.3-4.1
		C25.3,4.1,25.2,3.4,24.6,2.5z"/>
	<path fill="#ffffff" d="M13,2.7c-2.5-3.4-2-3.7-4.7,0C7.8,3.4,7.7,4,8.3,4.8c0.9,1.3,1.6,2.8,2.5,4.4c0.9-1.7,1.5-3.4,2.6-4.8
		C13.9,3.7,13.4,3.2,13,2.7z"/>
</g>
</svg>
