<?xml version="1.0" encoding="utf-8"?>
<!-- Generator: Adobe Illustrator 22.1.0, SVG Export Plug-In . SVG Version: 6.00 Build 0)  -->
<svg version="1.1" id="Layer_1" xmlns="http://www.w3.org/2000/svg" xmlns:xlink="http://www.w3.org/1999/xlink" x="0px" y="0px"
	 viewBox="0 0 44 44" style="enable-background:new 0 0 44 44;" xml:space="preserve">
<style type="text/css">
	.st0{fill-rule:evenodd;clip-rule:evenodd;fill:#FFFFFF;}
</style>
<path class="st0" d="M0,44h44V0H0V44z M19.1,32.7h-3.5l-3.3-8.5l-1,2v6.6H7.9V11.3h3.4v9.3l4.4-9.3h3.4l-4.7,9.5L19.1,32.7z
	 M31.1,33c-3.3,0-5-2-5-5.4v-1.3h3.2v1.5c0,1.5,0.7,2.1,1.7,2.1c1.1,0,1.7-0.6,1.7-2.1c0-4.4-6.6-5.2-6.6-11.4c0-3.4,1.7-5.4,5-5.4
	c3.3,0,5,2,5,5.4v0.7h-3.2v-0.9c0-1.5-0.6-2.1-1.7-2.1c-1.1,0-1.7,0.6-1.7,2.1c0,4.4,6.6,5.2,6.6,11.4C36.1,31,34.4,33,31.1,33z"/>
</svg>
