<?xml version="1.0" encoding="utf-8"?>
<!-- Generator: Adobe Illustrator 22.1.0, SVG Export Plug-In . SVG Version: 6.00 Build 0)  -->
<svg version="1.1" id="Layer_1" xmlns="http://www.w3.org/2000/svg" xmlns:xlink="http://www.w3.org/1999/xlink" x="0px" y="0px"
	 viewBox="0 0 217 73" style="enable-background:new 0 0 217 73;" xml:space="preserve">
<style type="text/css">
	.st0{clip-path:url(#SVGID_2_);}
	.st1{clip-path:url(#SVGID_4_);fill:#4F4F4F;}
	.st2{clip-path:url(#SVGID_6_);}
	.st3{clip-path:url(#SVGID_8_);fill:#4F4F4F;}
	.st4{clip-path:url(#SVGID_10_);}
	.st5{clip-path:url(#SVGID_12_);fill:#4F4F4F;}
	.st6{clip-path:url(#SVGID_14_);}
	.st7{clip-path:url(#SVGID_16_);fill:#4F4F4F;}
	.st8{clip-path:url(#SVGID_18_);}
	.st9{clip-path:url(#SVGID_20_);fill:#4F4F4F;}
	.st10{clip-path:url(#SVGID_22_);}
	.st11{clip-path:url(#SVGID_24_);fill:#4F4F4F;}
	.st12{clip-path:url(#SVGID_26_);}
	.st13{clip-path:url(#SVGID_28_);fill:#4F4F4F;}
	.st14{clip-path:url(#SVGID_30_);}
	.st15{clip-path:url(#SVGID_32_);fill:#00B5E5;}
	.st16{clip-path:url(#SVGID_34_);}
	.st17{clip-path:url(#SVGID_36_);fill:#4F4F4F;}
	.st18{clip-path:url(#SVGID_38_);}
	.st19{clip-path:url(#SVGID_40_);fill:#4F4F4F;}
	.st20{clip-path:url(#SVGID_42_);}
	.st21{clip-path:url(#SVGID_44_);fill:#4F4F4F;}
	.st22{clip-path:url(#SVGID_46_);}
	.st23{clip-path:url(#SVGID_48_);fill:#4F4F4F;}
	.st24{clip-path:url(#SVGID_50_);}
	.st25{clip-path:url(#SVGID_52_);fill:#4F4F4F;}
	.st26{clip-path:url(#SVGID_54_);}
	.st27{clip-path:url(#SVGID_56_);fill:#4F4F4F;}
	.st28{clip-path:url(#SVGID_58_);}
	.st29{clip-path:url(#SVGID_60_);fill:#4F4F4F;}
	.st30{clip-path:url(#SVGID_62_);}
	.st31{clip-path:url(#SVGID_64_);fill:#4F4F4F;}
	.st32{clip-path:url(#SVGID_66_);}
	.st33{clip-path:url(#SVGID_68_);fill:#4F4F4F;}
	.st34{clip-path:url(#SVGID_70_);}
	.st35{clip-path:url(#SVGID_72_);fill:#4F4F4F;}
	.st36{clip-path:url(#SVGID_74_);}
	.st37{clip-path:url(#SVGID_76_);fill:#4F4F4F;}
	.st38{clip-path:url(#SVGID_78_);}
	.st39{clip-path:url(#SVGID_80_);fill:#4F4F4F;}
	.st40{clip-path:url(#SVGID_82_);}
	.st41{clip-path:url(#SVGID_84_);fill:#4F4F4F;}
	.st42{clip-path:url(#SVGID_86_);}
	.st43{clip-path:url(#SVGID_88_);fill:#4F4F4F;}
	.st44{clip-path:url(#SVGID_90_);}
	.st45{clip-path:url(#SVGID_92_);fill:#4F4F4F;}
	.st46{clip-path:url(#SVGID_94_);}
	.st47{clip-path:url(#SVGID_96_);fill:#4F4F4F;}
	.st48{clip-path:url(#SVGID_98_);}
	.st49{clip-path:url(#SVGID_100_);fill:#ED6A24;}
	.st50{clip-path:url(#SVGID_102_);}
	.st51{clip-path:url(#SVGID_104_);fill:#00B5E5;}
	.st52{clip-path:url(#SVGID_106_);}
	.st53{clip-path:url(#SVGID_108_);fill:#ED6A24;}
</style>
<g>
	<defs>
		<polygon id="SVGID_1_" points="57.3,51.1 56.3,53.1 56.3,59.6 52.9,59.6 52.9,38.2 56.3,38.2 56.3,47.6 60.7,38.2 64.1,38.2 
			59.4,47.8 64.1,59.6 60.6,59.6 		"/>
	</defs>
	<clipPath id="SVGID_2_">
		<use xlink:href="#SVGID_1_"  style="overflow:visible;"/>
	</clipPath>
	<g class="st0">
		<defs>
			<rect id="SVGID_3_" x="-59" y="-61" width="842" height="595"/>
		</defs>
		<clipPath id="SVGID_4_">
			<use xlink:href="#SVGID_3_"  style="overflow:visible;"/>
		</clipPath>
		<rect x="47.9" y="33.2" class="st1" width="21.1" height="31.4"/>
	</g>
</g>
<g>
	<defs>
		<polygon id="SVGID_5_" points="74.9,52.5 70.6,38.2 74.1,38.2 76.7,48 79.3,38.2 82.5,38.2 78.2,52.5 78.2,59.6 74.9,59.6 		"/>
	</defs>
	<clipPath id="SVGID_6_">
		<use xlink:href="#SVGID_5_"  style="overflow:visible;"/>
	</clipPath>
	<g class="st2">
		<defs>
			<rect id="SVGID_7_" x="-59" y="-61" width="842" height="595"/>
		</defs>
		<clipPath id="SVGID_8_">
			<use xlink:href="#SVGID_7_"  style="overflow:visible;"/>
		</clipPath>
		<rect x="65.6" y="33.2" class="st3" width="21.9" height="31.4"/>
	</g>
</g>
<g>
	<defs>
		<rect id="SVGID_9_" x="89.9" y="38.2" width="3.4" height="21.4"/>
	</defs>
	<clipPath id="SVGID_10_">
		<use xlink:href="#SVGID_9_"  style="overflow:visible;"/>
	</clipPath>
	<g class="st4">
		<defs>
			<rect id="SVGID_11_" x="-59" y="-61" width="842" height="595"/>
		</defs>
		<clipPath id="SVGID_12_">
			<use xlink:href="#SVGID_11_"  style="overflow:visible;"/>
		</clipPath>
		<rect x="84.9" y="33.2" class="st5" width="13.4" height="31.4"/>
	</g>
</g>
<g>
	<defs>
		<polygon id="SVGID_13_" points="107,55.7 109.5,38.2 112.6,38.2 109.3,59.6 104.3,59.6 101,38.2 104.4,38.2 		"/>
	</defs>
	<clipPath id="SVGID_14_">
		<use xlink:href="#SVGID_13_"  style="overflow:visible;"/>
	</clipPath>
	<g class="st6">
		<defs>
			<rect id="SVGID_15_" x="-59" y="-61" width="842" height="595"/>
		</defs>
		<clipPath id="SVGID_16_">
			<use xlink:href="#SVGID_15_"  style="overflow:visible;"/>
		</clipPath>
		<rect x="96" y="33.2" class="st7" width="21.6" height="31.4"/>
	</g>
</g>
<g>
	<defs>
		<path id="SVGID_17_" d="M174.3,38c3.3,0,5,2,5,5.4V44h-3.2v-0.9c0-1.5-0.6-2.1-1.7-2.1c-1.1,0-1.7,0.6-1.7,2.1
			c0,4.4,6.6,5.2,6.6,11.4c0,3.4-1.7,5.4-5,5.4s-5-2-5-5.4v-1.3h3.2v1.5c0,1.5,0.7,2.1,1.7,2.1c1.1,0,1.7-0.6,1.7-2.1
			c0-4.4-6.6-5.2-6.6-11.3C169.4,39.9,171.1,38,174.3,38"/>
	</defs>
	<clipPath id="SVGID_18_">
		<use xlink:href="#SVGID_17_"  style="overflow:visible;"/>
	</clipPath>
	<g class="st8">
		<defs>
			<rect id="SVGID_19_" x="-59" y="-61" width="842" height="595"/>
		</defs>
		<clipPath id="SVGID_20_">
			<use xlink:href="#SVGID_19_"  style="overflow:visible;"/>
		</clipPath>
		<rect x="164.3" y="33" class="st9" width="20" height="31.9"/>
	</g>
</g>
<g>
	<defs>
		<polygon id="SVGID_21_" points="191.7,51.1 190.7,53.1 190.7,59.6 187.3,59.6 187.3,38.2 190.7,38.2 190.7,47.6 195.1,38.2 
			198.5,38.2 193.8,47.8 198.5,59.6 195,59.6 		"/>
	</defs>
	<clipPath id="SVGID_22_">
		<use xlink:href="#SVGID_21_"  style="overflow:visible;"/>
	</clipPath>
	<g class="st10">
		<defs>
			<rect id="SVGID_23_" x="-59" y="-61" width="842" height="595"/>
		</defs>
		<clipPath id="SVGID_24_">
			<use xlink:href="#SVGID_23_"  style="overflow:visible;"/>
		</clipPath>
		<rect x="182.3" y="33.2" class="st11" width="21.1" height="31.4"/>
	</g>
</g>
<g>
	<defs>
		<polygon id="SVGID_25_" points="209.3,52.5 205,38.2 208.5,38.2 211.1,48 213.7,38.2 216.9,38.2 212.6,52.5 212.6,59.6 
			209.3,59.6 		"/>
	</defs>
	<clipPath id="SVGID_26_">
		<use xlink:href="#SVGID_25_"  style="overflow:visible;"/>
	</clipPath>
	<g class="st12">
		<defs>
			<rect id="SVGID_27_" x="-59" y="-61" width="842" height="595"/>
		</defs>
		<clipPath id="SVGID_28_">
			<use xlink:href="#SVGID_27_"  style="overflow:visible;"/>
		</clipPath>
		<rect x="200" y="33.2" class="st13" width="21.9" height="31.4"/>
	</g>
</g>
<g>
	<defs>
		<path id="SVGID_29_" d="M0.9,70.9h44v-44h-44V70.9z M20,59.6h-3.5l-3.3-8.5l-1,2v6.6H8.9V38.2h3.4v9.3l4.4-9.3H20l-4.7,9.5
			L20,59.6z M32,59.9c-3.3,0-5-2-5-5.4v-1.3h3.2v1.5c0,1.5,0.7,2.1,1.7,2.1c1.1,0,1.7-0.6,1.7-2.1c0-4.4-6.6-5.2-6.6-11.3
			c0-3.4,1.7-5.4,5-5.4c3.3,0,5,2,5,5.4V44h-3.2v-0.9c0-1.5-0.6-2.1-1.7-2.1c-1.1,0-1.7,0.6-1.7,2.1c0,4.4,6.6,5.2,6.6,11.4
			C37,57.9,35.3,59.9,32,59.9z"/>
	</defs>
	<clipPath id="SVGID_30_">
		<use xlink:href="#SVGID_29_"  style="overflow:visible;"/>
	</clipPath>
	<g class="st14">
		<defs>
			<rect id="SVGID_31_" x="-59" y="-61" width="842" height="595"/>
		</defs>
		<clipPath id="SVGID_32_">
			<use xlink:href="#SVGID_31_"  style="overflow:visible;"/>
		</clipPath>
		<rect x="-4.1" y="21.9" class="st15" width="54" height="54"/>
	</g>
</g>
<g>
	<defs>
		<polygon id="SVGID_33_" points="54,70.9 53,70.9 55.3,68.2 53,65.9 54,65.9 56.2,68.1 56.2,65.9 57,65.9 57,68.1 59.1,65.9 
			60.1,65.9 57.9,68.2 60.1,70.9 59.1,70.9 57.3,68.7 57,69 57,70.9 56.2,70.9 56.2,69 55.8,68.7 		"/>
	</defs>
	<clipPath id="SVGID_34_">
		<use xlink:href="#SVGID_33_"  style="overflow:visible;"/>
	</clipPath>
	<g class="st16">
		<defs>
			<rect id="SVGID_35_" x="-59" y="-61" width="842" height="595"/>
		</defs>
		<clipPath id="SVGID_36_">
			<use xlink:href="#SVGID_35_"  style="overflow:visible;"/>
		</clipPath>
		<rect x="48" y="60.9" class="st17" width="17.1" height="15"/>
	</g>
</g>
<g>
	<defs>
		<polygon id="SVGID_37_" points="66.1,70.9 65.4,70.9 65.4,65.9 66.1,65.9 66.1,69.7 68.7,65.9 69.5,65.9 69.5,70.9 68.7,70.9 
			68.7,67 		"/>
	</defs>
	<clipPath id="SVGID_38_">
		<use xlink:href="#SVGID_37_"  style="overflow:visible;"/>
	</clipPath>
	<g class="st18">
		<defs>
			<rect id="SVGID_39_" x="-59" y="-61" width="842" height="595"/>
		</defs>
		<clipPath id="SVGID_40_">
			<use xlink:href="#SVGID_39_"  style="overflow:visible;"/>
		</clipPath>
		<rect x="60.4" y="60.9" class="st19" width="14.2" height="15"/>
	</g>
</g>
<g>
	<defs>
		<polygon id="SVGID_41_" points="77.1,70.9 76.3,70.9 76.3,66.6 74.9,66.6 74.9,65.9 78.5,65.9 78.5,66.6 77.1,66.6 		"/>
	</defs>
	<clipPath id="SVGID_42_">
		<use xlink:href="#SVGID_41_"  style="overflow:visible;"/>
	</clipPath>
	<g class="st20">
		<defs>
			<rect id="SVGID_43_" x="-59" y="-61" width="842" height="595"/>
		</defs>
		<clipPath id="SVGID_44_">
			<use xlink:href="#SVGID_43_"  style="overflow:visible;"/>
		</clipPath>
		<rect x="69.9" y="60.9" class="st21" width="13.7" height="15"/>
	</g>
</g>
<g>
	<defs>
		<path id="SVGID_45_" d="M83.3,71.1v-0.6c0.2,0,0.4-0.2,0.6-0.5c0.2-0.3,0.3-0.8,0.4-1.6l0.3-2.5H88v5h-0.8v-4.3h-2L85,68.5
			c-0.1,0.9-0.3,1.6-0.6,2C84.2,70.9,83.8,71.1,83.3,71.1"/>
	</defs>
	<clipPath id="SVGID_46_">
		<use xlink:href="#SVGID_45_"  style="overflow:visible;"/>
	</clipPath>
	<g class="st22">
		<defs>
			<rect id="SVGID_47_" x="-59" y="-61" width="842" height="595"/>
		</defs>
		<clipPath id="SVGID_48_">
			<use xlink:href="#SVGID_47_"  style="overflow:visible;"/>
		</clipPath>
		<rect x="78.3" y="60.9" class="st23" width="14.7" height="15.1"/>
	</g>
</g>
<g>
	<defs>
		<path id="SVGID_49_" d="M97.9,70.3c-0.5,0.5-1,0.8-1.8,0.8c-0.7,0-1.3-0.3-1.8-0.8c-0.5-0.5-0.7-1.1-0.7-1.9
			c0-0.7,0.2-1.4,0.7-1.9c0.5-0.5,1-0.7,1.8-0.7c0.7,0,1.3,0.2,1.8,0.7c0.5,0.5,0.7,1.1,0.7,1.9C98.6,69.2,98.4,69.8,97.9,70.3
			 M94.9,69.8c0.3,0.4,0.7,0.6,1.2,0.6c0.5,0,0.9-0.2,1.2-0.6c0.3-0.4,0.4-0.8,0.4-1.4c0-0.5-0.1-1-0.4-1.4
			c-0.3-0.4-0.7-0.6-1.2-0.6c-0.5,0-0.9,0.2-1.2,0.6c-0.3,0.4-0.4,0.8-0.4,1.4C94.4,69,94.6,69.4,94.9,69.8"/>
	</defs>
	<clipPath id="SVGID_50_">
		<use xlink:href="#SVGID_49_"  style="overflow:visible;"/>
	</clipPath>
	<g class="st24">
		<defs>
			<rect id="SVGID_51_" x="-59" y="-61" width="842" height="595"/>
		</defs>
		<clipPath id="SVGID_52_">
			<use xlink:href="#SVGID_51_"  style="overflow:visible;"/>
		</clipPath>
		<rect x="88.6" y="60.8" class="st25" width="14.9" height="15.2"/>
	</g>
</g>
<g>
	<defs>
		<path id="SVGID_53_" d="M107,70.9h-2.8v-5h2.7c0.4,0,0.8,0.1,1,0.4c0.3,0.2,0.4,0.5,0.4,0.9c0,0.3-0.1,0.5-0.2,0.7
			c-0.2,0.2-0.3,0.3-0.6,0.4c0.3,0.1,0.5,0.2,0.6,0.4c0.2,0.2,0.3,0.5,0.3,0.8c0,0.4-0.1,0.7-0.4,1C107.8,70.8,107.4,70.9,107,70.9z
			 M106.8,68c0.2,0,0.4-0.1,0.5-0.2c0.1-0.1,0.2-0.3,0.2-0.5c0-0.2-0.1-0.4-0.2-0.5c-0.1-0.1-0.3-0.2-0.5-0.2h-1.8V68H106.8z
			 M106.8,70.2c0.2,0,0.4-0.1,0.6-0.2c0.1-0.1,0.2-0.3,0.2-0.6c0-0.2-0.1-0.4-0.2-0.5c-0.1-0.2-0.3-0.2-0.6-0.2h-1.9v1.5H106.8z"/>
	</defs>
	<clipPath id="SVGID_54_">
		<use xlink:href="#SVGID_53_"  style="overflow:visible;"/>
	</clipPath>
	<g class="st26">
		<defs>
			<rect id="SVGID_55_" x="-59" y="-61" width="842" height="595"/>
		</defs>
		<clipPath id="SVGID_56_">
			<use xlink:href="#SVGID_55_"  style="overflow:visible;"/>
		</clipPath>
		<rect x="99.2" y="60.9" class="st27" width="14.3" height="15"/>
	</g>
</g>
<g>
	<defs>
		<polygon id="SVGID_57_" points="115,70.9 114.2,70.9 114.2,65.9 115,65.9 115,69.7 117.6,65.9 118.4,65.9 118.4,70.9 117.6,70.9 
			117.6,67 		"/>
	</defs>
	<clipPath id="SVGID_58_">
		<use xlink:href="#SVGID_57_"  style="overflow:visible;"/>
	</clipPath>
	<g class="st28">
		<defs>
			<rect id="SVGID_59_" x="-59" y="-61" width="842" height="595"/>
		</defs>
		<clipPath id="SVGID_60_">
			<use xlink:href="#SVGID_59_"  style="overflow:visible;"/>
		</clipPath>
		<rect x="109.2" y="60.9" class="st29" width="14.2" height="15"/>
	</g>
</g>
<g>
	<defs>
		<path id="SVGID_61_" d="M125,70.9h-0.7v-5h0.8v3.8l2.6-3.8h0.8v5h-0.8V67L125,70.9z M128.2,64.5c-0.4,0.6-1,0.9-1.8,0.9
			c-0.8,0-1.4-0.3-1.8-0.9l0.4-0.3c0.4,0.5,0.8,0.7,1.4,0.7c0.6,0,1.1-0.2,1.4-0.7L128.2,64.5z"/>
	</defs>
	<clipPath id="SVGID_62_">
		<use xlink:href="#SVGID_61_"  style="overflow:visible;"/>
	</clipPath>
	<g class="st30">
		<defs>
			<rect id="SVGID_63_" x="-59" y="-61" width="842" height="595"/>
		</defs>
		<clipPath id="SVGID_64_">
			<use xlink:href="#SVGID_63_"  style="overflow:visible;"/>
		</clipPath>
		<rect x="119.3" y="59.1" class="st31" width="14.2" height="16.8"/>
	</g>
</g>
<g>
	<defs>
		<polygon id="SVGID_65_" points="146.5,70.9 145.5,70.9 143.7,68.7 142.9,69.5 142.9,70.9 142.1,70.9 142.1,65.9 142.9,65.9 
			142.9,68.6 145.5,65.9 146.5,65.9 144.3,68.2 		"/>
	</defs>
	<clipPath id="SVGID_66_">
		<use xlink:href="#SVGID_65_"  style="overflow:visible;"/>
	</clipPath>
	<g class="st32">
		<defs>
			<rect id="SVGID_67_" x="-59" y="-61" width="842" height="595"/>
		</defs>
		<clipPath id="SVGID_68_">
			<use xlink:href="#SVGID_67_"  style="overflow:visible;"/>
		</clipPath>
		<rect x="137.1" y="60.9" class="st33" width="14.4" height="15"/>
	</g>
</g>
<g>
	<defs>
		<path id="SVGID_69_" d="M155.8,70.3c-0.5,0.5-1,0.8-1.8,0.8s-1.3-0.3-1.8-0.8c-0.5-0.5-0.7-1.1-0.7-1.9c0-0.7,0.2-1.4,0.7-1.9
			c0.5-0.5,1-0.7,1.8-0.7s1.3,0.2,1.8,0.7c0.5,0.5,0.7,1.1,0.7,1.9C156.4,69.2,156.2,69.8,155.8,70.3 M152.7,69.8
			c0.3,0.4,0.7,0.6,1.2,0.6s0.9-0.2,1.2-0.6c0.3-0.4,0.4-0.8,0.4-1.4c0-0.5-0.1-1-0.4-1.4c-0.3-0.4-0.7-0.6-1.2-0.6
			s-0.9,0.2-1.2,0.6c-0.3,0.4-0.4,0.8-0.4,1.4C152.3,69,152.4,69.4,152.7,69.8"/>
	</defs>
	<clipPath id="SVGID_70_">
		<use xlink:href="#SVGID_69_"  style="overflow:visible;"/>
	</clipPath>
	<g class="st34">
		<defs>
			<rect id="SVGID_71_" x="-59" y="-61" width="842" height="595"/>
		</defs>
		<clipPath id="SVGID_72_">
			<use xlink:href="#SVGID_71_"  style="overflow:visible;"/>
		</clipPath>
		<rect x="146.5" y="60.8" class="st35" width="14.9" height="15.2"/>
	</g>
</g>
<g>
	<defs>
		<polygon id="SVGID_73_" points="167.1,70.9 166.3,70.9 166.3,67 164.7,70.9 164.4,70.9 162.8,67 162.8,70.9 162,70.9 162,65.9 
			163.1,65.9 164.6,69.6 166.1,65.9 167.1,65.9 		"/>
	</defs>
	<clipPath id="SVGID_74_">
		<use xlink:href="#SVGID_73_"  style="overflow:visible;"/>
	</clipPath>
	<g class="st36">
		<defs>
			<rect id="SVGID_75_" x="-59" y="-61" width="842" height="595"/>
		</defs>
		<clipPath id="SVGID_76_">
			<use xlink:href="#SVGID_75_"  style="overflow:visible;"/>
		</clipPath>
		<rect x="157" y="60.9" class="st37" width="15.1" height="15"/>
	</g>
</g>
<g>
	<defs>
		<polygon id="SVGID_77_" points="177.2,70.9 176.4,70.9 176.4,66.6 173.8,66.6 173.8,70.9 173,70.9 173,65.9 177.2,65.9 		"/>
	</defs>
	<clipPath id="SVGID_78_">
		<use xlink:href="#SVGID_77_"  style="overflow:visible;"/>
	</clipPath>
	<g class="st38">
		<defs>
			<rect id="SVGID_79_" x="-59" y="-61" width="842" height="595"/>
		</defs>
		<clipPath id="SVGID_80_">
			<use xlink:href="#SVGID_79_"  style="overflow:visible;"/>
		</clipPath>
		<rect x="168" y="60.9" class="st39" width="14.2" height="15"/>
	</g>
</g>
<g>
	<defs>
		<path id="SVGID_81_" d="M182.5,71.1v-0.6c0.2,0,0.4-0.2,0.6-0.5c0.2-0.3,0.3-0.8,0.4-1.6l0.3-2.5h3.5v5h-0.8v-4.3h-2l-0.2,1.9
			c-0.1,0.9-0.3,1.6-0.6,2C183.3,70.9,183,71.1,182.5,71.1"/>
	</defs>
	<clipPath id="SVGID_82_">
		<use xlink:href="#SVGID_81_"  style="overflow:visible;"/>
	</clipPath>
	<g class="st40">
		<defs>
			<rect id="SVGID_83_" x="-59" y="-61" width="842" height="595"/>
		</defs>
		<clipPath id="SVGID_84_">
			<use xlink:href="#SVGID_83_"  style="overflow:visible;"/>
		</clipPath>
		<rect x="177.5" y="60.9" class="st41" width="14.7" height="15.1"/>
	</g>
</g>
<g>
	<defs>
		<path id="SVGID_85_" d="M195.3,71.1c-0.7,0-1.4-0.2-1.8-0.7c-0.5-0.5-0.7-1.1-0.7-1.9c0-0.7,0.2-1.3,0.7-1.9
			c0.5-0.5,1.1-0.8,1.8-0.8c0.7,0,1.3,0.3,1.8,0.8c0.4,0.5,0.6,1.1,0.6,1.9v0.2h-4c0,0.5,0.2,0.9,0.5,1.2c0.3,0.3,0.7,0.5,1.3,0.5
			c0.6,0,1.1-0.2,1.5-0.6l0.4,0.5C196.8,70.8,196.2,71.1,195.3,71.1z M196.9,68.1c0-0.4-0.2-0.8-0.4-1.2c-0.3-0.3-0.7-0.5-1.2-0.5
			c-0.5,0-0.9,0.2-1.2,0.5c-0.3,0.3-0.4,0.7-0.5,1.2H196.9z"/>
	</defs>
	<clipPath id="SVGID_86_">
		<use xlink:href="#SVGID_85_"  style="overflow:visible;"/>
	</clipPath>
	<g class="st42">
		<defs>
			<rect id="SVGID_87_" x="-59" y="-61" width="842" height="595"/>
		</defs>
		<clipPath id="SVGID_88_">
			<use xlink:href="#SVGID_87_"  style="overflow:visible;"/>
		</clipPath>
		<rect x="187.8" y="60.8" class="st43" width="14.9" height="15.2"/>
	</g>
</g>
<g>
	<defs>
		<polygon id="SVGID_89_" points="207.6,70.9 206.6,70.9 204.8,68.7 204,69.5 204,70.9 203.2,70.9 203.2,65.9 204,65.9 204,68.6 
			206.6,65.9 207.6,65.9 205.4,68.2 		"/>
	</defs>
	<clipPath id="SVGID_90_">
		<use xlink:href="#SVGID_89_"  style="overflow:visible;"/>
	</clipPath>
	<g class="st44">
		<defs>
			<rect id="SVGID_91_" x="-59" y="-61" width="842" height="595"/>
		</defs>
		<clipPath id="SVGID_92_">
			<use xlink:href="#SVGID_91_"  style="overflow:visible;"/>
		</clipPath>
		<rect x="198.2" y="60.9" class="st45" width="14.4" height="15"/>
	</g>
</g>
<g>
	<defs>
		<path id="SVGID_93_" d="M215.1,71.1c-0.7,0-1.3-0.2-1.8-0.7c-0.5-0.5-0.7-1.1-0.7-1.9c0-0.8,0.2-1.4,0.7-1.9
			c0.5-0.5,1.1-0.7,1.8-0.7c0.8,0,1.4,0.3,1.8,0.9l-0.5,0.5c-0.3-0.4-0.7-0.7-1.3-0.7c-0.5,0-0.9,0.2-1.3,0.5
			c-0.3,0.4-0.5,0.8-0.5,1.4c0,0.6,0.2,1,0.5,1.4c0.3,0.4,0.7,0.5,1.3,0.5c0.5,0,0.9-0.2,1.3-0.7l0.5,0.5
			C216.5,70.8,215.9,71.1,215.1,71.1"/>
	</defs>
	<clipPath id="SVGID_94_">
		<use xlink:href="#SVGID_93_"  style="overflow:visible;"/>
	</clipPath>
	<g class="st46">
		<defs>
			<rect id="SVGID_95_" x="-59" y="-61" width="842" height="595"/>
		</defs>
		<clipPath id="SVGID_96_">
			<use xlink:href="#SVGID_95_"  style="overflow:visible;"/>
		</clipPath>
		<rect x="207.6" y="60.8" class="st47" width="14.3" height="15.2"/>
	</g>
</g>
<g>
	<defs>
		<polygon id="SVGID_97_" points="140.9,59.6 140.9,15.8 120.6,30.7 120.6,59.6 122.6,59.6 122.6,31.7 138.9,19.6 138.9,59.6 		"/>
	</defs>
	<clipPath id="SVGID_98_">
		<use xlink:href="#SVGID_97_"  style="overflow:visible;"/>
	</clipPath>
	<g class="st48">
		<defs>
			<rect id="SVGID_99_" x="-59" y="-61" width="842" height="595"/>
		</defs>
		<clipPath id="SVGID_100_">
			<use xlink:href="#SVGID_99_"  style="overflow:visible;"/>
		</clipPath>
		<rect x="115.6" y="10.8" class="st49" width="30.3" height="53.9"/>
	</g>
</g>
<g>
	<defs>
		<polygon id="SVGID_101_" points="153.1,-1 132.6,14.5 132.6,59.6 134.6,59.6 134.6,15.5 151.2,2.9 151.2,59.6 153.1,59.6 
			153.1,-0.9 		"/>
	</defs>
	<clipPath id="SVGID_102_">
		<use xlink:href="#SVGID_101_"  style="overflow:visible;"/>
	</clipPath>
	<g class="st50">
		<defs>
			<rect id="SVGID_103_" x="-59" y="-61" width="842" height="595"/>
		</defs>
		<clipPath id="SVGID_104_">
			<use xlink:href="#SVGID_103_"  style="overflow:visible;"/>
		</clipPath>
		<rect x="127.6" y="-6" class="st51" width="30.5" height="70.6"/>
	</g>
</g>
<g>
	<defs>
		<polygon id="SVGID_105_" points="144.9,26.9 144.9,59.6 146.8,59.6 146.8,30.8 159,39.7 159,59.9 161,59.9 161,38.7 		"/>
	</defs>
	<clipPath id="SVGID_106_">
		<use xlink:href="#SVGID_105_"  style="overflow:visible;"/>
	</clipPath>
	<g class="st52">
		<defs>
			<rect id="SVGID_107_" x="-59" y="-61" width="842" height="595"/>
		</defs>
		<clipPath id="SVGID_108_">
			<use xlink:href="#SVGID_107_"  style="overflow:visible;"/>
		</clipPath>
		<rect x="139.9" y="21.9" class="st53" width="26.1" height="43"/>
	</g>
</g>
</svg>
