<?xml version="1.0" encoding="utf-8"?>
<!-- Generator: Adobe Illustrator 18.0.0, SVG Export Plug-In . SVG Version: 6.00 Build 0)  -->
<!DOCTYPE svg PUBLIC "-//W3C//DTD SVG 1.1//EN" "http://www.w3.org/Graphics/SVG/1.1/DTD/svg11.dtd">
<svg version="1.1" id="_x31_" xmlns="http://www.w3.org/2000/svg" xmlns:xlink="http://www.w3.org/1999/xlink" x="0px" y="0px"
	 viewBox="0 0 153.8 20" enable-background="new 0 0 153.8 20" xml:space="preserve">
<g>
	<path fill-rule="evenodd" clip-rule="evenodd" fill="#ffffff" d="M7.7,16.5h1.4v-4.5l5.5-8h-1.7l-4.5,6.5L3.9,3.9H2.2L7.7,12V16.5
		L7.7,16.5z M17.9,10.2c0-0.7,0.1-1.3,0.4-1.9c0.3-0.6,0.6-1.1,1.1-1.6c0.5-0.5,1-0.8,1.6-1.1c0.6-0.3,1.3-0.4,2-0.4
		c0.7,0,1.3,0.1,1.9,0.4c0.6,0.3,1.1,0.6,1.6,1.1c0.5,0.5,0.8,1,1.1,1.6c0.3,0.6,0.4,1.2,0.4,1.9c0,0.5-0.1,1-0.2,1.4
		c-0.1,0.5-0.3,0.9-0.6,1.3c-0.3,0.4-0.6,0.8-0.9,1.1c-0.4,0.3-0.8,0.6-1.2,0.8l0.7,1.1c0.5-0.3,1-0.6,1.4-1
		c0.4-0.4,0.8-0.8,1.1-1.3c0.3-0.5,0.5-1,0.7-1.6c0.2-0.6,0.3-1.2,0.3-1.8c0-0.9-0.2-1.7-0.5-2.5c-0.3-0.8-0.8-1.4-1.4-2
		c-0.6-0.6-1.2-1-2-1.4c-0.8-0.3-1.6-0.5-2.5-0.5c-0.9,0-1.7,0.2-2.5,0.5c-0.8,0.3-1.5,0.8-2,1.4c-0.6,0.6-1,1.2-1.4,2
		c-0.3,0.8-0.5,1.6-0.5,2.5c0,0.6,0.1,1.2,0.2,1.8c0.2,0.6,0.4,1.1,0.7,1.6c0.3,0.5,0.6,0.9,1.1,1.3c0.4,0.4,0.9,0.7,1.4,1l0.9-1.1
		c-0.4-0.2-0.8-0.5-1.2-0.8c-0.4-0.3-0.7-0.7-0.9-1.1s-0.5-0.8-0.6-1.3C18,11.1,17.9,10.7,17.9,10.2L17.9,10.2z M31.9,10.2
		c0,0.9,0.2,1.7,0.5,2.5c0.3,0.8,0.8,1.4,1.4,2c0.6,0.6,1.3,1,2,1.3c0.8,0.3,1.6,0.5,2.5,0.5c0.9,0,1.7-0.2,2.5-0.5
		c0.8-0.3,1.5-0.8,2-1.3c0.6-0.6,1-1.2,1.4-2c0.3-0.8,0.5-1.6,0.5-2.5V3.9h-1.4v6.9c-0.1,0.6-0.3,1.2-0.6,1.7
		c-0.3,0.5-0.7,1-1.1,1.4c-0.4,0.4-0.9,0.7-1.5,0.9c-0.6,0.2-1.2,0.3-1.8,0.3c-0.6,0-1.2-0.1-1.8-0.3c-0.6-0.2-1.1-0.5-1.5-0.9
		c-0.4-0.4-0.8-0.9-1.1-1.4c-0.3-0.5-0.5-1.1-0.6-1.7V3.9h-1.4V10.2L31.9,10.2z M56.6,16.5h1.5l-2.7-5.3c0.4,0,0.8-0.1,1.2-0.3
		c0.4-0.2,0.7-0.5,1-0.8c0.3-0.3,0.5-0.7,0.7-1.1c0.2-0.4,0.2-0.9,0.2-1.3c0-0.5-0.1-1-0.3-1.5c-0.2-0.5-0.4-0.8-0.7-1.2
		c-0.3-0.3-0.6-0.6-1-0.8c-0.4-0.2-0.8-0.3-1.2-0.3h-8v12.6h1.4V5.2h6.3c0.3,0,0.6,0.1,0.8,0.2c0.2,0.2,0.4,0.3,0.6,0.6
		c0.2,0.2,0.3,0.5,0.4,0.8C57,7,57,7.3,57,7.6c0,0.2,0,0.5-0.1,0.8c-0.1,0.3-0.2,0.5-0.3,0.7c-0.2,0.2-0.3,0.4-0.6,0.6
		c-0.2,0.1-0.5,0.2-0.8,0.2h-1.9L56.6,16.5L56.6,16.5z M83.9,10.2c0,0.9,0.2,1.7,0.5,2.5c0.3,0.8,0.8,1.4,1.4,2c0.6,0.6,1.3,1,2,1.3
		c0.8,0.3,1.6,0.5,2.5,0.5c0.9,0,1.7-0.2,2.5-0.5c0.8-0.3,1.5-0.8,2-1.3c0.6-0.6,1-1.2,1.4-2c0.3-0.8,0.5-1.6,0.5-2.5V3.9h-1.4v6.9
		c-0.1,0.6-0.3,1.2-0.6,1.7c-0.3,0.5-0.7,1-1.1,1.4c-0.4,0.4-0.9,0.7-1.5,0.9c-0.6,0.2-1.2,0.3-1.8,0.3c-0.6,0-1.2-0.1-1.8-0.3
		c-0.6-0.2-1.1-0.5-1.5-0.9c-0.4-0.4-0.8-0.9-1.1-1.4c-0.3-0.5-0.5-1.1-0.6-1.7V3.9h-1.4V10.2L83.9,10.2z M99.4,3.9v1.3h4.7v11.3
		h1.4V5.2h4.7V3.9H99.4L99.4,3.9z M113,10.2c0,0.9,0.2,1.7,0.5,2.5c0.3,0.8,0.8,1.4,1.4,2c0.6,0.6,1.3,1,2,1.3
		c0.8,0.3,1.6,0.5,2.5,0.5c0.9,0,1.7-0.2,2.5-0.5c0.8-0.3,1.5-0.8,2-1.3c0.6-0.6,1-1.2,1.4-2c0.3-0.8,0.5-1.6,0.5-2.5V3.9h-1.4v6.9
		c-0.1,0.6-0.3,1.2-0.6,1.7c-0.3,0.5-0.7,1-1.1,1.4c-0.4,0.4-0.9,0.7-1.5,0.9c-0.6,0.2-1.2,0.3-1.8,0.3c-0.6,0-1.2-0.1-1.8-0.3
		c-0.6-0.2-1.1-0.5-1.5-0.9c-0.4-0.4-0.8-0.9-1.1-1.4c-0.3-0.5-0.5-1.1-0.6-1.7V3.9H113V10.2L113,10.2z M137.7,16.5h1.5l-2.7-5.3
		c0.4,0,0.8-0.1,1.2-0.3c0.4-0.2,0.7-0.5,1-0.8c0.3-0.3,0.5-0.7,0.7-1.1c0.2-0.4,0.2-0.9,0.2-1.3c0-0.5-0.1-1-0.3-1.5
		S139,5.3,138.7,5c-0.3-0.3-0.6-0.6-1-0.8c-0.4-0.2-0.8-0.3-1.2-0.3h-8v12.6h1.4V5.2h6.3c0.3,0,0.6,0.1,0.8,0.2
		c0.2,0.2,0.4,0.3,0.6,0.6c0.2,0.2,0.3,0.5,0.4,0.8s0.1,0.6,0.1,0.8c0,0.2,0,0.5-0.1,0.8c-0.1,0.3-0.2,0.5-0.3,0.7
		c-0.2,0.2-0.3,0.4-0.6,0.6c-0.2,0.1-0.5,0.2-0.8,0.2h-1.9L137.7,16.5L137.7,16.5z M151.7,9.9v1.3h-6V9.9H151.7L151.7,9.9z
		 M142.3,16.5h9.6v-1.3h-8.2v-10h8.2V3.9h-9.6V16.5z"/>
	<path fill-rule="evenodd" clip-rule="evenodd" fill="#ffffff" d="M81.2,7.1V4H70.3l-1.6,3.1H81.2L81.2,7.1z M71.9,16.5v-1.6
		c0-1.3,0.5-2.2,1.6-2.7c0.3-0.2,0.8-0.3,1.6-0.4h6.2V8.7H75c-1.9,0-3.3,0.5-4.4,1.6c-0.8,0.8-1.3,1.8-1.6,3c0,0.3-0.1,0.5-0.1,0.8
		c0,0.3-0.1,0.5-0.1,0.8v1.6H71.9z"/>
</g>
</svg>
