
<svg  xmlns="http://www.w3.org/2000/svg" 
	 viewBox="0 0 760 760" > 
	  <linearGradient id="grad" x1="0" y1="0">
        <stop offset="0%" stop-color="#57c8e6"/>
        <stop offset="100%" stop-color=" #50b962"/>
    </linearGradient>
<style type="text/css">
	.st0{fill:url(#grad);} 
	.st1{fill:#50b962};
</style>
<g>
	<g>
		<path class="st0" d="M681.1,381.3C681,546.8,546.4,681.1,381,681C215.1,680.8,80.9,546.3,81.1,380.4C81.4,214.8,216,80.8,381.7,81
			C546.9,81.3,681.4,215.6,681.1,381.3z M381,641c141.5,2,260.4-118.4,260.3-260.2c-0.1-141.6-119.1-260.4-260.7-260.3
			c-142.1,0.1-260.3,119.7-260.3,260.5C120.5,523.8,240.5,643.2,381,641z"/>
		<path class="st1" d="M350.6,443.7c1.9-2.7,2.9-4.5,4.3-5.9c43.1-43.2,86.2-86.3,129.3-129.4c8.7-8.7,12.7-8.7,21.6,0.2
			c2.7,2.7,5.4,5.4,8.1,8.1c8.1,8.1,8.2,12.5,0.2,20.5c-36.4,36.4-72.8,72.8-109.2,109.2c-16.1,16.1-32.3,32.3-48.4,48.4
			c-6.9,6.9-11.9,6.9-18.8,0.1c-3.4-3.4-6.8-6.9-10.3-10.2c-3.5-3.4-5.9-7-5.4-12.3c0.1-1.6-1.7-3.8-3.1-5.2
			c-26.3-26.5-52.7-52.8-79.1-79.2c-7.2-7.2-7.2-11.9-0.1-19c3.4-3.4,6.8-6.9,10.3-10.2c6-5.9,11.2-6,17.2,0
			c26.4,26.4,52.8,52.8,79.2,79.2C347.6,439.4,348.6,441,350.6,443.7z"/>
	</g>
</g>
</svg>
