<svg xmlns="http://www.w3.org/2000/svg" xmlns:xlink="http://www.w3.org/1999/xlink" width="20" height="23" viewBox="0 0 20 23"><defs><path id="7a5ua" d="M1276.37 64.05l-1.72 1.4c-.6.5-1.42.69-2.38.58a8.7 8.7 0 0 1-3.2-1.14 24.76 24.76 0 0 1-6.9-6.19 25.08 25.08 0 0 1-4.48-8.16c-.78-2.66-.54-4.66.66-5.64l1.72-1.4a1.63 1.63 0 0 1 2.54.62l2.43 5.62c.3.69.1 1.5-.48 1.97l-1.14.93a.78.78 0 0 0-.17 1.02 30.16 30.16 0 0 0 4.02 5.05c.27.28.7.3 1.01.06l1.14-.93c.58-.48 1.4-.5 2-.05l4.9 3.61a1.67 1.67 0 0 1 .06 2.65zm-6.52-5.67l-.31.25 6.5 4.77a.97.97 0 0 0-.13-1.43l-4.9-3.62a.95.95 0 0 0-1.16.03zm-8.65-14.55a.93.93 0 0 0-.58.13l3.22 7.44.3-.23a.98.98 0 0 0 .27-1.15l-2.43-5.61a.95.95 0 0 0-.78-.58zm14.3 20.03l-6.52-4.77-.27.22c-.58.47-1.41.43-1.93-.1a30.69 30.69 0 0 1-4.1-5.18c-.4-.63-.27-1.46.31-1.93l.3-.24-3.23-7.46-1.28 1.04c-.95.78-1.1 2.57-.43 4.9a24.36 24.36 0 0 0 4.36 7.92 24.06 24.06 0 0 0 6.7 6.02c2.1 1.17 3.86 1.4 4.81.62z"/></defs><g><g transform="translate(-1257 -43)"><use xlink:href="#7a5ua"/></g></g></svg>