
<svg xmlns="http://www.w3.org/2000/svg" 
	 viewBox="0 0 266 263" >
<style type="text/css">
	.st0{fill:#50B969;}
	.st1{fill:#57C7E0;}
	.st2{fill:#58C6D8;}
	.st3{fill:#52BA73;}
	.st4{fill:#58C7D9;}
	.st5{fill:#56C5D0;}
	.st6{fill:#51BB7C;}
	.st7{fill:#56C5CE;}
	.st8{fill:#53BE99;}
	.st9{fill:#52BD8E;}
	.st10{fill:#51BB7A;}
	.st11{fill:#54C1AD;}
	.st12{fill:#55C3BE;}
	.st13{fill:#52BE93;}
	.st14{fill:#55C4C8;}
	.st15{fill:#55C3BF;}
	.st16{fill:#54C2B7;}
	.st17{fill:#53C0A3;}
	.st18{fill:#52BC85;}
	.st19{fill:#55C4C6;}
	.st20{fill:#53C0A4;}
	.st21{fill:#53BF9C;}
	.st22{fill:#52BD8A;}
	.st23{fill:#51BC82;}
	.st24{fill:#54C2B6;}
</style>
<g>
	<g>
		<path class="st0" d="M235.3,15.8c15,9.1,23.3,22.7,23.5,39.9c0.5,51.4,0.5,102.9,0,154.3c-0.2,18.4-9.5,32.4-25.7,41.5
			c-0.4-7.9-0.8-15.9-1.2-23.8c5.1-6.7,7.3-14.1,7.2-22.7c-0.2-47.6-0.2-95.1,0-142.7c0-8.5-1.5-16.1-6.2-23.1
			c0-6.1-0.1-12.3,0.2-18.4C233.2,19.1,234.5,17.5,235.3,15.8z"/>
		<path class="st1" d="M28.1,247C16,237.8,9.3,225.4,9.2,210.6c-0.4-51.8-0.5-103.6,0-155.3C9.4,39.1,17.2,26,31,16.9
			c0,6.9-0.1,13.8,0.1,20.7c0,1.5,1.2,2.9,1.9,4.3c-4.8,8.4-4,17.6-4,26.7c0,45.6,0,91.1,0.1,136.7c0,4.9,1.3,9.8,2,14.6
			c-0.4,5.7-0.6,11.4-1.2,17C29.6,240.3,28.7,243.6,28.1,247z"/>
		<path class="st2" d="M33,42c-0.7-1.4-1.8-2.9-1.9-4.3C30.9,30.8,31,23.8,31,16.9c6.2-4.8,13.2-7.6,21-8.1c0,6.5,0,12.9,0.1,19.4
			C44.4,31.1,38,35.5,33,42z"/>
		<path class="st3" d="M231.9,227.7c0.4,7.9,0.8,15.9,1.2,23.8c-7.1,4.3-14.8,6.4-23.1,6.2c0-6.6,0-13.1,0-19.7
			C218.8,237.9,225.8,233.7,231.9,227.7z"/>
		<path class="st4" d="M28.1,247c0.6-3.3,1.5-6.6,1.9-10c0.6-5.7,0.8-11.3,1.2-17c3.7,8.1,10.2,13,17.9,16.8c0,6.7,0,13.4-0.1,20.1
			C41.1,255.6,34.1,252.2,28.1,247z"/>
		<path class="st3" d="M235.3,15.8c-0.8,1.7-2.1,3.3-2.2,5c-0.3,6.1-0.2,12.3-0.2,18.4c-5.5-5.8-11.9-9.9-19.9-11.4
			c0-6.5,0-13.1,0-19.6C221.1,8.8,228.7,11,235.3,15.8z"/>
		<path class="st5" d="M49,256.8c0-6.7,0-13.4,0.1-20.1c6,0.5,12,1,17.9,1.4c0,6.6,0,13.1,0,19.7C61,257.5,55,257.2,49,256.8z"/>
		<path class="st6" d="M210,238.2c0,6.6,0,13.1,0,19.7c-6,0-12,0-18,0c0-6.6,0-13.1,0-19.7C198,238.2,204,238.2,210,238.2z"/>
		<path class="st7" d="M52.1,28.2c0-6.5,0-12.9-0.1-19.4c6-0.2,12-0.5,18-0.7c0,6.6,0,13.1,0,19.7C64,28,58,28.1,52.1,28.2z"/>
		<path class="st8" d="M160,257.8c-5.7,0-11.3,0-17,0c0-6.6,0-13.1,0-19.7c5.7,0,11.3,0,17,0C160,244.7,160,251.3,160,257.8z"/>
		<path class="st9" d="M160,257.8c0-6.6,0-13.1,0-19.7c5.7,0,11.3,0,17,0c0,6.6,0,13.1,0,19.7C171.3,257.8,165.7,257.8,160,257.8z"
			/>
		<path class="st10" d="M213,8.3c0,6.5,0,13.1,0,19.6c-5.3,0-10.7-0.1-16-0.1c0-6.6,0-13.1,0-19.7C202.3,8.2,207.7,8.3,213,8.3z"/>
		<path class="st11" d="M128,257.8c-5.3,0-10.7,0-16,0c0-6.6,0-13.1,0-19.7c5.3,0,10.7,0,16,0C128,244.7,128,251.3,128,257.8z"/>
		<path class="st12" d="M84,8.2c5,0,10,0,15,0c0,6.6,0,13.1,0,19.7c-5,0-10,0-15,0C84,21.3,84,14.7,84,8.2z"/>
		<path class="st13" d="M154,8.2c5,0,10,0,15,0c0,6.6,0,13.1,0,19.7c-5,0-10,0-15,0C154,21.3,154,14.7,154,8.2z"/>
		<path class="st14" d="M67,257.8c0-6.6,0-13.1,0-19.7c5,0,10,0,15,0c0,6.6,0,13.1,0,19.7C77,257.8,72,257.8,67,257.8z"/>
		<path class="st15" d="M82,257.8c0-6.6,0-13.1,0-19.7c5,0,10,0,15,0c0,6.6,0,13.1,0,19.7C92,257.8,87,257.8,82,257.8z"/>
		<path class="st16" d="M97,257.8c0-6.6,0-13.1,0-19.7c5,0,10,0,15,0c0,6.6,0,13.1,0,19.7C107,257.8,102,257.8,97,257.8z"/>
		<path class="st17" d="M128,257.8c0-6.6,0-13.1,0-19.7c5,0,10,0,15,0c0,6.6,0,13.1,0,19.7C138,257.8,133,257.8,128,257.8z"/>
		<path class="st18" d="M177,257.8c0-6.6,0-13.1,0-19.7c5,0,10,0,15,0c0,6.6,0,13.1,0,19.7C187,257.8,182,257.8,177,257.8z"/>
		<path class="st19" d="M84,8.2c0,6.6,0,13.1,0,19.7c-4.7,0-9.3,0-14,0c0-6.6,0-13.1,0-19.7C74.7,8.2,79.3,8.2,84,8.2z"/>
		<path class="st11" d="M112,8.2c4.7,0,9.3,0,14,0c0,6.6,0,13.1,0,19.7c-4.7,0-9.3,0-14,0C112,21.3,112,14.7,112,8.2z"/>
		<path class="st20" d="M126,27.8c0-6.6,0-13.1,0-19.7c4.7,0,9.3,0,14,0c0,6.6,0,13.1,0,19.7C135.3,27.8,130.7,27.8,126,27.8z"/>
		<path class="st21" d="M140,27.8c0-6.6,0-13.1,0-19.7c4.7,0,9.3,0,14,0c0,6.6,0,13.1,0,19.7C149.3,27.8,144.7,27.8,140,27.8z"/>
		<path class="st22" d="M169,27.8c0-6.6,0-13.1,0-19.7c4.7,0,9.3,0,14,0c0,6.6,0,13.1,0,19.7C178.3,27.8,173.7,27.8,169,27.8z"/>
		<path class="st23" d="M183,27.8c0-6.6,0-13.1,0-19.7c4.7,0,9.3,0,14,0c0,6.6,0,13.1,0,19.7C192.3,27.8,187.7,27.8,183,27.8z"/>
		<path class="st24" d="M112,8.2c0,6.6,0,13.1,0,19.7c-4.3,0-8.7,0-13,0c0-6.6,0-13.1,0-19.7C103.3,8.2,107.7,8.2,112,8.2z"/>
	</g>
</g>
</svg>
