<?xml version="1.0" encoding="utf-8"?>
<!-- Generator: Adobe Illustrator 22.1.0, SVG Export Plug-In . SVG Version: 6.00 Build 0)  -->
<svg version="1.1" id="Слой_1" xmlns="http://www.w3.org/2000/svg" xmlns:xlink="http://www.w3.org/1999/xlink" x="0px" y="0px"
	 viewBox="0 0 150 100" style="enable-background:new 0 0 150 100;" xml:space="preserve">
<style type="text/css">
	.st0{fill:#52B963;}
</style>
<g>
	<g>
		<path class="st0" d="M62,101c-2-2.2-4.3-4.2-6-6.5c-1.7-2.4-2.9-5.3-4.4-7.9c-0.8-1.4-1.9-2.7-3-3.9C36.2,70.4,23.8,58,11.5,45.7
			c-5-5-5-6.7-0.2-11.5c8.5-8.6,8.5-8.6,17.2,0.1C39.6,45.4,50.8,56.6,62,67.8c1.2,1.2,2.4,2.2,3.8,3.6c1.5-1.4,2.8-2.6,4.1-3.9
			C91.7,45.8,113.5,24,135.3,2.2c0.3-0.3,0.5-0.8,0.7-1.2c1,0,2,0,3,0c4,4,8,8,12,12c0,1,0,2,0,3c-0.4,0.2-0.9,0.4-1.2,0.7
			c-26,26-51.9,52-77.9,78c-2.2,2.2-4.6,4.2-6.9,6.3C64,101,63,101,62,101z"/>
	</g>
</g>
</svg>
