<svg xmlns="http://www.w3.org/2000/svg" viewBox="0 0 500 520">
<style type="text/css">
	.st0{fill:#71BF46;}
</style>

	<g>
		<path class="st0" d="M236.1,1c9.7,0,19.3,0,29,0c0.9,0.3,1.7,0.8,2.6,0.9c17.9,2.1,34.8,7.4,50.5,16.1
			c45.2,24.9,69.8,72.2,62.5,120.7c-6.4,42.5-24.1,79.6-52.4,111.8c-0.9,1.1-1.8,2.3-2.6,3.4c0.5,0.5,0.7,0.8,1,0.9
			c1.4,0.5,2.9,0.9,4.3,1.3c21.7,6.7,42.4,15.7,61.5,28.1c55.6,35.9,92.1,85.2,105,150.9c1.4,6.9,2.4,13.9,3.5,20.9
			c0,21.7,0,43.3,0,65c-166.6,0-333.2,0-500,0c0-17-0.1-33.4,0-49.7c0.2-27.6,5.5-54.4,16.4-79.7C45,327.8,93,285.6,157.2,261
			c6.5-2.5,13.1-4.5,19.6-6.7c-0.1-0.6-0.1-1-0.3-1.2c-0.6-0.8-1.3-1.5-2-2.3c-22-24.4-37.5-52.5-47.1-83.8
			c-8.1-26.6-11.3-53.6-1.7-80.5C142,40.9,175.6,15.1,221.7,4C226.4,2.9,231.3,2,236.1,1z M476.8,499c3.6-47.4-4.6-91.4-30.6-131.3
			c-17.7-27.2-40.7-48.9-68.3-66.2c-42.5,60.3-84.5,120-126.9,180.1c-21.5-30.5-42.5-60.3-63.5-90.1c-21.1-29.9-42.2-59.8-63.4-90
			c-37.9,24.1-66.2,55.7-83.9,96.5C26,430.2,22.9,464.1,24.9,499C175.8,499,326.2,499,476.8,499z M259.9,22.7
			c-28.5-0.1-47,4.5-64.3,14c-37.8,20.9-56.9,58.3-50.6,100.6c5.2,35.1,20.4,65.9,42.3,93.5c10,12.5,21.7,23,36,30.3
			c18.2,9.3,36.4,9.3,54.6,0.1c12.5-6.3,23.1-15.1,32.3-25.6c21.9-25.1,36.5-53.9,44.4-86.1c5.4-22,5.7-44.1-4.2-65
			C330.6,42.9,295.8,24.7,259.9,22.7z M357.2,290.4c-1.4-0.8-2.5-1.6-3.7-2c-14.5-5.2-29.1-10.3-43.7-15.5c-3.6-1.3-6.5-0.7-9.7,1.5
			c-15.5,10.1-32.5,16.2-51.3,15.5c-17.4-0.6-33.1-6.7-47.8-15.9c-1.8-1.1-4.6-2.2-6.3-1.6c-16.2,5.4-32.3,11.2-48.4,16.9
			c-0.5,0.2-0.9,0.8-1.5,1.3c35.3,50.2,70.5,100.3,106,150.9C286.5,390.8,321.8,340.7,357.2,290.4z"/>
	</g>

</svg>
