<svg xmlns="http://www.w3.org/2000/svg" xmlns:xlink="http://www.w3.org/1999/xlink" width="26" height="22" viewBox="0 0 26 22"><defs><path id="c4xna" d="M798.9 65a.53.53 0 0 1-.34-.12l-5.27-4.42H781.6a3.6 3.6 0 0 1-3.61-3.6V46.6a3.6 3.6 0 0 1 3.61-3.6h18.78c1.99 0 3.61 1.61 3.61 3.6v10.26a3.6 3.6 0 0 1-3.61 3.6h-.96v4.01a.53.53 0 0 1-.53.53zM781.6 44.05a2.56 2.56 0 0 0-2.55 2.55v10.26c0 1.4 1.14 2.55 2.55 2.55h11.87c.13 0 .25.04.34.12l4.55 3.82v-3.42c0-.29.24-.52.53-.52h1.49a2.56 2.56 0 0 0 2.55-2.55V46.6c0-1.4-1.14-2.55-2.55-2.55zm17.89 4.83h-17a.53.53 0 0 1 0-1.05h17a.53.53 0 1 1 0 1.05zm0 3.36h-17a.53.53 0 1 1 0-1.05h17a.53.53 0 1 1 0 1.05zm0 3.36h-17a.53.53 0 1 1 0-1.05h17a.53.53 0 1 1 0 1.05z"/></defs><g><g transform="translate(-778 -43)"><use fill="#70bf44" xlink:href="#c4xna"/></g></g></svg>