<svg xmlns="http://www.w3.org/2000/svg" xmlns:xlink="http://www.w3.org/1999/xlink" width="30" height="30" viewBox="0 0 30 30"><defs><path id="ieqsa" d="M583 3413a15 15 0 1 1 0 30 15 15 0 0 1 0-30z"/><path id="ieqsc" d="M575.82 3427.53l.7-.71c.2-.2.52-.2.71 0l4.24 4.24 6.86-6.86c.2-.2.53-.2.73 0l.74.74c.2.2.2.53 0 .73l-8.13 8.13c-.2.2-.53.2-.73 0l-.74-.74a.52.52 0 0 1-.11-.56l-4.27-4.27a.5.5 0 0 1 0-.7z"/><clipPath id="ieqsb"><use fill="#fff" xlink:href="#ieqsa"/></clipPath></defs><g><g transform="translate(-568 -3413)"><use fill="#fff" xlink:href="#ieqsa"/><use fill="#fff" fill-opacity="0" stroke="#000" stroke-linecap="round" stroke-linejoin="round" stroke-miterlimit="50" stroke-width="4" clip-path="url(&quot;#ieqsb&quot;)" xlink:href="#ieqsa"/></g><g transform="translate(-568 -3413)"><use fill="#69c379" xlink:href="#ieqsc"/></g></g></svg>