<svg xmlns="http://www.w3.org/2000/svg" xmlns:xlink="http://www.w3.org/1999/xlink" width="39" height="39" viewBox="0 0 39 39"><defs><path id="e3noa" d="M958.5 1376a19.5 19.5 0 1 1 0 39 19.5 19.5 0 0 1 0-39z"/><path id="e3nob" d="M964 1388c1.1 0 2 1.57 2 3.5s-.9 3.5-2 3.5-2-1.57-2-3.5.9-3.5 2-3.5zm-11 0c1.1 0 2 1.57 2 3.5s-.9 3.5-2 3.5-2-1.57-2-3.5.9-3.5 2-3.5zm-4 15s3.88-3 8.93-3c5.43 0 10.07 3 10.07 3v2s-4.59-3-10-3c-5.08 0-9 3-9 3z"/></defs><g><g transform="translate(-939 -1376)"><use fill="#f8d908" xlink:href="#e3noa"/></g><g opacity=".9" transform="translate(-939 -1376)"><use xlink:href="#e3nob"/></g></g></svg>