<svg xmlns="http://www.w3.org/2000/svg" xmlns:xlink="http://www.w3.org/1999/xlink" width="130" height="130" viewBox="0 0 130 130"><defs><path id="8qkba" d="M1025.1 5653.78l-11.02-11.65 5.95-13.25-13.17-5.9.44-15.75-16.08-.45-5.38-14.16-13.7 5.2-10.36-10.93-11.34 10.74-14.43-6.48-6.27 13.95-14.51-.4-.41 14.92-15.08 5.73 5.67 14.91-10.52 9.96 9.9 10.45-6.52 14.5 14.85 6.67-.42 14.94 14.34.4 5.42 14.26 15-5.69 10.75 11.36 10.76-10.18 13.32 5.99 6.31-14.07 16.18.45.42-15.5 13.36-5.08-5.24-13.78z"/><linearGradient id="8qkbb" x1="1024.89" x2="894.89" y1="5651.89" y2="5652.11" gradientUnits="userSpaceOnUse"><stop offset="0" stop-color="#50b965"/><stop offset="1" stop-color="#57c8e0"/></linearGradient></defs><g><g transform="translate(-895 -5587)"><use fill="#b7d43a" xlink:href="#8qkba"/><use fill="url(#8qkbb)" xlink:href="#8qkba"/></g></g></svg>