
<svg xmlns="http://www.w3.org/2000/svg" viewBox="0 0 100 100" > 
<linearGradient id="grad" x1="0" y1="0">
        <stop offset="0%" stop-color="#f18540"/>
        <stop offset="100%" stop-color=" #f96235"/>
    </linearGradient> 
<style type="text/css">
	.st0{fill:url(#grad);} 
</style>
<g>

	<g>
		<path class="st0" d="M14,1.4C16.1,3,17.8,4,19.1,5.3c9.3,9.3,18.7,18.5,27.8,28c2.9,3.1,4.7,3.5,7.9,0.1C63.8,24,73.2,14.9,82.3,5.8
			c4.9-4.9,6.4-4.9,11.1-0.2c8.5,8.4,8.5,8.4,0.1,16.8c-7.8,7.8-15.6,15.5-23.4,23.3c-6,6-6,4.7,0.1,11c8.5,8.7,17.1,17.3,25.6,26
			c4.7,4.8,4.7,6,0.2,10.6c-8,8.2-8,8.2-16.3,0c-8.3-8.2-16.7-16.3-24.8-24.7c-3-3.1-4.8-3.4-8-0.1c-9.1,9.5-18.6,18.6-28,27.9
			c-4.5,4.4-5.7,4.4-10.3-0.1c-8.3-8-8.3-8-0.1-16.3c8.3-8.4,16.5-16.9,25-25.2c2.7-2.7,3-4.4,0.1-7.2C25,39,16.5,30.3,7.9,21.8
			C0.1,14,0.1,14,8.1,6.1C9.8,4.4,11.8,3.1,14,1.4z"/>
	</g>
</g>
</svg>
