<svg xmlns="http://www.w3.org/2000/svg" xmlns:xlink="http://www.w3.org/1999/xlink" width="39" height="39" viewBox="0 0 39 39"><defs><path id="ry4ma" d="M858.5 115a19.5 19.5 0 1 1 0 39 19.5 19.5 0 0 1 0-39z"/><path id="ry4mb" d="M864 127c1.1 0 4 1.57 4 3.5s-2.9.5-4 .5-2 1.43-2-.5.9-3.5 2-3.5zm-11 0c1.1 0 2 1.57 2 3.5s-.9.5-2 .5-4 1.43-4-.5 2.9-3.5 4-3.5zm-4 15s3.88-3 8.93-3c5.43 0 10.07 3 10.07 3v2s-4.59-3-10-3c-5.08 0-9 3-9 3z"/><path id="ry4mc" d="M867 133c1.1 0 .4 1.62 2 2.5 0 1.38-.9 2.5-2 2.5s-2-1.12-2-2.5c1.6-1.38.9-2.5 2-2.5z"/></defs><g><g transform="translate(-839 -115)"><use fill="#f8d908" xlink:href="#ry4ma"/></g><g opacity=".9" transform="translate(-839 -115)"><use xlink:href="#ry4mb"/></g><g transform="translate(-839 -115)"><use fill="#00bff3" xlink:href="#ry4mc"/></g></g></svg>