<svg xmlns="http://www.w3.org/2000/svg" xmlns:xlink="http://www.w3.org/1999/xlink" width="346" height="346" viewBox="0 0 346 346"><defs><path id="blwba" d="M788 5945v-349h349v349zm4-175c0 93.89 76.11 170 170 170s170-76.11 170-170-76.11-170-170-170-170 76.11-170 170z"/><path id="blwbb" d="M806 5926v-312h312v312zm4.89-156c0 83.46 67.65 151.11 151.11 151.11 83.46 0 151.11-67.65 151.11-151.11 0-83.46-67.65-151.11-151.11-151.11-83.46 0-151.11 67.65-151.11 151.11z"/><path id="blwbc" d="M962 5600c93.89 0 170 76.11 170 170s-76.11 170-170 170-170-76.11-170-170 76.11-170 170-170z"/><path id="blwbe" d="M962 5618.89c83.46 0 151.11 67.65 151.11 151.11 0 83.46-67.65 151.11-151.11 151.11-83.46 0-151.11-67.65-151.11-151.11 0-83.46 67.65-151.11 151.11-151.11z"/><clipPath id="blwbd"><use fill="#fff" xlink:href="#blwba"/></clipPath><clipPath id="blwbf"><use fill="#fff" xlink:href="#blwbb"/></clipPath></defs><g><g opacity=".2" transform="translate(-789 -5597)"><use fill="#cae1ea" xlink:href="#blwbc"/><use fill="#fff" fill-opacity="0" stroke="#f8fdff" stroke-linecap="round" stroke-linejoin="round" stroke-miterlimit="50" stroke-width="6" clip-path="url(&quot;#blwbd&quot;)" xlink:href="#blwbc"/></g><g opacity=".55" transform="translate(-789 -5597)"><use fill="#cae1ea" xlink:href="#blwbe"/><use fill="#fff" fill-opacity="0" stroke="#f8fdff" stroke-linecap="round" stroke-linejoin="round" stroke-miterlimit="50" stroke-width="6" clip-path="url(&quot;#blwbf&quot;)" xlink:href="#blwbe"/></g></g></svg>