<svg xmlns="http://www.w3.org/2000/svg" xmlns:xlink="http://www.w3.org/1999/xlink" width="18" height="20" viewBox="0 0 18 20"><defs><path id="p9sja" d="M1236.24 525.96a.78.78 0 0 1-.48 0c-8.76-2.9-8.62-9.75-8.52-14.76l.02-1.54c0-.38.33-.7.73-.7 3.13 0 5.51-.86 7.5-2.7a.76.76 0 0 1 1.02 0c1.99 1.84 4.37 2.7 7.5 2.7.4 0 .73.32.73.7l.02 1.54c.1 5 .24 11.87-8.52 14.76zm7.06-14.74l-.02-.88a11.61 11.61 0 0 1-7.28-2.63c-2 1.67-4.35 2.52-7.28 2.63l-.02.88c-.1 5.04-.21 10.74 7.3 13.34 7.51-2.6 7.4-8.3 7.3-13.34zm-3.74 2.39c.28.27.28.71 0 .99l-4.05 3.86a.75.75 0 0 1-.52.2.75.75 0 0 1-.52-.2l-2.02-1.93a.68.68 0 0 1 0-.99.76.76 0 0 1 1.03 0l1.5 1.44 3.54-3.37a.76.76 0 0 1 1.04 0z"/></defs><g><g transform="translate(-1227 -506)"><use fill="#fff" xlink:href="#p9sja"/></g></g></svg>