<svg xmlns="http://www.w3.org/2000/svg" xmlns:xlink="http://www.w3.org/1999/xlink" width="39" height="39" viewBox="0 0 39 39"><defs><path id="ttvga" d="M858.5 115a19.5 19.5 0 1 1 0 39 19.5 19.5 0 0 1 0-39z"/><path id="ttvgb" d="M864 127c1.1 0 2 1.57 2 3.5s-.9 3.5-2 3.5-2-1.57-2-3.5.9-3.5 2-3.5zm-11 0c1.1 0 2 1.57 2 3.5s-.9 3.5-2 3.5-2-1.57-2-3.5.9-3.5 2-3.5z"/><path id="ttvgc" d="M859 141c5.52 0 10 .45 10 1s-4.48 1-10 1-10-.45-10-1 4.48-1 10-1z"/></defs><g><g transform="translate(-839 -115)"><use fill="#f8d908" xlink:href="#ttvga"/></g><g opacity=".9" transform="translate(-839 -115)"><use xlink:href="#ttvgb"/></g><g transform="translate(-839 -115)"><use fill="#181501" xlink:href="#ttvgc"/></g></g></svg>