<svg id="Layer_1" data-name="Layer 1" xmlns="http://www.w3.org/2000/svg" viewBox="0 0 102 77"><defs><style>.cls-1{fill:none}</style><clipPath id="clip-path" transform="translate(5 5)"><path class="cls-1" d="M27.27 63.18h-3.54V27.82h3.54zM29.14 24h-7.28A1.78 1.78 0 0 0 20 25.91v39.18A1.78 1.78 0 0 0 21.86 67h7.28A1.78 1.78 0 0 0 31 65.09V25.91A1.78 1.78 0 0 0 29.14 24z"/></clipPath><clipPath id="clip-path-2" transform="translate(5 5)"><path class="cls-1" d="M67.27 63.18h-3.54V27.82h3.54zM69.14 24h-7.28A1.78 1.78 0 0 0 60 25.91v39.18A1.78 1.78 0 0 0 61.86 67h7.28A1.78 1.78 0 0 0 71 65.09V25.91A1.78 1.78 0 0 0 69.14 24z"/></clipPath><clipPath id="clip-path-3" transform="translate(5 5)"><path class="cls-1" d="M88.5 28a1.35 1.35 0 1 1-2.7 0V11.76a1.35 1.35 0 1 1 2.7 0zm-6.74 6.67a1.35 1.35 0 1 1-2.69 0V5.29a1.35 1.35 0 1 1 2.69 0zm-68.49 0a1.35 1.35 0 1 1-2.69 0V5.29a1.35 1.35 0 1 1 2.69 0zM6.73 28a1.32 1.32 0 0 1-1.34 1.37A1.38 1.38 0 0 1 3.85 28V11.76a1.35 1.35 0 1 1 2.69 0V28zM87.15 6.47a2.77 2.77 0 0 0-1.35.2V5.29a5.2 5.2 0 1 0-10.39 0V18H17.12V5.29a5.2 5.2 0 1 0-10.39 0v1.38a4.06 4.06 0 0 0-1.54-.2A5.22 5.22 0 0 0 0 11.76V28a5.22 5.22 0 0 0 5.19 5.29 2.88 2.88 0 0 0 1.35-.19v1.57a5.2 5.2 0 1 0 10.39 0V22H75v12.71a5.2 5.2 0 1 0 10.39 0v-1.38a3.13 3.13 0 0 0 1.34.2A5.22 5.22 0 0 0 92 28.24V12a4.77 4.77 0 0 0-4.85-5.53z"/></clipPath><clipPath id="clip-path-4" transform="translate(5 5)"><path class="cls-1" d="M65.5 14c.9 0 1.5-.75 1.5-1.86V4.86C67 3.75 66.4 3 65.5 3S64 3.75 64 4.86v7.28c0 1.11.6 1.86 1.5 1.86z"/></clipPath><clipPath id="clip-path-5" transform="translate(5 5)"><path class="cls-1" d="M25.5 14c.9 0 1.5-.75 1.5-1.86V4.86C27 3.75 26.4 3 25.5 3S24 3.75 24 4.86v7.28A1.71 1.71 0 0 0 25.5 14z"/></clipPath></defs><g clip-path="url(#clip-path)"><path d="M20 24h21v53H20z"/></g><g clip-path="url(#clip-path-2)"><path d="M60 24h21v53H60z"/></g><g clip-path="url(#clip-path-3)"><path d="M0 0h102v50H0z"/></g><g clip-path="url(#clip-path-4)"><path d="M64 3h13v21H64z"/></g><g clip-path="url(#clip-path-5)"><path d="M24 3h13v21H24z"/></g></svg>