<svg xmlns="http://www.w3.org/2000/svg" xmlns:xlink="http://www.w3.org/1999/xlink" viewBox="0 0 90 81"><defs><path id="a" d="M53 40.6l6.3-7.1c-5.5-5.5-6.3-6.5-8.4-8L36.8 40.7C39 39.8 41.7 39 45 39c3.2 0 5.7.7 8 1.6zM87 39c1.7 0 3 1.3 3 3s-1.3 3-3 3c-3.8 0-6.3 1.2-9.2 2.7C74.7 49.2 71.2 51 66 51c-5.2 0-8.7-1.8-11.8-3.3-2.9-1.5-5.4-2.7-9.2-2.7s-6.3 1.2-9.2 2.7C30.2 50.5 27 51 24 51c-5.2 0-8.7-1.8-11.8-3.3C9.3 46.2 6.8 45 3 45c-1.7 0-3-1.3-3-3s1.3-3 3-3c5.3 0 8.8 1.8 11.9 3.3 3.5 1.8 5.8 2.8 9.7 2.6l20.8-22.4c-3.5-1.3-6.8-1.6-8.9-1.5-5.5.1-10.5 2-13.3 5-1.1 1.2-3 1.3-4.2.1-1.2-1.1-1.3-3-.1-4.2 3.9-4.2 10.5-6.8 17.6-6.9 5.3-.1 10.5 1.2 14.9 3.7 3.1 1 11.2 9.6 13.5 11.9 1.5 1.5 1.5 3.8.2 5.4l-6.4 7.2c2.2 1 4.4 1.8 7.3 1.8 3.8 0 6.2-1.2 9.1-2.7C78.2 40.8 81.7 39 87 39zm3 18c0 1.7-1.3 3-3 3-3.8 0-6.3 1.2-9.2 2.7C74.7 64.2 71.2 66 66 66c-5.2 0-8.7-1.8-11.8-3.3-2.9-1.5-5.4-2.7-9.2-2.7s-6.3 1.2-9.2 2.7C32.7 64.2 29.2 66 24 66c-5.2 0-8.7-1.8-11.8-3.3C9.3 61.2 6.8 60 3 60c-1.7 0-3-1.3-3-3s1.3-3 3-3c5.3 0 8.8 1.8 11.9 3.3 2.9 1.4 5.3 2.7 9.1 2.7s6.3-1.2 9.2-2.7C36.3 55.8 39.8 54 45 54s8.7 1.8 11.8 3.3c2.9 1.4 5.4 2.7 9.2 2.7 3.8 0 6.2-1.2 9.1-2.7C78.2 55.8 81.7 54 87 54c1.7 0 3 1.3 3 3zm0 15c0 1.7-1.3 3-3 3-3.8 0-6.3 1.2-9.2 2.7C74.7 79.2 71.2 81 66 81c-5.2 0-8.7-1.8-11.8-3.3-2.9-1.5-5.4-2.7-9.2-2.7s-6.3 1.2-9.2 2.7C32.7 79.2 29.2 81 24 81c-5.2 0-8.7-1.8-11.8-3.3C9.3 76.2 6.8 75 3 75c-1.7 0-3-1.3-3-3s1.3-3 3-3c5.3 0 8.8 1.8 11.9 3.3 2.9 1.4 5.3 2.7 9.1 2.7s6.3-1.2 9.2-2.7C36.3 70.8 39.8 69 45 69s8.7 1.8 11.8 3.3c2.9 1.4 5.4 2.7 9.2 2.7 3.8 0 6.2-1.2 9.1-2.7C78.2 70.8 81.7 69 87 69c1.7 0 3 1.3 3 3zM75 12c0 3.3-2.7 6-6 6s-6-2.7-6-6 2.7-6 6-6 6 2.7 6 6zm-18 0c0 6.6 5.4 12 12 12s12-5.4 12-12S75.6 0 69 0 57 5.4 57 12z"/></defs><clipPath id="b"><use xlink:href="#a" overflow="visible"/></clipPath><path clip-path="url(#b)" d="M-5-5H95v91H-5z"/></svg>