<svg id="Layer_1" data-name="Layer 1" xmlns="http://www.w3.org/2000/svg" viewBox="0 0 101.23 89.54"><defs><style>.cls-1{fill:none}</style><clipPath id="clip-path" transform="translate(4.67 4.02)"><path class="cls-1" d="M28.86 72.72zm-5.3-62.07a2.5 2.5 0 1 1 5-.73l5.27 35.79a2.38 2.38 0 0 1 0 .8l-4.72 25.95c0 .13.06.25.09.35.36.08.86.17 1.5.26q2 .32 5.75.67a2.5 2.5 0 0 1-.49 5c-5.66-.56-8.35-1-9.43-1.58-1.42-.81-2.13-2.3-2.43-4.32a2.45 2.45 0 0 1 0-.81l4.67-26z"/></clipPath><clipPath id="clip-path-2" transform="translate(4.67 4.02)"><path class="cls-1" d="M46.13 6c-5 0-11.34 2.19-18.84 6.64a2.5 2.5 0 1 1-2.55-4.31C33 3.45 40.06 1 46.13 1S59.2 3.27 67.27 7.79a2.5 2.5 0 0 1 1.26 2.5L64.05 45.2l4.45 26c.58 2.45.21 4.48-1.69 5.58s-14.59 3.78-19.53 3.78a38.29 38.29 0 0 1-12.05-2.06 2.5 2.5 0 0 1-1.71-2.19q-1.06-13.82.65-22.31c1.7-8.48 6.58-22.38 10.83-31a127.25 127.25 0 0 1 9.31-15.58A26.79 26.79 0 0 0 46.13 6zm3.38 19.29C45.42 33.46 40.68 47 39.07 54.93q-1.47 7.27-.69 19.27a32.43 32.43 0 0 0 8.9 1.32 59.38 59.38 0 0 0 10.26-1.44c1.76-.36 3.47-.76 4.84-1.12.51-.13.95-.25 1.31-.36a2.58 2.58 0 0 0-.07-.34l-4.56-26.59a2.29 2.29 0 0 1 0-.74l4.31-33.58q-2.19-1.17-4.23-2.08a122.84 122.84 0 0 0-9.63 16z"/></clipPath><clipPath id="clip-path-3" transform="translate(4.67 4.02)"><path class="cls-1" d="M32.93 9.44a2.5 2.5 0 0 1 4.28-2.59L46.94 23a2.5 2.5 0 1 1-4.28 2.59z"/></clipPath><clipPath id="clip-path-4" transform="translate(4.67 4.02)"><path class="cls-1" d="M11.33 50.64l13.46-20.25A2.5 2.5 0 1 1 29 33.16l-15 22.5a2.5 2.5 0 0 1-3.64.58l-9-7.15A2.57 2.57 0 0 1 .5 48c-.93-2.65 1.93-8.23 9.3-19.88C16.49 17.5 21.31 11 24.49 8.27a2.5 2.5 0 1 1 3.23 3.81c-2.65 2.25-7.28 8.53-13.72 18.66q-4.83 7.68-7 11.99A24.55 24.55 0 0 0 5.51 46z"/></clipPath><clipPath id="clip-path-5" transform="translate(4.67 4.02)"><path class="cls-1" d="M67.11 30.22A2.5 2.5 0 1 0 63 33l15 22.5a2.49 2.49 0 0 0 3.63.58l9.06-7.15a2.48 2.48 0 0 0 .8-1.14c.93-2.65-1.92-8.24-9.3-19.89-6.68-10.56-11.51-17.1-14.68-19.8a2.5 2.5 0 0 0-3.24 3.82c2.65 2.25 7.29 8.53 13.7 18.66 3.24 5.11 5.59 9.12 7.06 12a27.51 27.51 0 0 1 1.46 3.27l-5.83 4.63z"/></clipPath><clipPath id="clip-path-6" transform="translate(4.67 4.02)"><path class="cls-1" d="M31.04 43.61H62v5H31.04z"/></clipPath><clipPath id="clip-path-7" transform="translate(4.67 4.02)"><path class="cls-1" d="M42.58 45.5a2.5 2.5 0 0 1 5 .63l-2.96 22.92a2.5 2.5 0 1 1-5-.64z"/></clipPath><clipPath id="clip-path-8" transform="translate(4.67 4.02)"><path class="cls-1" d="M42.66 46.71a2.5 2.5 0 1 1 4.85-1.19l5 20.19a2.5 2.5 0 0 1-4.86 1.19z"/></clipPath></defs><g clip-path="url(#clip-path)"><path d="M23.2 6.81h25.17v80.95H23.2z"/></g><g clip-path="url(#clip-path-2)"><path d="M23.18 0h55.24v89.54H23.18z"/></g><g clip-path="url(#clip-path-3)"><path d="M32.23 4.67h24.73v31.1H32.23z"/></g><g clip-path="url(#clip-path-4)"><path d="M0 6.69h39.04V65.8H0z"/></g><g clip-path="url(#clip-path-5)"><path d="M62.19 6.52h39.04v59.11H62.19z"/></g><g clip-path="url(#clip-path-6)"><path d="M30.71 42.63h40.96v15H30.71z"/></g><g clip-path="url(#clip-path-7)"><path d="M39.31 42.34h17.93v37.91H39.31z"/></g><g clip-path="url(#clip-path-8)"><path d="M42.25 42.64h19.96v35.19H42.25z"/></g></svg>