<svg id="Layer_1" data-name="Layer 1" xmlns="http://www.w3.org/2000/svg" viewBox="0 0 89.42 81.44"><defs><style>.cls-1{fill:none}</style><clipPath id="clip-path" transform="translate(-.93 -.11)"><path class="cls-1" d="M19.3 11a3.8 3.8 0 1 0 3.8 3.8 3.8 3.8 0 0 0-3.8-3.8zm0 12.6a8.8 8.8 0 1 1 8.8-8.8 8.81 8.81 0 0 1-8.8 8.8z"/></clipPath><clipPath id="clip-path-2" transform="translate(-.93 -.11)"><path class="cls-1" d="M59.5 14.8a3.8 3.8 0 1 0 3.8-3.8 3.8 3.8 0 0 0-3.8 3.8zm12.6 0a8.75 8.75 0 0 1-8.8 8.8 8.8 8.8 0 1 1 8.8-8.8z"/></clipPath></defs><path d="M53.23 78.69l-9.56-19.64-13.16-13.01V30.67l6.56-13.13V2.5l19.15 38.09v18.46l30.7-16-18.43-9.38v-5.95l18.43-6.73M62.34 56.11l12.37 22.32m.78-28.44v26.64M2.5 49.48l9.45-18.73 9.23 15.35 16.49 32.84" stroke="#000" stroke-linecap="round" stroke-linejoin="round" stroke-width="5" fill="none"/><g clip-path="url(#clip-path)"><path d="M4.57.89h27.6v27.6H4.57z"/></g><g clip-path="url(#clip-path-2)"><path d="M48.57.89h27.6v27.6h-27.6z"/></g></svg>