<svg id="Layer_1" data-name="Layer 1" xmlns="http://www.w3.org/2000/svg" viewBox="0 0 67 90.5"><defs><style>.cls-1{fill:none}</style><clipPath id="clip-path" transform="translate(4.5 5)"><path class="cls-1" d="M30.5 5A3.44 3.44 0 0 1 34 8.5a3.5 3.5 0 0 1-7 0A3.44 3.44 0 0 1 30.5 5zm0 12A8.42 8.42 0 0 0 39 8.5a8.5 8.5 0 0 0-17 0 8.42 8.42 0 0 0 8.5 8.5z"/></clipPath><clipPath id="clip-path-2" transform="translate(4.5 5)"><circle class="cls-1" cx="48" cy="31" r="2"/></clipPath><clipPath id="clip-path-3" transform="translate(4.5 5)"><path class="cls-1" d="M40.33 31.62A2.5 2.5 0 1 1 36.67 35L31 28.92a2.49 2.49 0 0 1-.56-1c-1-3.09-2.28-4.53-4-4.81-2.49-.39-3-.1-4.38 1.89-.68 1-3.36 8.4-7.53 21.09-.34 1.42-.09 2.19.78 2.82a8.49 8.49 0 0 0 5.14 1.43 2.53 2.53 0 0 1 1 .22l10.44 4.66a2.48 2.48 0 0 1 1.49 2.28v16.75c.13.82.22.89.58.89a1.21 1.21 0 0 0 1.19-.7V54.32a9 9 0 0 0-2.08-1q-4.13-1.56-8.27-3a2.51 2.51 0 0 1-1.61-2.94c.78-3.29 1.55-6.28 2.33-9 .86-3 1.76-5.07 2.88-6.28a2.51 2.51 0 0 1 3.78.13L37.66 39a2.73 2.73 0 0 0 1-.08c.83-.17 2.57-1.23 4.94-3.16a2.5 2.5 0 1 1 3.15 3.88c-3 2.4-5.22 3.79-7.06 4.17a6.16 6.16 0 0 1-5.16-.81 2.67 2.67 0 0 1-.46-.43l-3.34-4.14q-.21.61-.42 1.35-.87 3-1.74 6.59c2.09.74 4.18 1.51 6.26 2.29 3.71 1.4 5.82 3.21 5.31 5.93v19.85a6 6 0 0 1-6.14 5.7c-3.07 0-5.05-2-5.55-5.32a2.34 2.34 0 0 1 0-.38V59.15l-8.5-3.79A13.11 13.11 0 0 1 12.33 53c-2.61-1.9-3.5-4.8-2.65-8.16v-.18c4.51-13.72 7.08-20.83 8.2-22.45 2.38-3.44 4.64-4.72 9.27-4 3.7.58 6.31 3.29 7.81 7.7z"/></clipPath><clipPath id="clip-path-4" transform="translate(4.5 5)"><path class="cls-1" d="M48 35.5a4.5 4.5 0 1 0-4.5-4.5 4.49 4.49 0 0 0 4.5 4.5zm0 5a9.5 9.5 0 1 1 9.5-9.5 9.5 9.5 0 0 1-9.5 9.5z"/></clipPath><clipPath id="clip-path-5" transform="translate(4.5 5)"><path class="cls-1" d="M4 52.5h19a3.5 3.5 0 0 1 3.5 3.5v21a3.5 3.5 0 0 1-3.5 3.5H4A3.5 3.5 0 0 1 .5 77V56A3.5 3.5 0 0 1 4 52.5zm1.5 5v18h16v-18z"/></clipPath></defs><g clip-path="url(#clip-path)"><path d="M21.5 0h27v27h-27z"/></g><g clip-path="url(#clip-path-2)"><path d="M45.5 29h14v14h-14z"/></g><g clip-path="url(#clip-path-3)"><path d="M8.87 18.01h48.3v72.14H8.87z"/></g><g clip-path="url(#clip-path-4)"><path d="M38 21.5h29v29H38z"/></g><g clip-path="url(#clip-path-5)"><path d="M0 52.5h36v38H0z"/></g></svg>