<svg id="Layer_1" data-name="Layer 1" xmlns="http://www.w3.org/2000/svg" viewBox="0 0 90 90"><defs><style>.cls-1{fill:none}</style><clipPath id="clip-path" transform="translate(5 5)"><path class="cls-1" d="M22.87 44.84c-.21-1.92-.32-3.66-.37-5l-4.87.16a48 48 0 0 1-12.29-3.3 7 7 0 0 1-5.17-8.13c.33-1.49 4.17-10.95 7.17-18.42l.16-.33c1-2.49 5.67-4.64 8.33-4.81a5.13 5.13 0 0 1 5.5 4.31 4.34 4.34 0 0 1-1 3.49 5.52 5.52 0 0 1-3.5 1.82H16c0 1.41-.07 2.83-.17 4.18-.06 0-.23 1.83-.5 5.45a25.37 25.37 0 0 1 5.11-1 9.33 9.33 0 0 1 2.73.64 9.5 9.5 0 0 1 9.83-.14h14.5a9.9 9.9 0 0 1 9.83.16 8.17 8.17 0 0 1 2.67-.64 24.55 24.55 0 0 1 5.17 1q-.57-4.73-.57-5.43c-.1-1.35-.19-2.79-.26-4.2h-.84a5.15 5.15 0 0 1-3.5-1.84 4.37 4.37 0 0 1-1-3.49A5.13 5.13 0 0 1 64.5 5c2.33.17 7 2.32 8 4.81l.16.33c3 7.47 6.84 16.93 7.17 18.42a7 7 0 0 1-5.17 8.13A43.21 43.21 0 0 1 62.55 40l-4.88-.18-.34 4.95c-.54 4.68-1.62 10.23-3.83 13.66 4 7 4.83 12.61 2.67 20.41A1.83 1.83 0 0 1 54.5 80H25.67A1.62 1.62 0 0 1 24 78.67c-1.5-7.3-1.67-12.94 2.67-20.24-2.22-3.49-3.3-9-3.8-13.56l.28-.07zm47.24-21.35A5 5 0 0 1 63.58 29a21.22 21.22 0 0 0-2.22-.67 3.55 3.55 0 0 0-2 .17 5 5 0 0 1-4.63-.3 4.89 4.89 0 0 0-4.91 0 5.07 5.07 0 0 1-2.32.57H33a5 5 0 0 1-2.5-.67 4.48 4.48 0 0 0-4.62 0 5 5 0 0 1-4.56.44 3.72 3.72 0 0 0-2.18-.24c-1.13.23-1.32.28-1 .09l-.55.31a5 5 0 0 1-7.21-4.86c0-.42.07-.88.14-1.58 0-.18 0-.42.09-.86s.06-.63.08-.91c.19-2 .3-3.53.33-5v-.89a1.34 1.34 0 0 1 0-.2c-.36.87-.69 1.71-.83 2.05l-.07.18C7 24.43 5.18 29.07 5 29.73a2 2 0 0 0 1.62 2.14l.5.17c5.86 2.28 10.37 3.42 13.75 3l.43-.09a6.28 6.28 0 0 1 1.17-.11 5 5 0 0 1 5 4.81c.24 6.47 1.41 13 3.39 16.09A5 5 0 0 1 31 61c-2.79 4.7-3.44 8.29-2.56 14h23.5c1-5.09.15-9-2.78-14.08a5 5 0 0 1 .12-5.17c2-3.1 3.15-9.62 3.39-16.09A5 5 0 0 1 59 35h.27c3.43.42 8.62-.89 13.44-2.95a5 5 0 0 1 .65-.23A2 2 0 0 0 75 29.73c-.15-.66-2-5.3-5.08-13.07l-.07-.18c-.09-.21-.25-.62-.45-1.11.14 3.16.43 6.34.71 8.12z"/></clipPath><clipPath id="clip-path-2" transform="translate(5 5)"><path class="cls-1" d="M27.73 60.28l2.1-4.54c2.42 1.13 5.91 1.72 10.44 1.72S48 56.88 50 55.81l2.36 4.41c-2.85 1.52-6.87 2.24-12.11 2.24s-9.35-.71-12.52-2.18z"/></clipPath><clipPath id="clip-path-3" transform="translate(5 5)"><path class="cls-1" d="M40 5a4.05 4.05 0 0 1 4 4 4 4 0 0 1-8 0 4.05 4.05 0 0 1 4-4zm0 13a9.08 9.08 0 0 0 9-9 9 9 0 0 0-18 0 9.08 9.08 0 0 0 9 9z"/></clipPath></defs><g clip-path="url(#clip-path)"><path d="M0 5h90v85H0z"/></g><g clip-path="url(#clip-path-2)"><path d="M27.73 55.74h34.65v16.72H27.73z"/></g><g clip-path="url(#clip-path-3)"><path d="M31 0h28v28H31z"/></g></svg>