<svg data-name="Layer 1" xmlns="http://www.w3.org/2000/svg" viewBox="0 0 78 90"><path d="M13.12 82.35c15.22 8.48 37.26 3.72 51.74-1.35 6.21-.87 10.26-3.84 10.13-5.64.13-2.17-1.77-4.3-2.66-6.45C72.08 56.32 69 49.37 66.19 40 60.93 27.55 48.77 13.66 37.56 3c-9 1.74-17.16 4.71-23.18 8.62-.06 3 2 7 4 9.79 1 1.18 7.1 6.14 9.12 6.14s4.06-4 4.5-6.45l4.62-2.35c6.08 10.78 1 20.7 5.83 33.16-10.89-5.51-16.3-4.11-27.32 1.16C12 48.79 9.25 46.4 3 44.5" stroke-linejoin="round" fill="none" stroke="#040000" stroke-linecap="round" stroke-width="6"/><path d="M48.12 70.07c-9 6-19 7-27 1m21-20c1 4 4 8 10 11m-37-9c3 2 3 6 2 8m8.82-42.98c2-2 5.18 0 6.18 3" fill="none" stroke="#040000" stroke-linecap="round" stroke-width="6" stroke-miterlimit="10"/></svg>