<svg id="Layer_1" data-name="Layer 1" xmlns="http://www.w3.org/2000/svg" viewBox="0 0 94 94"><defs><style>.cls-1{fill:none}</style><clipPath id="clip-path" transform="translate(5 5)"><path class="cls-1" d="M36 12a6 6 0 1 1 6 6 6 6 0 0 1-6-6zm18 0a12 12 0 1 0-12 12 12 12 0 0 0 12-12z"/></clipPath><clipPath id="clip-path-2" transform="translate(5 5)"><path class="cls-1" d="M84 48a3 3 0 0 1-3 3c-9.22 0-16.46-3.67-21.5-9.72C54.29 35 53.32 33 49.78 33H34.22c-3.61 0-4.73 2.3-9.72 8.28S12.18 51 3 51a3 3 0 0 1 0-6c7.36 0 13-2.83 16.89-7.56C24.66 31.73 27.34 27 34.22 27h15.56c6.82 0 9.48 4.63 14.33 10.44C68.06 42.19 73.67 45 81 45a3 3 0 0 1 3 3z"/></clipPath><clipPath id="clip-path-3" transform="translate(5 5)"><path class="cls-1" d="M71.79 70.35l-19 5.47 8 2.3a3 3 0 0 1-1.66 5.76L42 78.94l-17.21 4.94a3 3 0 1 1-1.66-5.76l8-2.3-19-5.48C2.8 67.87 4.63 54 14.27 54H30v-9a3 3 0 0 1 6 0v9a6 6 0 0 1-6 6H14.27a2.32 2.32 0 0 0-.59 4.56L42 72.7l28.22-8.13a2.32 2.32 0 0 0-.58-4.57H54a6 6 0 0 1-6-6v-9a3 3 0 0 1 6 0v9h15.64c9.68 0 11.49 13.87 2.15 16.35z"/></clipPath></defs><g clip-path="url(#clip-path)"><path d="M30 0h34v34H30z"/></g><g clip-path="url(#clip-path-2)"><path d="M0 27h94v34H0z"/></g><g clip-path="url(#clip-path-3)"><path d="M6 42h81.92v52H6z"/></g></svg>