<svg width="563" height="577" xmlns="http://www.w3.org/2000/svg"><path d="M460.14 385.884l49.909 129.034C454.864 556.306 383.856 577 297.02 577c-89.269 0-161.495-26.375-216.68-79.124C26.782 445.126 0 375.334 0 288.5c0-82.777 27.186-151.35 81.56-205.724C136.743 27.592 208.563 0 297.02 0c72.227 0 134.714 24.346 187.464 73.038 51.939 47.07 77.907 108.745 77.907 185.03 0 36.519-3.651 66.95-10.955 91.297H188.68c16.231 50.315 58.836 75.473 127.817 75.473 53.561 0 101.441-12.985 143.641-38.954zM290.934 152.162c-53.562 0-89.675 25.158-108.34 75.473h197.202c0-21.1-8.115-38.953-24.346-53.561-16.23-14.608-37.736-21.912-64.516-21.912z" fill="#EE601E" fill-rule="evenodd"/></svg>