<svg data-name="Layer 1" xmlns="http://www.w3.org/2000/svg" viewBox="0 0 89.99 89.99"><path fill="#f07c00" d="M45 24.17A20.83 20.83 0 1 0 65.83 45 20.85 20.85 0 0 0 45 24.17zm0-6.44a5.45 5.45 0 0 0 5.45-5.45V5.46a5.46 5.46 0 1 0-10.91 0v6.82A5.46 5.46 0 0 0 45 17.73zm0 54.54a5.46 5.46 0 0 0-5.46 5.45v6.82a5.46 5.46 0 1 0 10.91 0v-6.82A5.45 5.45 0 0 0 45 72.27zM5.46 50.46h6.82a5.46 5.46 0 0 0 0-10.91H5.46a5.46 5.46 0 1 0 0 10.91zm79.08-10.91h-6.82a5.46 5.46 0 0 0 0 10.91h6.82a5.46 5.46 0 1 0 0-10.91zM18 25.72A5.46 5.46 0 0 0 25.72 18l-4.83-4.82a5.46 5.46 0 0 0-7.71 7.72zm54 38.56A5.46 5.46 0 0 0 64.28 72l4.82 4.83a5.46 5.46 0 0 0 7.72-7.71zm-46.28.01a5.44 5.44 0 0 0-7.71 0l-4.83 4.81a5.46 5.46 0 0 0 7.71 7.72L25.72 72a5.45 5.45 0 0 0 0-7.71zm38.57-38.57a5.43 5.43 0 0 0 7.71 0l4.82-4.82a5.46 5.46 0 0 0-7.72-7.71L64.28 18a5.44 5.44 0 0 0 .01 7.72z"/></svg>