<svg data-name="Layer 1" xmlns="http://www.w3.org/2000/svg" viewBox="0 0 94.41 110"><defs><clipPath id="a" transform="translate(4.2 4.21)"><path d="M33.37 55.59A3.41 3.41 0 0 1 30 58.33a2.93 2.93 0 0 1-.67-.07 3.4 3.4 0 0 1-2.69-4 3.46 3.46 0 0 1 4-2.71 3.38 3.38 0 0 1 2.69 4zm-2.1 13.55a3.42 3.42 0 0 1-3.34 2.74 3.05 3.05 0 0 1-.67-.07 3.43 3.43 0 1 1 4-2.74zm-2.06 13.22a3.41 3.41 0 0 1-3.38 3.07 2 2 0 0 1-.35 0 3.43 3.43 0 1 1 3.74-3.12zm-2.16 13.87A3.41 3.41 0 0 1 23.72 99a2.93 2.93 0 0 1-.67-.07 3.4 3.4 0 0 1-2.69-4 3.45 3.45 0 0 1 4-2.71 3.38 3.38 0 0 1 2.69 4zm-5.55-40a3.43 3.43 0 0 1-3.17 2.14 3.33 3.33 0 0 1-1.26-.25 3.41 3.41 0 0 1-1.9-4.43 3.45 3.45 0 0 1 4.44-1.93 3.36 3.36 0 0 1 1.91 4.4zm-4.61 12.55a3.46 3.46 0 1 1 0-.07zm-4.81 13.15a3.4 3.4 0 0 1-3.16 2.15 3.24 3.24 0 0 1-1.26-.24 3.42 3.42 0 0 1 2.54-6.36 3.37 3.37 0 0 1 1.91 4.39zm-4.7 12.88A3.42 3.42 0 0 1 4.21 97 3.29 3.29 0 0 1 3 96.71a3.42 3.42 0 0 1 2.54-6.36 3.38 3.38 0 0 1 1.91 4.4zm49.27-36.55a3.08 3.08 0 0 1-.68.07 3.43 3.43 0 1 1 3.34-4.14v.06a3.4 3.4 0 0 1-2.66 4.01zm2.11 13.55a3.14 3.14 0 0 1-.68.07 3.43 3.43 0 1 1 3.34-4.14v.06a3.4 3.4 0 0 1-2.66 4.01zm1.77 13.6a1.94 1.94 0 0 1-.34 0 3.43 3.43 0 0 1-.34-6.84 3.36 3.36 0 0 1 3.73 3v.06a3.41 3.41 0 0 1-3.05 3.78zM63 98.9a3.05 3.05 0 0 1-.67.07 3.43 3.43 0 1 1 3.34-4.15v.07A3.4 3.4 0 0 1 63 98.9zm6-40.82a3.29 3.29 0 0 1-1.26.25 3.43 3.43 0 0 1-1.28-6.61 3.37 3.37 0 0 1 4.42 1.87v.06a3.41 3.41 0 0 1-1.94 4.43zm4.42 13a3.33 3.33 0 0 1-1 .15 3.43 3.43 0 0 1-1-6.71 3.38 3.38 0 0 1 4.24 2.25v.07a3.4 3.4 0 0 1-2.3 4.22zm5 12.78a3.53 3.53 0 0 1-1.27.24 3.43 3.43 0 0 1-1.28-6.6 3.35 3.35 0 0 1 4.42 1.86v.07a3.41 3.41 0 0 1-1.93 4.41zm4.7 12.87a3.29 3.29 0 0 1-1.32.27 3.43 3.43 0 0 1-1.27-6.61 3.34 3.34 0 0 1 4.41 1.87v.06a3.4 3.4 0 0 1-1.88 4.39zm-36.64.67A3.42 3.42 0 1 1 43 94a3.41 3.41 0 0 1 3.41 3.43zm0-28.31A3.42 3.42 0 1 1 43 65.63 3.37 3.37 0 0 1 46.42 69zm0 14.17a3.42 3.42 0 1 1 0-.07zm0-28.36A3.42 3.42 0 1 1 43 51.46a3.42 3.42 0 0 1 3.41 3.42zm30-8.16H9.61a20.47 20.47 0 0 1 20.47-20.49h5.73V.79H50.2v25.46h5.73A20.47 20.47 0 0 1 76.4 46.72z" fill="none"/></clipPath></defs><g clip-path="url(#a)"><path fill="#f07c00" d="M0 0h94.41v110H0z"/></g></svg>