<svg width="510" height="580" xmlns="http://www.w3.org/2000/svg"><path d="M389.6 370.4H270.4v-120h239.2V500c-24 24-56 43.2-96 57.6-38.934 14.4-76.8 21.6-113.6 21.6-93.867 0-167.466-26.133-220.8-78.4C26.4 448.533 0 378.134 0 289.6c0-82.667 25.866-151.466 77.6-206.4C129.867 27.733 198.666 0 284 0c73.6 0 134.666 19.466 183.2 58.4l-53.6 103.2C402.4 149.867 386 140 364.4 132s-43.333-12-65.2-12c-49.6 0-89.2 14.667-118.8 44-29.6 29.333-44.4 71.2-44.4 125.6 0 51.734 15.067 92.933 45.2 123.6 30.133 30.667 70.266 46 120.4 46 14.933 0 31.733-2.933 50.4-8.8 17.6-5.867 30.133-12.267 37.6-19.2v-60.8z" fill="#FDA729" fill-rule="evenodd"/></svg>