<svg width="596" height="580" xmlns="http://www.w3.org/2000/svg"><path d="M0 290c0-82.667 27.466-151.466 82.4-206.4C137.867 28.133 209.6.4 297.6.4c87.467 0 158.666 26.4 213.6 79.2 56 52.8 84 122.933 84 210.4 0 84.267-28.266 153.6-84.8 208-56 54.4-126.933 81.6-212.8 81.6-86.934 0-158.4-26.4-214.4-79.2C27.733 447.6 0 377.467 0 290zm136 0c0 47.467 15.733 87.733 47.2 120.8 30.933 32.533 69.066 48.8 114.4 48.8 51.2 0 90.933-15.733 119.2-47.2 28.267-32.533 42.4-73.333 42.4-122.4 0-50.667-15.467-91.467-46.4-122.4-31.467-31.467-69.866-47.2-115.2-47.2-46.934 0-85.6 15.733-116 47.2C151.2 199.067 136 239.866 136 290z" fill="#FFA800" fill-rule="evenodd"/></svg>