<svg xmlns="http://www.w3.org/2000/svg" viewBox="0 0 37.74 34"><defs><style>.cls-1{fill:#fff;}</style></defs><title>icon-contacts</title><g id="Слой_2" data-name="Слой 2"><g id="Слой_1-2" data-name="Слой 1"><path class="cls-1" d="M37.28,9.38A3.8,3.8,0,0,0,35,7.53a3.84,3.84,0,0,0-2.92.29,3.79,3.79,0,0,0-1.86,2.25,3.74,3.74,0,0,0-.06,2L26,14.23A8,8,0,0,0,20.55,11V7.47a3.83,3.83,0,1,0-2,0V11A8,8,0,0,0,12.2,15.8L7.67,14.59a3.75,3.75,0,0,0-.51-1.9,3.85,3.85,0,0,0-7,.91,3.75,3.75,0,0,0,.38,2.89,3.8,3.8,0,0,0,2.33,1.78h0a3.9,3.9,0,0,0,1,.13,3.84,3.84,0,0,0,1.91-.51,3.79,3.79,0,0,0,1.4-1.39l4.53,1.21a7.78,7.78,0,0,0,1.59,5.9L10,26.91a3.86,3.86,0,0,0-4.62.6,3.78,3.78,0,0,0,0,5.38,3.86,3.86,0,0,0,5.42,0,3.78,3.78,0,0,0,.61-4.58L14.69,25a8,8,0,0,0,9.73,0l3.32,3.29a3.78,3.78,0,0,0,.61,4.58,3.86,3.86,0,0,0,5.42,0,3.78,3.78,0,0,0,0-5.38,3.86,3.86,0,0,0-4.62-.6l-3.32-3.29A7.8,7.8,0,0,0,27,16l4.14-2.2a3.84,3.84,0,0,0,6.46-1.5A3.75,3.75,0,0,0,37.28,9.38Zm-2.51,3.4A1.85,1.85,0,0,1,32.28,12a1.8,1.8,0,0,1-.14-1.39A1.82,1.82,0,0,1,33,9.56a1.84,1.84,0,0,1,.87-.22,1.87,1.87,0,0,1,.54.08,1.83,1.83,0,0,1,1.09.88,1.82,1.82,0,0,1-.75,2.47Zm-9.26,6a6,6,0,1,1-6-5.9A5.93,5.93,0,0,1,25.5,18.79Zm-7.79-15a1.84,1.84,0,1,1,1.84,1.82A1.83,1.83,0,0,1,17.71,3.8ZM3.36,16.35a1.83,1.83,0,0,1-1.12-.85,1.8,1.8,0,0,1-.18-1.38,1.85,1.85,0,0,1,3.37-.44,1.8,1.8,0,0,1,.18,1.38A1.84,1.84,0,0,1,3.36,16.35Zm6,15.14a1.85,1.85,0,0,1-2.6,0,1.82,1.82,0,0,1,0-2.58,1.85,1.85,0,0,1,2.6,0A1.82,1.82,0,0,1,9.34,31.49Zm23-2.58a1.82,1.82,0,0,1,0,2.58,1.85,1.85,0,0,1-2.6,0,1.82,1.82,0,0,1,0-2.58,1.85,1.85,0,0,1,2.6,0Z"/></g></g></svg>