<svg xmlns="http://www.w3.org/2000/svg" viewBox="0 0 37 32"><defs><style>.cls-1{fill:#fff;}</style></defs><title>icon-comment</title><g id="Слой_2" data-name="Слой 2"><g id="Слой_1-2" data-name="Слой 1"><path class="cls-1" d="M35.45,28.23a6.05,6.05,0,0,1-2.21-2.57A14.69,14.69,0,0,0,37,16,14.9,14.9,0,0,0,31.54,4.64,21.33,21.33,0,0,0,18,0,18.65,18.65,0,0,0,5.46,4.64,14.9,14.9,0,0,0,0,16,14.9,14.9,0,0,0,5.46,27.35,18.64,18.64,0,0,0,18,32a22.38,22.38,0,0,0,10-2,11,11,0,0,0,5.12.88,12.41,12.41,0,0,0,1.76-.12,1.37,1.37,0,0,0,.57-2.53Zm-2.33.82a8.94,8.94,0,0,1-4.59-1.17.94.94,0,0,0-.94,0A20.55,20.55,0,0,1,18,30C8.83,30,2,23.81,2,16S8.83,2,18,2,35,8.19,35,16a12.65,12.65,0,0,1-3.53,8.86.89.89,0,0,0-.19.94,8.15,8.15,0,0,0,2.2,3.25Z"/><path class="cls-1" d="M25,20H12a1,1,0,0,0,0,2H25a1,1,0,0,0,0-2Z"/><path class="cls-1" d="M25,10H12a1.06,1.06,0,0,0-1,1,1.06,1.06,0,0,0,1,1H25a1.06,1.06,0,0,0,1-1A1.06,1.06,0,0,0,25,10Z"/><path class="cls-1" d="M25,15H12a1,1,0,1,0,0,2H25a1,1,0,1,0,0-2Z"/></g></g></svg>