<svg xmlns="http://www.w3.org/2000/svg" viewBox="0 0 39 31"><defs><style>.cls-1{fill:#fff;}</style></defs><title>career-icon</title><g id="Слой_2" data-name="Слой 2"><g id="Слой_1-2" data-name="Слой 1"><path class="cls-1" d="M36.67,7.51a1,1,0,1,0-1.61,1.11,8.59,8.59,0,0,1,2,5.57,8.71,8.71,0,0,1-2,5.63,1,1,0,0,0,1.6,1.12A10.51,10.51,0,0,0,39,14.19,10.49,10.49,0,0,0,36.67,7.51Z"/><path class="cls-1" d="M33.46,10.27a1,1,0,0,0-1.61,1.11C32.6,12.47,33,12.79,33,14.2s-.42,1.77-1.17,2.85a1,1,0,0,0,1.6,1.12c1-1.43,1.53-2.15,1.53-4S34.44,11.69,33.46,10.27Z"/><path class="cls-1" d="M6.5,28.83A2.94,2.94,0,0,0,9.26,31h2.63A2.08,2.08,0,0,0,14,28.37L13,21l0-.46a2,2,0,0,0,1.67-.95,2.55,2.55,0,0,0,.56.18s.86.17,1.64.41c8.15,2.52,11.41,6.71,11.44,6.75a1.69,1.69,0,0,0,1.33.8h0A1.23,1.23,0,0,0,30.72,27a2.14,2.14,0,0,0,.19-1V1.68C30.91,0,29.74,0,29.6,0a1.68,1.68,0,0,0-1.33.8S25,5,16.84,7.55c-.77.24-1.63.41-1.64.41a2.58,2.58,0,0,0-.56.18A2.11,2.11,0,0,0,13,7H5A2.36,2.36,0,0,0,2.8,9.15v1.07a2.77,2.77,0,0,0-.42,0A2.24,2.24,0,0,0,0,12.26v3.4a2.24,2.24,0,0,0,2.38,2.07,2.67,2.67,0,0,0,.42,0v.88a2,2,0,0,0,2,2ZM2,16c-.24,0,0-.32,0-.36V12.29S1.76,12,2,12a7,7,0,0,1,1,0v4A6.85,6.85,0,0,1,2,16ZM12.05,28.83a.15.15,0,0,1-.17.22H9.26a1,1,0,0,1-.86-.68L7,21h4ZM5,19V9h8l0,1.66h0v6.4h0L13,19Zm24,6a27.67,27.67,0,0,0-11.59-6.69c-.87-.27-1.8-.45-1.84-.46a.88.88,0,0,1-.65-.79v-6.4a.89.89,0,0,1,.65-.79s1-.19,1.84-.46C23.85,7.44,27.48,4.52,29,3Z"/></g></g></svg>