<svg xmlns="http://www.w3.org/2000/svg" viewBox="0 0 35.93 36"><defs><style>.cls-1{fill:#fff;}</style></defs><title>icon-clients</title><g id="Слой_2" data-name="Слой 2"><g id="Слой_1-2" data-name="Слой 1"><path class="cls-1" d="M9.11,11.35A5.68,5.68,0,1,0,3.4,5.68,5.7,5.7,0,0,0,9.11,11.35Zm0-9.46A3.79,3.79,0,1,1,5.31,5.68,3.8,3.8,0,0,1,9.11,1.89Z"/><path class="cls-1" d="M26.81,11.35A5.68,5.68,0,1,0,21.1,5.68,5.7,5.7,0,0,0,26.81,11.35Zm0-9.46A3.79,3.79,0,1,1,23,5.68,3.8,3.8,0,0,1,26.81,1.89Z"/><path class="cls-1" d="M35.91,18.66l-1-4.83a3.46,3.46,0,0,0-3.3-2.69h-2.1a1,1,0,0,0-.68.28l-2,2-2-2a1,1,0,0,0-.68-.28H22a3.3,3.3,0,0,0-1.63.45,7.1,7.1,0,0,0-5-.1,3.26,3.26,0,0,0-1.45-.35h-2.1a1,1,0,0,0-.68.28l-2,2-2-2a1,1,0,0,0-.68-.28H4.29A3.46,3.46,0,0,0,1,13.83L0,18.66a.94.94,0,0,0,.2.78,1,1,0,0,0,.74.35h9.91a7.08,7.08,0,0,0,13.74,0H35a1,1,0,0,0,.74-.35A.94.94,0,0,0,35.91,18.66Zm-33-4.46A1.56,1.56,0,0,1,4.29,13H6l2.44,2.42a1,1,0,0,0,1.35,0L12.23,13h.63a7,7,0,0,0-2.19,4.87H2.12Zm14.88,9.05a5.14,5.14,0,1,1,5.17-5.14A5.16,5.16,0,0,1,17.74,23.26ZM24.8,17.9A7,7,0,0,0,22.61,13H23.7l2.44,2.42a1,1,0,0,0,1.35,0L29.93,13h1.71a1.56,1.56,0,0,1,1.43,1.17L34,20H25Z"/><path class="cls-1" d="M27.91,28.66a4.17,4.17,0,0,0-4-3.24h-2.7a1,1,0,0,0-.68.28l-2.82,2.8-2.82-2.8a1,1,0,0,0-.68-.28h-2.7a4.17,4.17,0,0,0-4,3.24L6.31,34.87a.94.94,0,0,0,.2.78,1,1,0,0,0,.74.35h21a1,1,0,0,0,.74-.35.94.94,0,0,0,.2-.78ZM8.41,34.11l1-5.08a2.3,2.3,0,0,1,2.11-1.72h2.31l3.22,3.2a1,1,0,0,0,1.35,0l3.22-3.2h2.31A2.3,2.3,0,0,1,26,29l1,5.08Z"/></g></g></svg>