<svg xmlns="http://www.w3.org/2000/svg" viewBox="0 0 34.99 36"><defs><style>.cls-1{fill:#fff;}</style></defs><title>Ресурс 1</title><g id="Слой_2" data-name="Слой 2"><g id="Слой_1-2" data-name="Слой 1"><path class="cls-1" d="M30.22,13.07v-.42a13,13,0,0,0-3.41-8.92A11.78,11.78,0,0,0,18.09,0H16.91A11.78,11.78,0,0,0,8.19,3.73a13,13,0,0,0-3.41,8.92v.42A5.12,5.12,0,0,0,0,18.15v2.22a5.11,5.11,0,0,0,5.12,5.09H8a.94.94,0,0,0,.94-.93V14A.94.94,0,0,0,8,13.05H6.66v-.41c0-6.15,4.41-10.78,10.25-10.78h1.18c5.85,0,10.25,4.63,10.25,10.78v.41H27a.94.94,0,0,0-.94.93V24.53a.94.94,0,0,0,.94.93H28.3c-.38,4.87-3.75,6-5.31,6.25a3.3,3.3,0,0,0-3.13-2.26H17.51a3.28,3.28,0,1,0,0,6.55h2.35A3.3,3.3,0,0,0,23,33.59a8.89,8.89,0,0,0,3.18-1.08c1.7-1,3.7-3,4-7.06A5.11,5.11,0,0,0,35,20.37V18.14A5.09,5.09,0,0,0,30.22,13.07ZM7.08,23.59H5.14a3.24,3.24,0,0,1-3.24-3.23V18.14a3.24,3.24,0,0,1,3.24-3.23H7.08ZM19.86,34.13H17.51a1.41,1.41,0,1,1,0-2.81h2.35a1.41,1.41,0,1,1,0,2.81ZM33.12,20.37a3.24,3.24,0,0,1-3.24,3.23H27.93V14.92h1.95a3.24,3.24,0,0,1,3.24,3.23Z"/></g></g></svg>