<svg xmlns="http://www.w3.org/2000/svg" viewBox="0 0 29 36.73"><defs><style>.cls-1{fill:#fff;}</style></defs><title>Ресурс 1</title><g id="Слой_2" data-name="Слой 2"><g id="Слой_1-2" data-name="Слой 1"><path class="cls-1" d="M21,15.29a16.72,16.72,0,0,1-2.32-3.62c-1.51,1.61-4.74,3.51-11.6,3.52a3,3,0,0,0,.18,1.26,2.56,2.56,0,0,0,.79,1.24.92.92,0,0,1,.6,0,1,1,0,0,1,.55.52c1,2.35,3,5.08,5.24,5.08a4.49,4.49,0,0,0,3.18-1.82,6.31,6.31,0,0,1-1.19.12h-.12a1.3,1.3,0,0,1-1,.53H13.66a1.33,1.33,0,0,1-1.3-1.36v-.42A1.35,1.35,0,0,1,13.66,19h1.67a1.32,1.32,0,0,1,1.12.67A4,4,0,0,0,18,19.39C19.42,18.84,20.47,17.43,21,15.29ZM14.38,1.94a3.11,3.11,0,0,0-2.62,1.47,11.19,11.19,0,0,1,2.66-.3h0a12.56,12.56,0,0,1,2.9.35A3.63,3.63,0,0,0,14.38,1.94Zm6.07,5.68C19.26,6,17.24,5.07,14.41,5h0A6.51,6.51,0,0,0,9.43,7c-1.69,1.92-1.91,4.84-1.91,6.27,5-.06,7.64-1.19,9-2.15a4,4,0,0,0,1.66-2,.93.93,0,0,1,1-.79,1,1,0,0,1,.87,1,7.26,7.26,0,0,0,1.38,3.28A6.84,6.84,0,0,0,20.44,7.62ZM18.6,26.73a.85.85,0,0,1-.85-.94V24.1a5.62,5.62,0,0,1-3.21,1.14A5.73,5.73,0,0,1,11.21,24v1.76a.92.92,0,0,1-.93.94h-1l5.24,4.19,5.24-4.19ZM.48,36.73A1,1,0,0,1,0,35.86c0-3.36,2.92-11.1,6.75-11.1H9.41V22.1a12.17,12.17,0,0,1-1.55-2.48,2,2,0,0,1-.51-.16,4.09,4.09,0,0,1-1.81-2.37,4.18,4.18,0,0,1,.1-3.4c-.07-1.39,0-5.28,2.36-8A7.18,7.18,0,0,1,9.31,4.51,5.19,5.19,0,0,1,14.38,0a5.45,5.45,0,0,1,5.3,4.41A7.31,7.31,0,0,1,22,6.48a9.41,9.41,0,0,1,1.21,7.21c.68.69.83,1.91.31,3.4A4.91,4.91,0,0,1,22.36,19a2.26,2.26,0,0,1-1.22.67,13.7,13.7,0,0,1-1.59,2.59v2.54h2.71c3.83,0,6.75,7.74,6.75,11.1,0,.38-.21-.27-.54-.11,0,.5-1.74.11-1.38-.47-.29-2.71-2.36-7.87-4.36-8.46l-7.63,6.11a.93.93,0,0,1-1.17,0L6.28,26.83c-2,.59-4.08,5.78-4.36,8.49C1.74,35.23,2.17,36.58.48,36.73Z"/></g></g></svg>