<?xml version="1.0" encoding="UTF-8" standalone="no"?>
<!-- Created with Inkscape (http://www.inkscape.org/) -->

<svg
   xmlns:dc="http://purl.org/dc/elements/1.1/"
   xmlns:cc="http://creativecommons.org/ns#"
   xmlns:rdf="http://www.w3.org/1999/02/22-rdf-syntax-ns#"
   xmlns:svg="http://www.w3.org/2000/svg"
   xmlns="http://www.w3.org/2000/svg"
   xmlns:sodipodi="http://sodipodi.sourceforge.net/DTD/sodipodi-0.dtd"
   xmlns:inkscape="http://www.inkscape.org/namespaces/inkscape"
   width="43.421299mm"
   height="16.064177mm"
   viewBox="0 0 43.421299 16.064177"
   version="1.1"
   id="svg8"
   inkscape:version="0.92.1 r15371"
   sodipodi:docname="рисунок.svg">
  <defs
     id="defs2" />
  <sodipodi:namedview
     id="base"
     pagecolor="#ffffff"
     bordercolor="#666666"
     borderopacity="1.0"
     inkscape:pageopacity="0.0"
     inkscape:pageshadow="2"
     inkscape:zoom="0.35"
     inkscape:cx="-596.51542"
     inkscape:cy="290.35752"
     inkscape:document-units="mm"
     inkscape:current-layer="layer1"
     showgrid="false"
     fit-margin-top="0"
     fit-margin-left="0"
     fit-margin-right="0"
     fit-margin-bottom="0"
     inkscape:window-width="1366"
     inkscape:window-height="705"
     inkscape:window-x="-8"
     inkscape:window-y="-8"
     inkscape:window-maximized="1" />
  <metadata
     id="metadata5">
    <rdf:RDF>
      <cc:Work
         rdf:about="">
        <dc:format>image/svg+xml</dc:format>
        <dc:type
           rdf:resource="http://purl.org/dc/dcmitype/StillImage" />
        <dc:title></dc:title>
      </cc:Work>
    </rdf:RDF>
  </metadata>
  <g
     inkscape:label="Layer 1"
     inkscape:groupmode="layer"
     id="layer1"
     transform="translate(-135.52744,-209.59292)">
    <g
       id="g4507"
       transform="matrix(0.26458333,0,0,0.26458333,113.17994,190.38496)">
	<g
   id="g4497">
		<g
   id="g4489">
			<g
   id="g4487">
				<path
   id="path4485"
   d="m 155.602,97.332 c 1.961,0 3.57,0.744 4.825,2.467 l 1.961,-1.801 c -1.451,-1.879 -3.491,-3.289 -6.943,-3.289 -5.649,0 -9.454,4.307 -9.454,9.906 0,5.638 3.805,9.945 9.454,9.945 3.452,0 5.492,-1.41 6.943,-3.289 l -1.961,-1.801 c -1.255,1.684 -2.864,2.467 -4.825,2.467 -4.041,0 -6.551,-3.132 -6.551,-7.322 0,-4.189 2.51,-7.283 6.551,-7.283 z m 18.241,-2.623 c -5.414,0 -9.336,4.424 -9.336,9.906 0,5.912 4.041,9.945 9.65,9.945 3.099,0 5.649,-1.018 7.532,-2.897 l -1.412,-1.918 c -1.491,1.527 -3.687,2.388 -5.845,2.388 -4.08,0 -6.59,-2.976 -6.826,-6.539 h 15.338 v -0.744 c 0,-5.677 -3.373,-10.141 -9.101,-10.141 z m -6.237,8.732 c 0.157,-2.897 2.158,-6.304 6.198,-6.304 4.315,0 6.198,3.485 6.237,6.304 z m 28.872,-8.732 c -2.824,0 -5.413,1.645 -6.747,3.211 v -2.741 h -2.942 v 18.911 h 2.942 v -13.821 c 1.098,-1.527 3.295,-2.937 5.61,-2.937 2.55,0 4.237,1.057 4.237,4.385 v 12.373 h 2.942 v -13.273 c 0,-4.111 -2.08,-6.108 -6.042,-6.108 z m 16.477,17.228 c -1.295,0 -1.922,-1.018 -1.922,-2.427 V 97.763 h 3.844 v -2.584 h -3.844 v -5.168 h -2.942 v 5.168 h -3.138 v 2.584 h 3.138 v 12.373 c 0,2.819 1.412,4.424 4.197,4.424 1.726,0 2.785,-0.509 3.531,-1.214 l -0.863,-2.193 c -0.393,0.432 -1.178,0.784 -2.001,0.784 z m 13.416,-17.228 c -5.414,0 -9.336,4.424 -9.336,9.906 0,5.912 4.041,9.945 9.65,9.945 3.099,0 5.649,-1.018 7.532,-2.897 l -1.412,-1.918 c -1.491,1.527 -3.688,2.388 -5.845,2.388 -4.08,0 -6.59,-2.976 -6.826,-6.539 h 15.338 v -0.744 c 0,-5.677 -3.374,-10.141 -9.101,-10.141 z m -6.237,8.732 c 0.157,-2.897 2.158,-6.304 6.198,-6.304 4.315,0 6.198,3.485 6.237,6.304 z m 22.125,-5.208 v -3.054 h -2.942 v 18.911 h 2.942 V 100.7 c 0.863,-1.527 3.334,-3.015 5.139,-3.015 0.471,0 0.824,0.039 1.177,0.117 v -3.015 c -2.59,10e-4 -4.786,1.449 -6.316,3.446 z"
   inkscape:connector-curvature="0"
   style="fill:#ffffff" />

			</g>

		</g>

		<g
   id="g4495">
			<g
   id="g4493">
				<path
   id="path4491"
   d="m 94.654,99.181 c 1.711,0 3.073,0.699 3.967,2.019 l 3.228,-3.028 c -1.245,-1.708 -3.578,-3.377 -7.429,-3.377 -5.795,0 -9.957,4.076 -9.957,9.821 0,5.784 4.162,9.86 9.957,9.86 3.85,0 6.184,-1.669 7.429,-3.416 l -3.228,-2.989 c -0.895,1.242 -2.256,2.019 -3.967,2.019 -2.995,0 -5.095,-2.213 -5.095,-5.474 0,-3.261 2.1,-5.435 5.095,-5.435 z m 19.296,-4.387 c -2.956,0 -5.912,0.932 -8.206,2.95 l 1.867,3.3 c 1.595,-1.475 3.461,-2.213 5.484,-2.213 2.489,0 4.123,1.242 4.123,3.144 v 2.523 c -1.245,-1.475 -3.461,-2.29 -5.951,-2.29 -2.995,0 -6.534,1.669 -6.534,6.056 0,4.193 3.539,6.211 6.534,6.211 2.45,0 4.667,-0.893 5.951,-2.407 v 1.941 h 4.94 v -12.112 c -0.001,-5.395 -3.929,-7.103 -8.208,-7.103 z m 3.267,14.713 c -0.817,1.087 -2.372,1.63 -3.967,1.63 -1.945,0 -3.539,-1.009 -3.539,-2.756 0,-1.824 1.595,-2.834 3.539,-2.834 1.595,0 3.15,0.543 3.967,1.63 z"
   inkscape:connector-curvature="0"
   style="fill:#ffffff" />

			</g>

		</g>

	</g>

	<g
   id="g4505">
		<path
   id="path4499"
   d="m 139.703,72.597 c -1.37,0 -2.48,1.076 -2.48,2.403 v 43.59 c 0,1.327 1.11,2.403 2.48,2.403 1.37,0 2.48,-1.076 2.48,-2.403 V 75 c 0,-1.327 -1.11,-2.403 -2.48,-2.403 z"
   inkscape:connector-curvature="0"
   style="clip-rule:evenodd;fill:#ffffff;fill-rule:evenodd" />

		<path
   id="path4501"
   d="m 129.981,78.709 c -0.042,-0.004 -0.083,-0.01 -0.125,-0.012 -0.026,-0.001 -0.05,-0.007 -0.076,-0.007 -0.043,0 -0.083,0.01 -0.125,0.012 -0.118,0.003 -0.234,0.013 -0.349,0.034 -0.022,0.004 -0.043,0.01 -0.065,0.014 -0.138,0.028 -0.272,0.068 -0.404,0.121 -0.021,0.008 -0.041,0.019 -0.062,0.028 -0.111,0.049 -0.219,0.103 -0.323,0.17 -0.074,0.046 -0.142,0.099 -0.21,0.152 -0.029,0.024 -0.063,0.04 -0.091,0.066 l -0.074,0.066 c -0.023,0.021 -0.046,0.039 -0.068,0.061 l -7.123,6.369 c -0.989,0.884 -1.051,2.429 -0.138,3.45 0.913,1.021 2.455,1.132 3.444,0.247 L 127.3,86.7 v 37.981 c 0,1.327 1.11,2.403 2.48,2.403 1.37,0 2.48,-1.076 2.48,-2.403 v -43.59 c -0.001,-1.259 -1.005,-2.282 -2.279,-2.382 z"
   inkscape:connector-curvature="0"
   style="clip-rule:evenodd;fill:#ffffff;fill-rule:evenodd" />

		<circle
   id="circle4503"
   r="5.3540001"
   cy="127.958"
   cx="119.235"
   style="clip-rule:evenodd;fill:#ffffff;fill-rule:evenodd" />

	</g>

</g>
  </g>
</svg>
