<svg xmlns="http://www.w3.org/2000/svg" viewBox="0 0 63.59 62.24"><defs><style>.cls-1{fill:#f6aa1c;}.cls-2{fill:#fff;}</style></defs><title>services-circle-icon-3</title><g id="Слой_2" data-name="Слой 2"><g id="Layer_1" data-name="Layer 1"><path class="cls-1" d="M38,0A25.64,25.64,0,1,0,63.59,25.64,25.64,25.64,0,0,0,38,0Zm0,13.12a12.46,12.46,0,0,1,7.62,2.58l-4.88,4.88a5.76,5.76,0,0,0-5.47,0L30.33,15.7A12.47,12.47,0,0,1,38,13.12ZM25.43,25.64A12.47,12.47,0,0,1,28,18l4.88,4.89a5.75,5.75,0,0,0,0,5.47L28,33.26A12.47,12.47,0,0,1,25.43,25.64ZM38,38.16a12.47,12.47,0,0,1-7.62-2.58l4.88-4.88a5.75,5.75,0,0,0,5.47,0l4.88,4.88A12.46,12.46,0,0,1,38,38.16Zm9.94-4.9L43,28.38a5.76,5.76,0,0,0,0-5.47L47.89,18a12.52,12.52,0,0,1,0,15.24Z"/><path class="cls-2" d="M33.39,43.07A1.37,1.37,0,0,0,32,41.7H29.21a13,13,0,0,0-.95-2.27l2-2a1.37,1.37,0,0,0,0-1.94L26.75,32a1.37,1.37,0,0,0-1.94,0l-2,2A13.06,13.06,0,0,0,20.54,33V30.22a1.37,1.37,0,0,0-1.37-1.37h-5a1.37,1.37,0,0,0-1.37,1.37V33a12.91,12.91,0,0,0-2.27.95l-2-2a1.37,1.37,0,0,0-1.94,0L3.14,35.49a1.37,1.37,0,0,0,0,1.94l2,2a13,13,0,0,0-.95,2.27H1.37A1.37,1.37,0,0,0,0,43.07v5A1.37,1.37,0,0,0,1.37,49.4H4.18a12.88,12.88,0,0,0,.95,2.27l-2,2a1.37,1.37,0,0,0,0,1.94l3.51,3.51a1.37,1.37,0,0,0,1.94,0l2-2a12.91,12.91,0,0,0,2.28.95v2.81a1.37,1.37,0,0,0,1.37,1.37h5a1.37,1.37,0,0,0,1.37-1.37V58.06a13,13,0,0,0,2.28-.95l2,2a1.37,1.37,0,0,0,1.94,0l3.51-3.51a1.37,1.37,0,0,0,0-1.94l-2-2a13,13,0,0,0,.95-2.27H32A1.37,1.37,0,0,0,33.39,48ZM16.69,54.24a8.69,8.69,0,1,1,8.69-8.69A8.7,8.7,0,0,1,16.69,54.24Z"/><path class="cls-2" d="M16.69,39.09a6.46,6.46,0,1,0,6.46,6.46A6.47,6.47,0,0,0,16.69,39.09Z"/></g></g></svg>