<svg xmlns="http://www.w3.org/2000/svg" viewBox="0 0 95.46 111.45"><defs><style>.cls-1{fill:#f8aa1b;}.cls-2{fill:#6b5382;}</style></defs><title>services-circle-icon-2-pages</title><g id="Слой_2" data-name="Слой 2"><g id="Layer_1" data-name="Layer 1"><path class="cls-1" d="M13.84,38.22V52h6V77c0,2.66,3.31,7,6,7h25V39c0-2.66-3.08-6-5.77-6H19.7S13.84,32.62,13.84,38.22Z"/><path class="cls-1" d="M52.86,39V84h25c2.7,0,6-3.34,6-6V52h6V38c0-2.66-3-5-5.72-5H58.76C56.06,33,52.86,36.33,52.86,39Z"/><path class="cls-1" d="M66.86,29c3.21,0,8.88-.75,11.19-3A12,12,0,0,0,78,8.9,12.09,12.09,0,0,0,69.5,5.37,24.32,24.32,0,0,0,58.59,8l1.07-6.46L50,0,49,6.12A19.56,19.56,0,0,0,35.32.54,12.16,12.16,0,0,0,23.12,12.61a5.79,5.79,0,0,0,.55,2.55c-1-.06-2-.13-3-.13a49.37,49.37,0,0,0-10.84,1.2L12,25.64a39.84,39.84,0,0,1,21.43,1.27c.84.82,2.46,1.17,3.44,2.09ZM45.09,21.53a49.28,49.28,0,0,0-6.29-3A49.45,49.45,0,0,1,33,12a2.44,2.44,0,0,1,2.36-1.82,9.72,9.72,0,0,1,9.76,9.66v1.68ZM69.5,15a2.26,2.26,0,0,1,1.65.71,2.4,2.4,0,0,1,0,3.41,2.35,2.35,0,0,1-1.65.71A82.89,82.89,0,0,0,58,20.53,14.69,14.69,0,0,1,69.5,15Z"/><path class="cls-2" d="M89.56,72.14c-5.24,2.54-23.49,9.12-23.49,9.12L44.5,79.92s12.34-3.43,17.12-4.51,2.71-6.48.06-6.48-25.74,1-25.74,1L20.62,75.41l4.06,25.67s3.18-5.64,6.33-5.64,31.76,0,34,0c3.72-.74,26.59-16,29.3-17.79S94.81,69.6,89.56,72.14Z"/><path class="cls-2" d="M0,78.17v33.28l23.49-4.39-5.87-32Z"/></g></g></svg>