<svg xmlns="http://www.w3.org/2000/svg" viewBox="0 0 142.52 80.05"><defs><style>.cls-1{fill:#6b5382;}.cls-2{fill:#f6aa1c;}</style></defs><title>services-circle-icon-1-pages</title><g id="Слой_2" data-name="Слой 2"><g id="Layer_1" data-name="Layer 1"><path class="cls-1" d="M0,69.09H48v-14H0Z"/><path class="cls-2" d="M47.36,76.68c34.71,14.18,67.58-18.75,53.25-53.45A36.56,36.56,0,0,0,80.69,3.38C46-10.81,13.11,22.12,27.44,56.82A36.56,36.56,0,0,0,47.36,76.68ZM50,55.84c.36-1.32.73-2.62,1.13-3.94.46-1.52.9-1.69,2.29-1A22.41,22.41,0,0,0,61,53.19a9.33,9.33,0,0,0,4.94-.66,3.85,3.85,0,0,0,.93-6.76,12.1,12.1,0,0,0-2.82-1.66,67.06,67.06,0,0,1-7.72-3.44C52.4,38.32,49.88,35,50.18,30.24c.33-5.43,3.41-8.84,8.38-10.63,2.05-.76,2.05-.73,2.09-2.88V14.54c0-1.62.33-1.89,1.92-2h4.84c.38,5.88-.73,5.77,2.52,6.26a21.51,21.51,0,0,1,5.34,1.59,1.59,1.59,0,0,1,1,2.09C75.85,24,75.46,25.5,75,27s-.9,1.59-2.22,1a17,17,0,0,0-8.48-1.69,5.82,5.82,0,0,0-2.25.46,3.2,3.2,0,0,0-.79,5.7,13.84,13.84,0,0,0,3.68,2.05,67.71,67.71,0,0,1,6.73,3c6.86,3.81,8.71,12.42,3.88,18.28A12.88,12.88,0,0,1,68.8,60a1.87,1.87,0,0,0-1.62,2.12c.09,1.71-.08,3.36.05,5.14-1.75.09-3.64.11-5.45.06a1.55,1.55,0,0,1-1.66-1.76c0-.86,0-1.72,0-2.58,0-1.89-.07-2-1.92-2.28a23.17,23.17,0,0,1-6.79-2C49.74,58,49.58,57.6,50,55.84Z"/><path class="cls-1" d="M142.52,41.09h-33v14l-27-19.44a1.78,1.78,0,0,1,0-2.93l27-19.63v14h33Z"/></g></g></svg>