<svg xmlns="http://www.w3.org/2000/svg" viewBox="0 0 97.5 90.72"><defs><style>.cls-1{fill:#f6aa1c;}.cls-2{fill:#6b5382;}</style></defs><title>services-circle-icon-3-pages</title><g id="Слой_2" data-name="Слой 2"><g id="Layer_1" data-name="Layer 1"><path class="cls-1" d="M58.41,0A39,39,0,1,0,97.5,39,39,39,0,0,0,58.41,0Zm0,19.94A19.05,19.05,0,0,1,70,23.86l-7.45,7.42a8.8,8.8,0,0,0-8.33,0l-7.45-7.42A19,19,0,0,1,58.41,19.94ZM39.31,39a18.91,18.91,0,0,1,3.94-11.58l7.45,7.42a8.72,8.72,0,0,0,0,8.31l-7.45,7.42A18.93,18.93,0,0,1,39.31,39ZM58.41,58a19.06,19.06,0,0,1-11.61-3.93l7.45-7.42a8.79,8.79,0,0,0,8.33,0L70,54.07A19,19,0,0,1,58.41,58Zm15.15-7.45-7.44-7.42a8.73,8.73,0,0,0,0-8.31l7.44-7.42a19,19,0,0,1,0,23.15Z"/><path class="cls-2" d="M50.91,61.57a2.09,2.09,0,0,0-2.09-2.08H44.53A19.78,19.78,0,0,0,43.09,56l3-3a2.08,2.08,0,0,0,0-2.94l-5.35-5.33a2.09,2.09,0,0,0-3,0l-3,3a19.91,19.91,0,0,0-3.46-1.44V42.05A2.08,2.08,0,0,0,29.23,40H21.67a2.08,2.08,0,0,0-2.09,2.08v4.27a19.78,19.78,0,0,0-3.47,1.44l-3-3a2.09,2.09,0,0,0-3,0L4.78,50.07a2.08,2.08,0,0,0,0,2.94l3,3a19.77,19.77,0,0,0-1.44,3.45H2.09A2.09,2.09,0,0,0,0,61.57v7.54a2.09,2.09,0,0,0,2.09,2.08H6.38a19.58,19.58,0,0,0,1.44,3.46l-3,3a2.08,2.08,0,0,0,0,2.94L10.13,86a2.09,2.09,0,0,0,3,0l3-3a19.77,19.77,0,0,0,3.47,1.44v4.27a2.08,2.08,0,0,0,2.09,2.08h7.56a2.09,2.09,0,0,0,2.09-2.08V84.36a19.77,19.77,0,0,0,3.47-1.44l3,3a2.1,2.1,0,0,0,3,0l5.35-5.33a2.08,2.08,0,0,0,0-2.94l-3-3a19.62,19.62,0,0,0,1.44-3.46h4.29a2.08,2.08,0,0,0,2.09-2.08Zm-25.45,17A13.21,13.21,0,1,1,38.7,65.35,13.24,13.24,0,0,1,25.45,78.55Z"/><path class="cls-2" d="M25.45,55.52a9.82,9.82,0,1,0,9.85,9.82A9.85,9.85,0,0,0,25.45,55.52Z"/></g></g></svg>