<svg xmlns="http://www.w3.org/2000/svg" viewBox="0 0 91.99 50.96"><defs><style>.cls-1{fill:#fff;}.cls-2{fill:#f6aa1c;}</style></defs><title>services-circle-icon-1</title><g id="Слой_2" data-name="Слой 2"><g id="Layer_1" data-name="Layer 1"><path class="cls-1" d="M92,26.5H70.66v8.3L53.54,22.44a1.12,1.12,0,0,1,0-1.86L70.66,8.73V17H92Z"/><path class="cls-2" d="M40.89,51A25.48,25.48,0,1,0,15.41,25.47,25.48,25.48,0,0,0,40.89,51ZM32,35.55c.23-.84.46-1.67.72-2.51s.57-1.07,1.46-.61A14.24,14.24,0,0,0,39,33.86a6,6,0,0,0,3.14-.42,2.45,2.45,0,0,0,.59-4.3,7.69,7.69,0,0,0-1.79-1.05A42.69,42.69,0,0,1,36,25.89c-2.51-1.5-4.11-3.58-3.92-6.64.21-3.46,2.17-5.63,5.34-6.77,1.31-.49,1.31-.46,1.33-1.83V9.26c0-1,.21-1.2,1.22-1.24h.95C43.1,8,43.1,8,43.1,10.2c0,1.54,0,1.56,1.54,1.79A13.66,13.66,0,0,1,48,13a1,1,0,0,1,.65,1.33c-.27.95-.53,1.9-.84,2.82s-.57,1-1.41.61A10.83,10.83,0,0,0,41,16.7,3.71,3.71,0,0,0,39.6,17a2,2,0,0,0-.51,3.63,8.79,8.79,0,0,0,2.34,1.31,43.27,43.27,0,0,1,4.28,1.94,7.66,7.66,0,0,1,2.47,11.64,8.21,8.21,0,0,1-4.26,2.72,1.19,1.19,0,0,0-1,1.35c0,.76,0,1.5,0,2.26a.93.93,0,0,1-1,1.05c-.8,0-1.62,0-2.43,0a1,1,0,0,1-1.06-1.12c0-.55,0-1.1,0-1.64,0-1.2,0-1.26-1.22-1.45a14.77,14.77,0,0,1-4.32-1.24C31.8,36.94,31.69,36.67,32,35.55Z"/><path class="cls-1" d="M0,44.28H30.82V34.8H0Z"/></g></g></svg>