<svg xmlns="http://www.w3.org/2000/svg" viewBox="0 0 56.33 67.59"><defs><style>.cls-1{fill:#f6aa1c;}.cls-2{fill:#fff;}</style></defs><title>services-circle-icon-2</title><g id="Слой_2" data-name="Слой 2"><g id="Layer_1" data-name="Layer 1"><path class="cls-1" d="M7.15,23.47V32.2h3.58V47.7a4.11,4.11,0,0,0,3.58,3.58h15.5V23.47c0-1.64-1.93-3.2-3.58-3.2H10.73S7.15,20,7.15,23.47Z"/><path class="cls-1" d="M31,23.47V51.28h15.5a4.11,4.11,0,0,0,3.58-3.58V32.2h3.58V23.47c0-1.64-1.93-3.2-3.58-3.2H34.58C32.94,20.27,31,21.83,31,23.47Z"/><path class="cls-1" d="M39.36,17.89c2,0,5.6-.54,7-1.94A7.41,7.41,0,0,0,41.14,3.3a14.79,14.79,0,0,0-6.66,1.63l.66-4L29.26,0l-.62,3.75A11.92,11.92,0,0,0,20.27.33a7.44,7.44,0,0,0-7.45,7.41,3.57,3.57,0,0,0,.33,1.57c-.61,0-1.21-.08-1.82-.08A30,30,0,0,0,4.71,10L6,15.74a24.2,24.2,0,0,1,13.09.78c.51.5,1.76.8,2.36,1.36ZM26.24,13.22a29.92,29.92,0,0,0-3.84-1.86,30.3,30.3,0,0,1-3.56-4,1.49,1.49,0,0,1,1.44-1.11,6,6,0,0,1,6,5.93Zm14.91-4a1.38,1.38,0,0,1,1,.43,1.48,1.48,0,0,1,0,2.1,1.43,1.43,0,0,1-1,.43,50.43,50.43,0,0,0-7,.42A9,9,0,0,1,41.14,9.22Z"/><path class="cls-2" d="M52.86,44.44C49.77,45.93,39,49.81,39,49.81L26.26,49s7.28-2,10.11-2.65a1.93,1.93,0,0,0,0-3.82c-1.56,0-15.19.56-15.19.56l-9,3.25,2.39,15.13s1.86-3.18,3.72-3.18,18,.43,20.21,0S54,48.75,55.65,47.68,56,42.94,52.86,44.44Z"/><path class="cls-2" d="M0,48v19.6L13.86,65,10.39,46.16Z"/></g></g></svg>