<svg id="Group_6782" data-name="Group 6782" xmlns="http://www.w3.org/2000/svg" viewBox="0 0 42.619 53.835">
  <defs>
    <style>
      .cls-1 {
        fill: #157efb;
      }
    </style>
  </defs>
  <path id="Path_27289" data-name="Path 27289" class="cls-1" d="M2.243,51.591V2.243H32.525v7.851h7.851v41.5ZM34.768,3.829,38.79,7.851H34.768ZM0,1.5V52.338a1.5,1.5,0,0,0,1.5,1.5H41.123a1.5,1.5,0,0,0,1.5-1.5V9.128a1.5,1.5,0,0,0-.438-1.058L34.549.438A1.5,1.5,0,0,0,33.491,0H1.5A1.5,1.5,0,0,0,0,1.5Z"/>
  <path id="Path_27290" data-name="Path 27290" class="cls-1" d="M83.042,133.12h22.431a1.121,1.121,0,0,1,1.122,1.122h0a1.121,1.121,0,0,1-1.122,1.122H83.042a1.121,1.121,0,0,1-1.122-1.122h0A1.121,1.121,0,0,1,83.042,133.12Z" transform="translate(-72.948 -118.54)"/>
  <path id="Path_27291" data-name="Path 27291" class="cls-1" d="M83.042,194.56h22.431a1.121,1.121,0,0,1,1.122,1.122h0a1.121,1.121,0,0,1-1.122,1.122H83.042a1.121,1.121,0,0,1-1.122-1.122h0A1.121,1.121,0,0,1,83.042,194.56Z" transform="translate(-72.948 -173.251)"/>
  <path id="Path_27292" data-name="Path 27292" class="cls-1" d="M83.042,256h22.431a1.121,1.121,0,0,1,1.122,1.122h0a1.121,1.121,0,0,1-1.122,1.122H83.042a1.121,1.121,0,0,1-1.122-1.122h0A1.121,1.121,0,0,1,83.042,256Z" transform="translate(-72.948 -227.961)"/>
  <path id="Path_27293" data-name="Path 27293" class="cls-1" d="M83.042,378.88h22.431A1.121,1.121,0,0,1,106.594,380h0a1.121,1.121,0,0,1-1.122,1.122H81.92V380A1.121,1.121,0,0,1,83.042,378.88Z" transform="translate(-72.948 -337.383)"/>
  <path id="Path_27294" data-name="Path 27294" class="cls-1" d="M83.042,317.44h22.431a1.121,1.121,0,0,1,1.122,1.122h0a1.121,1.121,0,0,1-1.122,1.122H83.042a1.121,1.121,0,0,1-1.122-1.122h0A1.121,1.121,0,0,1,83.042,317.44Z" transform="translate(-72.948 -282.672)"/>
</svg>
