<svg xmlns="http://www.w3.org/2000/svg" viewBox="0 0 81.421 55.291">
  <g id="Group_6360" data-name="Group 6360" transform="translate(-515 -12095.406)">
    <path id="Path_24624" data-name="Path 24624" d="M65.911,9.7H14.161c-.018.374-.036.676-.036,1,0,11.119-.053,22.237.036,33.356.018,3.042-.694,2.757-2.722,2.722q-2.8-.053-5.6,0c-2.6.036-3.362,1.619-2.989,3.86.213,1.3,1.388,2.028,3.06,2.028H69.5c1.548,0,1.352.125,1.352-1.316V21.1a4.015,4.015,0,0,1,.018-.8,1.232,1.232,0,0,1,1.37-1.121,1.163,1.163,0,0,1,1.228,1.245c.036,1.423.018,2.846.018,4.27V53.6c-.018,1.263-.445,1.69-1.726,1.69H6.209A5.944,5.944,0,0,1,0,48.993C.036,34.672.018,20.352.036,6.031A5.819,5.819,0,0,1,4.572.125,8.429,8.429,0,0,1,6.226,0h6.226c1.174,0,1.708.587,1.69,1.761-.018,1.69,0,3.38,0,5.177.32.018.623.053.943.053q26.365,0,52.747.018a1.868,1.868,0,0,0,1.477-.64C70.946,4.7,72.6,3.042,74.273,1.388a4.373,4.373,0,0,1,6.013-.213,4.334,4.334,0,0,1-.16,6.013q-9.073,9.1-18.181,18.163a3.149,3.149,0,0,1-1.459.729c-1.352.32-2.722.551-4.092.8-1.352.249-2.028-.409-1.779-1.779.249-1.405.463-2.811.8-4.181a3.152,3.152,0,0,1,.8-1.423c2.953-3.006,5.942-5.96,8.913-8.948C65.306,10.336,65.538,10.1,65.911,9.7ZM11.368,44.048V2.633H6.049c-2.4,0-3.38.943-3.38,3.309V44.973C5.55,43.478,8.5,44.475,11.368,44.048ZM57.532,23.874A4.916,4.916,0,0,0,61.41,22.2C66.89,16.616,72.44,11.119,77.973,5.586c.249-.249.6-.48.694-.783a2.016,2.016,0,0,0,.018-1.37c-.6-1.1-1.565-1.139-2.526-.178C70.377,9.037,64.613,14.837,58.8,20.583,57.8,21.543,57.746,22.664,57.532,23.874Z" transform="translate(515 12095.406)"/>
    <path id="Path_24625" data-name="Path 24625" d="M123.667,105.334h-2.882c-.6,0-1.085-.16-1.085-.872.018-.712.516-.854,1.1-.872H123.6V78.222c-.836,0-1.672.018-2.508,0a1.477,1.477,0,0,1-.854-.125,1.284,1.284,0,0,1-.48-.907,1.037,1.037,0,0,1,.747-.658c1-.089,2.01-.036,3.149-.036,0-1.032.018-1.957,0-2.9-.018-.658.089-1.281.854-1.3.783-.018.907.6.889,1.263-.018.765-.036,1.548.018,2.313.018.213.285.587.427.587,3.914.036,7.81.018,11.866.018,0-1.05.018-2.01,0-2.971-.018-.64.142-1.192.854-1.192s.889.551.889,1.192c-.018.943,0,1.886,0,2.953.356.018.676.053.978.053H149.5c.516,0,1.05,0,1.174.658s-.285,1.05-1.174,1.067c-2.491.018-4.981,0-7.472,0h-1.1c.338.3.516.48.712.623,3.2,2.4,6.4,4.785,9.607,7.187.445.32,1.121.623.854,1.281-.178.409-.747.64-1.156.961-.089-.053-.16-.107-.249-.16V103.84c0,1.388-.107,1.477-1.459,1.477h-9.8c0,1.067-.018,2.046,0,3.006.018.64-.16,1.192-.872,1.192s-.889-.551-.854-1.192c.018-.765-.018-1.548.018-2.313.018-.48-.142-.694-.658-.694q-5.47.027-10.941,0c-.516,0-.765.16-.729.712.036.747-.018,1.477.018,2.224.018.658-.089,1.281-.889,1.263-.765-.018-.872-.64-.854-1.3C123.667,107.309,123.667,106.384,123.667,105.334ZM125.446,88.1v15.442h12.2V88.1Zm23.465.018h-9.429v15.424h9.429Zm-23.5-2.206c3.451-2.58,6.742-5.035,10.176-7.6H125.411Zm12.239-6.956c-3.273,2.455-6.422,4.785-9.571,7.134.036.053.053.107.089.16h9.482Zm10.674,7.329c.036-.053.053-.125.089-.178-2.935-2.188-5.871-4.376-8.913-6.636V86.3C142.489,86.281,145.406,86.281,148.324,86.281Z" transform="translate(416.594 12035.971)"/>
  </g>
</svg>
