<svg xmlns="http://www.w3.org/2000/svg" viewBox="0 0 60.203 60.216">
  <defs>
    <style>
      .cls-1 {
        stroke: #000;
        stroke-width: 0.2px;
      }
    </style>
  </defs>
  <g id="Group_6363" data-name="Group 6363" transform="translate(-773.9 -12090.583)">
    <path id="Path_24651" data-name="Path 24651" d="M362,204.975a2.086,2.086,0,0,1,2.009-2.175,2.021,2.021,0,0,1-.012,4.042A1.9,1.9,0,0,1,362,204.975Zm3.1-.106c-.047-.78-.437-1.194-1.1-1.147a1.144,1.144,0,0,0-1.134,1.182,1.184,1.184,0,0,0,1.205,1.052A1.169,1.169,0,0,0,365.1,204.868Z" transform="translate(454.779 11911.887)"/>
    <path id="Path_24652" data-name="Path 24652" d="M254.9,31.479a1.989,1.989,0,0,1,2.009-2.08,1.967,1.967,0,0,1,2,2.033,2,2,0,0,1-4.006.047Zm3.143-.047c-.012-.756-.414-1.206-1.064-1.194a1.132,1.132,0,0,0-1.182,1.135,1.156,1.156,0,0,0,1.146,1.111A1.209,1.209,0,0,0,258.043,31.432Z" transform="translate(549.222 12064.791)"/>
    <path id="Path_24653" data-name="Path 24653" d="M62.006,233.508a1.983,1.983,0,0,1-1.962,2.009,2.01,2.01,0,1,1-.035-4.019A1.927,1.927,0,0,1,62.006,233.508Zm-.839-.024a1.075,1.075,0,0,0-1-1.158A1.127,1.127,0,1,0,60,234.572,1.221,1.221,0,0,0,61.167,233.485Z" transform="translate(722.854 11886.58)"/>
    <path id="Path_24654" data-name="Path 24654" d="M312.033,429.056A3.528,3.528,0,1,1,312.08,422a3.628,3.628,0,0,1,3.533,3.6A3.477,3.477,0,0,1,312.033,429.056Zm.071-.934a2.654,2.654,0,0,0,2.659-2.719,2.7,2.7,0,0,0-2.623-2.577,2.6,2.6,0,0,0-2.683,2.612A2.681,2.681,0,0,0,312.1,428.122Z" transform="translate(501.957 11718.596)"/>
    <path id="Path_24655" data-name="Path 24655" d="M217.592,422.6A3.529,3.529,0,1,1,214,426.122,3.524,3.524,0,0,1,217.592,422.6Zm2.671,3.5a2.683,2.683,0,0,0-2.6-2.659,2.65,2.65,0,0,0-2.718,2.6,2.729,2.729,0,0,0,2.706,2.707A2.659,2.659,0,0,0,220.263,426.1Z" transform="translate(585.289 11718.066)"/>
    <path id="Path_24656" data-name="Path 24656" d="M406.516,421.4a3.609,3.609,0,0,1,3.51,3.57,3.491,3.491,0,0,1-3.557,3.475,3.556,3.556,0,0,1-3.569-3.558A3.515,3.515,0,0,1,406.516,421.4Zm2.647,3.475a2.716,2.716,0,0,0-2.588-2.624,2.645,2.645,0,0,0-2.753,2.565,2.753,2.753,0,0,0,2.671,2.742A2.709,2.709,0,0,0,409.163,424.874Z" transform="translate(418.712 11719.125)"/>
    <g id="Group_6081" data-name="Group 6081" transform="translate(-7 10770)">
      <path id="Path_24648" data-name="Path 24648" class="cls-1" d="M32.013,11.014c-.154.142-.307.272-.437.4q-8.384,8.528-16.769,17.068c-.638.65-.626,1.087.024,1.726a4.87,4.87,0,0,1-1.773,8.156.724.724,0,0,0-.579.827c.024,2.459.012,4.929.012,7.387,0,.189.024.378.035.638h2.683c.851,0,1.17.307,1.17,1.182,0,3.4.012,6.82,0,10.224,0,.886-.331,1.217-1.217,1.217H1.217C.331,59.842,0,59.523,0,58.636V48.412c0-.886.307-1.194,1.217-1.194H3.841c.024-.225.047-.4.047-.567,0-2.518,0-5.047.012-7.565,0-.355-.071-.544-.461-.662a4.875,4.875,0,0,1-.485-9.137.714.714,0,0,0,.485-.686,5.509,5.509,0,0,1,5.011-4.917,1.254,1.254,0,0,0,.709-.343Q17.773,14.584,26.364,5.79a1.257,1.257,0,0,0,.319-.721A5.282,5.282,0,0,1,30.11.305a5.175,5.175,0,0,1,5.767,1.028A5.377,5.377,0,0,1,37.461,7a1.079,1.079,0,0,0,.106.745q4.042,6.276,8.142,12.529a1.17,1.17,0,0,0,.626.461,5.415,5.415,0,0,1,3.888,5.614.708.708,0,0,0,.366.721c.91.556,1.8,1.135,2.694,1.714a2.414,2.414,0,0,1,1.146,2.99c-.614,2.2-1.229,4.385-1.879,6.584a2.456,2.456,0,0,1-4.715-.035,3.129,3.129,0,0,1,0-1.442c.366-1.466.792-2.919,1.217-4.373a.5.5,0,0,0-.236-.674,2.541,2.541,0,0,0-2.706-.52,4.729,4.729,0,0,1-3.392-.3.842.842,0,0,0-.922.083c-.449.343-1.146.567-1.324,1-.165.4.213,1.04.355,1.56.3,1.064.591,2.116.886,3.18A2.493,2.493,0,0,1,39.9,40a2.4,2.4,0,0,1-2.978-1.738c-.65-2.21-1.264-4.421-1.879-6.643a2.468,2.468,0,0,1,1.087-2.825c.922-.6,1.855-1.194,2.789-1.773a.705.705,0,0,0,.4-.756,5.338,5.338,0,0,1,.508-2.695.862.862,0,0,0-.012-.686Q36.019,17.03,32.2,11.2ZM1.879,57.95h12.6V49.133H1.879C1.879,52.1,1.879,55.007,1.879,57.95ZM13.9,26.841c5.365-5.5,10.695-10.945,16.06-16.441a5.894,5.894,0,0,1-2.836-2.754C21.744,13.154,16.414,18.6,11.049,24.1A5.693,5.693,0,0,1,13.9,26.841ZM10.6,47.183V38.743H5.743v8.439Zm-7-16.169a3.048,3.048,0,0,0-1.7,3.345,2.994,2.994,0,0,0,2.753,2.435c2.316.035,4.644.047,6.96,0a2.8,2.8,0,0,0,2.6-1.832,3.033,3.033,0,0,0-.425-3.12A5.631,5.631,0,0,1,3.6,31.013Zm39.978-10.6L36.255,9.277c-.744.5-1.43.934-2.151,1.407,2.375,3.629,4.762,7.281,7.126,10.874C42.034,21.156,42.79,20.789,43.582,20.411Zm1.205,1.856A3.617,3.617,0,1,0,44.74,29.5a3.662,3.662,0,0,0,3.675-3.664A3.579,3.579,0,0,0,44.787,22.267ZM32.119,8.958a3.687,3.687,0,0,0,3.675-3.676,3.662,3.662,0,0,0-7.315-.154A3.669,3.669,0,0,0,32.119,8.958ZM8.887,25.576A3.679,3.679,0,0,0,5.2,29.11a3.747,3.747,0,0,0,3.663,3.711,3.585,3.585,0,0,0,3.628-3.629A3.66,3.66,0,0,0,8.887,25.576Zm40.084,4.078c.555.366,1.064.709,1.6,1.04a1.01,1.01,0,0,1,.5,1.3c-.225.733-.414,1.477-.6,2.21-.284,1.04-.567,2.08-.839,3.132a.606.606,0,0,0,.425.839c.425.118.674-.106.792-.5.035-.106.071-.225.106-.343.555-1.95,1.1-3.889,1.654-5.839.236-.827.189-.946-.52-1.407-.331-.213-.662-.426-.993-.65-.449-.3-.91-.579-1.371-.875C49.443,28.968,49.219,29.288,48.971,29.654Zm-9.052-1.076c-.969.626-1.9,1.217-2.789,1.844a.734.734,0,0,0-.225.65q.9,3.333,1.867,6.643a.59.59,0,0,0,.886.414c.366-.165.425-.461.307-.839-.485-1.7-.957-3.4-1.442-5.106-.225-.8-.13-1.052.579-1.525l1.56-1.028C40.391,29.264,40.179,28.957,39.919,28.578Z" transform="translate(781 1320.848)"/>
      <path id="Path_24649" data-name="Path 24649" class="cls-1" d="M189.671,395.8h13.283a6.589,6.589,0,0,1,1.548,13.014,7.045,7.045,0,0,1-1.572.177q-13.294.018-26.577,0a6.6,6.6,0,1,1,.024-13.191Zm-.035,11.347h0c4.467,0,8.946.012,13.413,0a4.746,4.746,0,1,0-.012-9.491c-1.217-.012-2.446,0-3.663,0-7.7,0-15.4-.012-23.1.012a4.74,4.74,0,0,0-.035,9.479C180.69,407.159,185.157,407.147,189.636,407.147Z" transform="translate(631.354 971.699)"/>
    </g>
  </g>
</svg>
