<svg xmlns="http://www.w3.org/2000/svg" viewBox="0 0 39.265 54.498">
  <defs>
    <style>
      .cls-1 {
        stroke: #000;
        stroke-width: 0.8px;
      }
    </style>
  </defs>
  <g id="Group_6361" data-name="Group 6361" transform="translate(-1052.599 -12096.6)">
    <path id="Path_24657" data-name="Path 24657" class="cls-1" d="M42.72,26.608l-.735-.269a22.049,22.049,0,0,1-2.64-1.17c-1.788-.962-3.454-3.993-3.638-4.336l-.557-1.078,1.133-.276a6.849,6.849,0,0,1,5.267,1.268,3.758,3.758,0,0,1,1.543,5.188Zm-5.727-6a10.325,10.325,0,0,0,2.94,3.485,19.268,19.268,0,0,0,2.217,1,2.6,2.6,0,0,0-1.225-3.32,6.241,6.241,0,0,0-3.932-1.164Z" transform="translate(1028.74 12086.844)"/>
    <path id="Path_24658" data-name="Path 24658" class="cls-1" d="M47.6,26.61l-.392-.68a3.853,3.853,0,0,1,1.531-5.182,6.866,6.866,0,0,1,5.267-1.268l1.164.276-.563,1.053c-.184.337-1.837,3.369-3.644,4.336a22.368,22.368,0,0,1-2.634,1.17Zm5.378-6.015a6.523,6.523,0,0,0-3.552,1.176,2.567,2.567,0,0,0-1.225,3.32,20.26,20.26,0,0,0,2.217-1,10.374,10.374,0,0,0,2.94-3.485Z" transform="translate(1024.241 12086.842)"/>
    <path id="Path_24659" data-name="Path 24659" class="cls-1" d="M41.1,43.9l-.821-.3a31.675,31.675,0,0,1-3.5-1.556c-2.346-1.262-4.551-5.28-4.79-5.733l-.612-1.176,1.28-.337c.129-.031,3.154-.778,6.9,1.672a5,5,0,0,1,2.009,6.67Zm-7.92-7.962c.821,1.482,2.6,4.177,4.177,5.029a29.024,29.024,0,0,0,3.179,1.421,3.745,3.745,0,0,0-1.678-4.9A8.111,8.111,0,0,0,33.177,35.937Z" transform="translate(1030.205 12080.914)"/>
    <path id="Path_24660" data-name="Path 24660" class="cls-1" d="M47.763,43.894l-.435-.759a4.971,4.971,0,0,1,2-6.67c3.675-2.4,6.572-1.752,6.891-1.672l1.286.337L56.895,36.3c-.245.453-2.45,4.471-4.8,5.733a31.671,31.671,0,0,1-3.5,1.556Zm7.1-8.018a8.973,8.973,0,0,0-4.9,1.611,3.752,3.752,0,0,0-1.678,4.9,29.026,29.026,0,0,0,3.209-1.4c1.574-.851,3.356-3.546,4.183-5.029a5.812,5.812,0,0,0-.815-.086Z" transform="translate(1024.243 12080.92)"/>
    <path id="Path_24661" data-name="Path 24661" class="cls-1" d="M40.641,53.7H34.565A3.479,3.479,0,0,1,31.1,50.206V39.616a31.849,31.849,0,0,0-2.254-3.571C26.082,31.923,21.9,25.694,21.5,21.627a14.541,14.541,0,0,1,3.675-11.564,17.485,17.485,0,0,1,12.4-5.733,17.407,17.407,0,0,1,13.04,6.088A13.554,13.554,0,0,1,53.681,21.67c-.827,4.563-4.82,10.516-7.46,14.461a26.19,26.19,0,0,0-2.125,3.43V50.206A3.479,3.479,0,0,1,40.641,53.7ZM37.579,5.555a16.537,16.537,0,0,0-11.527,5.31A13.365,13.365,0,0,0,22.683,21.48c.386,3.767,4.471,9.843,7.172,13.861,1.837,2.719,2.45,3.675,2.45,4.257V50.206a2.248,2.248,0,0,0,2.236,2.266h6.076a2.254,2.254,0,0,0,2.236-2.266V39.518c0-.563.612-1.488,2.327-4.067,2.585-3.859,6.486-9.69,7.27-14a12.336,12.336,0,0,0-2.8-10.247A16.151,16.151,0,0,0,37.579,5.555Z" transform="translate(1034.071 12092.67)"/>
    <path id="Path_24662" data-name="Path 24662" class="cls-1" d="M50.413,63.755H34.292a.612.612,0,0,1,0-1.225H50.413a.612.612,0,0,1,0,1.225Z" transform="translate(1029.31 12070.117)"/>
    <path id="Path_24663" data-name="Path 24663" class="cls-1" d="M47.88,25.308c-.165,1.929-.2,3.859-.172,5.788a22.854,22.854,0,0,0,.147,2.891c.123.968.288,1.935.319,2.9.11,1.929-.355,3.859-.4,5.788a57.041,57.041,0,0,0,.1,5.788.614.614,0,1,1-1.225.1.263.263,0,0,1,0-.1,55.317,55.317,0,0,0,.086-5.788c-.043-1.929-.5-3.859-.392-5.788a24.621,24.621,0,0,1,.312-2.9,22.858,22.858,0,0,0,.153-2.891c0-1.929,0-3.859-.171-5.788a.615.615,0,1,1,1.225-.1Z" transform="translate(1024.407 12084.799)"/>
    <path id="Path_24664" data-name="Path 24664" class="cls-1" d="M74.09,91.225H66.672a.612.612,0,0,1,0-1.225H74.09a.612.612,0,0,1,0,1.225Z" transform="translate(1016.762 12059.473)"/>
    <path id="Path_24665" data-name="Path 24665" class="cls-1" d="M52.39,91.225H35.852a.612.612,0,0,1,0-1.225H52.39a.612.612,0,0,1,0,1.225Z" transform="translate(1028.705 12059.473)"/>
    <path id="Path_24666" data-name="Path 24666" class="cls-1" d="M29.566,91.225H27.312a.612.612,0,0,1,0-1.225h2.254a.612.612,0,0,1,0,1.225Z" transform="translate(1032.015 12059.473)"/>
    <path id="Path_24667" data-name="Path 24667" class="cls-1" d="M18.981,91.225h-1a.612.612,0,0,1,0-1.225h1a.612.612,0,0,1,0,1.225Z" transform="translate(1035.63 12059.473)"/>
    <path id="Path_24668" data-name="Path 24668" class="cls-1" d="M42,69.665H37.862a.612.612,0,0,1,0-1.225H42a.612.612,0,1,1,0,1.225Z" transform="translate(1027.926 12067.826)"/>
    <path id="Path_24669" data-name="Path 24669" class="cls-1" d="M54.424,77.545h-4.2a.612.612,0,1,1,0-1.225h4.2a.612.612,0,1,1,0,1.225Z" transform="translate(1023.137 12064.773)"/>
    <path id="Path_24670" data-name="Path 24670" class="cls-1" d="M45.729,88.485h-.074A3.216,3.216,0,0,1,42.44,85.27V82.93h6.5v2.34A3.216,3.216,0,0,1,45.729,88.485Zm-2.064-4.33V85.27a2,2,0,0,0,1.991,1.991h.073A2,2,0,0,0,47.72,85.27V84.155Z" transform="translate(1025.915 12062.211)"/>
    <path id="Path_24671" data-name="Path 24671" class="cls-1" d="M38.757,14.654a.613.613,0,0,1-.582-.423L37.14,11.12a.613.613,0,1,1,1.164-.386l1.035,3.111a.625.625,0,0,1-.582.808Z" transform="translate(1027.981 12090.352)"/>
    <path id="Path_24672" data-name="Path 24672" class="cls-1" d="M56.216,15.037a.521.521,0,0,1-.19-.037.612.612,0,0,1-.386-.772l1.035-3.111a.612.612,0,0,1,1.158.386L56.8,14.614A.613.613,0,0,1,56.216,15.037Z" transform="translate(1020.812 12090.184)"/>
    <path id="Path_24673" data-name="Path 24673" class="cls-1" d="M47.612,13.412A.612.612,0,0,1,47,12.8V9.522a.612.612,0,1,1,1.225,0V12.8A.612.612,0,0,1,47.612,13.412Z" transform="translate(1024.148 12090.895)"/>
  </g>
</svg>
