<svg xmlns="http://www.w3.org/2000/svg" viewBox="0 0 54.498 54.498">
  <defs>
    <style>
      .cls-1 {
        stroke: #000;
        stroke-width: 0.8px;
      }
    </style>
  </defs>
  <g id="Group_6362" data-name="Group 6362" transform="translate(-1335.6 -12096.6)">
    <path id="Path_24675" data-name="Path 24675" class="cls-1" d="M14.743,29.45A14.727,14.727,0,1,1,29.46,14.6,14.787,14.787,0,0,1,14.743,29.45Zm9.251-5.7A12.97,12.97,0,1,0,2.141,11.478,12.658,12.658,0,0,0,5.471,23.72a9.582,9.582,0,0,1,2.146-4.07,9.953,9.953,0,0,1,3.8-2.6A5.212,5.212,0,1,1,18.042,9a5.007,5.007,0,0,1,1.818,3.235,5.21,5.21,0,0,1-1.85,4.8A9.681,9.681,0,0,1,23.994,23.752Zm-9.3,3.965A13.117,13.117,0,0,0,22,25.465a.806.806,0,0,0,.381-.962,7.8,7.8,0,0,0-15.351.18.58.58,0,0,0,.275.687A13.071,13.071,0,0,0,14.69,27.716Zm3.489-14.727a3.457,3.457,0,1,0-3.489,3.468A3.479,3.479,0,0,0,18.179,12.989Z" transform="translate(1336.006 12097.004)"/>
    <path id="Path_24676" data-name="Path 24676" class="cls-1" d="M295.2,59.4v-1.67c8.426-.285,16.524,7.062,16.4,16.366h-1.692A14.8,14.8,0,0,0,295.2,59.4Z" transform="translate(1072.01 12045.379)"/>
    <path id="Path_24674" data-name="Path 24674" class="cls-1" d="M229.3,244.018a14.727,14.727,0,1,1,14.886,14.727A14.779,14.779,0,0,1,229.3,244.018Zm24.009,9.05a12.972,12.972,0,1,0-19.474-17.085c-4.6,5.846-2.971,13.49.93,17.032a9.669,9.669,0,0,1,5.952-6.671,5.216,5.216,0,1,1,6.639.011A9.7,9.7,0,0,1,253.306,253.068Zm-9.219,3.975a12.8,12.8,0,0,0,7.4-2.41.661.661,0,0,0,.211-.55,7.785,7.785,0,0,0-15.351-.18.754.754,0,0,0,.37.867A13.637,13.637,0,0,0,244.087,257.043Zm3.4-14.79a3.458,3.458,0,1,0-3.447,3.51A3.456,3.456,0,0,0,247.491,242.253Z" transform="translate(1130.946 11891.951)"/>
    <path id="Path_24677" data-name="Path 24677" class="cls-1" d="M57.693,295.3h1.681a14.8,14.8,0,0,0,14.7,14.706v1.67C65.813,311.972,57.6,304.741,57.693,295.3Z" transform="translate(1284.408 11832.92)"/>
  </g>
</svg>
