<svg xmlns="http://www.w3.org/2000/svg" viewBox="0 0 39.567 57.535">
  <defs>
    <style>
      .cls-1 {
        stroke: #000;
        stroke-width: 0.7px;
      }
    </style>
  </defs>
  <g id="Group_6364" data-name="Group 6364" transform="translate(-536.65 -12331.275)">
    <path id="Path_24702" data-name="Path 24702" class="cls-1" d="M20.211,0c.322.089.644.155.954.266a5.9,5.9,0,0,1,4.04,4.473c.033.144.067.289.111.488h3.529v3.03h9.989c.011.222.033.388.033.544V56.5c0,.111-.011.222-.011.333H.011q0-7.458-.011-14.916V8.28H9.989V5.272H13.54c.067-.277.1-.511.166-.744A5.876,5.876,0,0,1,18.4.111a1.6,1.6,0,0,0,.244-.1C19.179,0,19.7,0,20.211,0ZM1.376,9.611V55.459H37.491V9.634H28.834v1.243H10V9.611ZM14.894,6.57H11.4V9.523h16.26V6.537H24.184c-.377-3.4-1.876-5.128-4.462-5.205a4.618,4.618,0,0,0-3.141,1.043A4.888,4.888,0,0,0,14.894,6.57Z" transform="translate(537 12331.625)"/>
    <path id="Path_24704" data-name="Path 24704" class="cls-1" d="M156.5,34.292a2.3,2.3,0,0,1-2.3-2.3,2.275,2.275,0,0,1,2.331-2.3,2.3,2.3,0,1,1-.033,4.595Zm-.954-2.375a.982.982,0,0,0,1.021.943.961.961,0,1,0-1.021-.943Z" transform="translate(399.915 12305.225)"/>
    <path id="Path_24705" data-name="Path 24705" class="cls-1" d="M105.633,229.733H85.8V209.9h19.833Zm-1.265-1.221v-17.28H87.087v.622c0,5.338.011,10.688-.011,16.026,0,.533.166.633.655.633q7.575-.017,15.15-.011C103.358,228.512,103.835,228.512,104.368,228.512Z" transform="translate(460.723 12145.021)"/>
    <path id="Path_24706" data-name="Path 24706" class="cls-1" d="M130.519,168.3v1.254H117.7V168.3Z" transform="translate(432.363 12182.004)"/>
    <path id="Path_25943" data-name="Path 25943" class="cls-1" d="M130.519,168.3v1.254H117.7V168.3Z" transform="translate(432.363 12210.004)"/>
    <path id="Path_24708" data-name="Path 24708" class="cls-1" d="M123,266.728l.91-.91c.9,1,1.787,1.987,2.7,3,2.464-2.475,4.784-4.795,7.114-7.114l.9.9-8.013,7.747C125.508,269.247,124.276,268,123,266.728Z" transform="translate(427.651 12098.971)"/>
  </g>
</svg>
