<svg xmlns="http://www.w3.org/2000/svg" viewBox="0 0 46.801 53.486">
  <g id="Group_6367" data-name="Group 6367" transform="translate(-781 -12334.879)">
    <path id="Path_24679" data-name="Path 24679" d="M9.572,24.914H5.114A1.053,1.053,0,0,1,4,23.8V17.114A1.053,1.053,0,0,1,5.114,16H9.572a1.053,1.053,0,0,1,1.114,1.114V23.8A1.053,1.053,0,0,1,9.572,24.914ZM6.229,22.686H8.457V18.229H6.229Z" transform="translate(785.915 12354.537)"/>
    <path id="Path_24681" data-name="Path 24681" d="M9.572,18.914H5.114A1.053,1.053,0,0,1,4,17.8V11.114A1.053,1.053,0,0,1,5.114,10H9.572a1.053,1.053,0,0,1,1.114,1.114V17.8A1.053,1.053,0,0,1,9.572,18.914ZM6.229,16.686H8.457V12.229H6.229Z" transform="translate(785.915 12347.166)"/>
    <path id="Path_24683" data-name="Path 24683" d="M9.572,12.914H5.114A1.053,1.053,0,0,1,4,11.8V5.114A1.053,1.053,0,0,1,5.114,4H9.572a1.053,1.053,0,0,1,1.114,1.114V11.8A1.053,1.053,0,0,1,9.572,12.914ZM6.229,10.686H8.457V6.229H6.229Z" transform="translate(785.915 12339.793)"/>
    <path id="Path_24687" data-name="Path 24687" d="M5.572,25.229H1.114a1.114,1.114,0,1,1,0-2.229H5.572a1.114,1.114,0,1,1,0,2.229Z" transform="translate(781 12363.137)"/>
    <path id="Path_24685" data-name="Path 24685" d="M14.572,18.914H10.114A1.053,1.053,0,0,1,9,17.8V11.114A1.053,1.053,0,0,1,10.114,10h4.457a1.053,1.053,0,0,1,1.114,1.114V17.8A1.053,1.053,0,0,1,14.572,18.914Zm-3.343-2.229h2.229V12.229H11.229Z" transform="translate(792.058 12347.166)"/>
    <path id="Path_24686" data-name="Path 24686" d="M14.572,12.914H10.114A1.053,1.053,0,0,1,9,11.8V5.114A1.053,1.053,0,0,1,10.114,4h4.457a1.053,1.053,0,0,1,1.114,1.114V11.8A1.053,1.053,0,0,1,14.572,12.914Zm-3.343-2.229h2.229V6.229H11.229Z" transform="translate(792.058 12339.793)"/>
    <g id="Group_2425" data-name="Group 2425" transform="translate(785.457 12334.879)">
      <path id="Path_24678" data-name="Path 24678" d="M38.772,53.486H25.4a1.053,1.053,0,0,1-1.114-1.114V37.886H17.6V52.372a1.053,1.053,0,0,1-1.114,1.114H3.114A1.053,1.053,0,0,1,2,52.372V5.571A3.427,3.427,0,0,1,5.343,2.229H8.686V1.114A1.053,1.053,0,0,1,9.8,0H32.086A1.053,1.053,0,0,1,33.2,1.114V2.229h3.343a3.427,3.427,0,0,1,3.343,3.343v46.8A1.053,1.053,0,0,1,38.772,53.486ZM26.515,51.257H37.658V5.571a1.053,1.053,0,0,0-1.114-1.114H32.086a1.053,1.053,0,0,1-1.114-1.114V2.229H10.914V3.343A1.053,1.053,0,0,1,9.8,4.457H5.343A1.053,1.053,0,0,0,4.229,5.571V51.257H15.372V36.772a1.053,1.053,0,0,1,1.114-1.114H25.4a1.053,1.053,0,0,1,1.114,1.114Z" transform="translate(-2 0)"/>
    </g>
    <g id="Group_2427" data-name="Group 2427" transform="translate(812.201 12370.537)">
      <path id="Path_24680" data-name="Path 24680" d="M19.572,24.914H15.114A1.053,1.053,0,0,1,14,23.8V17.114A1.053,1.053,0,0,1,15.114,16h4.457a1.053,1.053,0,0,1,1.114,1.114V23.8A1.053,1.053,0,0,1,19.572,24.914Zm-3.343-2.229h2.229V18.229H16.229Z" transform="translate(-14 -16)"/>
    </g>
    <g id="Group_2429" data-name="Group 2429" transform="translate(812.201 12357.166)">
      <path id="Path_24682" data-name="Path 24682" d="M19.572,18.914H15.114A1.053,1.053,0,0,1,14,17.8V11.114A1.053,1.053,0,0,1,15.114,10h4.457a1.053,1.053,0,0,1,1.114,1.114V17.8A1.053,1.053,0,0,1,19.572,18.914Zm-3.343-2.229h2.229V12.229H16.229Z" transform="translate(-14 -10)"/>
    </g>
    <g id="Group_2431" data-name="Group 2431" transform="translate(812.201 12343.793)">
      <path id="Path_24684" data-name="Path 24684" d="M19.572,12.914H15.114A1.053,1.053,0,0,1,14,11.8V5.114A1.053,1.053,0,0,1,15.114,4h4.457a1.053,1.053,0,0,1,1.114,1.114V11.8A1.053,1.053,0,0,1,19.572,12.914Zm-3.343-2.229h2.229V6.229H16.229Z" transform="translate(-14 -4)"/>
    </g>
    <g id="Group_2435" data-name="Group 2435" transform="translate(821.115 12386.137)">
      <path id="Path_24688" data-name="Path 24688" d="M23.572,25.229H19.114a1.114,1.114,0,1,1,0-2.229h4.457a1.114,1.114,0,1,1,0,2.229Z" transform="translate(-18 -23)"/>
    </g>
  </g>
</svg>
