<svg xmlns="http://www.w3.org/2000/svg" viewBox="0 0 49.788 49.685">
  <g id="Group_6365" data-name="Group 6365" transform="translate(-1047 -12341.365)">
    <path id="Path_24689" data-name="Path 24689" d="M34.158,42.193H1.035A.978.978,0,0,1,0,41.158V8.035A.978.978,0,0,1,1.035,7H34.158a.978.978,0,0,1,1.035,1.035V41.158A.978.978,0,0,1,34.158,42.193ZM2.07,40.123H33.123V9.07H2.07Z" transform="translate(1047.104 12348.857)"/>
    <path id="Path_24690" data-name="Path 24690" d="M41.158,35.193a.978.978,0,0,1-1.035-1.035V2.07H8.035A.978.978,0,0,1,7,1.035.978.978,0,0,1,8.035,0H41.158a.978.978,0,0,1,1.035,1.035V34.158A.978.978,0,0,1,41.158,35.193Z" transform="translate(1054.595 12341.365)"/>
    <g id="Group_2438" data-name="Group 2438" transform="translate(1061.595 12341.365)">
      <path id="Path_24691" data-name="Path 24691" d="M8.035,3.105A.978.978,0,0,1,7,2.07V1.035A.978.978,0,0,1,8.035,0,.978.978,0,0,1,9.07,1.035V2.07A.978.978,0,0,1,8.035,3.105Z" transform="translate(-7 0)"/>
    </g>
    <g id="Group_2439" data-name="Group 2439" transform="translate(1061.595 12346.748)">
      <path id="Path_24692" data-name="Path 24692" d="M8.035,27.028A.978.978,0,0,1,7,25.993V23.716a.978.978,0,0,1,1.035-1.035A.978.978,0,0,1,9.07,23.716v2.277A1.109,1.109,0,0,1,8.035,27.028Zm0-6.832A.978.978,0,0,1,7,19.161v-2.07a.978.978,0,0,1,1.035-1.035A.978.978,0,0,1,9.07,17.091v2.277A.947.947,0,0,1,8.035,20.2Zm0-6.625A.978.978,0,0,1,7,12.537v-2.07A.978.978,0,0,1,8.035,9.432.978.978,0,0,1,9.07,10.467v2.277A.947.947,0,0,1,8.035,13.572Zm0-6.625A.978.978,0,0,1,7,5.912V3.635A.978.978,0,0,1,8.035,2.6,1.109,1.109,0,0,1,9.07,3.635V5.912A.978.978,0,0,1,8.035,6.947Z" transform="translate(-7 -2.6)"/>
    </g>
    <g id="Group_2440" data-name="Group 2440" transform="translate(1061.595 12373.453)">
      <path id="Path_24693" data-name="Path 24693" d="M9.07,18.605H8.035A.978.978,0,0,1,7,17.57V16.535A.978.978,0,0,1,8.035,15.5.978.978,0,0,1,9.07,16.535a1.035,1.035,0,1,1,0,2.07Z" transform="translate(-7 -15.5)"/>
    </g>
    <g id="Group_2441" data-name="Group 2441" transform="translate(1066.978 12374.488)">
      <path id="Path_24694" data-name="Path 24694" d="M32.993,18.07H30.716a1.035,1.035,0,1,1,0-2.07h2.277a.978.978,0,0,1,1.035,1.035A1.109,1.109,0,0,1,32.993,18.07Zm-6.832,0H23.884a1.035,1.035,0,1,1,0-2.07h2.277a1.035,1.035,0,1,1,0,2.07Zm-6.625,0H17.26a1.035,1.035,0,1,1,0-2.07h2.277a1.035,1.035,0,1,1,0,2.07Zm-6.625,0H10.635A.978.978,0,0,1,9.6,17.035,1.109,1.109,0,0,1,10.635,16h2.277a1.035,1.035,0,1,1,0,2.07Z" transform="translate(-9.6 -16)"/>
    </g>
    <g id="Group_2442" data-name="Group 2442" transform="translate(1093.683 12374.488)">
      <path id="Path_24695" data-name="Path 24695" d="M24.57,18.07H23.535a1.035,1.035,0,1,1,0-2.07H24.57a1.035,1.035,0,1,1,0,2.07Z" transform="translate(-22.5 -16)"/>
    </g>
    <path id="Path_24696" data-name="Path 24696" d="M1.008,16.535a1.245,1.245,0,0,1-.828-.207,2.286,2.286,0,0,1,0-1.656L14.672.18a2.286,2.286,0,0,1,1.656,0c.414.207.414,1.035,0,1.449L1.836,16.121A.827.827,0,0,1,1.008,16.535Z" transform="translate(1047.13 12341.393)"/>
    <path id="Path_24697" data-name="Path 24697" d="M17.089,16.508a1.245,1.245,0,0,1-.828-.207,1,1,0,0,1,0-1.449L30.752.361a1,1,0,0,1,1.449,0,1,1,0,0,1,0,1.449L17.71,16.3C17.71,16.508,17.3,16.508,17.089,16.508Z" transform="translate(1064.173 12341.418)"/>
    <path id="Path_24698" data-name="Path 24698" d="M17.089,32.508a1.245,1.245,0,0,1-.828-.207,1,1,0,0,1,0-1.449L30.752,16.361A1.025,1.025,0,0,1,32.2,17.81L17.71,32.3C17.71,32.508,17.3,32.508,17.089,32.508Z" transform="translate(1064.173 12358.541)"/>
    <g id="Group_2447" data-name="Group 2447" transform="translate(1047 12388.254)">
      <path id="Path_24699" data-name="Path 24699" d="M1.089,25.445a1.245,1.245,0,0,1-.828-.207,1,1,0,0,1,0-1.449l.828-.828a1,1,0,0,1,1.449,0,1,1,0,0,1,0,1.449l-.828.828C1.71,25.445,1.3,25.445,1.089,25.445Z" transform="translate(0.05 -22.65)"/>
    </g>
    <g id="Group_2448" data-name="Group 2448" transform="translate(1050.934 12378.525)">
      <path id="Path_24700" data-name="Path 24700" d="M2.989,26.541a1.245,1.245,0,0,1-.828-.207,1,1,0,0,1,0-1.449l1.656-1.656a1.025,1.025,0,1,1,1.449,1.449L3.61,26.334A.907.907,0,0,1,2.989,26.541Zm4.968-4.968a1.245,1.245,0,0,1-.828-.207,1,1,0,0,1,0-1.449l1.656-1.656a1.025,1.025,0,0,1,1.449,1.449L8.578,21.366A.761.761,0,0,1,7.957,21.573Z" transform="translate(-1.85 -17.95)"/>
    </g>
    <g id="Group_2449" data-name="Group 2449" transform="translate(1060.663 12374.592)">
      <path id="Path_24701" data-name="Path 24701" d="M7.689,18.845a1.245,1.245,0,0,1-.828-.207,1,1,0,0,1,0-1.449l.828-.828A1.025,1.025,0,1,1,9.138,17.81l-.828.828A.907.907,0,0,1,7.689,18.845Z" transform="translate(-6.55 -16.05)"/>
    </g>
  </g>
</svg>
