<svg xmlns="http://www.w3.org/2000/svg" viewBox="0 0 8.486 8.485"><defs><style>.cls-1{fill:#fff}</style></defs><g id="icon_1_" transform="rotate(45 5.195 3.849)"><path id="Path_24821" data-name="Path 24821" class="cls-1" d="M8.4 2.4H1.2A1.134 1.134 0 0 1 0 1.2 1.134 1.134 0 0 1 1.2 0h7.2a1.134 1.134 0 0 1 1.2 1.2 1.134 1.134 0 0 1-1.2 1.2z" transform="translate(0 3.6)"/><path id="Path_24822" data-name="Path 24822" class="cls-1" d="M1.2 9.6A1.134 1.134 0 0 1 0 8.4V1.2A1.134 1.134 0 0 1 1.2 0a1.134 1.134 0 0 1 1.2 1.2v7.2a1.134 1.134 0 0 1-1.2 1.2z" transform="translate(3.6)"/></g></svg>