<svg xmlns="http://www.w3.org/2000/svg" viewBox="0 0 12 12"><defs><style>.cls-2{fill:#424242}</style></defs><g id="Symbol_95_13" data-name="Symbol 95 – 13" transform="translate(-712 -1202)"><g id="icon_1_" transform="rotate(45 -1094.553 1468.784)"><path id="Path_24821" data-name="Path 24821" class="cls-2" d="M4.748 1.357H.678A.641.641 0 0 1 0 .678.641.641 0 0 1 .678 0h4.07a.641.641 0 0 1 .678.678.641.641 0 0 1-.678.679z" transform="translate(0 2.035)"/><path id="Path_24822" data-name="Path 24822" class="cls-2" d="M.678 5.427A.641.641 0 0 1 0 4.748V.678A.641.641 0 0 1 .678 0a.641.641 0 0 1 .678.678v4.07a.641.641 0 0 1-.678.679z" transform="translate(2.035)"/></g><g id="icon_1_2" data-name="icon_1_" transform="translate(712 1202)"><path id="Path_24853" data-name="Path 24853" d="M6 12a6 6 0 1 1 6-6 6.018 6.018 0 0 1-6 6zM6 1.2A4.8 4.8 0 1 0 10.8 6 4.814 4.814 0 0 0 6 1.2z" fill="none"/></g></g></svg>