<svg xmlns="http://www.w3.org/2000/svg" viewBox="0 0 16.506 16.486"><g data-name="Symbol 109 – 1"><path data-name="Path 24919" d="M14.392 0H1.98A2.031 2.031 0 0 0-.001 1.981v9.375a2.031 2.031 0 0 0 1.981 1.981h1.98v2.377a.762.762 0 0 0 1.32.528l2.9-2.9h6.338a2.031 2.031 0 0 0 1.981-1.981v-9.38A2.152 2.152 0 0 0 14.392 0zM8.186 5.678a1.02 1.02 0 0 1 1.056.922.9.9 0 0 1-.924.924.879.879 0 0 1-1.057-.924.9.9 0 0 1 .925-.922zm-3.3 0a.924.924 0 1 1-.924.924.9.9 0 0 1 .923-.924zm6.6 1.981a1.02 1.02 0 0 1-.923-1.059.924.924 0 1 1 1.849 0 .936.936 0 0 1-.925 1.059z" fill="#4d94f4"/></g></svg>