<svg xmlns="http://www.w3.org/2000/svg" viewBox="0 0 62.243 53.628">
  <defs>
    <style>
      .cls-1 {
        fill: #157efb;
      }

      .cls-2, .cls-3 {
        stroke: none;
      }

      .cls-3 {
        fill: #fff;
      }
    </style>
  </defs>
  <g id="if_education-school-learn-study-04_2125342" transform="translate(-60.24 -87.334)">
    <g id="Path_27277" data-name="Path 27277" class="cls-1" transform="translate(0 0)">
      <path class="cls-2" d="M 91.36101531982422 134.2607421875 C 91.24504089355469 134.2607421875 91.12899780273438 134.2402038574219 91.01613616943359 134.19970703125 L 74.32907104492188 128.1893157958984 C 73.77790069580078 127.9909286499023 73.39297485351563 127.3412017822266 73.39297485351563 126.6092758178711 L 73.39297485351563 109.1169662475586 L 73.39297485351563 109.0170288085938 L 73.30075836181641 108.9785385131836 L 61.2753791809082 103.9595260620117 C 60.75140762329102 103.740837097168 60.39542770385742 103.120735168457 60.38955688476563 102.4165115356445 C 60.38354873657227 101.7118606567383 60.72941589355469 101.0819549560547 61.25021743774414 100.8490447998047 L 90.94085693359375 87.57502746582031 C 91.0762939453125 87.51446533203125 91.21762847900391 87.4837646484375 91.36093139648438 87.4837646484375 C 91.50422668457031 87.4837646484375 91.64556884765625 87.51446533203125 91.78102111816406 87.57502746582031 L 121.4718246459961 100.8490600585938 C 121.992561340332 101.0819320678711 122.3384857177734 101.7117767333984 122.3326263427734 102.4163513183594 C 122.3267440795898 103.1206207275391 121.9707794189453 103.7406921386719 121.4468307495117 103.9593276977539 L 109.4214248657227 108.9783706665039 L 109.3292083740234 109.0168609619141 L 109.3292083740234 109.1167984008789 L 109.3292083740234 126.6090850830078 C 109.3292083740234 127.3409576416016 108.9442749023438 127.9906921386719 108.3931350708008 128.1891174316406 L 105.5745849609375 129.2044219970703 C 105.4618911743164 129.2451629638672 105.3457565307617 129.2657928466797 105.229248046875 129.2657928466797 C 104.6657943725586 129.2657928466797 104.1606903076172 128.7805938720703 104.0009078979492 128.0858917236328 C 103.7992858886719 127.208381652832 104.1959075927734 126.2924346923828 104.8850479125977 126.0441360473633 L 106.6684494018555 125.4017486572266 L 106.7676162719727 125.3660278320313 L 106.7676162719727 125.260627746582 L 106.7676162719727 110.3109970092773 L 106.7676162719727 110.0858459472656 L 106.5598373413086 110.1725692749023 L 104.9692611694336 110.83642578125 C 104.8407974243164 110.8899078369141 104.7079086303711 110.9170455932617 104.5744171142578 110.9170455932617 C 104.0265960693359 110.9170455932617 103.5393753051758 110.4696502685547 103.3620147705078 109.8037490844727 C 103.1309585571289 108.9365768432617 103.4977188110352 107.9996490478516 104.1795806884766 107.7151565551758 L 105.5829849243164 107.1295013427734 L 105.5829849243164 107.1295013427734 L 105.6108779907227 107.1179275512695 L 106.5338973999023 106.7326583862305 L 107.6258544921875 106.2769775390625 L 107.6258544921875 106.2769775390625 L 107.6537475585938 106.2654113769531 L 116.7256393432617 102.4789962768555 L 117.0459594726563 102.3452987670898 L 116.7290802001953 102.2036285400391 L 91.4222412109375 90.88955688476563 L 91.36101531982422 90.86219024658203 L 91.29979705810547 90.88955688476563 L 65.99295806884766 102.2036285400391 L 65.67607879638672 102.3452987670898 L 65.99640655517578 102.4789962768555 L 77.99904632568359 107.4884796142578 L 91.30323791503906 113.0412368774414 L 91.36101531982422 113.0653457641602 L 91.41878509521484 113.0412368774414 L 95.86380004882813 111.1861419677734 C 95.99247741699219 111.1323699951172 96.12542724609375 111.1051254272461 96.25901031494141 111.1051254272461 C 96.80642700195313 111.1051254272461 97.29351043701172 111.5527114868164 97.47104644775391 112.218879699707 C 97.70208740234375 113.0859451293945 97.3353271484375 114.0228805541992 96.65348052978516 114.3074417114258 L 94.41458892822266 115.2417373657227 L 94.40326690673828 115.246467590332 L 94.40300750732422 115.2466354370117 L 91.75569915771484 116.3513870239258 C 91.62800598144531 116.4047775268555 91.49530029296875 116.4318313598633 91.36116790771484 116.4318313598633 C 91.22698974609375 116.4318313598633 91.09408569335938 116.4047698974609 90.96615600585938 116.3513870239258 L 76.16233825683594 110.1727676391602 L 75.95456695556641 110.086051940918 L 75.95456695556641 110.3111953735352 L 75.95456695556641 125.2608261108398 L 75.95456695556641 125.3662414550781 L 76.05374145507813 125.4019546508789 L 91.31018829345703 130.8969879150391 L 91.36101531982422 130.915283203125 L 91.41184997558594 130.89697265625 L 96.2705078125 129.14697265625 C 96.38381958007813 129.1061401367188 96.50016784667969 129.0854339599609 96.61634826660156 129.0854339599609 C 97.17950439453125 129.0854339599609 97.68441772460938 129.5707092285156 97.84420013427734 130.2655334472656 C 98.04581451416016 131.1430358886719 97.64920806884766 132.0589599609375 96.96006011962891 132.3072509765625 L 91.70571899414063 134.1997833251953 C 91.59356689453125 134.240234375 91.47761535644531 134.2607421875 91.36101531982422 134.2607421875 Z"/>
      <path class="cls-3" d="M 91.36093139648438 87.63374328613281 C 91.23887634277344 87.63374328613281 91.11814880371094 87.66006469726563 91.0020751953125 87.71195983886719 L 61.31144714355469 100.9859771728516 C 60.84424591064453 101.1949157714844 60.53403472900391 101.7692794799805 60.53955078125 102.4152603149414 C 60.54492950439453 103.0602569580078 60.86384582519531 103.6252288818359 61.33314514160156 103.8211059570313 L 73.35852813720703 108.8401184082031 L 73.54297637939453 108.9170989990234 L 73.54297637939453 109.1169662475586 L 73.54297637939453 126.6092758178711 C 73.54297637939453 127.2791290283203 73.88710784912109 127.8708190917969 74.37989807128906 128.0481872558594 L 91.06678771972656 134.0585327148438 C 91.16336059570313 134.0931701660156 91.26234436035156 134.1107482910156 91.36101531982422 134.1107482910156 C 91.460205078125 134.1107482910156 91.55902862548828 134.0932312011719 91.65488433837891 134.0586547851563 L 96.90921020507813 132.1661376953125 C 97.52935791015625 131.9426879882813 97.88320922851563 131.1051330566406 97.69800567626953 130.2991333007813 C 97.55400085449219 129.6728515625 97.10919952392578 129.2354431152344 96.61634826660156 129.2354431152344 C 96.517578125 129.2354431152344 96.41832733154297 129.2531433105469 96.32133483886719 129.2881011962891 L 91.46267700195313 131.0381164550781 L 91.36101531982422 131.0747375488281 L 91.25936126708984 131.0381164550781 L 76.00290679931641 125.5430755615234 L 75.8045654296875 125.4716415405273 L 75.8045654296875 125.2608261108398 L 75.8045654296875 110.3111953735352 L 75.8045654296875 109.8609085083008 L 76.22011566162109 110.0343475341797 L 91.02392578125 116.2129592895508 C 91.13344573974609 116.258659362793 91.24691009521484 116.2818298339844 91.36116790771484 116.2818298339844 C 91.47533416748047 116.2818298339844 91.58857727050781 116.2586898803711 91.69792938232422 116.2129592895508 L 94.3370361328125 115.1116256713867 L 94.33734893798828 115.1114349365234 L 94.35681915283203 115.1033096313477 L 96.59571075439453 114.1690063476563 C 97.20046997070313 113.916618347168 97.53495025634766 113.0412521362305 97.32611083984375 112.2574996948242 C 97.16632843017578 111.6579513549805 96.73748779296875 111.255126953125 96.25901031494141 111.255126953125 C 96.14537811279297 111.255126953125 96.03189086914063 111.2784805297852 95.92156982421875 111.3245697021484 L 91.47655487060547 113.1796646118164 L 91.36101531982422 113.2278900146484 L 91.24546813964844 113.1796569824219 L 77.94126892089844 107.6268997192383 L 65.93862915039063 102.6174163818359 L 65.29796600341797 102.3500366210938 L 65.93173980712891 102.0666885375977 L 91.23857879638672 90.75260925292969 L 91.36101531982422 90.6978759765625 L 91.48345947265625 90.75260925292969 L 116.7902984619141 102.0666885375977 L 117.4240570068359 102.3500289916992 L 116.7834091186523 102.6174163818359 L 107.7115097045898 106.4038314819336 L 107.655891418457 106.4269790649414 L 107.6558837890625 106.4269790649414 L 106.5916748046875 106.8710784912109 L 105.6686553955078 107.25634765625 L 105.613037109375 107.2794952392578 L 105.6130294799805 107.2794952392578 L 104.2373352050781 107.8535995483398 C 103.632568359375 108.1059188842773 103.298095703125 108.9812850952148 103.5069580078125 109.7651519775391 C 103.6665802001953 110.3644180297852 104.0955505371094 110.7670516967773 104.5744171142578 110.7670516967773 C 104.6880264282227 110.7670516967773 104.8015213012695 110.743782043457 104.911491394043 110.6980056762695 L 106.502067565918 110.0341491699219 L 106.9176177978516 109.860710144043 L 106.9176177978516 110.3109970092773 L 106.9176177978516 125.260627746582 L 106.9176177978516 125.471435546875 L 106.7192840576172 125.5428771972656 L 104.9358901977539 126.1852569580078 C 104.3157501220703 126.4086990356445 103.9618988037109 127.2462615966797 104.1470947265625 128.0522766113281 C 104.2911071777344 128.678466796875 104.7361068725586 129.1157989501953 105.229248046875 129.1157989501953 C 105.3283157348633 129.1157989501953 105.4272842407227 129.0981750488281 105.5237579345703 129.0632934570313 L 108.3423156738281 128.0479888916016 C 108.8350601196289 127.8705749511719 109.17919921875 127.2788772583008 109.17919921875 126.6090850830078 L 109.17919921875 109.1167984008789 L 109.17919921875 108.9169311523438 L 109.3636474609375 108.8399505615234 L 121.3890533447266 103.8208999633789 C 121.8583374023438 103.6250762939453 122.17724609375 103.0601272583008 122.1826171875 102.4151000976563 C 122.1880035400391 101.7692184448242 121.8777389526367 101.1949005126953 121.4105987548828 100.9860000610352 L 91.71978759765625 87.71194458007813 C 91.60372924804688 87.66006469726563 91.48298645019531 87.63374328613281 91.36093139648438 87.63374328613281 M 91.36093139648438 87.33375549316406 C 91.5238037109375 87.33375549316406 91.68667602539063 87.3685302734375 91.84223937988281 87.43807983398438 L 121.5330352783203 100.7121200561523 C 122.1075973510742 100.9690551757813 122.4889831542969 101.6538009643555 122.4826049804688 102.417594909668 C 122.4762420654297 103.1815414428711 122.0835723876953 103.8561553955078 121.5045928955078 104.0977554321289 L 109.4791946411133 109.1167984008789 L 109.4791946411133 126.6090850830078 C 109.4791946411133 127.4072799682617 109.0569610595703 128.1095275878906 108.4439468383789 128.3302459716797 L 105.6254272460938 129.3455505371094 C 105.4933166503906 129.393310546875 105.3600845336914 129.4158020019531 105.229248046875 129.4158020019531 C 104.6073379516602 129.4158020019531 104.0353240966797 128.9047698974609 103.8547286987305 128.1195068359375 C 103.6362991333008 127.1688613891602 104.0747680664063 126.1766357421875 104.8341979980469 125.9030151367188 L 106.6176147460938 125.260627746582 L 106.6176147460938 110.3109970092773 L 105.0270385742188 110.9748611450195 C 104.8768768310547 111.0373687744141 104.7244033813477 111.0670471191406 104.5744094848633 111.0670471191406 C 103.9751892089844 111.0670471191406 103.4169464111328 110.5928039550781 103.2170639038086 109.8423614501953 C 102.9669952392578 108.9038467407227 103.3720779418945 107.8895416259766 104.1218185424805 107.5767288208008 L 105.5529403686523 106.9794998168945 L 105.5531005859375 106.9794998168945 L 106.4761199951172 106.5942306518555 L 107.5957946777344 106.1269760131836 C 107.5957946777344 106.1269760131836 107.5957946777344 106.1269760131836 107.5959548950195 106.1269760131836 L 116.667854309082 102.3405685424805 L 91.36101531982422 91.0264892578125 L 66.05417633056641 102.3405685424805 L 78.05681610107422 107.3500518798828 L 91.36101531982422 112.9028091430664 L 95.8060302734375 111.0477066040039 C 95.95626068115234 110.9849395751953 96.10890960693359 110.9551239013672 96.25900268554688 110.9551239013672 C 96.85794830322266 110.9551239013672 97.41602325439453 111.4299392700195 97.61598968505859 112.1802520751953 C 97.86605834960938 113.1187210083008 97.46083068847656 114.1330413818359 96.71125030517578 114.4458694458008 L 94.47235870361328 115.3801651000977 C 94.47203826904297 115.3803558349609 94.47188568115234 115.3805618286133 94.47156524658203 115.3805618286133 L 91.81346893310547 116.4898147583008 C 91.66669464111328 116.5511856079102 91.51394653320313 116.5818328857422 91.36116790771484 116.5818328857422 C 91.20827484130859 116.5818328857422 91.05535125732422 116.5511322021484 90.90840148925781 116.4898147583008 L 76.10456848144531 110.3111953735352 L 76.10456848144531 125.2608261108398 L 91.36101531982422 130.755859375 L 96.21968078613281 129.005859375 C 96.35200500488281 128.9581604003906 96.48526000976563 128.9354400634766 96.61634826660156 128.9354400634766 C 97.23804473876953 128.9354400634766 97.80984497070313 129.4468078613281 97.99037933349609 130.2319030761719 C 98.20880889892578 131.1825256347656 97.77034759521484 132.1747436523438 97.01091003417969 132.4483795166016 L 91.75654602050781 134.3408966064453 C 91.62746429443359 134.3874664306641 91.49423980712891 134.4107360839844 91.36101531982422 134.4107360839844 C 91.22779083251953 134.4107360839844 91.09471893310547 134.3872680664063 90.96547698974609 134.3408966064453 L 74.27823638916016 128.3304290771484 C 73.66506958007813 128.1097412109375 73.24298095703125 127.4076766967773 73.24298095703125 126.6092758178711 L 73.24298095703125 109.1169662475586 L 61.21759796142578 104.0979614257813 C 60.63875579833984 103.8563613891602 60.24592590332031 103.1815414428711 60.23955535888672 102.4177551269531 C 60.23304748535156 101.6539993286133 60.61442565917969 100.9690551757813 61.18898010253906 100.7121200561523 L 90.879638671875 87.43807983398438 C 91.03518676757813 87.3685302734375 91.19805908203125 87.33375549316406 91.36093139648438 87.33375549316406 Z"/>
    </g>
    <g id="Path_27278" data-name="Path 27278" class="cls-1" transform="translate(-157.069 -49.44)">
      <path class="cls-2" d="M 259.2204284667969 190.2518615722656 L 257.2767639160156 190.2518615722656 C 255.4359436035156 190.2518615722656 253.9383239746094 188.7542419433594 253.9383239746094 186.9134216308594 L 253.9383239746094 184.9699096679688 C 253.9383239746094 183.3922271728516 255.0594635009766 182.0167999267578 256.6041259765625 181.6994476318359 L 256.7239379882813 181.6748352050781 L 256.7239379882813 181.5525207519531 L 256.7239379882813 156.1867065429688 L 256.7239379882813 156.1163787841797 L 256.6698913574219 156.0713958740234 L 247.6113433837891 148.5345916748047 C 247.3483276367188 148.3157806396484 247.1862640380859 148.0076446533203 247.1549987792969 147.6669464111328 C 247.1237335205078 147.3262329101563 247.2270202636719 146.9937744140625 247.4458160400391 146.7308044433594 C 247.6900329589844 146.4374389648438 248.0492706298828 146.2691650390625 248.4313812255859 146.2691650390625 C 248.7295074462891 146.2691650390625 249.0200958251953 146.3743743896484 249.2495880126953 146.5654144287109 L 258.8178405761719 154.5262298583984 L 258.8189697265625 154.5271453857422 L 258.819091796875 154.5272674560547 L 258.8191528320313 154.5272979736328 L 258.8237609863281 154.5312805175781 L 258.8285217285156 154.5357666015625 C 258.8333129882813 154.5403594970703 258.838134765625 154.544921875 258.8432312011719 154.5493774414063 C 258.8676147460938 154.5704956054688 258.8927001953125 154.5926361083984 258.9151611328125 154.6153869628906 C 258.9236145019531 154.6240081787109 258.9318237304688 154.6333923339844 258.9400634765625 154.6427459716797 L 258.9552307128906 154.6597900390625 L 258.9650573730469 154.6705627441406 C 258.9765014648438 154.6830291748047 258.9879760742188 154.6954956054688 258.998779296875 154.7086486816406 C 259.0081787109375 154.7202911376953 259.0176086425781 154.7334136962891 259.0271301269531 154.7465209960938 L 259.0391845703125 154.7630767822266 L 259.0491943359375 154.776611328125 C 259.0570678710938 154.7872161865234 259.06494140625 154.7977142333984 259.0721740722656 154.8086090087891 C 259.0816955566406 154.8231201171875 259.0908203125 154.8387145996094 259.1000061035156 154.8542633056641 L 259.1069641113281 154.8660736083984 L 259.1164245605469 154.8819427490234 C 259.1230773925781 154.8930206298828 259.1298522949219 154.9041137695313 259.1358947753906 154.9156494140625 C 259.143310546875 154.9295349121094 259.1492919921875 154.9425659179688 259.1553039550781 154.9555358886719 L 259.1628723144531 154.9716796875 L 259.1705017089844 154.9879608154297 C 259.1771240234375 155.0020141601563 259.1837768554688 155.0160369873047 259.1897277832031 155.0305328369141 C 259.1944885253906 155.0420837402344 259.1984558105469 155.0535278320313 259.2024841308594 155.0649719238281 L 259.2086181640625 155.0821533203125 L 259.2117919921875 155.0908966064453 C 259.2187194824219 155.1100921630859 259.2257080078125 155.1291656494141 259.2316284179688 155.1489105224609 C 259.2343139648438 155.1581726074219 259.2368774414063 155.1686553955078 259.2394714355469 155.1791076660156 L 259.244873046875 155.2007293701172 L 259.2482299804688 155.2138519287109 C 259.2529296875 155.2321929931641 259.2577514648438 155.2505798339844 259.2613830566406 155.2693634033203 C 259.2638244628906 155.2819366455078 259.2654113769531 155.2940216064453 259.2670593261719 155.30615234375 L 259.2702941894531 155.3293762207031 L 259.2733459472656 155.3492279052734 C 259.275634765625 155.3638458251953 259.2779541015625 155.37841796875 259.2794494628906 155.3932952880859 C 259.2822265625 155.4221649169922 259.2829895019531 155.4518127441406 259.2838134765625 155.4812927246094 C 259.2839965820313 155.4888763427734 259.2844543457031 155.4965057373047 259.2849731445313 155.5041046142578 C 259.2851867675781 155.5073547363281 259.2855224609375 155.5105743408203 259.2855224609375 155.5138244628906 L 259.2855224609375 155.5217132568359 L 259.2855224609375 181.4887847900391 L 259.2855224609375 181.6298828125 L 259.4263610839844 181.6385040283203 C 261.1829223632813 181.7460021972656 262.5588989257813 183.2093353271484 262.5588989257813 184.9699096679688 L 262.5588989257813 186.9134216308594 C 262.5588989257813 188.7542419433594 261.0612487792969 190.2518615722656 259.2204284667969 190.2518615722656 Z M 257.2767639160156 184.1930541992188 C 256.8484191894531 184.1930541992188 256.4999389648438 184.5415496826172 256.4999389648438 184.9699096679688 L 256.4999389648438 186.9134216308594 C 256.4999389648438 187.3417663574219 256.8484191894531 187.6902465820313 257.2767639160156 187.6902465820313 L 259.220458984375 187.6902465820313 C 259.6488037109375 187.6902465820313 259.9972839355469 187.3417663574219 259.9972839355469 186.9134216308594 L 259.9972839355469 184.9699096679688 C 259.9972839355469 184.5415496826172 259.6488037109375 184.1930541992188 259.220458984375 184.1930541992188 L 257.2767639160156 184.1930541992188 Z"/>
      <path class="cls-3" d="M 248.4313354492188 146.4191741943359 C 248.0939331054688 146.4191741943359 247.7767333984375 146.5677490234375 247.5611267089844 146.8267364501953 C 247.3679504394531 147.0589141845703 247.2767639160156 147.3524322509766 247.3043823242188 147.6532287597656 C 247.3319702148438 147.9540405273438 247.4750671386719 148.2260894775391 247.707275390625 148.4192810058594 L 256.7658081054688 155.9560852050781 L 256.8739624023438 156.0460510253906 L 256.8739624023438 156.1867065429688 L 256.8739624023438 181.5525207519531 L 256.8739624023438 181.7971496582031 L 256.6343383789063 181.8463745117188 C 255.1590728759766 182.1494750976563 254.0883331298828 183.4631042480469 254.0883331298828 184.9699096679688 L 254.0883331298828 186.9134216308594 C 254.0883331298828 188.6715240478516 255.5186614990234 190.1018524169922 257.2767639160156 190.1018524169922 L 259.2204284667969 190.1018524169922 C 260.9785461425781 190.1018524169922 262.4088745117188 188.6715240478516 262.4088745117188 186.9134216308594 L 262.4088745117188 184.9699096679688 C 262.4088745117188 183.2884521484375 261.0947875976563 181.8908843994141 259.4171752929688 181.7882232666016 L 259.135498046875 181.7709808349609 L 259.135498046875 181.4887847900391 L 259.135498046875 155.5217132568359 L 259.1355590820313 155.5115661621094 L 259.1353149414063 155.5142211914063 C 259.1346435546875 155.5044250488281 259.1340942382813 155.4945831298828 259.1338806152344 155.4856109619141 C 259.1331176757813 155.45947265625 259.1325988769531 155.4331665039063 259.1301879882813 155.4082641601563 C 259.1289672851563 155.3961181640625 259.1269836425781 155.3842468261719 259.1251220703125 155.372314453125 L 259.1219482421875 155.3515014648438 L 259.118408203125 155.3263549804688 C 259.1171569824219 155.3171539306641 259.1160888671875 155.3079681396484 259.1140747070313 155.2977600097656 C 259.1110229492188 155.2819671630859 259.1068725585938 155.2665252685547 259.1029357910156 155.2510833740234 L 259.0997009277344 155.2384033203125 L 259.0938415527344 155.2150726318359 C 259.0917358398438 155.2066497802734 259.0897521972656 155.1981964111328 259.0879516601563 155.1920013427734 C 259.0828247070313 155.1749420166016 259.0767211914063 155.1584930419922 259.0707397460938 155.1419219970703 L 259.0675659179688 155.1331939697266 L 259.0610656738281 155.1149444580078 C 259.057861328125 155.1058959960938 259.0548095703125 155.0968322753906 259.0509033203125 155.0873718261719 C 259.0459594726563 155.0752105712891 259.040283203125 155.0634918212891 259.0347290039063 155.0517120361328 L 259.0272216796875 155.0357360839844 L 259.0193481445313 155.0189056396484 C 259.0144958496094 155.0084075927734 259.0097351074219 154.9978332519531 259.0030517578125 154.9852905273438 C 258.9983520507813 154.9763336181641 258.9930114746094 154.9677734375 258.9878540039063 154.9591827392578 L 258.9779052734375 154.9425201416016 L 258.9707641601563 154.930419921875 C 258.9628295898438 154.9169616699219 258.9550170898438 154.9034423828125 258.947265625 154.8916931152344 C 258.9414672851563 154.8829345703125 258.9350891113281 154.8745574951172 258.9287719726563 154.8660430908203 L 258.9183654785156 154.8519439697266 L 258.90576171875 154.8346862792969 C 258.8977355957031 154.8236083984375 258.8898010253906 154.8124542236328 258.8829040527344 154.8038787841797 C 258.873779296875 154.7928009033203 258.8640441894531 154.7823638916016 258.8544311523438 154.7718505859375 L 258.8438720703125 154.76025390625 L 258.8276977539063 154.7420959472656 C 258.8211364746094 154.7346649169922 258.814697265625 154.7271728515625 258.8085021972656 154.7208557128906 C 258.7896118164063 154.7017364501953 258.7671508789063 154.6819152832031 258.7444458007813 154.6622467041016 C 258.7379150390625 154.6565246582031 258.731689453125 154.6506958007813 258.723388671875 154.6427917480469 L 258.7220458984375 154.6416320800781 L 258.721923828125 154.6415405273438 L 249.1536254882813 146.6806945800781 C 248.9510192871094 146.5120544433594 248.6944885253906 146.4191741943359 248.4313354492188 146.4191741943359 M 259.220458984375 187.8402557373047 L 257.2767639160156 187.8402557373047 C 256.7656860351563 187.8402557373047 256.3499145507813 187.4244842529297 256.3499145507813 186.9134216308594 L 256.3499145507813 184.9699096679688 C 256.3499145507813 184.4588317871094 256.7656860351563 184.0430603027344 257.2767639160156 184.0430603027344 L 259.220458984375 184.0430603027344 C 259.7315063476563 184.0430603027344 260.1472778320313 184.4588317871094 260.1472778320313 184.9699096679688 L 260.1472778320313 186.9134216308594 C 260.1472778320313 187.4244842529297 259.7315063476563 187.8402557373047 259.220458984375 187.8402557373047 M 248.4313659667969 146.1191711425781 C 248.7539367675781 146.1191711425781 249.0783386230469 146.2276916503906 249.3455505371094 146.4501190185547 L 258.9137878417969 154.4109191894531 C 258.9147338867188 154.4117279052734 258.9156799316406 154.4125213623047 258.9164733886719 154.4131622314453 L 258.9199523925781 154.4161834716797 C 258.927734375 154.4226837158203 258.9344177246094 154.4298400878906 258.9420471191406 154.4365234375 C 258.9694213867188 154.460205078125 258.9964294433594 154.4842071533203 259.0218811035156 154.5099639892578 C 259.0374755859375 154.5258636474609 259.0516357421875 154.542724609375 259.0665588378906 154.5592498779297 C 259.082763671875 154.5770721435547 259.0993041992188 154.5946960449219 259.1147155761719 154.6134643554688 C 259.130615234375 154.6331787109375 259.1450805664063 154.6538543701172 259.1600341796875 154.6741943359375 C 259.172607421875 154.6913604736328 259.1854553222656 154.7080688476563 259.1970825195313 154.7255401611328 C 259.2108764648438 154.7465362548828 259.2232971191406 154.7681427001953 259.2360229492188 154.7896118164063 C 259.2469787597656 154.8082122802734 259.2586059570313 154.82666015625 259.2687683105469 154.8460540771484 C 259.2795715332031 154.8662414550781 259.2887878417969 154.8870544433594 259.2984924316406 154.9075775146484 C 259.3086547851563 154.9295043945313 259.3193054199219 154.9511413574219 259.3285522460938 154.9737091064453 C 259.3363342285156 154.9926300048828 259.3427124023438 155.0118713378906 259.3496704101563 155.0310974121094 C 259.3586120605469 155.0558929443359 259.36767578125 155.0803833007813 259.3753051757813 155.1058197021484 C 259.3808288574219 155.1247406005859 259.3851318359375 155.1439666748047 259.3900756835938 155.1630401611328 C 259.3966064453125 155.1888122558594 259.403564453125 155.2145690917969 259.4086608886719 155.240966796875 C 259.4129638671875 155.2628784179688 259.4153442382813 155.2849884033203 259.4186706542969 155.3072509765625 C 259.4221801757813 155.3309326171875 259.4263000488281 155.3542938232422 259.4287109375 155.3782958984375 C 259.431884765625 155.411376953125 259.4328308105469 155.4446105957031 259.4337768554688 155.4776611328125 C 259.43408203125 155.4905548095703 259.4356994628906 155.5031127929688 259.4355163574219 155.5158233642578 L 259.4355163574219 155.5217132568359 C 259.4355163574219 155.5221862792969 259.4355163574219 155.5226593017578 259.4355163574219 155.5229797363281 L 259.4355163574219 181.4887847900391 C 261.2591552734375 181.6003875732422 262.7088928222656 183.1186218261719 262.7088928222656 184.9699096679688 L 262.7088928222656 186.9134216308594 C 262.7088928222656 188.8368835449219 261.1440734863281 190.40185546875 259.2204284667969 190.40185546875 L 257.2767639160156 190.40185546875 C 255.3533020019531 190.40185546875 253.788330078125 188.8370361328125 253.788330078125 186.9134216308594 L 253.788330078125 184.9699096679688 C 253.788330078125 183.2869720458984 254.9860534667969 181.8787536621094 256.5739440917969 181.5525207519531 L 256.5739440917969 156.1867065429688 L 247.5154113769531 148.64990234375 C 246.9079284667969 148.1445159912109 246.8251037597656 147.2422943115234 247.3305053710938 146.6348571777344 C 247.6136474609375 146.2947540283203 248.0210266113281 146.1191558837891 248.4313659667969 146.1191711425781 Z M 259.220458984375 187.5402526855469 C 259.5660400390625 187.5402526855469 259.8472900390625 187.2592010498047 259.8472900390625 186.9134216308594 L 259.8472900390625 184.9699096679688 C 259.8472900390625 184.6241302490234 259.5661926269531 184.3430633544922 259.220458984375 184.3430633544922 L 257.2767639160156 184.3430633544922 C 256.93115234375 184.3430633544922 256.6499328613281 184.6241302490234 256.6499328613281 184.9699096679688 L 256.6499328613281 186.9134216308594 C 256.6499328613281 187.2590179443359 256.9309997558594 187.5402526855469 257.2767639160156 187.5402526855469 L 259.220458984375 187.5402526855469 Z"/>
    </g>
  </g>
</svg>
