<svg xmlns="http://www.w3.org/2000/svg" viewBox="0 0 67.135 50.587"><path data-name="Path 24977" d="M60.043 7.092H28.367a4.292 4.292 0 0 1-3.309-1.418l-2.837-4.256A4.292 4.292 0 0 0 18.911 0H7.092A7.271 7.271 0 0 0 0 7.092V43.5a7.271 7.271 0 0 0 7.092 7.092h52.951a7.271 7.271 0 0 0 7.092-7.092V14.183a6.963 6.963 0 0 0-7.092-7.091zM41.132 31.676H36.4V36.4a3.051 3.051 0 0 1-2.837 2.837 3.051 3.051 0 0 1-2.832-2.837v-4.724H26a3.051 3.051 0 0 1-2.837-2.837A3.051 3.051 0 0 1 26 26h4.728v-4.725a3.051 3.051 0 0 1 2.837-2.837 3.051 3.051 0 0 1 2.835 2.837V26h4.728a3.051 3.051 0 0 1 2.837 2.837 2.725 2.725 0 0 1-2.833 2.839z" fill="#157EFB"/></svg>