<svg xmlns="http://www.w3.org/2000/svg" viewBox="0 0 8.486 8.485">
  <defs>
    <style>
      .cls-1 {
        fill: #fff;
      }
    </style>
  </defs>
  <g id="icon_1_" transform="translate(4.243 -2.546) rotate(45)">
    <path id="Path_24821" data-name="Path 24821" class="cls-1" d="M8.4,2.4H1.2A1.134,1.134,0,0,1,0,1.2,1.134,1.134,0,0,1,1.2,0H8.4A1.134,1.134,0,0,1,9.6,1.2,1.134,1.134,0,0,1,8.4,2.4Z" transform="translate(0 3.6)"/>
    <path id="Path_24822" data-name="Path 24822" class="cls-1" d="M1.2,9.6A1.134,1.134,0,0,1,0,8.4V1.2A1.134,1.134,0,0,1,1.2,0,1.134,1.134,0,0,1,2.4,1.2V8.4A1.134,1.134,0,0,1,1.2,9.6Z" transform="translate(3.6 0)"/>
  </g>
</svg>
