<svg xmlns="http://www.w3.org/2000/svg" viewBox="0 0 51.059 45.514">
  <defs>
    <style>
      .cls-1 {
        fill: #157efb;
        stroke: #157efb;
        stroke-width: 1.5px;
      }
    </style>
  </defs>
  <path id="if_Resume_Suitcase_2316261" class="cls-1" d="M51.327,22.57H39.559v-5.3a2.2,2.2,0,0,0-2.2-2.2H22.214a2.2,2.2,0,0,0-2.2,2.2v5.3H8.232A3.243,3.243,0,0,0,5,25.8V55.835a3.243,3.243,0,0,0,3.232,3.249H51.327a3.243,3.243,0,0,0,3.232-3.249V25.8A3.243,3.243,0,0,0,51.327,22.57Zm-29.807-5.3a.677.677,0,0,1,.672-.672H37.335a.677.677,0,0,1,.672.672v5.3H21.52ZM8.232,24.117H51.327a1.685,1.685,0,0,1,1.68,1.68V36.259H35.2v-1.14a1.547,1.547,0,0,0-1.564-1.547H25.925a1.547,1.547,0,0,0-1.547,1.547v1.162H6.547V25.819a1.685,1.685,0,0,1,1.685-1.7Zm25.4,11v3.855H25.925V35.119Zm17.676,22.4H8.232a1.685,1.685,0,0,1-1.685-1.68v-18H24.361V39a1.547,1.547,0,0,0,1.564,1.547h7.709A1.547,1.547,0,0,0,35.182,39V37.834h17.83v18a1.685,1.685,0,0,1-1.685,1.685Z" transform="translate(-4.25 -14.32)"/>
</svg>
