<svg xmlns="http://www.w3.org/2000/svg" viewBox="0 0 174.568 62.366"><defs><style>.cls-1{fill:#9e9e9e}.cls-3{fill:#4d93f4}</style><clipPath id="clip-path"><path id="Path_24941" data-name="Path 24941" class="cls-1" d="M0-109.756h174.569v-62.366H0z" transform="translate(0 172.122)"/></clipPath></defs><g id="Symbol_112_17" data-name="Symbol 112 – 17" transform="translate(-220.607 -9)"><g id="Group_3977" data-name="Group 3977" transform="translate(220.608 9)" clip-path="url(#clip-path)"><g id="Group_3971" data-name="Group 3971" transform="translate(0 54.415)"><path id="Path_24935" data-name="Path 24935" class="cls-3" d="M-7 0a3.976 3.976 0 0 0-3.976 3.976A3.976 3.976 0 0 0-7 7.952a3.975 3.975 0 0 0 3.979-3.976A3.975 3.975 0 0 0-7 0" transform="translate(10.972)"/></g><g id="Group_3972" data-name="Group 3972" transform="translate(7.469 8.355)"><path id="Path_24936" data-name="Path 24936" class="cls-3" d="M-48.353-.665A23.729 23.729 0 0 0-55.6-.849 22.769 22.769 0 0 0-62.047.965a23.3 23.3 0 0 0-13.51 17.711 23.306 23.306 0 0 0 1.457 12.37 4.349 4.349 0 0 1-.544 4.1 6.563 6.563 0 0 0-1.1 4.829 6.466 6.466 0 0 0 1.31 2.983q.816.8 1.686 1.527a6.426 6.426 0 0 0 2.436.923 6.583 6.583 0 0 0 3.275-.3 6.505 6.505 0 0 0 1.554-.8 4.336 4.336 0 0 1 4.1-.547 23.058 23.058 0 0 0 8.66 1.727 23.8 23.8 0 0 0 3.714-.265 23.246 23.246 0 0 0 19.523-19.94A23.275 23.275 0 0 0-48.353-.665" transform="translate(75.829 1.043)"/></g><g id="Group_3973" data-name="Group 3973" transform="translate(141.477 15.534)"><path id="Path_24937" data-name="Path 24937" class="cls-1" d="M-55.816-58.237a1.376 1.376 0 0 1-1.376-1.376v-15.17a13.81 13.81 0 0 0-13.794-13.794A13.81 13.81 0 0 0-84.78-74.783a13.81 13.81 0 0 0 13.794 13.794 13.809 13.809 0 0 0 6.574-1.664 1.376 1.376 0 0 1 1.866.552 1.376 1.376 0 0 1-.552 1.866 16.57 16.57 0 0 1-7.888 2 16.565 16.565 0 0 1-16.546-16.548 16.565 16.565 0 0 1 16.546-16.546A16.565 16.565 0 0 1-54.44-74.783v15.17a1.376 1.376 0 0 1-1.376 1.376" transform="translate(87.532 91.329)"/></g><g id="Group_3974" data-name="Group 3974" transform="translate(59.159)"><path id="Path_24938" data-name="Path 24938" class="cls-1" d="M-29.119-85.575a16.565 16.565 0 0 1-16.546-16.546 16.565 16.565 0 0 1 16.546-16.546 16.5 16.5 0 0 1 8.744 2.5 1.376 1.376 0 0 1 .44 1.9 1.375 1.375 0 0 1-1.9.439 13.758 13.758 0 0 0-7.288-2.08 13.81 13.81 0 0 0-13.795 13.794 13.81 13.81 0 0 0 13.799 13.787 13.81 13.81 0 0 0 13.794-13.795v-30.7a1.376 1.376 0 0 1 1.376-1.376 1.376 1.376 0 0 1 1.376 1.376v30.7a16.565 16.565 0 0 1-16.546 16.547" transform="translate(45.665 134.201)"/></g><g id="Group_3975" data-name="Group 3975" transform="translate(100.303 15.534)"><path id="Path_24939" data-name="Path 24939" class="cls-1" d="M-29.118-58.237a16.565 16.565 0 0 1-16.546-16.546 16.565 16.565 0 0 1 16.546-16.546 16.565 16.565 0 0 1 16.546 16.546 1.376 1.376 0 0 1-1.376 1.376h-15.17a1.376 1.376 0 0 1-1.376-1.376 1.376 1.376 0 0 1 1.376-1.376h13.726a13.813 13.813 0 0 0-13.726-12.418 13.81 13.81 0 0 0-13.794 13.794 13.81 13.81 0 0 0 13.794 13.794A13.669 13.669 0 0 0-19.1-65.306a1.376 1.376 0 0 1 1.945-.054 1.376 1.376 0 0 1 .054 1.945 16.4 16.4 0 0 1-12.022 5.177" transform="translate(45.664 91.329)"/></g><g id="Group_3976" data-name="Group 3976" transform="translate(14.192 15.077)"><path id="Path_24940" data-name="Path 24940" d="M-29.119-58.237a16.565 16.565 0 0 1-16.546-16.546 16.565 16.565 0 0 1 16.546-16.546 16.565 16.565 0 0 1 16.546 16.546 1.376 1.376 0 0 1-1.376 1.376h-15.17a1.376 1.376 0 0 1-1.376-1.376 1.376 1.376 0 0 1 1.376-1.376h13.726a13.814 13.814 0 0 0-13.726-12.418 13.81 13.81 0 0 0-13.794 13.794 13.81 13.81 0 0 0 13.794 13.794A13.669 13.669 0 0 0-19.1-65.306a1.376 1.376 0 0 1 1.945-.054 1.376 1.376 0 0 1 .054 1.945 16.4 16.4 0 0 1-12.022 5.177" transform="translate(45.665 91.329)" fill="#fff"/></g></g></g></svg>