<svg xmlns="http://www.w3.org/2000/svg" viewBox="0 0 26.101 26.102">
  <defs>
    <style>
      .cls-1 {
        fill: #157efb;
      }

      .cls-2 {
        fill: #197bff;
      }

      .cls-3 {
        fill: #fff;
      }
    </style>
  </defs>
  <g id="Group_6599" data-name="Group 6599" transform="translate(-20 -20.791)">
    <path id="Path_24935" data-name="Path 24935" class="cls-1" d="M-9.051,0a1.921,1.921,0,0,0-1.921,1.921A1.922,1.922,0,0,0-9.051,3.843,1.921,1.921,0,0,0-7.129,1.921,1.921,1.921,0,0,0-9.051,0" transform="translate(30.972 43.051)"/>
    <path id="Path_24936" data-name="Path 24936" class="cls-2" d="M-62.55-.86a11.468,11.468,0,0,0-3.5-.089,11,11,0,0,0-3.114.876h0A11.262,11.262,0,0,0-75.7,8.487a11.264,11.264,0,0,0,.706,5.979,2.1,2.1,0,0,1-.263,1.982,3.172,3.172,0,0,0-.534,2.334,3.125,3.125,0,0,0,.633,1.442q.395.385.815.738a3.106,3.106,0,0,0,1.177.446,3.182,3.182,0,0,0,1.583-.145h0a3.144,3.144,0,0,0,.751-.387,2.1,2.1,0,0,1,1.981-.264,11.144,11.144,0,0,0,4.185.835,11.5,11.5,0,0,0,1.795-.128,11.235,11.235,0,0,0,9.435-9.636A11.248,11.248,0,0,0-62.55-.86" transform="translate(99.438 21.834)"/>
    <path id="Path_24940" data-name="Path 24940" class="cls-3" d="M-37.668-75.336a8.006,8.006,0,0,1-8-8,8.006,8.006,0,0,1,8-8,8.006,8.006,0,0,1,8,8,.665.665,0,0,1-.665.665h-7.331a.665.665,0,0,1-.665-.665A.665.665,0,0,1-37.668-84h6.634a6.676,6.676,0,0,0-6.634-6,6.674,6.674,0,0,0-6.667,6.667,6.674,6.674,0,0,0,6.667,6.667,6.606,6.606,0,0,0,4.844-2.086.665.665,0,0,1,.94-.026.665.665,0,0,1,.026.94,7.924,7.924,0,0,1-5.81,2.5" transform="translate(72.523 115.369)"/>
  </g>
</svg>
