<svg xmlns="http://www.w3.org/2000/svg" viewBox="0 0 18 18"><circle data-name="Ellipse 587" cx="9" cy="9" r="9" fill="#9befa5"/><path data-name="Path 25450" d="M13.839 5.467L12.8 4.34a1.257 1.257 0 0 0-1.82 0L6.3 9.021a1.813 1.813 0 0 0-.347.52L5 12.574c-.087.433.26.78.607.607l3.034-.953a1.813 1.813 0 0 0 .52-.347L13.839 7.2a1.157 1.157 0 0 0 0-1.733zm-1.647.52l-4.334 4.334a.527.527 0 0 1-.693 0 .527.527 0 0 1 0-.693L11.5 5.293a.527.527 0 0 1 .693 0 .657.657 0 0 1 .173.347.657.657 0 0 1-.174.347z" fill="#fff"/></svg>