<svg xmlns="http://www.w3.org/2000/svg" viewBox="0 0 14.034 18.75"><defs><style>.cls-1{fill:#9e9e9e}</style></defs><g id="Group_4503" data-name="Group 4503" transform="translate(.016 .05)"><path id="Path_24928" data-name="Path 24928" class="cls-1" d="M13.426 2.253L11.847.542a1.908 1.908 0 0 0-2.763 0L1.979 7.647a2.753 2.753 0 0 0-.526.789L0 13.042c-.132.658.395 1.184.921.921l4.605-1.447a2.753 2.753 0 0 0 .789-.526l7.105-7.105a1.757 1.757 0 0 0 .006-2.632zm-2.5.789L4.347 9.621a.8.8 0 0 1-1.053 0 .8.8 0 0 1 0-1.053l6.579-6.579a.8.8 0 0 1 1.053 0 1 1 0 0 1 .263.526 1 1 0 0 1-.263.527z"/><path id="Path_24929" data-name="Path 24929" class="cls-1" d="M13.026 14.642H.921a.921.921 0 1 1 0-1.842h12.105a.921.921 0 1 1 0 1.842z" transform="translate(.005 4.058)"/></g></svg>