<svg xmlns="http://www.w3.org/2000/svg" viewBox="0 0 51.662 51.663">
  <defs>
    <style>
      .cls-1 {
        fill: #157efb;
      }
    </style>
  </defs>
  <g id="Group_6780" data-name="Group 6780" transform="translate(0 0)">
    <g id="Group_6779" data-name="Group 6779" transform="translate(0)">
      <g id="Group_6776" data-name="Group 6776" transform="translate(9.374 5.853)">
        <path id="Path_27283" data-name="Path 27283" class="cls-1" d="M36.224,46.9a1.45,1.45,0,0,1-1.025-.425L17.716,28.992a1.45,1.45,0,0,1,0-2.05l16.052-16.05a1.448,1.448,0,0,1,1.024-.424h0a1.449,1.449,0,0,1,1.025.425L53.3,28.374a1.45,1.45,0,0,1,0,2.05L37.249,46.474A1.453,1.453,0,0,1,36.224,46.9ZM20.791,27.968,36.223,43.4l14-14L34.792,13.967Z" transform="translate(-17.291 -10.468)"/>
      </g>
      <g id="Group_6777" data-name="Group 6777" transform="translate(25.518)">
        <path id="Path_27284" data-name="Path 27284" class="cls-1" d="M88.063,37.268Z" transform="translate(-63.369 -15.95)"/>
        <path id="Path_27285" data-name="Path 27285" class="cls-1" d="M64.2,26.465a1.447,1.447,0,0,1-1.025-.425L45.693,8.561A1.45,1.45,0,0,1,45.467,6.8L48.845,1.04A1.451,1.451,0,0,1,51.122.748L70.988,20.617a1.449,1.449,0,0,1-.293,2.276l-5.761,3.374A1.451,1.451,0,0,1,64.2,26.465ZM48.536,7.3l15.9,15.9,3.176-1.859L50.4,4.125Z" transform="translate(-45.268 -0.324)"/>
      </g>
      <g id="Group_6778" data-name="Group 6778" transform="translate(3.456 22.062)">
        <path id="Path_27287" data-name="Path 27287" class="cls-1" d="M28.351,64.7a1.449,1.449,0,0,1-1.025-.425L7.459,44.411a1.45,1.45,0,0,1,.292-2.276l5.761-3.377a1.448,1.448,0,0,1,1.759.226L32.753,56.466a1.449,1.449,0,0,1,.226,1.758L29.6,63.986a1.448,1.448,0,0,1-1.066.705A1.415,1.415,0,0,1,28.351,64.7ZM10.836,43.688,28.049,60.9l1.862-3.175-15.9-15.9Z" transform="translate(-7.035 -38.558)"/>
      </g>
      <path id="Path_27288" data-name="Path 27288" class="cls-1" d="M2.495,77.917a1.45,1.45,0,0,1-1.025-2.475l13.39-13.39a1.45,1.45,0,0,1,2.05,2.05L3.519,77.492A1.445,1.445,0,0,1,2.495,77.917Z" transform="translate(-1.045 -26.254)"/>
    </g>
  </g>
</svg>
