<svg xmlns="http://www.w3.org/2000/svg" viewBox="0 0 23.541 30.46"><defs><clipPath id="a"><path data-name="Path 25002" d="M36.087 39.018a4.931 4.931 0 0 1-4.251-2.157l-1.206 4.823a17.967 17.967 0 0 1-3.173 5.711.221.221 0 0 1-.381-.127 18.652 18.652 0 0 1 .064-6.668c.317-1.4 2.221-9.518 2.221-9.518a6.8 6.8 0 0 1-.571-2.792c0-2.6 1.523-4.505 3.363-4.505a2.333 2.333 0 0 1 2.348 2.6c0 1.586-1.015 4-1.523 6.218a2.708 2.708 0 0 0 2.729 3.363c3.3 0 5.52-4.251 5.52-9.328 0-3.807-2.6-6.726-7.3-6.726a8.254 8.254 0 0 0-8.566 8.376 5.052 5.052 0 0 0 1.142 3.427c.317.381.381.508.254.952a11.41 11.41 0 0 1-.381 1.4.626.626 0 0 1-.888.444c-2.348-.888-3.49-3.553-3.49-6.6C22 22.965 26.188 17 34.5 17c6.663 0 11.041 4.822 11.041 10.026 0 6.853-3.807 11.993-9.455 11.993" transform="translate(-22 -17)"/></clipPath></defs><g data-name="Group 4133" clip-path="url(#a)"><path data-name="Rectangle 3706" fill="#fff" d="M-3.173-3.173h29.887V33.63H-3.173z"/></g></svg>