<svg xmlns="http://www.w3.org/2000/svg" viewBox="0 0 54.759 46.793">
  <defs>
    <style>
      .cls-1 {
        fill: #157efb;
        stroke: #157efb;
        fill-rule: evenodd;
      }
    </style>
  </defs>
  <path id="Path_27295" data-name="Path 27295" class="cls-1" d="M21.907,27.874a1.991,1.991,0,1,0,0,3.982h9.944a1.991,1.991,0,1,0,0-3.982ZM21.9,25.883a3.982,3.982,0,0,0,0,7.964h9.965a3.982,3.982,0,0,0,0-7.964ZM1.991,1.991V13.937H51.767V1.991ZM5.973,15.928V43.8H47.784V15.928Zm-1.991,0V43.909a1.884,1.884,0,0,0,1.884,1.884H47.893a1.884,1.884,0,0,0,1.884-1.884V15.928h2.662a1.32,1.32,0,0,0,1.32-1.32V1.32A1.322,1.322,0,0,0,52.437,0H.831A.831.831,0,0,0,0,.831V15.1a.831.831,0,0,0,.831.831H3.982Z" transform="translate(0.5 0.5)"/>
</svg>
