<svg xmlns="http://www.w3.org/2000/svg" viewBox="0 0 37.886 53.486">
  <defs>
    <style>
      .cls-1 {
        fill: #157efb;
      }
    </style>
  </defs>
  <g id="Group_6731" data-name="Group 6731" transform="translate(-304.793 -394.879)">
    <path id="Path_27262" data-name="Path 27262" class="cls-1" d="M9.572,24.914H5.114A1.053,1.053,0,0,1,4,23.8V17.114A1.053,1.053,0,0,1,5.114,16H9.572a1.053,1.053,0,0,1,1.114,1.114V23.8A1.053,1.053,0,0,1,9.572,24.914ZM6.229,22.686H8.457V18.229H6.229Z" transform="translate(305.377 414.537)"/>
    <path id="Path_27263" data-name="Path 27263" class="cls-1" d="M9.572,18.914H5.114A1.053,1.053,0,0,1,4,17.8V11.114A1.053,1.053,0,0,1,5.114,10H9.572a1.053,1.053,0,0,1,1.114,1.114V17.8A1.053,1.053,0,0,1,9.572,18.914ZM6.229,16.686H8.457V12.229H6.229Z" transform="translate(305.377 407.166)"/>
    <path id="Path_27265" data-name="Path 27265" class="cls-1" d="M5.572,25.229H1.114a1.114,1.114,0,1,1,0-2.229H5.572a1.114,1.114,0,1,1,0,2.229Z" transform="translate(304.833 423.137)"/>
    <path id="Path_27266" data-name="Path 27266" class="cls-1" d="M14.572,18.914H10.114A1.053,1.053,0,0,1,9,17.8V11.114A1.053,1.053,0,0,1,10.114,10h4.457a1.053,1.053,0,0,1,1.114,1.114V17.8A1.053,1.053,0,0,1,14.572,18.914Zm-3.343-2.229h2.229V12.229H11.229Z" transform="translate(311.808 407.166)"/>
    <g id="Group_6723" data-name="Group 6723" transform="translate(331.239 430.537)">
      <path id="Path_24680" data-name="Path 24680" class="cls-1" d="M19.572,24.914H15.114A1.053,1.053,0,0,1,14,23.8V17.114A1.053,1.053,0,0,1,15.114,16h4.457a1.053,1.053,0,0,1,1.114,1.114V23.8A1.053,1.053,0,0,1,19.572,24.914Zm-3.343-2.229h2.229V18.229H16.229Z" transform="translate(-14 -16)"/>
    </g>
    <g id="Group_6724" data-name="Group 6724" transform="translate(331.239 417.166)">
      <path id="Path_24682" data-name="Path 24682" class="cls-1" d="M19.572,18.914H15.114A1.053,1.053,0,0,1,14,17.8V11.114A1.053,1.053,0,0,1,15.114,10h4.457a1.053,1.053,0,0,1,1.114,1.114V17.8A1.053,1.053,0,0,1,19.572,18.914Zm-3.343-2.229h2.229V12.229H16.229Z" transform="translate(-14 -10)"/>
    </g>
    <g id="Group_6726" data-name="Group 6726" transform="translate(326.615 446.137)">
      <path id="Path_24688" data-name="Path 24688" class="cls-1" d="M23.572,25.229H19.114a1.114,1.114,0,1,1,0-2.229h4.457a1.114,1.114,0,1,1,0,2.229Z" transform="translate(-18 -23)"/>
    </g>
    <path id="Path_27264" data-name="Path 27264" class="cls-1" d="M9.572,12.914H5.114A1.053,1.053,0,0,1,4,11.8V5.114A1.053,1.053,0,0,1,5.114,4H9.572a1.053,1.053,0,0,1,1.114,1.114V11.8A1.053,1.053,0,0,1,9.572,12.914ZM6.229,10.686H8.457V6.229H6.229Z" transform="translate(305.377 399.793)"/>
    <path id="Path_27267" data-name="Path 27267" class="cls-1" d="M14.572,12.914H10.114A1.053,1.053,0,0,1,9,11.8V5.114A1.053,1.053,0,0,1,10.114,4h4.457a1.053,1.053,0,0,1,1.114,1.114V11.8A1.053,1.053,0,0,1,14.572,12.914Zm-3.343-2.229h2.229V6.229H11.229Z" transform="translate(311.808 399.793)"/>
    <g id="Group_6722" data-name="Group 6722" transform="translate(304.793 394.879)">
      <path id="Path_24678" data-name="Path 24678" class="cls-1" d="M38.772,53.486H25.4a1.053,1.053,0,0,1-1.114-1.114V37.886H17.6V52.372a1.053,1.053,0,0,1-1.114,1.114H3.114A1.053,1.053,0,0,1,2,52.372V5.571A3.427,3.427,0,0,1,5.343,2.229H8.686V1.114A1.053,1.053,0,0,1,9.8,0H32.086A1.053,1.053,0,0,1,33.2,1.114V2.229h3.343a3.427,3.427,0,0,1,3.343,3.343v46.8A1.053,1.053,0,0,1,38.772,53.486ZM26.515,51.257H37.658V5.571a1.053,1.053,0,0,0-1.114-1.114H32.086a1.053,1.053,0,0,1-1.114-1.114V2.229H10.914V3.343A1.053,1.053,0,0,1,9.8,4.457H5.343A1.053,1.053,0,0,0,4.229,5.571V51.257H15.372V36.772a1.053,1.053,0,0,1,1.114-1.114H25.4a1.053,1.053,0,0,1,1.114,1.114Z" transform="translate(-2 0)"/>
    </g>
    <g id="Group_6725" data-name="Group 6725" transform="translate(331.239 403.793)">
      <path id="Path_24684" data-name="Path 24684" class="cls-1" d="M19.572,12.914H15.114A1.053,1.053,0,0,1,14,11.8V5.114A1.053,1.053,0,0,1,15.114,4h4.457a1.053,1.053,0,0,1,1.114,1.114V11.8A1.053,1.053,0,0,1,19.572,12.914Zm-3.343-2.229h2.229V6.229H16.229Z" transform="translate(-14 -4)"/>
    </g>
  </g>
</svg>
