<svg id="Group_4933" data-name="Group 4933" xmlns="http://www.w3.org/2000/svg" viewBox="0 0 15.55 15.612"><defs><style>.cls-1{fill:#9e9e9e}</style></defs><path id="Path_25145" data-name="Path 25145" class="cls-1" d="M18.548 4.5l-.248.062-1.239.124-.372.558-.248-.062-.991-.867-.124-.434-.186-.5-.62-.558-.742-.123v.31l.743.681.31.372-.372.186-.31-.124-.5-.186v-.372l-.62-.248-.186.929-.62.124.062.5.805.186.124-.805.681.124.31.124h.5l.372.681.929.929-.062.372-.744-.128-1.3.681-.929 1.177-.124.5h-.31l-.62-.31-.62.31.124.62.248-.31h.434l-.062.558.372.124.372.434.62-.186.743.124.805.248.434.062.681.805 1.363.805-.741 1.603-.929.434-.372.929-1.363.867-.124.5a7.776 7.776 0 0 0 5.947-7.558 7.893 7.893 0 0 0-1.3-4.275zm0 0" transform="translate(-4.299 -1.027)"/><path id="Path_25146" data-name="Path 25146" class="cls-1" d="M8.673 14.116l-.558-1.053.5-1.115-.5-.186-.557-.562-1.3-.248-.434-.929v.558h-.186L4.523 9.1V7.859L3.655 6.5l-1.3.248h-.868l-.434-.31L1.611 6l-.558.124A7.9 7.9 0 0 0 0 10.089a7.813 7.813 0 0 0 7.806 7.806 5.329 5.329 0 0 0 .991-.062l-.124-.991.372-1.425c0-.062-.372-1.3-.372-1.3zm0 0" transform="translate(0 -2.283)"/><path id="Path_25147" data-name="Path 25147" class="cls-1" d="M4.015 2.54l1.363-.186L6 1.982l.743.186 1.177-.062.372-.62.558.124 1.363-.124.372-.434.555-.371.743.124.248-.062A6.86 6.86 0 0 0 8.909 0 7.773 7.773 0 0 0 2.9 2.85zM9.219.805l.805-.434.5.248-.743.558-.681.062-.31-.186zM6.865.867l.372.124.433-.124.248.434-1.053.248-.5-.31s.5-.31.5-.372zm0 0" transform="translate(-1.103)"/></svg>