<svg xmlns="http://www.w3.org/2000/svg" data-name="Group 4159" viewBox="0 0 36 36"><defs><clipPath id="a"><path data-name="Path 24999" d="M23 41a17.989 17.989 0 0 0 18-18A17.989 17.989 0 0 0 23 5 17.989 17.989 0 0 0 5 23a17.989 17.989 0 0 0 18 18z" transform="translate(-5 -5)"/></clipPath><clipPath id="b"><path data-name="Path 25000" d="M41.039 35.55a5.294 5.294 0 0 0-.45-2.1c-.15-.35-.25-.6-.5-1.2v-.05l-.1-.2c-1.65-3.65-3.4-7.3-5.2-10.9a1.665 1.665 0 0 1-.15-.3c-.3-.6-.45-.85-.6-1.2a6.779 6.779 0 0 0-1.05-1.45 4.021 4.021 0 0 0-2.65-1.15h-.45a4.216 4.216 0 0 0-2.75 1.2 4.378 4.378 0 0 0-1 1.4 11.492 11.492 0 0 0-.6 1.15c0 .05 0 .05-.05.05a.535.535 0 0 1-.15.25c-1.2 2.4-2.4 4.8-3.55 7.3-.85 1.8-1.45 3.1-2 4.4a7.979 7.979 0 0 0-.65 2.05 5.327 5.327 0 0 0 .75 3.6 4.906 4.906 0 0 0 2.4 2.1 5.1 5.1 0 0 0 2.45.45 6.745 6.745 0 0 0 3.1-1.05 13.356 13.356 0 0 0 2.65-2.3h-.7a12.155 12.155 0 0 0 2.45 2.2 6.54 6.54 0 0 0 3.05 1.15 5.267 5.267 0 0 0 5.5-3.35 9.2 9.2 0 0 0 .25-2.05zm-2.5 1a2.735 2.735 0 0 1-1.4 1.75 2.98 2.98 0 0 1-1.95.35 5.43 5.43 0 0 1-2.4-1.2 13.273 13.273 0 0 1-1.5-1.45v.6a23.168 23.168 0 0 0 2.1-3.2 7.824 7.824 0 0 0 .9-3.35 4.8 4.8 0 0 0-.5-2.25 3.958 3.958 0 0 0-2.3-2 4.476 4.476 0 0 0-2.8-.1 3.9 3.9 0 0 0-2.2 1.55 4.364 4.364 0 0 0-.8 2.25 7.05 7.05 0 0 0 .6 3.25 17.523 17.523 0 0 0 2.4 3.9v-.6a15.947 15.947 0 0 1-1.3 1.3 5.308 5.308 0 0 1-2.35 1.3 3.184 3.184 0 0 1-2.05-.25 2.794 2.794 0 0 1-1.5-1.85 3.155 3.155 0 0 1 .05-1.8 12.689 12.689 0 0 1 .5-1.25v-.05a.845.845 0 0 0 .1-.25c1.7-3.7 3.4-7.25 5.2-10.85a.666.666 0 0 1 .15-.25c.3-.65.45-.95.65-1.3a3.136 3.136 0 0 1 .75-.95 1.888 1.888 0 0 1 1.15-.4 1.584 1.584 0 0 1 1.15.45 3.235 3.235 0 0 1 .8 1.15c.45.8.8 1.55 1.5 2.9a1.283 1.283 0 0 1 .1.25v.05c1.5 3.05 3 6.15 4.35 9.25 0 .05.05.1.05.15s0 .05.05.05a10.112 10.112 0 0 1 .45 1.2 2.1 2.1 0 0 1 .05 1.65zm-8.15-1.75c-.2-.25-.35-.45-.65-.9 0-.05 0-.05-.05-.05v-.05a10.108 10.108 0 0 1-1.05-1.85 7.69 7.69 0 0 1-.5-1.65 3.255 3.255 0 0 1 .1-1.25 1.574 1.574 0 0 1 .65-.85 2.026 2.026 0 0 1 2.45.15 1.793 1.793 0 0 1 .55 1.15 4.767 4.767 0 0 1-.3 1.95 12.83 12.83 0 0 1-2 3.35l.4.3.4-.3z" transform="translate(-19.077 -17)"/></clipPath></defs><g data-name="Group 4127"><g data-name="Group 4126" clip-path="url(#a)"><path data-name="Rectangle 3703" fill="#ff7977" d="M-2.5-2.5h41v41h-41z"/></g></g><g data-name="Group 4129"><g data-name="Group 4128" clip-path="url(#b)" transform="translate(7.039 6)"><path data-name="Rectangle 3704" fill="#fff" d="M-2.539-2.5h27v29h-27z"/></g></g></svg>