<svg xmlns="http://www.w3.org/2000/svg" viewBox="0 0 36 36"><defs><clipPath id="a"><path data-name="Path 25001" d="M23 41a17.989 17.989 0 0 0 18-18A17.989 17.989 0 0 0 23 5 17.989 17.989 0 0 0 5 23a17.989 17.989 0 0 0 18 18z" transform="translate(-5 -5)"/></clipPath><clipPath id="b"><path data-name="Path 25002" d="M33.1 34.35a3.885 3.885 0 0 1-3.35-1.7l-.95 3.8a14.157 14.157 0 0 1-2.5 4.5.174.174 0 0 1-.3-.1 14.7 14.7 0 0 1 .05-5.25c.25-1.1 1.75-7.5 1.75-7.5a5.355 5.355 0 0 1-.45-2.2c0-2.05 1.2-3.55 2.65-3.55a1.839 1.839 0 0 1 1.85 2.05c0 1.25-.8 3.15-1.2 4.9a2.134 2.134 0 0 0 2.15 2.65c2.6 0 4.35-3.35 4.35-7.35 0-3-2.05-5.3-5.75-5.3a6.5 6.5 0 0 0-6.75 6.6 3.981 3.981 0 0 0 .9 2.7c.25.3.3.4.2.75a8.992 8.992 0 0 1-.3 1.1.493.493 0 0 1-.7.35C22.9 30.1 22 28 22 25.6c0-3.9 3.3-8.6 9.85-8.6 5.25 0 8.7 3.8 8.7 7.9 0 5.4-3 9.45-7.45 9.45" transform="translate(-22 -17)"/></clipPath></defs><g data-name="Group 4160"><g data-name="Group 4132"><g data-name="Group 4131" clip-path="url(#a)"><path data-name="Rectangle 3705" fill="#ca1d25" d="M-2.5-2.5h41v41h-41z"/></g></g><g data-name="Group 4134"><g data-name="Group 4133" clip-path="url(#b)" transform="translate(8.5 6)"><path data-name="Rectangle 3706" fill="#fff" d="M-2.5-2.5h23.55v29H-2.5z"/></g></g></g></svg>