<svg xmlns="http://www.w3.org/2000/svg" viewBox="0 0 36 36"><defs><clipPath id="a"><path data-name="Path 25003" d="M23 41a17.989 17.989 0 0 0 18-18A17.989 17.989 0 0 0 23 5 17.989 17.989 0 0 0 5 23a17.989 17.989 0 0 0 18 18z" transform="translate(-5 -5)"/></clipPath><clipPath id="b"><path data-name="Path 25004" d="M42 40h-4.5v-7.7c0-2.1-.8-3.3-2.45-3.3-1.8 0-2.75 1.25-2.75 3.3V40h-4.35V25.35h4.35v2a5.087 5.087 0 0 1 4.4-2.4c3.1 0 5.35 1.9 5.35 5.85V40zM22.7 23.4a2.7 2.7 0 1 1 2.7-2.7 2.721 2.721 0 0 1-2.7 2.7zM20.45 40H25V25.35h-4.55V40z" transform="translate(-20 -18)"/></clipPath></defs><g data-name="Group 4161"><g data-name="Group 4137"><g data-name="Group 4136" clip-path="url(#a)"><path data-name="Rectangle 3707" fill="#057eba" d="M-2.5-2.5h41v41h-41z"/></g></g><g data-name="Group 4139"><g data-name="Group 4138" clip-path="url(#b)" transform="translate(7.5 6.5)"><path data-name="Rectangle 3708" fill="#fff" d="M-2.5-2.5h27v27h-27z"/></g></g></g></svg>