<svg xmlns="http://www.w3.org/2000/svg" viewBox="0 0 36 36"><defs><clipPath id="a"><path data-name="Path 25006" d="M23 5a17.989 17.989 0 0 1 18 18 17.989 17.989 0 0 1-18 18A17.989 17.989 0 0 1 5 23 17.989 17.989 0 0 1 23 5z" transform="translate(-5 -5)"/></clipPath><clipPath id="b"><path data-name="Path 25007" d="M50.25 18.2v4.65H47.5c-2.15 0-2.6 1.05-2.6 2.55v3.35h5.15l-.65 5.2h-4.5V47.5h-5.4V33.95H35v-5.2h4.5V24.9c0-4.45 2.7-6.9 6.7-6.9 1.9 0 3.55.15 4.05.2z" transform="translate(-35 -18)"/></clipPath></defs><g data-name="Group 4163"><g data-name="Group 4145"><g data-name="Group 4144" clip-path="url(#a)"><path data-name="Rectangle 3711" fill="#435f9e" d="M-2.5-2.5h41v41h-41z"/></g></g><g data-name="Group 4147"><g data-name="Group 4146" clip-path="url(#b)" transform="translate(15 6.5)"><path data-name="Rectangle 3712" fill="#fff" d="M-2.5-2.5h20.25V32H-2.5z"/></g></g></g></svg>