<svg xmlns="http://www.w3.org/2000/svg" viewBox="0 0 30.457 30.458"><defs><clipPath id="a"><path data-name="Path 25142" d="M32.229 17a15.229 15.229 0 1 1-8.376 27.92l-5.838 1.9 1.9-5.647A15.1 15.1 0 0 1 17 32.229 15.274 15.274 0 0 1 32.229 17zm-4.251 7.741c-.317-.7-.508-.761-.952-.761h-.508a2.32 2.32 0 0 0-1.586.571 4.825 4.825 0 0 0-1.586 3.68 8.792 8.792 0 0 0 1.776 4.569c.254.317 3.109 4.822 7.551 6.726 3.49 1.459 4.569 1.333 5.33 1.142a4.442 4.442 0 0 0 2.982-2.157 3.4 3.4 0 0 0 .254-2.094 1.832 1.832 0 0 0-.825-.508c-.444-.254-2.6-1.269-3.046-1.459a.848.848 0 0 0-1.079.317c-.444.571-.825 1.206-1.206 1.586a.956.956 0 0 1-1.079.19 10.891 10.891 0 0 1-3.553-2.221 12.307 12.307 0 0 1-2.475-3.046c-.254-.444 0-.7.19-.952a3.681 3.681 0 0 0 .635-.761 1.8 1.8 0 0 0 .508-.7.932.932 0 0 0-.063-.825c-.127-.254-.888-2.411-1.269-3.3z" transform="translate(-17 -17)"/></clipPath></defs><g data-name="Group 4420" transform="translate(-.001)" clip-path="url(#a)"><path data-name="Rectangle 3809" fill="#fff" d="M-3.173-3.173H33.63V33.63H-3.173z"/></g></svg>