<svg xmlns="http://www.w3.org/2000/svg" viewBox="0 0 30.496 26.04"><defs><clipPath id="a"><path data-name="Path 25320" d="M47.48 27.03c-.127 2.921-2.223 6.922-6.223 12.065-4.128 5.271-7.684 7.938-10.541 7.938-1.778 0-3.3-1.588-4.509-4.89l-2.477-8.954c-.889-3.239-1.905-4.89-2.921-4.89A8.761 8.761 0 0 0 18.4 29.7L17 27.982c1.524-1.334 2.985-2.6 4.445-3.937 1.969-1.715 3.493-2.6 4.509-2.731 2.35-.254 3.81 1.4 4.382 4.826.572 3.683 1.016 5.969 1.207 6.922q1.048 4.572 2.286 4.572c.635 0 1.588-1.016 2.858-2.985a11.157 11.157 0 0 0 2.032-4.509c.191-1.715-.508-2.54-2.032-2.54a6.322 6.322 0 0 0-2.286.445c1.522-4.825 4.38-7.175 8.634-7.045 3.112.064 4.636 2.1 4.445 6.033" transform="translate(-17 -20.992)"/></clipPath></defs><g data-name="Group 4930" transform="translate(.001)" clip-path="url(#a)"><path data-name="Rectangle 4080" fill="#fff" d="M-3.175-3.17h36.831v32.385H-3.175z"/></g></svg>