<svg xmlns="http://www.w3.org/2000/svg" viewBox="0 0 30.457 21.574"><defs><clipPath id="a"><path data-name="Path 25318" d="M29.056 38.785v-8.63l8.249 4.315-8.249 4.315zM47.14 28.632a7.044 7.044 0 0 0-1.206-3.046 4.31 4.31 0 0 0-3.046-1.269C38.638 24 32.229 24 32.229 24s-6.409 0-10.66.317a4.31 4.31 0 0 0-3.046 1.269 7.044 7.044 0 0 0-1.206 3.046A44.991 44.991 0 0 0 17 33.645v2.348a44.606 44.606 0 0 0 .317 4.949 7.044 7.044 0 0 0 1.206 3.046 5.217 5.217 0 0 0 3.363 1.333c2.411.19 10.343.254 10.343.254s6.409 0 10.66-.317a4.31 4.31 0 0 0 3.046-1.269 7.044 7.044 0 0 0 1.206-3.046 44.607 44.607 0 0 0 .317-4.949v-2.349a44.991 44.991 0 0 0-.317-5.013z" transform="translate(-17 -24)"/></clipPath></defs><g data-name="Group 4926"><g data-name="Group 4925" transform="translate(-.001)" clip-path="url(#a)"><path data-name="Rectangle 4078" fill="#fff" d="M-3.173-3.173H33.63v27.92H-3.173z"/></g></g></svg>