<?xml version="1.0" encoding="utf-8"?>
<!-- Generator: Adobe Illustrator 22.0.1, SVG Export Plug-In . SVG Version: 6.00 Build 0)  -->
<svg version="1.1" id="Слой_1" xmlns="http://www.w3.org/2000/svg" xmlns:xlink="http://www.w3.org/1999/xlink" x="0px" y="0px"
	 viewBox="0 0 129 86" style="enable-background:new 0 0 129 86;" xml:space="preserve">
<style type="text/css">
	.st0{fill:#fff;}
</style>
<g>
	<g>
		<path class="st0" d="M1,35c4.901-4.334,9.803-8.667,15.347-13.569c12.48,13.072,24.966,26.151,37.918,39.718
			C75.208,40.409,95.104,20.704,115,1c0.333,0,0.667,0,1,0c4.667,4.667,9.333,9.333,14,14c0,0.333,0,0.667,0,1
			c-0.66,0.46-1.402,0.837-1.968,1.393c-22.673,22.289-45.335,44.59-67.976,66.912C59.26,85.091,58.681,86.097,58,87c-2,0-4,0-6,0
			c-0.384-0.685-0.633-1.506-1.171-2.035C34.237,68.626,17.616,52.315,1,36C1,35.667,1,35.333,1,35z"/>
	</g>
</g>
</svg>
