<?xml version="1.0" encoding="utf-8"?>
<!-- Generator: Adobe Illustrator 22.0.1, SVG Export Plug-In . SVG Version: 6.00 Build 0)  -->
<svg version="1.1" id="Слой_1" xmlns="http://www.w3.org/2000/svg" xmlns:xlink="http://www.w3.org/1999/xlink" x="0px" y="0px"
	 viewBox="0 0 470 470" style="enable-background:new 0 0 470 470;" xml:space="preserve">
<style type="text/css">
	.st0{fill:#A1A1A1;}
	.st1{fill:#A0A0A0;}
	.st2{fill:#9F9F9F;}
</style>
<g>
	<g>
		<path class="st0" d="M1,256c0-13.333,0-26.667,0-40c0.934-5.337,1.956-10.661,2.791-16.014
			C19.208,101.096,95.96,22.327,194.032,4.81C201.671,3.445,209.343,2.266,217,1c12.333,0,24.667,0,37,0
			c4.878,0.732,9.75,1.512,14.636,2.188C368.473,17,449.439,94.808,467.205,194.062c1.365,7.628,2.535,15.291,3.795,22.938
			c0,12.333,0,24.667,0,37c-0.938,6.035-1.882,12.068-2.812,18.104c-15.205,98.589-92.182,177.564-190.209,195.086
			c-7.965,1.424-15.984,2.547-23.978,3.81c-12.333,0-24.667,0-37,0c-5.687-0.936-11.366-1.914-17.061-2.8
			C101.137,452.834,22.323,376.002,4.787,277.924C3.481,270.623,2.26,263.308,1,256z M235.894,11.011
			C112.13,11.048,11.149,111.901,11.012,235.61C10.873,359.887,111.887,461.026,236.11,460.989
			c123.97-0.038,224.915-101.081,224.878-225.095C460.952,111.924,359.907,10.975,235.894,11.011z"/>
		<path class="st1" d="M350.981,224.098c0,41.992,0.007,83.983-0.006,125.975c-0.003,9.177-2.808,12.283-11.884,14.19
			c-1.295,0.272-2.967,2.38-3.135,3.796c-1.117,9.412-4.79,12.942-14.246,12.944c-62.321,0.015-124.641,0.021-186.962,0.011
			c-9.426-0.001-13.72-4.308-13.722-13.75c-0.011-84.15-0.011-168.299,0.001-252.449c0.001-9.144,4.088-13.066,13.333-13.8
			c34.203-2.714,68.393-5.581,102.587-8.408c30.542-2.525,61.083-5.069,91.624-7.612c2.821-0.235,5.636-0.562,8.458-0.776
			c8.756-0.662,13.917,4.037,13.932,12.904c0.048,28.661,0.019,57.322,0.02,85.983C350.981,196.77,350.981,210.434,350.981,224.098z
			 M320.361,241.55c0-41.146,0.003-82.292-0.003-123.438c-0.001-6.908-0.021-6.927-6.844-6.927
			c-58.47-0.005-116.941-0.005-175.411-0.001c-6.929,0-6.944,0.014-6.944,6.802c-0.004,82.125-0.004,164.25,0.001,246.375
			c0,6.586,0.02,6.6,6.594,6.601c58.637,0.004,117.274,0.004,175.911,0c6.68,0,6.694-0.012,6.695-6.975
			C320.364,323.174,320.362,282.362,320.361,241.55z M330.805,353.526c9.813,1.394,10.012,1.233,10.012-7.427
			c0.001-66.496,0.001-132.993,0.001-199.489c0-15.499-0.118-31,0.073-46.497c0.055-4.432-0.776-6.236-5.86-5.551
			c-9.397,1.266-18.908,1.679-28.366,2.505c-11.737,1.025-23.469,2.109-35.203,3.168c1.821,0.887,3.621,0.886,5.421,0.887
			c13.666,0.002,27.333-0.078,40.998,0.038c8.147,0.069,12.616,4.617,12.903,12.736c0.065,1.831,0.021,3.666,0.021,5.499
			c0.001,75.663,0.001,151.325,0.001,226.988C330.805,348.684,330.805,350.984,330.805,353.526z"/>
		<path class="st1" d="M291,206.051c-0.016,35.978-29.234,65.039-65.3,64.949c-35.712-0.09-64.719-29.254-64.699-65.05
			c0.019-35.981,29.236-65.04,65.301-64.95C262.011,141.09,291.016,170.253,291,206.051z M226.205,151.016
			c-30.334-0.076-55.114,24.52-55.189,54.781c-0.076,30.338,24.515,55.112,54.78,55.188c30.346,0.076,55.112-24.506,55.189-54.777
			C281.061,175.877,256.461,151.092,226.205,151.016z"/>
		<path class="st2" d="M225.482,340.998c-16.986,0.001-33.971,0.027-50.957-0.009c-9.479-0.02-13.502-4.56-13.496-15.058
			c0.007-10.427,4.06-14.913,13.645-14.92c34.304-0.024,68.608-0.024,102.912,0.001c9.002,0.007,13.339,4.444,13.434,13.568
			c0.014,1.332,0.027,2.665-0.013,3.996c-0.239,7.823-4.746,12.371-12.571,12.4C260.786,341.042,243.134,340.997,225.482,340.998z
			 M225.828,330.998c16.49,0,32.98-0.062,49.469,0.048c3.617,0.024,5.923-0.244,5.876-4.957c-0.044-4.436-1.858-5.162-5.702-5.149
			c-32.979,0.11-65.959,0.114-98.938-0.005c-3.93-0.014-5.646,0.878-5.637,5.229c0.009,4.258,1.849,4.917,5.463,4.889
			C192.848,330.925,209.339,330.997,225.828,330.998z"/>
	</g>
</g>
</svg>
