<?xml version="1.0" encoding="utf-8"?>
<!-- Generator: Adobe Illustrator 22.0.1, SVG Export Plug-In . SVG Version: 6.00 Build 0)  -->
<svg version="1.1" id="Слой_1" xmlns="http://www.w3.org/2000/svg" xmlns:xlink="http://www.w3.org/1999/xlink" x="0px" y="0px"
	 viewBox="0 0 470 470" style="enable-background:new 0 0 470 470;" xml:space="preserve">
<style type="text/css">
	.st0{fill:#A1A1A1;}
	.st1{fill:#9E9E9E;}
	.st2{fill:#A0A0A0;}
	.st3{fill:#9F9F9F;}
</style>
<g>
	<g>
		<path class="st0" d="M471,217c0,13,0,26,0,39c-0.957,5.502-2.025,10.988-2.854,16.509
			c-14.601,97.324-93.072,177.87-189.667,194.602c-8.14,1.41-16.318,2.598-24.479,3.889c-12.333,0-24.667,0-37,0
			c-5.686-0.935-11.365-1.913-17.058-2.8c-99.045-15.426-177.167-91.72-195.23-190.723C3.349,270.008,2.232,262.493,1,255
			c0-12.667,0-25.333,0-38c0.935-5.687,1.912-11.367,2.8-17.062C19.255,100.87,95.478,22.823,194.526,4.714
			C201.994,3.348,209.508,2.232,217,1c12.333,0,24.667,0,37,0c6.026,0.936,12.051,1.875,18.078,2.809
			c98.725,15.3,177.651,92.242,195.123,190.254C468.561,201.692,469.738,209.353,471,217z M235.759,11.011
			C111.865,11.094,10.972,112.147,11.011,236.115c0.039,123.922,101.035,224.87,224.979,224.874
			c124.148,0.004,225.121-101.128,224.998-225.354C460.866,111.774,359.748,10.928,235.759,11.011z"/>
		<path class="st1" d="M380.873,281.34c0,6.586,0,12.699,0,19.236c-96.501,0-192.809,0-289.444,0c0-6.443,0-12.67,0-19.236
			C187.907,281.34,284.094,281.34,380.873,281.34z"/>
		<path class="st1" d="M380.857,341.489c0,6.504,0,12.617,0,19.12c-96.438,0-192.632,0-289.29,0c0-6.164,0-12.393,0-19.12
			C187.746,341.489,284.048,341.489,380.857,341.489z"/>
		<path class="st2" d="M90.97,165.92c0.001-14.487-0.045-28.974,0.014-43.46c0.054-13.335,8.134-21.47,21.485-21.515
			c22.313-0.075,44.626-0.077,66.939,0c13.393,0.046,21.535,8.189,21.554,21.469c0.043,28.974,0.042,57.947,0.001,86.921
			c-0.019,13.226-8.311,21.549-21.511,21.58c-22.313,0.053-44.626,0.053-66.939,0c-13.228-0.031-21.479-8.301-21.531-21.535
			C90.926,194.894,90.97,180.407,90.97,165.92z M190.965,166c0-14.329,0.028-28.659-0.011-42.988
			c-0.022-8.328-3.602-12.041-11.762-12.06c-22.161-0.05-44.322-0.049-66.482,0c-7.947,0.018-11.698,3.72-11.711,11.595
			c-0.047,28.826-0.045,57.651-0.004,86.477c0.012,8.164,3.766,11.864,12.001,11.879c21.994,0.042,43.988,0.044,65.982-0.001
			c8.226-0.017,11.949-3.746,11.974-11.914C190.997,194.659,190.965,180.329,190.965,166z"/>
		<path class="st3" d="M380.862,101.43c0,6.461,0,12.567,0,19.2c-1.976,0.107-3.742,0.285-5.509,0.285
			c-49.618,0.015-99.236-0.048-148.853,0.114c-4.492,0.015-5.858-1.308-5.518-5.648c0.35-4.457,0.078-8.962,0.078-13.952
			C274.353,101.43,327.324,101.43,380.862,101.43z"/>
		<path class="st3" d="M221.061,180.554c0-2.359,0-4.475,0-6.591c0-4.117,0-8.234,0-12.663c53.496,0,106.363,0,159.636,0
			c0,6.376,0,12.602,0,19.253C327.785,180.554,274.918,180.554,221.061,180.554z"/>
		<path class="st3" d="M221.352,240.53c0-6.645,0-12.75,0-19.204c53.156,0,106.022,0,159.32,0c0,6.299,0,12.527,0,19.204
			C327.715,240.53,274.728,240.53,221.352,240.53z"/>
	</g>
</g>
</svg>
