<?xml version="1.0" encoding="utf-8"?>
<!-- Generator: Adobe Illustrator 22.0.1, SVG Export Plug-In . SVG Version: 6.00 Build 0)  -->
<svg version="1.1" id="Слой_1" xmlns="http://www.w3.org/2000/svg" xmlns:xlink="http://www.w3.org/1999/xlink" x="0px" y="0px"
	 viewBox="0 0 470 470" style="enable-background:new 0 0 470 470;" xml:space="preserve">
<style type="text/css">
	.st0{fill:#A1A1A1;}
	.st1{fill:#9F9F9F;}
	.st2{fill:#9E9E9E;}
	.st3{fill:#A0A0A0;}
</style>
<g>
	<g>
		<path class="st0" d="M254,471c-12.333,0-24.667,0-37,0c-5.686-0.936-11.366-1.915-17.061-2.8
			C101.133,452.834,22.324,376.007,4.787,277.924C3.482,270.624,2.26,263.308,1,256c0-13.333,0-26.667,0-40
			c0.935-5.338,1.956-10.662,2.791-16.015C19.207,101.097,95.96,22.327,194.032,4.81C201.671,3.445,209.343,2.266,217,1
			c12.333,0,24.667,0,37,0c4.878,0.732,9.75,1.512,14.636,2.188C368.473,17,449.439,94.808,467.204,194.062
			c1.365,7.628,2.535,15.291,3.796,22.938c0,12.333,0,24.667,0,37c-0.938,6.035-1.882,12.068-2.812,18.104
			c-15.203,98.587-92.183,177.564-190.209,195.086C270.013,468.614,261.994,469.737,254,471z M236.026,11.012
			C112.24,11.002,11.198,111.798,11.012,235.478c-0.187,124.297,100.774,225.502,224.965,225.511
			c123.996,0.009,225.001-100.973,225.011-224.961C460.999,112.034,360.01,11.022,236.026,11.012z"/>
		<path class="st1" d="M360.81,131.448c0,6.537,0,12.647,0,19.139c-53.113,0-105.975,0-159.294,0c0-6.201,0-12.427,0-19.139
			C254.385,131.448,307.361,131.448,360.81,131.448z"/>
		<path class="st1" d="M360.824,231.463c0,6.494,0,12.604,0,19.111c-53.099,0-105.962,0-159.294,0c0-6.158,0-12.384,0-19.111
			C254.358,231.463,307.333,231.463,360.824,231.463z"/>
		<path class="st2" d="M360.745,350.775c-53.368,0-106.118,0-159.275,0c0-6.441,0-12.67,0-19.34c52.99,0,105.974,0,159.275,0
			C360.745,337.856,360.745,344.085,360.745,350.775z"/>
		<path class="st3" d="M140.957,111.073c8.094-0.756,15.239,1.101,21.892,6.231c11.072,8.54,10.428,37.514,0.736,46.772
			c-9.233,8.821-36.191,8.959-45.5-0.3c-9.199-9.149-9.841-37.647,0.624-46.085C125.413,112.287,132.659,110.297,140.957,111.073z
			 M121.077,140.87c-0.437,0.133-0.873,0.265-1.31,0.398c1.599,4.742,2.646,9.77,4.919,14.162
			c4.065,7.854,27.695,7.341,32.797,0.227c4.985-6.952,5.14-23.987-0.721-30.109c-6.39-6.674-25.018-6.699-31.49-0.071
			C121.02,129.831,120.675,135.239,121.077,140.87z"/>
		<path class="st3" d="M110.992,240.717c0-16.277,6.391-26.534,19.49-28.885c6.883-1.236,14.349-1.137,21.251,0.073
			c11.369,1.993,19.051,12.028,19.2,23.569c0.072,5.62,0.222,11.411-0.972,16.837c-2.39,10.865-12.022,18.211-23.108,18.627
			c-2.824,0.106-5.654,0.046-8.481,0.04c-17.097-0.04-27.355-10.258-27.38-27.267C110.991,242.713,110.992,241.715,110.992,240.717z
			 M141.596,220.976c-10.852-0.005-15.849,1.685-18.534,7.774c-3.482,7.896-3.603,16.417-0.054,24.205
			c4.083,8.958,12.79,8.04,20.868,8.062c6.72,0.018,12.496-1.962,15.199-8.316c1.555-3.655,1.783-8.057,1.84-12.133
			C161.118,226.048,155.981,220.983,141.596,220.976z"/>
		<path class="st3" d="M140.731,370.981c-16.31,0.027-26.471-6.305-28.859-19.469c-1.248-6.876-0.468-14.192-0.005-21.271
			c0.173-2.648,1.704-5.405,3.2-7.737c7.767-12.109,20.939-13.691,37.768-10.317c11.552,2.316,18.142,12.81,18.17,25.977
			c0.006,2.993,0.09,5.991-0.037,8.979c-0.543,12.815-10.965,23.256-23.752,23.824C145.059,371.063,142.893,370.981,140.731,370.981
			z M141.066,360.912c7.989,0.759,16.04-0.651,18.329-9.153c1.812-6.732,0.536-14.35,0.225-21.557
			c-0.068-1.562-1.863-3.056-2.882-4.567c-4.393-6.515-26.683-6.077-31.626-0.119c-5.658,6.821-6.058,24.496,0.126,30.898
			C129.612,360.944,135.182,361.371,141.066,360.912z"/>
	</g>
</g>
</svg>
