<?xml version="1.0" encoding="utf-8"?>
<!-- Generator: Adobe Illustrator 22.0.1, SVG Export Plug-In . SVG Version: 6.00 Build 0)  -->
<svg version="1.1" id="Слой_1" xmlns="http://www.w3.org/2000/svg" xmlns:xlink="http://www.w3.org/1999/xlink" x="0px" y="0px"
	 viewBox="0 0 140 87" style="enable-background:new 0 0 140 87;" xml:space="preserve">
<style type="text/css">
	.st0{fill:#365A97;}
</style>
<g>
	<g>
		<path class="st0" d="M69,88c-0.086-0.318-0.076-0.719-0.271-0.94C59.45,76.546,50.494,65.722,40.775,55.631
			C28.081,42.449,14.782,29.85,1.824,17.08c5.245-5.041,9.989-9.601,14.572-14.005c17.856,17.525,36.221,35.549,54.34,53.332
			c18.38-18.066,36.73-36.103,54.794-53.859c4.806,4.794,9.45,9.425,14.62,14.581c-8.351,8.207-17.034,16.67-25.636,25.214
			C107.31,49.5,99.992,56.56,93.113,64.02c-5.546,6.016-10.411,12.655-15.793,18.831C75.561,84.87,73.126,86.3,71,88
			C70.333,88,69.667,88,69,88z"/>
	</g>
</g>
</svg>
