<svg id="Слой_1" xmlns="http://www.w3.org/2000/svg" viewBox="0 0 500 559"><style>.st0{fill:#757d82}.st5{fill:#a7a46d}</style><path class="st0" d="M102 560h-6c-7.153-5.57-7.812-8.875-3.345-16.926 5.979-10.774 11.975-21.538 17.952-32.313 1.824-3.289 3.609-6.601 5.456-9.984-1.825-1.243-3.202-2.165-4.562-3.111C53.751 457.525 17.768 403.2 4.855 333.873 3.439 326.273 2.279 318.625 1 311v-41c.358-1.024.889-2.023 1.045-3.077 1.095-7.409 1.837-14.881 3.198-22.239C24.997 137.84 113.674 55.332 222.116 42.827c6.39-.737 12.801-1.291 19.251-1.935V19.825c-2.04 0-3.823.002-5.606 0-5.998-.007-12.005.188-17.992-.071-8.077-.35-12.558-8.106-8.362-14.363C210.558 3.672 212.449 2.45 214 1h74c1.551 1.449 3.444 2.671 4.593 4.389 4.296 6.419-.45 14.173-8.858 14.385-7.61.192-15.229.041-23 .041v21.089c8.435.85 16.561 1.4 24.607 2.525 37.866 5.291 72.862 18.329 104.463 39.917 59.88 40.907 95.933 97.212 108.191 168.71 1.08 6.301 2.006 12.629 3.003 18.944v40c-.375 1.365-.943 2.709-1.098 4.099-7.376 66.011-36.004 120.957-86.043 164.608-8.734 7.619-18.29 14.295-27.707 21.592 7.698 13.862 15.45 27.816 23.196 41.774 4.462 8.039 3.798 11.377-3.348 16.926h-6c-2.38-2.67-5.221-5.06-7.05-8.066-4.491-7.382-8.521-15.045-12.728-22.6-3.464-6.221-6.916-12.448-10.371-18.67-79.384 39.579-158.32 39.579-237.57.065-.919 1.548-1.875 3.077-2.752 4.65-6.804 12.199-13.462 24.483-20.48 36.557-1.761 3.031-4.668 5.395-7.048 8.065zm148.953-38.536c127.46.041 230.948-103.145 231.195-230.52.247-127.222-103.238-230.917-230.6-231.068-127.882-.152-231.461 102.881-231.697 230.473-.235 127.403 103.43 231.074 231.102 231.115z"/><path class="st0" d="M251.068 500.817c-115.954.015-210.328-94.148-210.45-209.98-.123-116.053 94.437-210.48 210.567-210.27 116.174.209 210.1 94.107 210.203 210.138.101 115.669-94.419 210.097-210.32 210.112zM441.845 281.18c-2.145-97.611-88.078-179.712-181.49-180.995 0 1.784.012 3.562-.002 5.339-.047 5.996.13 12.006-.229 17.984-.301 5.013-4.638 8.566-9.452 8.382-4.688-.179-8.474-3.693-8.814-8.553-.255-3.649-.116-7.326-.13-10.991-.015-4.082-.003-8.165-.003-12.246-96.228 1.961-179.886 86.041-181.497 181.081 6.771 0 13.549-.052 20.327.014 7.193.07 11.584 3.846 11.431 9.687-.15 5.724-4.337 9.088-11.421 9.114-6.786.026-13.571.006-20.354.006 1.584 94.978 85.297 179.497 180.903 181.212.153-.289.436-.577.439-.867.079-6.994.176-13.989.164-20.984-.007-4.271 1.715-7.453 5.646-9.162 6.168-2.682 12.642 1.557 12.888 8.661.258 7.447.058 14.909.058 22.992 49.59-3.207 91.667-21.581 126.249-56.196 34.445-34.476 52.8-76.355 55.912-125.656-7.377 0-14.001.012-20.624-.003-7.462-.017-11.755-3.369-11.83-9.204-.077-5.998 4.351-9.565 12.02-9.609 6.473-.036 12.947-.006 19.809-.006z"/><path d="M270.619 177.826c4.524-5.677 8.587-10.702 12.566-15.793 3.012-3.856 6.588-6.239 11.63-4.392 4.967 1.82 6.314 5.811 6.288 10.761-.09 17.814-.008 35.628-.05 53.442-.016 6.903-3.677 11.157-9.378 11.135-5.642-.022-9.31-4.321-9.388-11.222-.081-7.158-.003-14.318-.038-21.476-.008-1.573-.198-3.146-.325-5.021-12.291 9.543-12.291 9.543-22.59-.616-.155 1.77-.371 3.139-.378 4.51-.04 8.158.128 16.32-.097 24.472-.15 5.456-4.147 9.255-9.163 9.338-5.018.082-9.434-3.623-9.492-8.988-.21-19.309-.169-38.623-.009-57.933.034-4.169 2.489-7.215 6.564-8.533 4.122-1.333 7.585.032 10.24 3.27 4.421 5.391 8.714 10.891 13.62 17.046zm-25.726 180.938c-.097 1.26-.141 2.728-.333 4.175-.588 4.411.912 6.146 5.717 6.007 8.307-.24 13.032 5.018 11.84 12.247-.873 5.294-5.132 8.427-11.726 8.624-5.258.157-7.885 4.304-5.5 9.128.465.94 2.378 1.587 3.65 1.632 5.324.188 10.66.002 15.987.129 7.258.173 11.523 4.042 11.587 10.298.064 6.248-4.271 10.5-11.319 10.613-9.992.16-19.99.175-29.981-.002-7.151-.127-11.024-4.157-11.052-11.379-.079-20.654-.08-41.309.003-61.964.03-7.452 3.99-11.266 11.543-11.328 9.66-.079 19.322-.077 28.983-.001 7.468.059 11.898 4.098 11.827 10.566-.07 6.365-4.614 10.3-12.077 10.409-5.992.088-11.985.122-17.977.21-.286.004-.568.298-1.172.636zm74.848 40.072c-3.576 6.576-6.525 12.157-9.624 17.653-3.154 5.593-8.391 7.369-13.407 4.717-4.918-2.601-6.487-8.179-3.559-13.799 4.381-8.409 8.849-16.778 13.553-25.009 1.702-2.979 1.609-5.327-.041-8.253-4.494-7.968-8.747-16.073-13.009-24.17-3.311-6.292-2.079-11.934 3.074-14.762 5.166-2.835 10.39-.744 13.864 5.621 2.925 5.36 5.783 10.756 9.157 17.042 3.62-6.615 6.668-12.463 9.979-18.158 3.56-6.121 10.409-7.336 15.147-2.897 3.438 3.221 4.128 7.534 1.613 12.328-4.482 8.544-8.992 17.08-13.786 25.45-1.634 2.852-1.501 4.986.06 7.764 4.725 8.41 9.182 16.971 13.699 25.497 2.182 4.119 1.83 8.09-1.311 11.557-2.872 3.17-6.682 4.138-10.435 2.28-2.209-1.094-4.186-3.285-5.493-5.451-3.241-5.37-6.038-11.009-9.481-17.41z" fill="#a6a46c"/><path class="st0" d="M313.083 293.005c4.269 4.361 8.223 8.39 12.166 12.431 4.572 4.686 4.989 10.11 1.098 14.104-3.823 3.924-9.676 3.802-14.127-.762-3.58-3.671-6.694-7.797-10.014-11.722l-1.829 1.29c-.116 1.367-.268 2.733-.342 4.103-.32 5.915-3.819 9.689-9.125 9.812-5.553.128-9.466-3.663-9.642-9.803-.196-6.814-.06-13.639-.061-20.459-.003-11.145-.048-22.29.017-33.434.045-7.765 3.541-11.27 11.301-11.361 4.82-.056 9.681-.268 14.457.232 10.634 1.116 18.915 8.71 20.863 18.601 2.006 10.181-2.541 19.855-11.898 25.311-.845.491-1.692.978-2.864 1.657zm-12.828-16.496c3.411-1.342 6.198-1.994 8.36-3.527.761-.54.635-4.21-.199-4.758-2.2-1.448-5.01-1.968-8.161-3.06v11.345z"/><path class="st5" d="M170.851 422.977c-3.162 0-6.331.133-9.485-.03-5.446-.28-9.233-4.08-9.339-9.142-.105-5.015 3.536-9.212 8.922-9.579 5.137-.35 10.313-.105 15.472-.163 5.643-.063 8.934-2.59 9.184-6.989.259-4.555-3.067-7.589-8.808-8.035-13.836-1.074-24.384-11.87-24.783-25.365-.41-13.888 9.412-25.492 23.474-26.961 6.586-.688 13.306-.522 19.94-.208 5.542.262 8.909 4.315 8.798 9.549-.11 5.175-3.743 8.854-9.289 9.056-4.987.182-9.986.012-14.978.093-5.723.093-8.834 2.593-9.063 7.134-.234 4.625 2.527 7.267 8.239 7.886 15.76 1.707 25.799 12.938 25.079 28.058-.684 14.382-12.262 24.652-27.87 24.719-1.831.008-3.662.001-5.493.001v-.024z"/><path class="st0" d="M224.751 284.543c0-4.497-.098-8.997.018-13.492.348-13.385 9.858-23.313 22.712-23.814 12.532-.488 23.443 9.274 24.131 22.407.531 10.132.558 20.34-.014 30.467-.751 13.301-11.275 22.564-24.201 22.184-12.657-.372-22.179-10.109-22.604-23.262-.156-4.825-.025-9.66-.025-14.49h-.017zm28.233-.041c0-4.157-.01-8.314.003-12.47.011-3.216-1.168-5.769-4.645-5.915-3.556-.149-4.929 2.429-4.959 5.597-.084 8.811-.074 17.624.002 26.436.026 2.99 1.407 5.373 4.642 5.409 3.451.039 4.938-2.285 4.951-5.588.017-4.49.004-8.98.006-13.469z"/><path d="M334.581 175.921c0 2.535.079 4.186-.018 5.828-.157 2.667.804 4.114 3.693 3.924a20.833 20.833 0 0 1 3.986.135c4.873.623 8.222 4.352 8.254 9.092.032 4.769-3.265 8.574-8.053 9.29-.329.049-.662.071-.993.099-7.697.667-7.858.901-6.135 9.837 5.283 0 10.725-.032 16.167.008 7.125.053 11.571 3.812 11.481 9.635-.087 5.645-4.402 9.196-11.321 9.225-8.322.034-16.646.059-24.968-.009-7.342-.06-10.783-3.411-10.806-10.649-.06-18.143-.06-36.287-.003-54.43.024-7.564 3.405-10.842 11.08-10.894 8.322-.056 16.646-.059 24.968.002 6.799.05 11.118 3.827 11.054 9.508-.063 5.645-4.399 9.306-11.255 9.385-5.455.064-10.911.014-17.131.014z" fill="#a6a36c"/><path class="st0" d="M192.074 266.579v11.45c10.828 2.319 14.169 4.914 13.777 10.542-.386 5.551-3.79 7.924-14.056 9.303 0 4.264.037 8.669-.008 13.072-.074 7.25-3.697 11.461-9.686 11.337-5.726-.119-9.111-4.253-9.123-11.324-.03-17.476-.033-34.953.002-52.429.016-7.838 3.385-11.245 11.271-11.33 8.155-.088 16.312-.082 24.467 0 6.922.07 11.192 3.714 11.238 9.374.046 5.706-4.227 9.349-11.11 9.424-5.158.056-10.317.059-15.475.109-.301.003-.6.211-1.297.472z"/><path class="st5" d="M153.888 175.911c-3.902 0-6.895.113-9.876-.024-5.991-.276-10.08-4.303-9.973-9.654.104-5.205 4.065-9.123 9.845-9.183 12.828-.134 25.66-.126 38.489-.005 5.907.055 9.685 3.746 9.834 9.093.155 5.557-3.643 9.419-9.764 9.736-2.962.154-5.938.027-9.431.027-.133 2.366-.332 4.291-.336 6.217-.029 12.996.093 25.995-.109 38.988-.042 2.707-.633 5.779-2.042 8.005-2.22 3.508-5.981 4.776-10.097 3.391-4.228-1.423-6.504-4.505-6.513-9.045-.028-13.663-.02-27.326-.026-40.989-.002-1.958-.001-3.913-.001-6.557z"/><path d="M204.744 194.628c-.002-8.999-.065-17.999.02-26.998.061-6.528 3.835-10.678 9.38-10.586 5.376.089 9.109 4.072 9.144 10.341.103 18.498.11 36.997-.004 55.495-.038 6.14-4.011 10.153-9.394 10.091-5.362-.062-9.055-4.116-9.119-10.346-.097-9.331-.026-18.664-.027-27.997z" fill="#a6a36b"/><path d="M300.255 276.509v-11.345c3.15 1.091 5.96 1.612 8.161 3.06.834.549.961 4.219.199 4.758-2.162 1.533-4.949 2.185-8.36 3.527z" fill="#fafafa"/><path d="M252.983 284.502c-.001 4.489.012 8.979-.006 13.468-.013 3.303-1.499 5.627-4.951 5.588-3.234-.036-4.616-2.419-4.642-5.409-.076-8.811-.086-17.624-.002-26.436.03-3.167 1.403-5.746 4.959-5.597 3.477.146 4.656 2.699 4.645 5.915-.012 4.157-.002 8.314-.003 12.471z" fill="#f7f8f8"/></svg>