<svg xmlns="http://www.w3.org/2000/svg" viewBox="0 0 500 676"><path d="M16.147.717h470.075c8.019 5.474 8.733 8.543 5.553 17.819-6.922 20.196-14.107 40.329-20.169 60.788-9.824 33.154-18.143 66.687-19.943 101.451-.717 13.85.787 27.242 5.96 40.395 12.425 31.598 18.855 64.635 21.986 98.363.641 6.901.479 14.009 2.13 20.663 9.964 40.149 15.569 80.898 17.952 122.145.356 6.159 1.015 12.301 1.534 18.451v70.011c-.267.727-.729 1.443-.773 2.183-.6 10.118-.738 20.281-1.778 30.351-2.879 27.876-6.048 55.723-9.295 83.559-.742 6.358-5.008 9.738-11.483 9.741-66.803.03-133.605.03-200.408 0-6.276-.003-10.255-3.369-11.291-9.466-3.93-23.114-7.793-46.24-11.692-69.359-.923-5.474-1.89-10.941-2.836-16.412-1.026.679-1.231 1.29-1.337 1.917-4.678 27.631-9.337 55.265-14.026 82.893-1.27 7.483-4.831 10.44-12.535 10.441-66.108.009-132.217.01-198.325-.002-7.786-.001-11.443-3.204-12.652-10.86C5.259 618.117 1.622 570.12 1.199 521.88c-.477-54.569 3.537-108.74 14.935-162.227 2.02-9.477 4.845-18.918 5.583-28.507 3-38.966 9.88-77.009 24.279-113.509a62.194 62.194 0 0 0 3.459-12.38c3.147-18.626.931-37.128-2.137-55.504-7.519-45.044-20.842-88.495-36.676-131.228C7.229 9.316 8.128 6.196 16.147.717zm111.321 341.342c-4.333-6.451-8.283-12.282-12.18-18.149-4.119-6.202-3.32-12.58 1.965-16.141 5.337-3.596 11.466-1.994 15.676 4.191 6.171 9.066 12.345 18.132 18.381 27.288 1.441 2.185 2.963 3.151 5.703 3.147 63.057-.085 126.113-.086 189.17.002 2.769.004 4.247-1.047 5.673-3.204 6.046-9.149 12.213-18.219 18.387-27.284 4.204-6.173 10.325-7.732 15.683-4.096 5.271 3.577 6.039 9.911 1.893 16.149-3.381 5.087-6.847 10.117-10.234 15.2-.556.834-.896 1.812-1.415 2.888h83.73c-.671-8.314-1.167-16.33-1.989-24.312-3.253-31.602-9.763-62.431-21.245-92.178-2.715-7.034-4.451-14.633-5.396-22.128-2.684-21.297-.019-42.409 3.719-63.368 6.861-38.476 18.015-75.795 30.831-112.651.534-1.535.992-3.096 1.605-5.024H34.969c.887 2.73 1.624 5.077 2.41 7.406 15.805 46.865 30.26 94.066 34.185 143.738 1.296 16.399 1.54 32.949-4.54 48.552-10.595 27.187-17.615 55.208-21.223 84.099-1.475 11.807-2.362 23.688-3.55 35.873 28.607.002 56.449.002 85.217.002zm-94.35 312.96c.793.094 1.335.214 1.877.214 59.444.013 118.888.003 178.332.071 2.706.003 3.433-1.036 3.853-3.555 7.657-45.982 15.431-91.945 23.153-137.917 1.14-6.786 4.882-10.603 10.68-10.664 6.058-.064 9.89 3.704 11.032 10.725 1.359 8.353 2.706 16.71 4.274 25.024.21 1.111 1.635 2.784 2.58 2.842 9.494.58 18.047-1.341 24.974-8.741 6.666-7.121 9.347-15.201 8.142-24.76-1.245-9.876 1.386-18.665 8.728-25.387 17.81-16.306 35.618-32.637 54.006-48.277 7.232-6.152 9.276-13.126 7.951-21.717-.831-5.39-2.305-6.321-7.745-6.321-73.194-.001-146.388 0-219.582-.003-1.527 0-3.065.074-4.58-.074-5.747-.56-9.819-4.878-9.93-10.432-.115-5.729 3.988-10.264 9.894-10.891.963-.102 1.942-.06 2.914-.06 76.753-.003 153.506-.003 230.259-.003h95.515l-4.132-21.219H37.04l-4.121 21.219h5.41c20.139 0 40.278-.016 60.416.012 5.853.008 9.936 2.622 11.498 7.183 2.558 7.471-2.747 14.223-11.367 14.247-21.389.058-42.778.02-64.166.02h-4.785c-10.539 48.375-8.471 207.885 3.193 248.464zm356.88-248.263c.305 1.866.656 3.474.819 5.101 1.364 13.608-1.838 25.529-12.511 34.895-17.725 15.554-35.307 31.271-53.017 46.842-4.588 4.034-5.963 8.726-5.347 14.84 2.538 25.194-15.328 47.48-40.442 50.925-3.086.423-6.202.632-9.409.95.148 1.575.186 2.825.392 4.047 4.838 28.721 9.781 57.425 14.443 86.175.629 3.878 2 4.822 5.788 4.814 58.038-.127 116.076-.089 174.113-.089h4.902c11.071-83.018 13.977-165.623 3.114-248.502-27.872.002-55.182.002-82.845.002z" fill="#757d82"/><path d="M251.952 117.841c-8.573 5.991-16.072 11.958-24.246 16.781-14.226 8.393-30.052 10.392-46.259 9.254-25.596-1.796-47.766-11.744-66.564-29.127-2.712-2.508-5.033-5.558-7.06-8.667-5.762-8.837-11.317-17.81-16.877-26.777-3.744-6.038-2.594-12.334 2.724-15.684 5.218-3.287 11.529-1.533 15.314 4.406 5.597 8.78 11.091 17.625 16.649 26.43.738 1.169 1.447 2.413 2.419 3.368 21.297 20.94 54.888 31.399 84.068 20.433 10.546-3.963 19.27-10.426 25.828-19.589 1.266-1.768 2.105-4.262 2.129-6.432.182-16.387.051-32.778.155-49.167.033-5.283 3.205-9.113 8.031-10.358 4.473-1.154 9.629.893 11.661 5.14.973 2.033 1.359 4.521 1.376 6.807.116 15.555-.077 31.114.192 46.665.048 2.794 1.138 6.049 2.833 8.257 10.986 14.308 26.033 21.364 43.703 22.733 24.163 1.873 45.002-6.326 63.031-22.131 1.947-1.707 3.601-3.858 5.012-6.048 5.563-8.636 10.938-17.393 16.455-26.059 3.789-5.953 10.047-7.735 15.302-4.49 5.333 3.293 6.536 9.657 2.805 15.664-6.079 9.789-11.933 19.739-18.476 29.211-6.354 9.198-15.589 15.367-25.118 20.871-23.684 13.68-49.011 18.396-75.805 12.154-14.313-3.334-26.724-10.687-37.187-21.124-.975-.973-1.771-2.126-2.095-2.521zm-.836 105.748c-9.817 9.947-20.983 17.083-34.133 19.866-33.179 7.021-61.69-2.547-85.769-25.964-4.674-4.546-4.51-11.036-.261-15.282 4.354-4.351 10.762-4.172 15.582.562 15.49 15.215 33.936 22.833 55.74 21.305 14.191-.995 26.318-6.639 35.355-17.873 1.578-1.962 2.631-4.919 2.682-7.441.264-13.188.074-26.385.149-39.577.04-7.038 4.519-11.805 10.783-11.763 6.244.042 10.521 4.825 10.646 11.914.017.972.005 1.944.005 2.916 0 12.221-.135 24.445.116 36.661.049 2.4 1.017 5.244 2.534 7.08 13.139 15.91 30.627 20.239 50.201 17.632 15.905-2.118 29.507-9.297 40.873-20.674 4.826-4.83 11.124-5.155 15.589-.918 4.468 4.239 4.669 10.879-.189 15.572-24.768 23.926-53.968 33.349-87.83 25.314-10.887-2.583-20.458-8.496-28.726-16.226-.997-.935-2.003-1.859-3.347-3.104z" fill="#a6a36c"/><path d="M240.618 295.418c0-2.212-.276-4.467.054-6.629.846-5.534 5.257-9.136 10.703-9.052 5.255.081 9.668 3.626 10.28 9.018a60.13 60.13 0 0 1 .05 12.843c-.588 5.715-5.32 9.44-10.916 9.261-5.362-.171-9.567-4.048-10.224-9.631-.225-1.911-.036-3.872-.036-5.809l.089-.001z" fill="#767e83"/></svg>