<svg id="Слой_1" xmlns="http://www.w3.org/2000/svg" viewBox="0 0 500 503"><style>.st1{fill:#767e82}.st3{fill:#767d82}.st5{fill:#a9a771}.st6{fill:#a6a36c}</style><path class="st1" d="M305 504c-5.184-3.356-5.973-7.634-4.437-13.658 24.371-95.556 48.511-191.17 72.752-286.759.576-2.271 1.174-3.867-1.804-5.075-23.892-9.697-47.717-19.559-71.572-29.349-.437-.179-.978-.107-2.08-.209-.568 5.942-1.211 11.842-1.682 17.757-1.455 18.255-2.845 36.515-4.261 54.773-.064.83-.078 1.671-.228 2.486-.861 4.672-4.009 7.352-8.211 7.031-4.203-.321-6.965-3.438-6.673-8.34.714-11.966 1.646-23.92 2.579-35.872 1.191-15.269 2.595-30.522 3.636-45.801.325-4.762 1.836-8.443 5.329-11.837 30.473-29.61 60.803-59.368 91.183-89.073 6.512-6.367 11.506-5.43 15.312 2.907 8.776 19.223 17.513 38.463 26.268 57.696.207.454.449.893.644 1.352 2.405 5.658 1.229 10.043-3.186 11.898-4.359 1.832-8.037-.016-10.568-5.497-3.768-8.156-7.429-16.362-11.159-24.536-.744-1.63-1.594-3.212-3.438-4.683l-2.331 86.966 40.304-6.321c-3.56-7.838-6.957-15.209-10.243-22.631-.799-1.805-2.199-4.163-1.625-5.582 1.078-2.668 2.925-5.646 5.305-7.016 3.291-1.895 6.847-.061 8.412 3.204 5.681 11.849 11.159 23.803 16.306 35.89.838 1.967-.023 4.917-.704 7.234-23.63 80.417-47.326 160.814-71.029 241.209-6.161 20.896-12.509 41.739-18.462 62.693-1.237 4.353-3.243 7.41-7.336 9.14h-3c-6.469-4.004-5.479-9.466-3.648-15.654 28.39-95.961 56.649-191.961 84.922-287.957.397-1.347.586-2.755.948-4.502-1.364 0-2.18-.103-2.961.015-12 1.822-23.984 3.754-36 5.466-3.353.478-3.571 2.926-4.168 5.282-24.273 95.707-48.569 191.408-72.709 287.148-1.172 4.647-2.873 8.277-7.383 10.202C307 504 306 504 305 504zm73.723-421.899l-74.099 72.521 71.335 29.273c.925-34.029 1.825-67.207 2.764-101.794z"/><path class="st1" d="M232 504c-4.469-2.96-5.745-6.87-5.159-12.321 3.147-29.283 5.928-58.606 8.82-87.916 2.467-25.006 4.916-50.013 7.357-75.022.159-1.634.179-3.281.288-5.4a2991231.4 2991231.4 0 0 1-88.385-11.158c1.218 9.274 2.367 18.107 3.543 26.937.417 3.132 1.024 6.244 1.325 9.386.434 4.528-2.321 8.137-6.394 8.658-4.421.566-7.758-1.685-8.459-6.451-2.275-15.468-4.44-30.957-6.278-46.481-.251-2.12 1.031-4.995 2.545-6.667 26.273-29.016 52.672-57.916 79.102-86.789 4.036-4.409 8.384-4.159 12.816.675 20.261 22.1 40.463 44.254 60.685 66.391 5.28 5.78 10.358 11.763 15.901 17.278 3.656 3.638 4.989 7.51 4.274 12.559-2.589 18.281-4.99 36.589-7.458 54.887-3.847 28.518-7.703 57.035-11.532 85.556-2.103 15.662-4.245 31.32-6.181 47.003-.553 4.48-3.03 7.077-6.81 8.876h-3c-4.694-3.004-6.07-6.918-5.191-12.647 3.023-19.719 5.473-39.527 8.136-59.301 4.238-31.474 8.481-62.948 12.7-94.425 1.048-7.821 2.012-15.653 3.102-24.166-11.092 2.662-21.407 5.145-31.726 7.613-7.513 1.797-7.31 1.808-8.056 9.778-2.338 25.008-4.818 50.004-7.292 74.999-2.867 28.967-5.891 57.919-8.583 86.902-.488 5.258-2.083 9.158-7.091 11.246H232zm-9.468-273.2l-60.979 66.86 80.183 10.044-19.204-76.904zm69.999 68.154l-49.48-54.174-1.256.682 15.572 62.076 35.164-8.584z"/><path class="st3" d="M106 504c-1.926-3.384-4.395-6.572-5.7-10.181-32.585-90.091-65.045-180.228-97.55-270.348-.436-1.21-1.16-2.316-1.75-3.471v-6c2.218-5.113 4.615-10.157 6.626-15.35 11.834-30.559 23.581-61.152 35.353-91.735 3.13-8.133 8.211-9.482 14.813-3.774 28.483 24.626 56.978 49.238 85.301 74.046 2.165 1.896 3.928 5.14 4.358 7.987 3.631 24.017 6.934 48.083 10.267 72.144.619 4.469-2.146 8.207-6.194 8.806-4.398.651-7.869-1.529-8.606-6.279-2.448-15.781-4.604-31.608-6.865-47.418-.753-5.266-1.486-10.535-2.296-16.29-1.34.478-2.54.779-3.625 1.313-13.29 6.539-26.524 13.195-39.872 19.613-2.994 1.439-3.734 2.999-2.815 6.201 2.018 7.029 3.753 14.148 5.361 21.284 1.488 6.606-2.209 11.271-8.1 10.506-4.116-.535-5.78-3.446-6.674-7.097-2.015-8.227-4.079-16.443-6.258-25.206l-52.517 1.789c4.054 11.256 7.754 21.543 11.462 31.827 28.208 78.24 56.421 156.478 84.62 234.721 2.469 6.85 2.063 8.269-3.339 12.912h-6zM82.713 203.916l43.425-21.463-60.478-52.438-1.091.582 18.144 73.319zm-33.304-71.591l-29.638 76.907 48.305-1.605-18.667-75.302z"/><path d="M145 504c-2.043-3.615-5.018-6.996-5.992-10.878-18.33-73.083-36.423-146.225-54.561-219.356a35.356 35.356 0 0 1-.622-2.928c-.745-4.686 1.29-8.136 5.446-9.285 3.925-1.085 7.811 1.116 9.069 5.714 2.371 8.661 4.437 17.406 6.599 26.123 16.256 65.542 32.501 131.087 48.759 196.629 2.088 8.417 1.287 10.437-5.7 13.982L145 504zm25 0c-4.113-2.578-5.539-6.337-6.162-11.134-4.944-38.062-10.157-76.09-15.312-114.125-.715-5.276 1.56-9.139 5.942-9.832 4.683-.74 8.085 1.673 8.885 7.154 2.616 17.919 5.01 35.872 7.424 53.82 2.791 20.75 5.36 41.531 8.362 62.25.844 5.827-.945 9.536-6.138 11.867H170z" fill="#767e83"/><path class="st5" d="M501 399c-2.655 3.614-6.175 5.06-10.682 4.853-5.295-.244-10.612.041-15.914-.089-5.273-.129-8.446-3.168-8.437-7.78.009-4.583 3.2-7.658 8.465-7.785 5.966-.144 12.003-.558 17.879.182 3.042.383 5.802 3.007 8.689 4.619v6z"/><path class="st6" d="M98 1c3.909 2.431 5.365 5.878 5.102 10.505-.321 5.636.014 11.306-.115 16.957-.11 4.804-2.915 7.681-7.251 7.79-4.682.118-7.598-2.696-7.721-7.787-.136-5.651.199-11.32-.114-16.957C87.644 6.889 89.072 3.423 93 1h5z"/><path class="st3" d="M253.179 147.433c-1.978 1.197-3.25 1.85-4.396 2.679-11.329 8.195-22.577 16.505-33.994 24.575-2.767 1.956-3.895 4.054-3.63 7.426.403 5.138.495 10.311.482 15.469-.017 6.759-3.297 9.665-9.951 9.464-3.035-.092-4.75-1.241-4.864-4.352-.232-6.317-.738-12.644-.539-18.948.122-3.873-1.361-5.455-4.803-6.772-22.358-8.556-44.632-17.333-66.93-26.047-8.716-3.406-9.953-8.401-3.681-15.437a35495.58 35495.58 0 0 1 59.596-66.653c5.036-5.62 8.094-5.81 13.967-1.042 23.138 18.781 46.225 37.626 69.443 56.307 3.605 2.901 5.042 6.188 4.959 10.736-.45 24.64-.712 49.283-1.083 73.925-.025 1.643-.178 3.357-.678 4.907-1.303 4.037-5.065 5.799-10.115 5.306-4.625-.452-4.511-3.974-4.49-7.019.136-19.48.453-38.96.704-58.439.023-1.765.003-3.529.003-6.085zm-54.138-55.476l-.453-.436.379.508c1.341 9.705 2.596 19.422 4.044 29.111 1.911 12.784 3.974 25.546 6.08 39.011l39.567-28.752c-10.877-8.856-21.137-17.319-31.523-25.625-5.924-4.738-12.054-9.221-18.094-13.817zm-4.999 69.732l-11.365-72.636-45.179 50.551 56.544 22.085z"/><path d="M68.662 53.752c-3.328 0-6.672.206-9.981-.049-4.711-.363-7.627-3.427-7.68-7.608-.056-4.389 3.061-7.712 7.945-7.866 6.484-.205 12.986-.22 19.468.022 4.627.172 7.57 3.396 7.627 7.626.06 4.454-2.995 7.515-7.893 7.903-.331.026-.665.014-.998.014l-8.488.001v-.043zm53.775-15.581c3.162 0 6.332-.136 9.485.031 4.924.261 8.056 3.374 8.077 7.761.02 4.18-2.878 7.505-7.549 7.705-6.81.293-13.659.355-20.459-.038-4.322-.25-6.987-3.087-6.996-7.621-.009-4.536 2.662-7.18 6.968-7.686 3.446-.405 6.979-.082 10.473-.082l.001-.07z" fill="#a9a671"/><path class="st5" d="M429.905 403.77c-3.328 0-6.668.183-9.981-.043-4.978-.339-7.99-3.496-7.899-7.894.09-4.372 3.231-7.483 8.2-7.619 6.319-.173 12.651-.199 18.967.019 4.898.169 7.933 3.469 7.851 7.916-.083 4.45-3.15 7.348-8.152 7.629-1.493.084-2.995.017-4.492.018h-4.493l-.001-.026z"/><path class="st6" d="M87.999 72.969c-.005-3.328-.143-6.662.029-9.981.232-4.486 3.034-7.176 7.255-7.282 4.445-.111 7.554 2.654 7.679 7.346.181 6.817.184 13.646-.002 20.462-.117 4.284-3.323 7.334-7.239 7.457-4.102.129-7.437-3.004-7.678-7.522-.188-3.484-.039-6.986-.044-10.48zm376.019 296.119c-.004 3.159.095 6.322-.027 9.477-.187 4.851-2.903 7.625-7.326 7.698-4.376.073-7.505-2.764-7.628-7.413a398.463 398.463 0 0 1-.003-19.95c.11-4.649 3.219-7.787 7.334-7.876 4.263-.092 7.469 3.228 7.633 8.088.111 3.322.021 6.65.017 9.976zm-.015 54.333c0 3.326.137 6.658-.034 9.975-.233 4.519-3.524 7.674-7.617 7.579-3.923-.091-7.16-3.097-7.286-7.394-.205-6.977-.226-13.971.013-20.947.147-4.304 3.414-6.986 7.599-6.908 4.239.079 6.947 2.746 7.323 7.218.028.331.021.665.021.997l.001 9.478c-.007.002-.014.002-.02.002z"/></svg>