<svg xmlns="http://www.w3.org/2000/svg" viewBox="0 0 499 633"><path d="M500 184c-1.151 5.111-2.24 10.238-3.466 15.331-3.184 13.218-8.707 25.433-15.581 37.14-66.689 113.574-133.313 227.185-199.952 340.788-.418.713-.794 1.451-1.344 2.46.824.766 1.587 1.573 2.445 2.258 8.598 6.867 12.895 15.759 11.373 26.717-1.628 11.719-8.444 19.625-19.582 23.757-1.016.377-1.931 1.025-2.893 1.548h-13c-3.228-1.603-6.546-3.049-9.67-4.833-74.118-42.321-148.168-84.762-222.37-126.934C15.386 496.224 5.331 490.198 1 478v-13c2.188-4.023 3.851-8.466 6.662-11.993 8.734-10.96 21.641-13.375 37.066-7.245 5.422-9.219 10.893-18.503 16.347-27.798 62.262-106.119 124.234-212.41 186.919-318.279 26.224-44.29 66.243-64.932 117.622-63.477 4.799.136 9.597 1.027 14.349 1.841 2.841.487 4.66-.067 6.046-2.814 1.946-3.857 4.227-7.556 6.525-11.221 6.651-10.608 16.038-17.625 28.055-21.161C422.11 2.405 423.532 1.625 425 1h17c1.968.685 3.915 1.439 5.908 2.044 24.386 7.4 39.16 32.228 32.74 56.789-2.099 8.029-6.788 15.451-10.801 22.876-1.626 3.009-1.556 4.716.658 7.305 13.565 15.863 22.536 34.045 26.753 54.526.923 4.485 1.829 8.973 2.742 13.46v26zM463.754 49.578c-.756-12.993-9.613-24.748-21.932-28.235-12.569-3.558-25.94 1.634-32.892 12.932-3.576 5.811-6.888 11.785-10.367 17.657-4.318 7.289-7.015 8.038-15.208 6.604-8.982-1.572-18.159-3.488-27.175-3.16-39.687 1.444-70.759 18.831-91.046 53.223-59.715 101.228-119.022 202.696-178.485 304.072-9.686 16.513-19.328 33.053-29.043 49.549-4.245 7.207-8.936 8.359-16.254 4.191-2.169-1.236-4.296-2.565-6.541-3.646-5.077-2.443-10.563-.887-13.062 3.577-2.542 4.542-1.092 9.93 3.556 13.018 1.384.92 2.855 1.712 4.3 2.538 66.181 37.848 132.363 75.696 198.548 113.539 10.549 6.031 21.048 12.153 31.694 18.008 4.844 2.664 10.504.974 13.085-3.37 2.767-4.657 1.254-10.158-3.741-13.37-1.537-.989-3.18-1.814-4.769-2.723-9.231-5.278-10.292-9.111-5.006-18.123C328.228 458.542 397.044 341.23 465.85 223.911c7.855-13.394 12.87-27.779 14.152-43.282 2.723-32.933-7.329-61.34-30.575-84.99-4.151-4.224-4.556-7.86-1.627-13.105 3.408-6.103 7.295-11.958 10.398-18.206 2.325-4.682 3.737-9.817 5.556-14.75z" fill="#757d82"/><path d="M244.118 557.972c-9.127.135-13.52-7.705-9.452-14.934 6.284-11.165 12.835-22.179 19.282-33.253a1645477.88 1645477.88 0 0 1 129.355-222.177c.835-1.433 1.669-2.908 2.75-4.149 3.368-3.863 8.53-4.575 12.613-1.881 4.118 2.716 5.688 7.742 3.252 12.287-3.849 7.183-8.055 14.176-12.158 21.222-45.802 78.658-91.621 157.307-137.399 235.979-2.21 3.803-4.826 6.774-8.243 6.906zM461.08 168.138c-.13 19.006-3.946 32.978-11.238 46.005-2.199 3.928-5.474 6.386-10.191 5.739-4.141-.568-7.438-2.945-8.003-7.115-.367-2.712.354-5.984 1.65-8.445 13.277-25.2 10.641-53.968-7.856-75.556-4.681-5.463-10.807-9.785-16.638-14.138-5.565-4.155-7.444-9.038-4.426-13.964 3.121-5.093 8.876-6.183 14.843-2.424 27.188 17.126 40.849 41.952 41.859 69.898z" fill="#a7a46d"/></svg>