<svg id="Слой_1" xmlns="http://www.w3.org/2000/svg" viewBox="0 0 210 238"><style>.st0{fill:#a7a46d}</style><path class="st0" d="M103 1h6c7.548 5.709 14.732 11.997 22.716 17.012 20.343 12.779 43.101 17.221 66.785 17.455 5.963.059 10.253 1.827 12.499 7.533v66c-.666 3.836-1.519 7.65-1.97 11.512-5.662 48.48-28.741 85.065-73.207 106.891-8.734 4.287-17.871 7.752-26.823 11.597h-7c-1.881-.942-3.689-2.088-5.655-2.797-53.066-19.126-85.394-55.386-92.919-112.221C2.762 118.969 1.815 113.993 1 109V42c2.861-4.975 7.201-6.506 12.84-6.551 17.723-.14 34.996-2.963 51.53-9.7C79.56 19.968 91.521 10.868 103 1zM18.15 52.161c.645 22.056.296 43.576 2.101 64.914 3.762 44.484 25.127 77.791 66.314 96.667 23.196 10.631 15.657 10.598 38.792.024 31.891-14.576 53.377-38.589 62.332-73.017 4.994-19.199 5.742-38.821 5.784-58.51.021-9.937.004-19.875.004-30.097-33.03-1.449-62.279-10.524-87.491-31.506-25.108 20.98-54.372 30.017-87.836 31.525z"/><path class="st0" d="M93.939 131.213c13.499-12.854 26.508-25.247 39.528-37.628 1.204-1.145 2.381-2.359 3.742-3.292 3.715-2.547 8.98-1.862 11.802 1.402 2.867 3.315 2.824 7.806-.706 11.209-15.934 15.361-31.94 30.648-48.054 45.818-4.002 3.767-8.903 3.583-13.023-.244-7.802-7.248-15.49-14.622-23.102-22.069-3.928-3.843-4.13-8.496-.874-11.93 3.275-3.455 8.712-3.763 12.592-.279 6.043 5.426 11.851 11.117 18.095 17.013z"/></svg>