<svg id="Слой_1" xmlns="http://www.w3.org/2000/svg" viewBox="0 0 2320 1240"><style>.st0{fill:#a5a9ab}.st1{fill:#293136}</style><path class="st0" d="M1 21h9.999v7.315c0 395.893-.002 791.785.034 1187.678 0 2.937.514 5.875.789 8.812v6.192h59.216c672.004.001 1344.008.002 2016.012-.002 1.665 0 3.329-.079 4.993-.122 17.995.042 35.99.116 53.986.121 58.323.016 116.647.006 174.97.006v9.999H.999L1 21z"/><path class="st1" d="M236.16 87.994c-.91-1.337-1.727-2.75-2.744-3.999-12.097-14.857-16.117-31.385-9.441-49.649 6.568-17.968 19.546-28.814 38.397-32.513.575-.112 1.087-.548 1.628-.833h14c3.422 1.029 6.901 1.898 10.255 3.113 19.563 7.088 32.967 26.102 32.659 46.704-.075 5.042-1.192 10.068-1.83 15.101-.305.589-.669 1.156-.905 1.772-12.651 32.99-50.808 43.752-78.7 22.21-1.001-.772-2.208-1.276-3.319-1.906z"/><path d="M2092.044 1230.873c-1.665.042-3.329.122-4.993.122-672.004.004-1344.008.003-2016.013.002.662-11.434 1.298-22.87 1.992-34.302.694-11.433 1.374-22.868 2.184-34.293 1.894-26.723 3.9-53.438 5.78-80.162.782-11.117 1.155-22.266 2.079-33.369 1.061-12.738 2.658-25.432 3.789-38.165 2.194-24.692 4.03-49.416 6.371-74.093 3.031-31.956 6.336-63.887 9.663-95.814 2.999-28.782 5.926-57.575 9.358-86.307a5455.228 5455.228 0 0 1 12.716-98.949c4.82-34.913 9.416-69.884 15.46-104.594 8.182-46.99 17.073-93.875 26.73-140.584 9.367-45.303 21.355-89.972 37.934-133.264 8.532-22.278 18.091-44.087 32.87-63.112 8.524-10.973 18.284-20.488 32.751-22.914 13.298-2.23 26.552-.941 39.719 1.44 25.603 4.628 49.532 14.175 72.89 25.234 44.964 21.289 86.96 47.74 128.73 74.557 46.526 29.871 92.749 60.223 139.584 89.6 43.197 27.095 87.677 51.94 135.542 70.093 27.034 10.253 54.716 17.8 83.823 18.974v9.688h9.999v-9.648c23.412-.686 46.498 2.061 69.409 6.612 38.322 7.612 75.421 19.485 111.37 34.472 52.828 22.024 105.198 45.156 157.655 68.062 51.253 22.38 102.674 44.296 156.406 60.198 34.363 10.17 69.211 17.891 105.134 19.853v10.409h10.022v-9.672c28.041 1.176 54.964-3.9 80.942-14.381 34.975-14.111 66.238-34.516 94.537-58.966 35.898-31.015 70.384-63.661 105.647-95.416 31.301-28.187 62.207-56.863 94.433-83.961 34.13-28.698 71.436-52.874 112.5-70.818 35.704-15.602 72.917-24.764 111.928-26.266v19.752h9.944v20.219h-9.611v29.768h9.6l-.007 20.255h-9.557v30.036h8.696l-.004 19.686-8.702.428v29.86h8.7l-.003 19.73-8.697.427v29.462l7.707.414-.004 19.671-7.706.46v29.477l7.703.357-.004 19.737-7.699.447v29.413l6.71.433-.005 19.685-6.708.472v29.441l6.707.371-.005 19.745-6.704.468v29.371l5.714.437-.004 19.701-5.712.505v29.372l5.711.399-.008 19.757-5.711.483v29.325l4.719.439-.001 19.719-4.723.535v29.31l4.715.403-.988 19.732c-2.703-.089-4.245.593-4.129 3.925.259 7.481.255 14.982.001 22.463-.113 3.319 1.395 4.039 4.124 3.915l.002 19.706c-2.244.083-4.199.101-4.111 3.425.209 7.825-.059 15.664.202 23.487.039 1.163 1.895 2.266 2.91 3.397l-.004 19.701c-4.021-.066-3.005 2.929-3.006 5.141-.001 2.213-1.01 5.206 3.007 5.142-.011 8.832.034 17.665-.045 26.497-.313 35.122-.651 70.244-1.007 105.366-.296 29.289-.63 58.578-.948 87.867zM871.313 501.193v29.358h9.288v-29.358h-9.288zm.137 150.04v29.358h9.189v-29.358h-9.189zm9.103-20.468v-29.358h-9.193v29.358h9.193zm-9.099-79.535v29.358h9.182V551.23h-9.182zm9.084 179.546v-29.358h-9.168v29.358h9.168zm.008 49.994v-29.358h-9.182v29.358h9.182zm.023 49.929v-29.308h-9.225v29.308h9.225zm.18 20.684h-9.413v29.142h9.413v-29.142zm-.211 79.393v-29.358h-9.168v29.358h9.168zm-9.082 20.452v29.358h9.178v-29.358h-9.178zM261.349 661.216v19.478h9.216v-19.478h-9.216zm1219.898 59.404h9.42v-19.149h-9.42v19.149zM261.388 261.295v19.358h9.309v-19.358h-9.309zm9.185 469.408v-19.316h-9.233v19.316h9.233zm.025-399.982v-19.359h-9.281v19.359h9.281zM1481.247 770.62h9.42v-19.149h-9.42v19.149zM261.427 211.297v19.316h9.233v-19.316h-9.233zm9.136 569.395v-19.294h-9.212v19.294h9.212zm-9.104-419.466v19.358h9.173v-19.358h-9.173zm1219.851 439.97v19.358h9.293v-19.358h-9.293zM261.357 411.223v19.462h9.199v-19.462h-9.199zm9.206 419.469v-19.294h-9.212v19.294h9.212zm-9.29-350.069h9.28v-19.244h-9.28v19.244zM1490.78 851.47h-9.36v19.149h9.36V851.47zM261.324 511.189v19.351h9.266v-19.351h-9.266zm9.419 350.293h-9.36v19.176h9.36v-19.176zm-9.297-300.247v19.358h9.195v-19.358h-9.195zm1229.117 359.457v-19.294h-9.212v19.294h9.212zm-1229.136-9.395v19.316h9.233v-19.316h-9.233zm-.01-300.011v19.337h9.253v-19.337h-9.253zm1219.986 339.993v19.358h9.28v-19.358h-9.28zm-1220.046 9.944v19.462h9.199v-19.462h-9.199zm9.341 40.069h-9.319v9.415h9.319v-9.415zm610.021.077h-9.259v9.26h9.259v-9.26zm609.818 9.432v-9.494h-9.143v9.494h9.143z" fill="#e9e9e9"/><path d="M2090.985 311.138c-39.011 1.502-76.224 10.664-111.928 26.266-41.065 17.944-78.371 42.12-112.5 70.818-32.226 27.097-63.132 55.773-94.433 83.961-35.263 31.756-69.749 64.401-105.647 95.416-28.3 24.45-59.563 44.855-94.537 58.966-25.978 10.481-52.901 15.557-80.942 14.382v-9.526h-10.022v8.788c-35.924-1.962-70.771-9.683-105.134-19.853-53.732-15.902-105.153-37.818-156.406-60.198-52.457-22.906-104.827-46.038-157.655-68.062-35.95-14.987-73.048-26.86-111.37-34.472-22.911-4.551-45.997-7.299-69.409-6.612v-19.638h-9.999v19.598c-29.107-1.173-56.789-8.721-83.823-18.974-47.864-18.153-92.344-42.998-135.542-70.093-46.835-29.377-93.058-59.729-139.584-89.6-41.77-26.818-83.766-53.269-128.73-74.557-23.358-11.059-47.288-20.606-72.89-25.234-13.167-2.38-26.42-3.669-39.719-1.44-14.467 2.426-24.227 11.941-32.751 22.914-14.779 19.024-24.339 40.834-32.87 63.112-16.58 43.291-28.567 87.961-37.934 133.264-9.658 46.709-18.548 93.594-26.73 140.584-6.044 34.711-10.64 69.681-15.46 104.594a5457.516 5457.516 0 0 0-12.716 98.949c-3.432 28.732-6.359 57.525-9.358 86.307-3.327 31.927-6.631 63.858-9.663 95.814-2.341 24.677-4.177 49.401-6.371 74.093-1.131 12.733-2.728 25.427-3.789 38.165-.924 11.104-1.297 22.252-2.079 33.369-1.88 26.724-3.887 53.439-5.78 80.162-.81 11.425-1.49 22.86-2.184 34.293-.694 11.432-1.33 22.868-1.992 34.302H11.823v-6.192c2.166-20.949 4.316-41.899 6.504-62.845 1.876-17.964 3.73-35.93 5.727-53.88.935-8.408 2.238-16.775 3.279-25.172 2.903-23.412 5.716-46.834 8.641-70.243 3.423-27.403 6.826-54.808 10.421-82.189 3.746-28.533 7.617-57.05 11.602-85.55 4.354-31.136 8.742-62.268 13.408-93.358 5.01-33.388 10.126-66.765 15.622-100.076 6.876-41.677 13.576-83.398 21.458-124.89 10.272-54.069 20.887-108.095 32.704-161.843 15.79-71.824 33.785-143.106 60.809-211.736 8.366-21.247 17.858-41.968 30.669-60.995.986-1.465 2.322-2.695 3.495-4.034 1.111.629 2.319 1.134 3.319 1.906 27.892 21.541 66.049 10.779 78.7-22.21.236-.616.601-1.182.905-1.772 20.999 5.825 40.35 15.448 59.209 26.083 43.787 24.691 83.866 54.789 123.55 85.421 50.351 38.866 100.277 78.291 150.965 116.712 38.901 29.487 79.251 57.026 123.431 78.155 17.626 8.429 36.397 14.465 54.646 21.59.354 2.124.693 4.25 1.064 6.37 5.565 31.806 41.031 50.092 70.148 36.11 14.294-6.864 23.234-18.264 27.716-33.33 75.699 9.922 146.693 36.244 217.767 62.345 53.082 19.493 106.067 39.28 159.464 57.878 41.817 14.565 84.688 25.557 128.528 32.389 1.8.28 3.643.28 5.466.41 1.803 12.972 7.312 23.968 17.187 32.732 6.619 5.875 14.532 9.101 22.815 11.661v20.215h9.892v-19.512c6.918-1.521 14.326-1.946 20.661-4.774 17.269-7.707 26.635-21.811 29.422-40.393 20.555-4.266 39.652-12.39 58.033-22.268 34.866-18.737 65.854-42.939 95.015-69.399 33.931-30.789 67.133-62.382 100.622-93.657 39.737-37.112 80.496-72.959 126.507-102.307 38.06-24.277 78.506-42.921 123.031-51.879 2.283-.459 4.568-.908 6.852-1.362-2.538 30.682 18.708 50.729 40.005 55.063-.27 10.549-.27 10.549 9.62 10.95l-.088 19.725-9.625.45c-.004 3.62-.004 6.732-.004 9.843zM270.533 130.746v-19.318h-9.159v19.318h9.159zm-9.215 49.852h9.333v-19.285h-9.333v19.285z" fill="#fff"/><path d="M2091.079 270.173c-21.297-4.334-42.543-24.381-40.005-55.063 1.381-4.772 2.17-9.819 4.245-14.267 8.699-18.656 23.666-29.021 44.134-29.662 29.549-.926 51.606 22.144 51.481 49.843-.121 26.776-19.968 46.311-41.619 49.008-2.745.342-5.484.736-8.226 1.106l-10.01-.965z" fill="#293237"/><path class="st1" d="M1541.015 555.982c-2.787 18.582-12.153 32.686-29.422 40.393-6.336 2.827-13.743 3.253-20.661 4.774l-9.892-.703c-8.282-2.56-16.195-5.786-22.815-11.661-9.874-8.765-15.383-19.761-17.187-32.733-1.141-19.012 5.508-34.704 21.099-45.713 16.214-11.45 34.003-12.557 51.584-3.675 17.827 9.006 26.673 24.33 27.271 44.33.05 1.662.017 3.325.023 4.988zM929.813 403.03c-4.482 15.066-13.422 26.466-27.716 33.33-29.117 13.981-64.583-4.304-70.148-36.11-.371-2.121-.71-4.247-1.064-6.37-.352-18.649 6.721-33.829 22.238-44.23 16.329-10.946 33.951-11.742 51.261-2.651 17.332 9.102 26.046 24.188 26.542 43.781.102 4.07-.718 8.165-1.113 12.25z"/><path class="st0" d="M2098.051 631.17l-6.71-.433v-29.413l7.699-.447c.653 1.257 1.841 2.502 1.871 3.774.178 7.555.034 15.118.122 22.676.026 2.226-.185 3.955-2.982 3.843zm2.867-250.294h-9.6v-29.768h9.61c-.002 9.924-.006 19.846-.01 29.768zm-9.933-69.738v-9.839l9.626-.45.319 30.042h-9.944l-.001-19.753zm8.067 220.037l-7.707-.414v-29.462l8.697-.427c.32 2.868.846 5.731.915 8.605.143 5.949.157 11.907-.045 17.852-.045 1.301-1.211 2.565-1.86 3.846zm.999-100.008h-8.696v-30.036h9.557c.029 8.789.096 17.577.045 26.365-.007 1.226-.59 2.448-.906 3.671zm-1.007 149.972l-7.703-.357v-29.477c2.551-.152 5.128-.305 7.706-.46.649.938 1.844 1.867 1.861 2.817.149 8.222.148 16.448 0 24.67-.017.947-1.214 1.872-1.864 2.807zm1.001-99.997h-8.7v-29.86l8.702-.428c.318 6.212.819 12.422.886 18.637.042 3.88-.57 7.767-.888 11.651zm-2.001 199.996l-6.707-.371v-29.441l6.708-.472c.984 1.133 2.783 2.24 2.821 3.403a363.37 363.37 0 0 1 0 23.483c-.037 1.162-1.837 2.267-2.822 3.398zm-.996 50.021l-5.714-.437v-29.371l6.704-.468c2.973-.235 2.995 1.709 2.981 3.863-.051 7.488-.2 14.984.064 22.463.115 3.263-1.254 4.099-4.035 3.95zm-.004 49.978l-5.711-.399v-29.372l5.712-.505c2.783-.172 4.153.654 4.039 3.922a320.923 320.923 0 0 0 0 22.436c.113 3.266-1.255 4.094-4.04 3.918zm-.999 50.004l-4.719-.439v-29.325l5.711-.483c2.284-.002 4.113.09 4.032 3.382-.211 8.62-.071 17.249-.071 26.275l-4.953.59zm-.009 49.968l-4.715-.403v-29.31l4.723-.535 4.669.424v29.353l-4.677.471zm-.991 50.035c-2.729.124-4.237-.596-4.124-3.915.254-7.481.258-14.983-.001-22.463-.116-3.333 1.426-4.014 4.129-3.925l5.952.458v29.421l-5.956.424zm-.997 50.015c-1.015-1.131-2.871-2.234-2.91-3.397-.26-7.822.008-15.661-.202-23.487-.089-3.324 1.867-3.342 4.111-3.425l5.953.438v29.439l-6.952.432zm-2.969-710.986l10.01.965-.389 9.985c-9.891-.401-9.891-.401-9.621-10.95zm2.966 740.97c-4.017.064-3.008-2.929-3.007-5.142.001-2.211-1.015-5.207 3.006-5.141l6.645.37v9.455l-6.644.458zM871.313 501.193h9.288v29.358h-9.288v-29.358zm.137 150.04h9.189v29.358h-9.189v-29.358zm9.103-20.468h-9.193v-29.358h9.193v29.358zm-9.099-79.535h9.182v29.358h-9.182V551.23zm-.452-80.259v-19.598h9.999v29.286h-9.999v-9.688zm9.536 259.805h-9.168v-29.358h9.168v29.358zm.008 49.994h-9.182v-29.358h9.182v29.358zm.023 49.929h-9.225v-29.308h9.225v29.308zm.18 20.684v29.142h-9.413v-29.142h9.413zm-.211 79.393h-9.168v-29.358h9.168v29.358zm-9.082 20.452h9.178v29.358h-9.178v-29.358zM261.349 661.216h9.216v19.478h-9.216v-19.478zm1219.898 59.404v-19.149h9.42v19.149h-9.42zM261.388 261.295h9.309v19.358h-9.309v-19.358zm9.185 469.408h-9.233v-19.316h9.233v19.316zm.025-399.982h-9.281v-19.359h9.281v19.359zM1481.247 770.62v-19.149h9.42v19.149h-9.42zM261.427 211.297h9.233v19.316h-9.233v-19.316zm9.136 569.395h-9.212v-19.294h9.212v19.294zm-9.104-419.466h9.173v19.358h-9.173v-19.358zm1219.851 439.97h9.293v19.358h-9.293v-19.358zM261.357 411.223h9.199v19.462h-9.199v-19.462zm9.206 419.469h-9.212v-19.294h9.212v19.294zm-9.29-350.069v-19.244h9.28v19.244h-9.28zM1490.78 851.47v19.149h-9.36V851.47h9.36zM261.324 511.189h9.266v19.351h-9.266v-19.351zm9.419 350.293v19.176h-9.36v-19.176h9.36zm-9.297-300.247h9.195v19.358h-9.195v-19.358zm1229.117 359.457h-9.212v-19.294h9.212v19.294zm-1229.136-9.395h9.233v19.316h-9.233v-19.316zm-.01-300.011h9.253v19.337h-9.253v-19.337zm1219.986 339.993h9.28v19.358h-9.28v-19.358zm-.428-291.071v-8.788h10.022v19.198h-10.022v-10.41zM261.357 961.223h9.199v19.462h-9.199v-19.462zm9.341 40.069v9.415h-9.319v-9.415h9.319zm610.021.077v9.26h-9.259v-9.26h9.259zm609.818 9.432h-9.143v-9.494h9.143v9.494zM270.533 130.746h-9.159v-19.318h9.159v19.318zm-9.215 49.852v-19.285h9.333v19.285h-9.333zm1219.721 419.847l9.892.703v19.512h-9.892v-20.215z"/></svg>