<svg id="Слой_1" xmlns="http://www.w3.org/2000/svg" viewBox="0 0 2320 1260"><style>.st0{fill:#a5a9ab}</style><path class="st0" d="M2092.042 1250.877c21.995.041 43.99.11 65.984.117 54.324.017 108.649.006 162.973.006v9.999H.999L1 41h10v7.314c0 397.882-.001 795.764.032 1193.645 0 2.269.48 4.539.736 6.808 1.746.744 3.488 2.127 5.238 2.137 24.684.14 49.368.092 74.052.091 665.496.002 1330.993.004 1996.489.001 1.499-.001 2.997-.078 4.495-.119z"/><path d="M2108 1c3.061.923 6.195 1.654 9.169 2.801 18.699 7.209 30.063 20.133 32.934 40.535 4.675 33.22-21.987 56.748-49.009 56.749-27.691-1.225-48.262-20.564-50.137-47.135.411-26.442 13.449-44.21 37.617-51.276 1.816-.531 3.618-1.115 5.426-1.674h14z" fill="#293236"/><path d="M2050.957 53.95c1.875 26.571 22.446 45.91 50.137 47.135l-.359 19.807h-9.776v30.042c-6.776.391-13.567.616-20.326 1.202-31.595 2.737-62.53 8.837-92.776 18.416-46.778 14.815-90.724 35.939-132.301 61.668-41.198 25.494-81.551 52.363-122.085 78.919-41.671 27.301-83.415 54.427-129.381 74.216-37.533 16.159-76.376 26.192-117.587 25.823-8.942-.08-17.963.921-26.836 2.201-34.086 4.915-66.036 16.605-96.957 31.371-40.255 19.223-77.912 42.872-114.334 68.433-46.895 32.91-93.125 66.769-139.965 99.76-40.47 28.504-81.893 55.534-127.472 75.447-28.704 12.541-58.317 21.62-89.937 22.649-.001-1.641-.188-3.307.033-4.918.569-4.144-1.164-5.169-5.198-5.276-4.585-.121-5.234 1.942-4.868 5.607.162 1.623-.003 3.278-.02 4.919-21.274 2.615-42.702 4.342-63.789 8.025-46.736 8.164-92.517 20.503-137.53 35.358-53.844 17.768-107.43 36.328-160.978 54.976-57.942 20.178-115.404 41.841-174.776 57.593-20.672 5.485-41.847 9.075-62.793 13.53v-29.411h-9.766v28.987l5.475 1.368c-8.185 2.679-16.747 4.555-24.484 8.187-24.552 11.524-42.252 30.862-57.424 52.708-21.146 30.447-35.685 64.146-47.9 98.93-13.679 38.951-24.125 78.817-31.668 119.356-5.556 29.857-9.561 60.003-14.257 90.021-24.684.002-49.369.049-74.053-.091-1.75-.01-3.492-1.392-5.238-2.137 7.092-24.766 13.762-49.662 21.358-74.273 21.55-69.818 46.249-138.486 76.904-204.889 20.41-44.209 42.825-87.371 73.354-125.579 11.159-13.965 24.653-26.068 37.153-38.952 1.235-1.273 2.971-2.06 4.475-3.073.811 1.22 1.688 2.402 2.422 3.666 14.296 24.609 44.371 31.7 67.046 19.508 16.573-8.911 30.278-28.437 25.603-54.27 30.567-9.14 61.453-17.34 91.636-27.607 71.623-24.364 142.821-49.976 214.369-74.566 50.648-17.407 101.922-32.826 154.332-44.102 17.38-3.739 34.965-6.527 52.457-9.75 2.826 9.66 7.776 18.298 15.907 24.041 6.759 4.774 14.788 7.752 22.255 11.525v40.208h9.892v-39.505c28.54-1.593 47.717-20.035 50.229-48.305 40.197-11.669 76.616-31.313 111.943-53.202 46.208-28.632 89.711-61.172 133.745-92.94 45.797-33.039 91.564-66.13 140.932-93.794 34.671-19.427 70.507-36.099 109.425-45.274 4.526-1.067 9.122-1.839 13.686-2.748.352 1.79.736 3.575 1.052 5.371 5.562 31.639 40.742 49.965 69.776 36.301 16.911-7.958 31.668-25.549 29.066-53.092 34.195-8.375 65.989-22.666 96.754-39.436 46.558-25.379 89.917-55.812 134.013-85.075 41.204-27.343 82.785-54.051 127.156-76.102 43.57-21.653 88.88-38.164 136.988-46.417 5.08-.877 10.174-1.664 15.261-2.49zm-560.245 317.481h-9.337v29.226h9.337v-29.226z" fill="#fff"/><path d="M931.16 602.843c-2.512 28.27-21.688 46.712-50.229 48.305l-9.892-.703c-7.466-3.773-15.495-6.75-22.255-11.525-8.131-5.743-13.08-14.381-15.907-24.041-8.048-27.229 8.55-56.735 37.331-62.618 27.307-5.581 51.816 9.439 58.969 35.926 1.276 4.72 1.353 9.763 1.983 14.656zm609.626-299.379c2.602 27.544-12.155 45.134-29.066 53.092-29.034 13.664-64.215-4.662-69.776-36.301-.316-1.797-.7-3.581-1.052-5.371-.603-18.928 6.335-34.377 22.031-45.148 25.948-17.806 63.365-7.226 74.956 23.885 1.191 3.199 1.949 6.559 2.907 9.843zM320.083 770.905c4.676 25.834-9.03 45.359-25.603 54.27-22.675 12.192-52.75 5.102-67.046-19.508-.735-1.264-1.612-2.446-2.423-3.666-1.337-7.05-3.519-14.061-3.852-21.159-.99-21.12 14.455-41.565 34.813-47.495 24.688-7.192 51.054 3.602 61.444 29.179 1.101 2.708 1.789 5.582 2.667 8.379z" fill="#283136"/><path d="M271.084 880.85c20.946-4.455 42.121-8.045 62.793-13.53 59.371-15.752 116.834-37.415 174.776-57.593 53.548-18.648 107.135-37.207 160.978-54.976 45.013-14.854 90.794-27.194 137.53-35.358 21.087-3.683 42.515-5.411 63.789-8.027v29.302h10.053v-29.633c31.621-1.029 61.233-10.108 89.937-22.649 45.578-19.913 87.002-46.943 127.472-75.447 46.84-32.991 93.069-66.849 139.965-99.76 36.422-25.56 74.08-49.21 114.334-68.433 30.92-14.765 62.871-26.455 96.957-31.371 8.873-1.28 17.894-2.281 26.836-2.201 41.211.369 80.054-9.664 117.587-25.823 45.965-19.79 87.71-46.915 129.381-74.216 40.534-26.556 80.887-53.424 122.085-78.919 41.577-25.728 85.523-46.853 132.301-61.668 30.245-9.579 61.18-15.679 92.776-18.416 6.76-.585 13.55-.811 20.326-1.202l9.968-.047.004 20.222h-9.608v29.784h9.608l-.001 20.219h-9.612v29.756h9.594l-.857 19.955-8.709.492v29.833h8.702l-.001 19.71-8.701.427v29.857h8.7l-.004 19.736-8.696.421v29.463l7.707.415-.004 19.668-7.707.468v29.472l7.703.357v19.721l-7.705.443v29.804h7.698l-.986 19.723-6.714.537v29.397l6.708.376v19.72l-6.708.472v29.438l6.705.357-.989 19.695-5.721.586v29.328l5.713.408-.001 19.717-5.712.505v29.371l5.712.402-.006 19.745-5.713.489V750.7l4.72.446-.002 19.713-4.719.537v29.303l4.721.448-.003 19.717-5.033.569c0 9.208.077 18.006-.04 26.8-.043 3.242 2.236 2.628 4.077 2.914l-.002 19.713c-2.73-.128-4.236.591-4.123 3.911.254 7.48.255 14.981-.001 22.462-.114 3.324 1.411 4.028 4.128 3.923l-.004 19.704c-2.249.071-4.196.094-4.108 3.417.209 7.824-.058 15.661.202 23.482.038 1.16 1.893 2.259 2.907 3.386l-.001 19.716c-1.014 1.102-2.869 2.177-2.906 3.311a364.113 364.113 0 0 0 0 23.669c.037 1.141 1.897 2.223 2.913 3.332l-.002 19.665c-3.998-.043-3.02 2.932-3.012 5.157.008 2.212-1.017 5.21 3.007 5.144-.349 36.957-.709 73.913-1.046 110.87-.331 36.289-.638 72.579-.956 108.868-1.498.04-2.997.117-4.495.117-665.496.003-1330.993.001-1996.489-.001 4.696-30.017 8.702-60.163 14.257-90.021 7.543-40.539 17.989-80.405 31.668-119.356 12.216-34.784 26.755-68.483 47.9-98.93 15.173-21.846 32.872-41.184 57.424-52.708 7.738-3.632 16.3-5.508 24.485-8.186l4.29-.942zm600.363-129.615v39.358h9.194v-39.358h-9.194zm0 50v39.358h9.194v-39.358h-9.194zm9.257 89.554v-39.358h-9.322v39.358h9.322zm-9.251 60.441v39.358h9.183V951.23h-9.183zm9.094-10.461v-39.358h-9.184v39.358h9.184zm610.236-469.421h-9.479v29.212h9.479v-29.212zm-.096 79.459v-29.358h-9.288v29.358h9.288zm-9.3 20.489v29.358h9.312v-29.358h-9.312zm-.14 79.262h9.36v-29.205h-9.36v29.205zm9.297 100.214v-29.358h-9.178v29.358h9.178zm.069-50.068v-29.358h-9.312v29.358h9.312zm-9.161 70.527v29.358h9.185v-29.358h-9.185zm9.096 79.538v-29.358h-9.185v29.358h9.185zm-9.17 20.536v29.358h9.33v-29.358h-9.33zM261.402 901.279v29.359h9.28v-29.359h-9.28zm1219.845-450.721h9.36v-29.205h-9.36v29.205zm9.467 500.221v-29.358h-9.341v29.358h9.341zm-1229.262.45v29.359h9.184v-29.359h-9.184zm1229.17 49.466v-29.358h-9.33v29.358h9.33zM270.55 1030.767v-29.358h-9.189v29.358h9.189zm600.701-.15h9.413v-29.142h-9.413v29.142zm610.041-9.315v9.319h9.416v-9.319h-9.416z" fill="#e9e9e9"/><path class="st0" d="M2099.044 451.14l-7.703-.357v-29.472l7.707-.468c.649.939 1.843 1.868 1.86 2.819.148 8.222.148 16.449 0 24.671-.017.947-1.214 1.872-1.864 2.807zm-.008 49.968h-7.698v-29.804l7.705-.443c.65.934 1.846 1.859 1.864 2.805a680.55 680.55 0 0 1 0 24.665c-.016.937-1.218 1.852-1.871 2.777zm-.991 50.033l-6.708-.376v-29.397l6.714-.537c.982 1.141 2.778 2.256 2.816 3.428a363.37 363.37 0 0 1 0 23.483c-.038 1.162-1.838 2.267-2.822 3.399zm-.003 49.986l-6.705-.357v-29.438l6.708-.472c.985 1.131 2.785 2.236 2.822 3.398a363.4 363.4 0 0 1 0 23.484c-.038 1.158-1.84 2.258-2.825 3.385zm-.997 50.017l-5.713-.408v-29.328l5.721-.586c2.76-.119 4.148.698 4.031 3.963a316.63 316.63 0 0 0-.001 22.434c.114 3.267-1.257 4.093-4.038 3.925z"/><path d="M2100.927 150.886l-9.968.047v-30.042h9.776l.192 29.995z" fill="#a5a8aa"/><path class="st0" d="M2097.044 701.139l-5.712-.402v-29.371l5.712-.505c2.783-.173 4.153.653 4.038 3.92a320.31 320.31 0 0 0 0 22.436c.116 3.269-1.256 4.094-4.038 3.922zm3.886-500.247h-9.608v-29.784h9.608v29.784zm-4.884 550.256l-4.72-.446v-29.328l5.713-.489c2.276.013 4.112.1 4.031 3.392-.213 8.62-.072 17.248-.072 26.272l-4.952.599zm4.865-500.282h-9.594V221.11h9.612l-.018 29.756zm-4.865 550.282l-4.721-.448v-29.303l4.719-.537 4.669.423v29.304l-4.667.561zm4.001-500.001h-8.703v-29.833l8.71-.492c.315 6.22.813 12.439.88 18.663.041 3.883-.569 7.774-.887 11.662zm-5.001 550.001c-1.841-.285-4.12.328-4.077-2.914.117-8.795.04-17.592.04-26.8l5.033-.569 4.661.416v29.459l-5.657.408zm4.998-500.007h-8.7v-29.857l8.701-.427c.318 6.211.82 12.42.888 18.634.042 3.879-.57 7.766-.889 11.65zm-.992 50.034l-7.707-.415v-29.463l8.696-.421c.32 2.867.847 5.729.916 8.602.144 5.948.156 11.906-.045 17.851-.045 1.302-1.211 2.565-1.86 3.846zm-5.007 549.971c-1.014-1.127-2.869-2.227-2.907-3.386-.26-7.821.007-15.658-.202-23.482-.088-3.323 1.858-3.346 4.108-3.417l5.659.394v29.426l-6.658.465zm1.003-49.989c-2.717.105-4.241-.6-4.128-3.923.256-7.48.255-14.981.001-22.462-.113-3.319 1.393-4.039 4.123-3.911l5.659.395v29.469l-5.655.432zm-.997 100.016c-1.016-1.109-2.876-2.191-2.913-3.332a362.7 362.7 0 0 1 0-23.669c.037-1.134 1.893-2.208 2.906-3.311l6.653.37v29.509l-6.646.433zm-.007 29.967c-4.024.066-3-2.932-3.007-5.144-.008-2.225-.986-5.2 3.012-5.157l6.641.411v9.441l-6.646.449zM871.039 650.445l9.892.703v39.505h-9.892v-40.208zm9.964 60.59v29.633H870.95v-29.302c.017-1.639.182-3.294.02-4.917-.366-3.665.283-5.728 4.868-5.607 4.034.106 5.767 1.132 5.198 5.276-.221 1.61-.034 3.276-.033 4.917zM271.084 880.85l-4.291.944-5.475-1.368v-28.987h9.766v29.411zm1219.628-509.419v29.226h-9.337v-29.226h9.337zM871.447 751.235h9.194v39.358h-9.194v-39.358zm0 50h9.194v39.358h-9.194v-39.358zm9.257 89.554h-9.322v-39.358h9.322v39.358zm-9.251 60.441h9.183v39.358h-9.183V951.23zm9.094-10.461h-9.184v-39.358h9.184v39.358zm610.236-469.421v29.212h-9.479v-29.212h9.479zm-.096 79.459h-9.288v-29.358h9.288v29.358zm-9.3 20.489h9.312v29.358h-9.312v-29.358zm-.14 79.262v-29.205h9.36v29.205h-9.36zm9.297 100.214h-9.178v-29.358h9.178v29.358zm.069-50.068h-9.312v-29.358h9.312v29.358zm-9.161 70.527h9.185v29.358h-9.185v-29.358zm9.096 79.538h-9.185v-29.358h9.185v29.358zm-9.17 20.536h9.33v29.358h-9.33v-29.358zM261.402 901.279h9.28v29.359h-9.28v-29.359zm1219.845-450.721v-29.205h9.36v29.205h-9.36zm9.467 500.221h-9.341v-29.358h9.341v29.358zm-1229.262.45h9.184v29.359h-9.184v-29.359zm1229.17 49.466h-9.33v-29.358h9.33v29.358zM270.55 1030.767h-9.189v-29.358h9.189v29.358zm600.701-.15v-29.142h9.413v29.142h-9.413zm610.041-9.315h9.416v9.319h-9.416v-9.319z"/></svg>