<svg id="Слой_1" xmlns="http://www.w3.org/2000/svg" viewBox="0 0 2320 1240"><style>.st0{fill:#a5a9ab}.st1{fill:#283136}</style><path class="st0" d="M2092.044 1230.873c17.995.042 35.99.117 53.986.121 58.323.016 116.647.006 174.97.006v9.999H1V21h10v7.314c0 397.882-.001 795.763.032 1193.645 0 2.269.48 4.539.736 6.809 1.746.745 3.488 2.127 5.238 2.137 24.684.14 49.368.092 74.052.09 665.497.002 1330.994.004 1996.491 0 1.499 0 2.997-.08 4.495-.122z"/><path class="st1" d="M1498 1c3.063.924 6.202 1.654 9.178 2.805 18.706 7.233 30.786 20.062 32.688 40.624.623 6.731-.442 13.618-.735 20.433-7.448 22.394-24.113 34.939-48.2 36.286l-9.892-.703c-18.661-4.989-31.41-16.505-38.198-34.6-2.358-9.944-3.039-19.913.403-29.728 6.574-18.745 19.463-30.404 39.127-34.284.575-.114 1.087-.548 1.629-.833h14z"/><path d="M1490.931 101.149c24.088-1.347 40.752-13.893 48.2-36.286 29.449 4.603 58.462 11.105 87.014 19.702 47.199 14.21 92.958 32.396 138.892 50.103 55.58 21.426 111.492 41.833 169.516 55.85 30.27 7.312 60.859 12.803 91.792 16.343 8.556.979 17.162 1.534 25.744 2.284-.351 2.787-.917 5.566-1.02 8.362-.962 26.188 14.27 46.194 40.009 52.667-.27 10.55-.27 10.55 9.62 10.951-.028 6.575-.057 13.15-.084 19.726-9.612.473-9.612.473-9.614 10.122-7.786-.301-15.594-.33-23.354-.959-18.227-1.476-36.479-2.825-54.634-4.968-44.211-5.219-87.313-15.679-129.853-28.571-51.468-15.598-101.418-35.41-151.564-54.676-47.049-18.076-94.227-35.758-143.404-47.398-31.966-7.566-64.3-12.406-97.178-13.278v-9.758h-10.016v9.675c-23.599.053-46.136 5.313-68.006 13.86-43.331 16.934-80.732 43.463-116.65 72.321-41.59 33.416-79.687 70.694-118.33 107.376-39.607 37.596-79.118 75.313-119.487 112.081-28.211 25.695-58.684 48.676-92.162 67.324-26.562 14.796-54.371 25.811-85.249 27.098l-10.061.728c-2.661.138-5.346.095-7.979.442-32.912 4.341-64.142 14.506-94.59 27.384-49.988 21.142-97.113 47.718-143.002 76.445-59.7 37.373-118.781 75.731-178.384 113.26-38.759 24.404-78.25 47.594-120.652 65.296-17.825 7.441-36.025 13.804-55.357 16.189V831.48h-9.869v28.765l4.68 1.656c-5.42 1.567-10.994 2.738-16.234 4.768-24.074 9.326-42.184 26.243-57.646 46.299-23.219 30.117-38.777 64.277-51.827 99.682-15.383 41.735-26.681 84.651-34.868 128.305-5.6 29.856-9.567 60.018-14.265 90.042-24.684.002-49.369.049-74.053-.09-1.75-.01-3.492-1.392-5.238-2.137 7.092-24.766 13.762-49.662 21.358-74.273 21.55-69.818 46.249-138.485 76.904-204.889 20.41-44.209 42.825-87.371 73.354-125.579 11.158-13.965 24.653-26.068 37.153-38.952 1.235-1.273 2.971-2.061 4.475-3.073.811 1.221 1.672 2.412 2.427 3.668 12.224 20.342 31.828 27.776 50.591 24.809 31.115-4.92 48.754-33.003 41.007-63.52 7.845-3.11 15.865-5.842 23.505-9.392 44.953-20.889 87.005-46.907 128.803-73.351 59.099-37.389 117.876-75.297 177.343-112.091 42.352-26.205 86.256-49.739 132.843-67.709 16.26-6.272 33.133-10.958 49.725-16.368 2.253 12.113 7.626 22.472 16.948 30.721 6.635 5.871 14.545 9.114 22.836 11.676v30.211h9.892v-29.507c12.918-.31 24.353-4.47 33.839-13.367 13.662-12.813 18.311-28.65 15.384-46.936 33.445-12.491 62.827-31.925 90.968-53.422 35.144-26.847 67.559-56.823 99.494-87.331 38.916-37.177 77.454-74.758 116.739-111.54 36.633-34.3 74.843-66.774 117.407-93.698 26.284-16.626 53.79-30.63 84.166-38.289 1.283-.324 2.607-.484 3.912-.72 6.789 18.096 19.537 29.611 38.198 34.601v20.214h9.892v-19.514z" fill="#fff"/><path class="st1" d="M930.154 450.845c2.927 18.286-1.722 34.124-15.384 46.936-9.487 8.897-20.922 13.057-33.839 13.367l-9.892-.703c-8.291-2.562-16.201-5.805-22.836-11.676-9.322-8.249-14.694-18.608-16.948-30.721-1.896-21.47 5.67-38.705 24.216-49.888 27.205-16.405 64.021-3.383 73.533 28.865.377 1.275.767 2.547 1.15 3.82zM319.036 746.958c7.748 30.517-9.892 58.601-41.007 63.52-18.762 2.967-38.367-4.468-50.591-24.809-.754-1.255-1.615-2.447-2.427-3.668-1.336-7.205-3.554-14.376-3.84-21.622-.832-21.07 14.918-41.636 35.628-47.273 25.778-7.017 53.306 5.377 62.237 33.852z"/><path d="M881.113 561.097c30.878-1.287 58.686-12.302 85.249-27.098 33.478-18.648 63.951-41.629 92.162-67.324 40.369-36.768 79.88-74.485 119.487-112.081 38.643-36.682 76.74-73.96 118.33-107.376 35.917-28.858 73.319-55.387 116.65-72.321 21.87-8.547 44.407-13.807 68.006-13.86v9.64h10.016v-9.557c32.878.872 65.212 5.712 97.178 13.278 49.177 11.64 96.355 29.322 143.404 47.398 50.146 19.266 100.097 39.079 151.564 54.676 42.541 12.892 85.642 23.352 129.853 28.571 18.155 2.143 36.407 3.492 54.634 4.968 7.76.628 15.568.657 23.354.959v19.918h9.929v20.219h-9.611v29.768h9.6l-.007 20.255h-9.557v30.036h8.696l-.004 19.686-8.702.429v29.86h8.7l-.003 19.73-8.697.427v29.462l7.707.414-.004 19.671-7.706.459v29.477l7.703.357-.004 19.737-7.699.447v29.413l6.71.433-.005 19.685-6.708.472v29.441l6.707.371-.006 19.744-6.704.468v29.371l5.714.437-.004 19.701-5.712.505v29.372l5.711.399-.008 19.757-5.711.483V830.7l4.719.438-.001 19.719-4.723.535v29.31l4.716.405-.989 19.73c-2.702-.089-4.245.593-4.129 3.926.26 7.481.256 14.982.002 22.463-.113 3.319 1.395 4.038 4.124 3.914l.002 19.704c-2.242.086-4.2.102-4.111 3.427.209 7.826-.059 15.665.201 23.487.039 1.163 1.895 2.266 2.91 3.397l-.004 19.701c-4.021-.066-3.005 2.929-3.006 5.141 0 2.213-1.01 5.206 3.007 5.142-.011 8.832.034 17.665-.045 26.497-.313 35.122-.651 70.244-1.007 105.366-.297 29.289-.631 58.578-.949 87.867-1.498.042-2.996.121-4.494.121-665.497.004-1330.994.001-1996.491 0 4.698-30.025 8.665-60.187 14.265-90.042 8.188-43.655 19.486-86.57 34.868-128.305 13.05-35.405 28.608-69.565 51.827-99.682 15.462-20.056 33.572-36.974 57.646-46.299 5.241-2.03 10.814-3.201 16.235-4.767l5.189-1.057c19.332-2.385 37.532-8.747 55.357-16.189 42.402-17.702 81.893-40.891 120.652-65.296 59.603-37.529 118.684-75.887 178.384-113.26 45.889-28.727 93.014-55.303 143.002-76.445 30.448-12.877 61.678-23.043 94.59-27.384 2.633-.347 5.318-.304 7.979-.441v28.86h10.061l.001-29.586zm-.569 279.675v-29.358h-9.178v29.358h9.178zM270.546 960.77v-29.358h-9.183v29.358h9.183zm610.004-70.003v-29.358h-9.189v29.358h9.189zm-609.919 19.996v-29.437h-9.17v29.437h9.17zm600.747.542v29.358h9.33v-29.358h-9.33zm9.17 79.465v-29.359h-9.184v29.359h9.184zm-619.17-9.465v29.358h9.33v-29.358h-9.33zm619.365-369.822h-9.36v29.176h9.36v-29.176zm-.016 49.902h-9.28v29.229h9.28v-29.229zm-9.283 49.853v29.358h9.2v-29.358h-9.2zm9.106 79.529v-29.358h-9.189v29.358h9.189zm600.697-570.147h9.42v-19.149h-9.42v19.149zm.077 30.57v19.351h9.266V251.19h-9.266zm.046 50.047v19.435h9.169v-19.435h-9.169zm9.281 69.547v-19.478h-9.216v19.478h9.216zm.039 50.02v-19.358h-9.294v19.358h9.294zm.09 30.547h-9.473v19.207h9.473v-19.207zm-9.343 49.957v19.294h9.212v-19.294h-9.212zm-.19 219.312h9.42v-19.149h-9.42v19.149zm9.307 200.145v-19.358h-9.195v19.358h9.195zm-9.117-169.457v19.294h9.212v-19.294h-9.212zm9.186-180.614v-19.358h-9.331v19.358h9.331zm.104 280.683h-9.28v19.244h9.28v-19.244zm-.164 119.315v-19.294h-9.212v19.294h9.212zm-.015-299.921v-19.359h-9.184v19.359h9.184zm-9.191-69.548v19.462h9.199v-19.462h-9.199zm-.033 199.966v19.35h9.266v-19.35h-9.266zm-600.502 200.227h-9.493v9.168h9.493v-9.168zm600.48 9.292h9.319v-9.415h-9.319v9.415z" fill="#e9e9e9"/><path d="M2091.079 270.173c-25.739-6.473-40.97-26.479-40.009-52.667.103-2.796.669-5.575 1.02-8.362 3.633-11.538 9.598-21.471 19.61-28.651 25.806-18.508 64.086-8.815 75.8 22.354 11.248 29.93-6.405 61.743-37.69 67.156-2.886.499-5.813.763-8.721 1.135l-10.01-.965z" fill="#293136"/><path class="st0" d="M2100.929 330.89H2091v-19.918c.002-9.649.002-9.649 9.615-10.122l.314 30.04zm-4.892 550.221l-4.716-.405v-29.31l4.723-.535 4.669.424v29.351l-4.676.475zm-.992 50.033c-2.729.124-4.237-.595-4.124-3.914.254-7.481.258-14.983-.002-22.463-.115-3.333 1.427-4.014 4.129-3.926l5.655.435v29.465l-5.658.403zm5.874-550.268h-9.6v-29.768h9.611l-.011 29.768zm-6.871 600.283c-1.015-1.131-2.871-2.234-2.91-3.397-.26-7.823.008-15.662-.201-23.487-.089-3.325 1.869-3.34 4.111-3.427l5.65.422v29.476l-6.65.413zm6.003-549.992h-8.696v-30.036h9.557c.029 8.789.096 17.577.045 26.365-.007 1.226-.59 2.448-.906 3.671zm-.006 49.975h-8.7v-29.86l8.702-.429c.318 6.212.819 12.422.887 18.637.041 3.881-.571 7.768-.889 11.652zm-.993 50.033l-7.707-.414v-29.462l8.697-.427c.32 2.868.846 5.731.915 8.605.143 5.949.156 11.907-.045 17.852-.045 1.302-1.211 2.565-1.86 3.846zm-.008 49.964l-7.703-.357v-29.477l7.706-.459c.649.938 1.844 1.867 1.861 2.817.149 8.222.148 16.448 0 24.67-.017.946-1.214 1.871-1.864 2.806zm-.993 50.031l-6.71-.433v-29.413l7.699-.447c.653 1.257 1.841 2.502 1.871 3.774.178 7.555.034 15.118.122 22.676.026 2.226-.185 3.955-2.982 3.843zm-.007 49.968l-6.707-.371v-29.441l6.708-.472c.984 1.133 2.783 2.24 2.821 3.404a363.37 363.37 0 0 1 0 23.483c-.037 1.162-1.837 2.266-2.822 3.397zm-.996 50.021l-5.714-.437v-29.371l6.704-.468c2.973-.235 2.995 1.709 2.981 3.863-.051 7.488-.199 14.984.064 22.463.115 3.263-1.254 4.099-4.035 3.95zm-.004 49.978l-5.711-.399v-29.372l5.712-.505c2.783-.172 4.153.654 4.039 3.922a320.923 320.923 0 0 0 0 22.436c.113 3.266-1.255 4.094-4.04 3.918zm-.999 50.004l-4.719-.438v-29.326l5.711-.483c2.284-.002 4.113.09 4.032 3.382-.211 8.62-.071 17.249-.071 26.274l-4.953.591zm-4.966-560.968l10.01.965-.39 9.985c-9.89-.4-9.89-.4-9.62-10.95zm2.966 740.97c-4.017.063-3.007-2.93-3.007-5.142.001-2.211-1.014-5.207 3.006-5.141l6.645.37v9.454l-6.644.459zm-603.114-909.994v19.511h-9.892v-20.214l9.892.703zM271.089 860.84l-5.189 1.057-4.68-1.656v-28.765h9.869v29.364zm599.95-350.395l9.892.703v29.507h-9.892v-30.21zm10.074 50.652v29.588h-10.061v-28.86l10.061-.728zm609.9-399.977v9.557h-10.016v-19.315h10.016v9.758zM880.544 840.772h-9.178v-29.358h9.178v29.358zM270.546 960.77h-9.183v-29.358h9.183v29.358zm610.004-70.003h-9.189v-29.358h9.189v29.358zm-609.919 19.996h-9.17v-29.437h9.17v29.437zm600.747.542h9.33v29.358h-9.33v-29.358zm9.17 79.465h-9.184v-29.359h9.184v29.359zm-619.17-9.465h9.33v29.358h-9.33v-29.358zm619.365-369.822v29.176h-9.36v-29.176h9.36zm-.016 49.902v29.229h-9.28v-29.229h9.28zm-9.283 49.853h9.2v29.358h-9.2v-29.358zm9.106 79.529h-9.189v-29.358h9.189v29.358zm600.697-570.147v-19.149h9.42v19.149h-9.42zm.077 30.57h9.266v19.351h-9.266V251.19zm.046 50.047h9.169v19.435h-9.169v-19.435zm9.281 69.547h-9.216v-19.478h9.216v19.478zm.039 50.02h-9.294v-19.358h9.294v19.358zm.09 30.547v19.207h-9.473v-19.207h9.473zm-9.343 49.957h9.212v19.294h-9.212v-19.294zm-.19 219.312v-19.149h9.42v19.149h-9.42zm9.307 200.145h-9.195v-19.358h9.195v19.358zm-9.117-169.457h9.212v19.294h-9.212v-19.294zm9.186-180.614h-9.331v-19.358h9.331v19.358zm.104 280.683v19.244h-9.28v-19.244h9.28zm-.164 119.315h-9.212v-19.294h9.212v19.294zm-.015-299.921h-9.184v-19.359h9.184v19.359zm-9.191-69.548h9.199v19.462h-9.199v-19.462zm-.033 199.966h9.266v19.35h-9.266v-19.35zm-600.502 200.227v9.168h-9.493v-9.168h9.493zm600.48 9.292v-9.415h9.319v9.415h-9.319z"/></svg>