<svg id="Слой_1" xmlns="http://www.w3.org/2000/svg" viewBox="0 0 2320 1240"><style>.st0{fill:#a5a9ab}.st1{fill:#283136}</style><path class="st0" d="M1 21h10v7.314c0 397.882-.001 795.763.032 1193.645 0 2.269.48 4.539.736 6.808 1.746.745 3.488 2.127 5.238 2.137 24.684.14 49.369.093 74.053.091 665.497.002 1330.994.004 1996.49 0 1.498 0 2.996-.08 4.495-.122 17.995.042 35.99.117 53.986.121 58.323.016 116.647.006 174.97.006v9.999H1V21z"/><path class="st1" d="M830.954 57.992c.357-7.828-.367-15.634 2.707-23.318 7.249-18.114 19.917-29.335 39.206-32.901.411-.076.757-.507 1.133-.773h14c2.747.787 5.495 1.569 8.239 2.363 17.909 5.184 31.921 22.121 33.782 40.773.259 2.593.717 5.167 1.083 7.749-1.456 28.241-21.213 47.639-50.173 49.263l-9.892-.703c-1.394-.491-2.775-1.02-4.183-1.466-16.407-5.202-27.45-15.986-33.296-32.11-1.049-2.894-1.746-5.915-2.606-8.877z"/><path d="M2092.044 1230.873c-1.498.042-2.996.122-4.495.122-665.497.004-1330.994.002-1996.49 0 2.589-18.249 4.849-36.553 7.827-54.738 9.581-58.496 23.109-116.021 44.31-171.501 14.56-38.101 32.17-74.603 60.075-105.085 15.889-17.356 34.416-30.81 57.72-36.597v17.572h10.105v-19.565c14.347-2.404 26.616-9.329 38.102-17.794 26.003-19.165 46.795-43.47 66.858-68.436 32.491-40.432 61.639-83.271 89.674-126.832 44.794-69.599 88.681-139.781 133.489-209.371 47.892-74.381 96.486-148.314 155.696-214.488 22.502-25.149 46.699-48.392 75.616-66.336 30.357-18.838 61.796-21.667 94.948-8.292 24.539 9.9 46.119 24.472 66.523 40.965 35.901 29.019 67.765 62.231 97.672 97.182 45.153 52.769 89.287 106.409 133.849 159.684 35.608 42.57 71.99 84.439 112.151 122.846 26.916 25.741 55.319 49.607 88.007 67.856 17.97 10.032 36.758 17.984 57.303 21.091v11.435h10.01v-9.785c13.263-.785 26.686-.538 39.758-2.558 32.459-5.015 61.458-19.093 88.971-36.467 37.361-23.592 70.288-52.717 102.54-82.641 34.92-32.4 69.399-65.281 104.552-97.425 30.765-28.13 63.461-53.881 98.905-75.99 50.662-31.602 104.951-52.205 165.264-54.573v19.739h9.946v20.219h-9.611v29.768h9.6l-.007 20.255h-9.557v30.036h8.696l-.004 19.686-8.702.428v29.86h8.701l-.003 19.73-8.697.427v29.462l7.707.414-.004 19.671-7.706.459v29.477l7.703.357-.004 19.737-7.699.447v29.413l6.71.433-.005 19.685-6.708.472v29.441l6.707.371-.006 19.744-6.704.468v29.371l5.714.437-.004 19.701-5.712.505v29.372l5.711.399-.008 19.757-5.711.483v29.326l4.719.438-.001 19.72-4.723.535v29.31l4.715.405-.988 19.73c-2.703-.089-4.245.593-4.129 3.926.26 7.481.256 14.982.002 22.463-.113 3.319 1.395 4.039 4.124 3.915l.002 19.706c-2.244.083-4.199.101-4.111 3.425.209 7.826-.059 15.664.202 23.487.039 1.163 1.895 2.266 2.91 3.397l-.004 19.701c-4.021-.066-3.005 2.929-3.006 5.141-.001 2.213-1.01 5.206 3.007 5.142-.012 8.832.034 17.665-.045 26.497a88123.12 88123.12 0 0 1-1.006 105.366c-.298 29.289-.633 58.578-.951 87.867zM871.251 180.617h9.413v-29.142h-9.413v29.142zm.201 20.613v29.359h9.184V201.23h-9.184zm-.156 49.981v29.358h9.321v-29.358h-9.321zm.106 50.068v29.358h9.28v-29.358h-9.28zm.056 49.948v29.358h9.175v-29.358h-9.175zm9.285 50.256h-9.36v29.176h9.36v-29.176zm-.112 79.28v-29.436h-9.17v29.436h9.17zm-9.177 20.467v29.358h9.182V501.23h-9.182zm9.159 79.474v-29.358h-9.312v29.358h9.312zm-9.34 49.911h9.28v-29.229h-9.28v29.229zm9.326 50.104v-29.358h-9.284v29.358h9.284zm-9.241 20.505v29.461h9.197v-29.461h-9.197zm.011 50.013v29.436h9.17v-29.436h-9.17zm-.149 79.293h9.36v-29.149h-9.36v29.149zm9.349 50.169v-29.308h-9.225v29.308h9.225zm-9.168 70.582v29.358h9.284v-29.358h-9.284zm-.154-20.661h9.419v-29.149h-9.419v29.149zm619.503-179.237h-9.413v19.142h9.413v-19.142zm-9.393 49.84v19.462h9.199v-19.462h-9.199zm.02 100.083v19.358h9.331v-19.358h-9.331zm9.345-199.894h-9.358v19.266h9.358v-19.266zM270.783 911.348h-9.479v19.212h9.479v-19.212zm1210.507-60.13v19.358h9.335v-19.358h-9.335zm0 100v19.358h9.335v-19.358h-9.335zM261.251 980.617h9.413v-19.142h-9.413v19.142zm9.333 30.205v-9.493h-9.168v9.493h9.168zm600.615-.285h9.494v-9.143h-9.494v9.143zm619.432.182v-9.259h-9.26v9.259h9.26z" fill="#e9e9e9"/><path d="M2090.983 311.151c-60.313 2.368-114.603 22.97-165.264 54.573-35.444 22.109-68.14 47.86-98.905 75.99-35.154 32.143-69.632 65.024-104.552 97.425-32.252 29.924-65.179 59.049-102.54 82.641-27.513 17.374-56.512 31.452-88.971 36.467-13.072 2.02-26.495 1.773-39.758 2.559v-9.389h-10.01v7.739c-20.544-3.107-39.332-11.059-57.303-21.091-32.688-18.249-61.091-42.115-88.007-67.856-40.161-38.407-76.543-80.276-112.151-122.846-44.562-53.275-88.696-106.915-133.849-159.684-29.907-34.951-61.771-68.163-97.672-97.182-20.404-16.493-41.984-31.065-66.523-40.965-33.153-13.375-64.592-10.546-94.948 8.292-28.917 17.944-53.114 41.188-75.616 66.336-59.21 66.175-107.804 140.108-155.696 214.488-44.807 69.59-88.695 139.772-133.489 209.371-28.036 43.561-57.183 86.4-89.674 126.832-20.063 24.966-40.855 49.271-66.858 68.436-11.486 8.466-23.755 15.39-38.103 17.794-1.807-.027-3.667-.332-5.404.001-1.634.314-3.139 1.301-4.701 1.992-23.304 5.787-41.831 19.241-57.72 36.597-27.905 30.482-45.514 66.984-60.075 105.085-21.201 55.48-34.729 113.005-44.31 171.501-2.979 18.185-5.238 36.489-7.827 54.738-24.684.002-49.369.049-74.053-.091-1.75-.01-3.492-1.392-5.238-2.137 7.092-24.766 13.754-49.665 21.36-74.272 21.575-69.808 46.215-138.497 76.902-204.888 20.43-44.199 42.818-87.374 73.357-125.577 11.162-13.963 24.651-26.07 37.15-38.954 1.236-1.274 2.972-2.061 4.477-3.074 2.971 4.167 5.683 8.553 8.967 12.457 7.107 8.448 16.668 12.974 27.058 15.986v20.215h9.892v-19.512c21.21-.913 36.798-10.771 45.798-29.978 6.674-14.243 5.333-28.761-.84-42.973 27.251-22.356 49.612-49.25 70.913-77.051 44.621-58.236 83.737-120.214 123.19-181.963 43.3-67.771 86.326-135.723 130.298-203.056 30.606-46.865 63.309-92.309 99.655-134.984 25.443-29.873 52.247-58.348 85.383-80.034 1.789-1.171 3.747-2.085 5.626-3.119.86 2.962 1.558 5.984 2.607 8.877 5.846 16.124 16.889 26.908 33.296 32.11 1.408.446 2.789.975 4.183 1.467v30.208h9.892v-29.506c28.961-1.624 48.718-21.022 50.173-49.263 26.877 11.685 50.088 28.931 72.076 47.926 39.319 33.968 74.095 72.365 107.496 111.992 45.718 54.238 90.696 109.101 136.461 163.299 34.512 40.872 70.61 80.316 110.991 115.581 23.767 20.756 48.871 39.644 77.414 53.516 1.747.849 3.691 1.292 5.543 1.924-1.047 16.942 4.455 31.235 17.159 42.662 6.577 5.916 14.518 9.101 22.795 11.661v20.215h9.892v-19.512c9.299-.241 18.032-2.447 25.991-7.411 14.025-8.748 21.682-21.544 24.061-37.715 15.038-5.197 30.562-9.315 45.016-15.812 31.808-14.298 60.124-34.436 86.272-57.246 31.234-27.246 61.697-55.396 92.024-83.659 39.108-36.446 77.659-73.496 120.576-105.58 37.655-28.15 77.511-52.406 122.493-67.031 14.162-4.605 28.941-7.31 43.437-10.884.068 1.16.244 2.326.188 3.48-1.176 24.015 16.321 45.871 40.091 50.882-.269 10.549-.269 10.549 9.62 10.95l-.084 19.726-9.632.452v9.852z" fill="#fff"/><path d="M2091.079 270.173c-23.77-5.01-41.267-26.866-40.091-50.882.057-1.154-.12-2.32-.188-3.48 2.506-20.841 18.388-39.371 38.829-43.513 24.497-4.964 49.841 6.003 58.648 32.909 9.928 30.331-9.429 60.475-38.963 64.815-2.737.402-5.483.745-8.225 1.115l-10.01-.964z" fill="#293136"/><path class="st1" d="M1540.982 556.023c-2.378 16.171-10.036 28.967-24.061 37.715-7.959 4.964-16.691 7.17-25.991 7.411l-9.892-.703c-8.277-2.56-16.218-5.745-22.795-11.661-12.704-11.427-18.206-25.72-17.159-42.662 2.41-18.051 11.408-31.84 27.756-39.848 27.762-13.598 62.291.464 70.35 32.097 1.445 5.668 1.237 11.757 1.792 17.651z"/><path class="st0" d="M2094.048 981.159c-1.015-1.131-2.871-2.233-2.91-3.397-.26-7.822.008-15.661-.202-23.487-.089-3.324 1.867-3.342 4.111-3.425l5.651.416v29.48l-6.65.413zm-3.065-670.008v-9.85l9.632-.452c.104 10.014.21 20.027.315 30.041h-9.947v-19.739zm9.936 69.725h-9.6v-29.768h9.611l-.011 29.768zm-.868 50.291h-8.696v-30.036h9.557c.029 8.789.096 17.577.045 26.365-.007 1.226-.59 2.448-.906 3.671zm-.006 49.975h-8.701v-29.86l8.702-.428c.318 6.212.819 12.422.886 18.637.043 3.88-.569 7.767-.887 11.651zm-.993 50.033l-7.707-.414v-29.462l8.697-.427c.32 2.868.846 5.731.915 8.605.143 5.949.156 11.907-.046 17.852-.044 1.301-1.21 2.565-1.859 3.846zm-.008 49.964l-7.703-.357v-29.477l7.706-.459c.649.938 1.844 1.867 1.861 2.817.149 8.222.148 16.448 0 24.67-.017.946-1.214 1.871-1.864 2.806zm-.993 50.031l-6.71-.433v-29.413l7.699-.447c.653 1.257 1.841 2.502 1.871 3.774.178 7.555.034 15.118.122 22.676.026 2.226-.185 3.955-2.982 3.843zm-.007 49.968l-6.707-.371v-29.441l6.708-.472c.984 1.133 2.783 2.24 2.821 3.404a363.37 363.37 0 0 1 0 23.483c-.037 1.162-1.837 2.266-2.822 3.397zm-.996 50.021l-5.714-.437v-29.371l6.704-.468c2.973-.234 2.995 1.709 2.981 3.863-.051 7.488-.199 14.984.064 22.463.115 3.263-1.254 4.099-4.035 3.95zm-.004 49.978l-5.711-.399v-29.372l5.712-.505c2.783-.172 4.153.654 4.039 3.922a320.923 320.923 0 0 0 0 22.436c.113 3.266-1.255 4.094-4.04 3.918zm-.999 50.004l-4.719-.438v-29.326l5.711-.483c2.284-.002 4.113.09 4.032 3.382-.211 8.62-.071 17.249-.071 26.274l-4.953.591zm-.008 49.97l-4.716-.405v-29.31l4.723-.535 4.669.424v29.351l-4.676.475zm-.992 50.033c-2.729.124-4.237-.596-4.124-3.915.254-7.481.258-14.982-.002-22.463-.115-3.333 1.427-4.014 4.129-3.926l5.952.458v29.422l-5.955.424zm-3.966-660.971l10.01.965-.389 9.985c-9.891-.401-9.891-.401-9.621-10.95zm2.966 740.97c-4.017.064-3.008-2.929-3.007-5.142.001-2.211-1.015-5.207 3.006-5.141l6.645.37v9.455l-6.644.458z"/><path class="st1" d="M261.039 810.445c-10.39-3.012-19.951-7.538-27.058-15.986-3.284-3.904-5.996-8.29-8.967-12.457-1.336-7.217-3.56-14.401-3.841-21.659-.822-21.191 15.145-41.742 35.765-47.265 21.67-5.804 44.309 1.8 56.751 21.858.691 1.114 1.465 2.176 2.2 3.262 6.173 14.212 7.514 28.73.84 42.973-9 19.207-24.588 29.065-45.798 29.978l-9.892-.704z"/><path class="st0" d="M880.931 101.149v29.506h-9.892v-30.208c3.298.233 6.595.467 9.892.702zm-9.68 79.468v-29.142h9.413v29.142h-9.413zm.201 20.613h9.184v29.359h-9.184V201.23zm-.156 49.981h9.321v29.358h-9.321v-29.358zm.106 50.068h9.28v29.358h-9.28v-29.358zm.056 49.948h9.175v29.358h-9.175v-29.358zm9.285 50.256v29.176h-9.36v-29.176h9.36zm-.112 79.28h-9.17v-29.436h9.17v29.436zm-9.177 20.467h9.182v29.358h-9.182V501.23zm9.159 79.474h-9.312v-29.358h9.312v29.358zm-9.34 49.911v-29.229h9.28v29.229h-9.28zm9.326 50.104h-9.284v-29.358h9.284v29.358zm-9.241 20.505h9.197v29.461h-9.197v-29.461zm.011 50.013h9.17v29.436h-9.17v-29.436zm-.149 79.293v-29.149h9.36v29.149h-9.36zm9.349 50.169h-9.225v-29.308h9.225v29.308zm-9.168 70.582h9.284v29.358h-9.284v-29.358zm-.154-20.661v-29.149h9.419v29.149h-9.419zm619.503-179.237v19.142h-9.413v-19.142h9.413zm-9.767-92.229v-7.739h10.01v19.173h-10.01v-11.434zM260.991 863.074c1.562-.691 3.066-1.679 4.701-1.992 1.737-.333 3.598-.028 5.404-.001v19.566h-10.105v-17.573zm1220.366-61.851h9.199v19.462h-9.199v-19.462zm.02 100.083h9.331v19.358h-9.331v-19.358zm9.345-199.894v19.266h-9.358v-19.266h9.358zM270.783 911.348v19.212h-9.479v-19.212h9.479zm1210.507-60.13h9.335v19.358h-9.335v-19.358zm0 100h9.335v19.358h-9.335v-19.358zM261.251 980.617v-19.142h9.413v19.142h-9.413zm9.333 30.205h-9.168v-9.493h9.168v9.493zm600.615-.285v-9.143h9.494v9.143h-9.494zm619.432.182h-9.26v-9.259h9.26v9.259zm-9.592-410.274l9.892.703v19.512h-9.892v-20.215zm-1220 210l9.892.703v19.512h-9.892v-20.215z"/></svg>