<svg xmlns="http://www.w3.org/2000/svg" viewBox="0 0 180 240"><path d="M88 1h15c.367.296.701.793 1.105.859 23.641 3.843 44.522 29.187 41.035 59.608-1.009 8.8-4.368 17.312-6.391 26.017-3.398 14.622-9.381 27.826-21.064 37.682-3.015 2.544-3.273 4.894-2.409 8.205 3.691 14.152 14.631 22.654 30.462 23.546 16.122.908 28.77 10.75 33.617 26.11.43 1.362 1.092 2.651 1.647 3.973v53.952h-180C1 222.603 1 204.302 1 186c.332-.34.842-.625.969-1.029 5.662-17.976 17.757-27.144 36.707-28.36 15.071-.967 25.748-10.797 28.181-24.664.323-1.841-.525-4.71-1.884-5.893-11.128-9.684-17.584-21.982-21.057-36.068-.795-3.225-1.041-6.668-2.323-9.677-4.621-10.845-6.262-22.001-4.675-33.68 2.917-21.458 17.351-38.33 36.66-40.717C78.512 5.301 83.199 2.691 88 1zM11.969 229.797h157.772c0-14.073.961-27.92-.296-41.562-1.057-11.473-11.679-19.453-23.298-20.462-4.458-.387-8.997-.892-13.256-2.159-3.195-.951-4.759-.281-6.528 2.33-8.03 11.856-16.229 23.598-24.395 35.361-6.748 9.72-15.205 9.685-21.977-.081-8.16-11.768-16.346-23.518-24.404-35.356-1.607-2.361-2.983-3.222-6.083-2.376-4.777 1.303-9.792 1.849-14.743 2.369-11.63 1.222-22.034 10.752-22.638 22.422-.67 12.943-.154 25.946-.154 39.514zM69.094 57.322C63.803 64.26 58.833 70.645 54.057 77.17c-.773 1.056-1.137 2.81-.932 4.123 1.966 12.59 6.422 24.103 15.54 33.339 13.727 13.905 31.927 13.66 45.328-.593 10.159-10.804 14.278-24.14 15.699-38.532.86-8.713-3.401-13.478-12.246-13.552-10.149-.085-20.301-.157-30.447.024-6.657.12-12.952-.674-17.905-4.657zm-20.617 9.89c6.047-6.507 9.221-13.275 11.842-20.532.851-2.355 3.602-5.1 5.888-5.531 1.938-.366 5.262 1.82 6.554 3.801 2.77 4.247 6.155 6.165 11.14 6.084 8.985-.146 17.976.101 26.96-.082 8.422-.171 16.669-.011 23.435 6.505 1.457-8.407-1.635-19.761-7.394-28.211-10.954-16.071-29.248-21.458-46.906-13.854-1.509.65-3.111 1.299-4.72 1.465-9.921 1.02-17.066 6.32-22.004 14.602-6.427 10.78-7.668 22.439-4.795 35.753zm14.952 93.231l27.608 39.802 27.505-39.812-15.554-25.57h-23.95l-15.609 25.58z" fill="#a7a46e"/></svg>