<svg xmlns="http://www.w3.org/2000/svg" viewBox="0 0 164 158"><path d="M1 22v-9C9.567-.797 19.329-1.857 31.269 9.665a39024.477 39024.477 0 0 0 48.613 46.804c1.021.982 2.158 1.843 3.296 2.807 17.741-17.081 35.154-33.823 52.54-50.594C146.877-2.082 158.615.033 165 14v8c-4.37 4.692-8.562 9.565-13.143 14.042-13.311 13.01-26.767 25.872-40.195 38.761-2.012 1.931-4.185 3.694-7.456 6.563 2.295 1.583 3.964 2.433 5.259 3.673 15.363 14.714 30.749 29.405 45.934 44.301 3.574 3.506 6.42 7.754 9.601 11.66v8l-9 10h-14l-59.037-56.369L24 159H10l-9-11v-8c4.353-4.712 8.513-9.622 13.096-14.1 14.029-13.707 28.205-27.264 42.373-40.828 1.298-1.243 2.945-2.122 4.43-3.169l-2.343.499c-8.118-8.973-16.04-18.135-24.404-26.874C23.285 44.176 12.067 33.161 1 22z" fill="#ee452a"/></svg>