<svg xmlns="http://www.w3.org/2000/svg" viewBox="0 0 182 172"><path d="M1 88c5.361-6.151 9.388-7.195 16.84-2.914 4.988 2.865 9.747 6.468 13.811 10.537 9.16 9.174 17.824 18.843 26.432 28.036 27.417-32.653 54.758-65.226 82.118-97.784 3.213-3.823 6.2-7.923 9.877-11.248C155.441 9.777 161.333 5.513 167 1h6l10 11v8c-6.105 9.816-11.579 20.098-18.428 29.365a6696.633 6696.633 0 0 1-72.73 96.579C83.617 156.663 75.451 167.858 62 173h-8c-3.786-2.286-8.124-3.987-11.267-6.954-16.433-15.517-30.092-33.092-38.326-54.423C3.182 108.45 2.131 105.209 1 102V88z" fill="#c1dd1d"/></svg>