<svg xmlns="http://www.w3.org/2000/svg" viewBox="0 0 160 230"><path d="M52 1c7.26 2.626 11.978 7.776 15.402 14.598 4.853 9.669 10.286 19.045 15.187 28.691 6.201 12.205 2.84 23.184-8.982 30.346-4.273 2.588-8.485 5.293-12.879 7.658-2.514 1.353-3.245 3.067-2.551 5.677 6.477 24.385 17.599 46.256 34.891 64.833 2.03 2.181 3.658 2.696 6.352.872 4.403-2.982 9.057-5.621 13.734-8.167 11.246-6.122 21.283-3.501 27.536 7.76C147.762 166.01 154.255 179.075 161 192v10c-2.737 5.489-5.726 10.755-11.393 13.849-9.213 5.03-18.406 10.098-27.607 15.151h-13c-8.991-4.869-18.852-8.616-26.826-14.797-39.863-30.9-63.522-72.342-76.085-120.595C4.063 87.825 2.68 79.874 1 72V45c.673-2.143 1.48-4.255 1.997-6.435 2.351-9.913 7.085-18.212 16.104-23.476C27.337 10.282 35.696 5.688 44 1h8zM12.703 58.976c.408 4.683.528 10.711 1.508 16.595 7.818 46.913 28.114 87.433 62.554 120.519 9.156 8.797 19.073 16.629 31.271 21.018 6.496 2.337 12.706 2.116 18.665-1.525a2232.174 2232.174 0 0 0 16.58-10.205c6.317-3.937 7.526-8.066 4.039-14.721a1968.905 1968.905 0 0 0-16.271-30.361c-3.356-6.141-7.077-7.082-13.187-3.508-5.315 3.109-10.565 6.33-15.854 9.484-6.404 3.82-8.763 3.415-14.062-1.597-14.67-13.876-25.086-30.681-32.669-49.123-4.072-9.902-6.559-20.494-9.266-30.903-1.388-5.338 1.378-9.141 6.243-11.743 5.571-2.979 10.994-6.257 16.341-9.627 5.766-3.634 6.766-7.02 3.663-13.028a1401.159 1401.159 0 0 0-16.671-31.275c-3.217-5.86-7.487-6.894-13.354-3.517-4.038 2.324-7.789 5.232-12.001 7.148-10.888 4.953-15.891 13.656-16.967 25.087-.312 3.31-.341 6.647-.562 11.282z" fill="#a7a46d"/></svg>