<svg xmlns="http://www.w3.org/2000/svg" viewBox="0 0 194 154"><path d="M1 110V95c.36-1.37.933-2.722 1.049-4.112 2.117-25.329 12.07-47.149 29.09-65.929C40.46 14.673 51.962 7.497 64 1h2l17.889 26.169C73.056 32.893 64.011 40.09 57.271 49.832c-6.831 9.873-9.553 20.909-9.303 33.183 3.501 0 6.456-.084 9.404.016 8.573.29 15.854 3.352 21.326 10.174 17.062 21.272 8.116 52.191-17.609 60.912-.415.141-.728.582-1.089.883H34c-.505-.385-.952-.928-1.522-1.133-17.818-6.416-27.112-19.525-29.886-37.835-.31-2.045-1.051-4.023-1.592-6.032zm194 1v16c-3.134 5.754-5.271 12.48-9.675 16.995-4.649 4.767-11.459 7.425-17.325 11.005h-26c-.967-.573-1.875-1.3-2.909-1.695-16.095-6.147-25.473-18.087-27.951-34.755-5.063-34.053 3.149-64.613 25.702-91.045C146.622 16.041 158.863 7.954 172 1h2l17.804 26.048C169.777 39.409 155.522 56.295 156 83.004c2.635 0 4.756.008 6.877-.001 15.095-.066 25.172 7.177 29.97 21.545L195 111z" fill="#aba76a"/></svg>